/* XPM */
static char *MAP1010_xpm[] = {
/* columns rows colors chars-per-pixel */
"8 8 2 1 ",
"# c #D6428E",
"w c #F8F8F8",
/* pixels */
"wwwwwwww",
"########",
"########",
"########",
"########",
"########",
"########",
"wwwwwwww",
};
