/* XPM */
static char *rcp0742181502535[] = {
/* columns rows colors chars-per-pixel */
"8 8 27 1 ",
"  c #D34A8A",
". c #D4498B",
"X c #D5498B",
"o c #D44A8B",
"O c #D54A8B",
"+ c #D2498C",
"@ c #D2498D",
"# c #D24A8C",
"$ c #D4488C",
"% c #D5488C",
"& c #D4498C",
"* c #D5498C",
"= c #D5488D",
"- c #D4498D",
"; c #D5498D",
": c #D44A8C",
"> c #D54A8C",
", c #F8F8F8",
"< c #F9F8F8",
"1 c #F8F9F8",
"2 c #F8F8F9",
"3 c #F9F8F9",
"4 c #FAF8F8",
"5 c #F8FAF8",
"6 c #FAFAF9",
"7 c #F8F8FA",
"8 c #FAF9FA",
/* pixels */
",&@.&&&,",
",&&.&.&,",
",&&&.@ ,",
",&&@&&&,",
",&&&&&.,",
",&&&.@.,",
",&&&&&&,",
",,,,,,,,"
};
