/* XPM */
static char *rcp07415874493327[] = {
/* columns rows colors chars-per-pixel */
"8 8 29 1 ",
"  c #D4408C",
". c #D6408C",
"X c #D4428C",
"o c #D4438C",
"O c #D6428C",
"+ c #D6438D",
"@ c #D4408F",
"# c #D6408E",
"$ c #D7408E",
"% c #D6408F",
"& c #D6418F",
"* c #D4428E",
"= c #D5428E",
"- c #D4428F",
"; c #D6428E",
": c #D7428E",
"> c #D6438E",
", c #D7438E",
"< c #D6428F",
"1 c #D7428F",
"2 c #F8F8F8",
"3 c #F8F9F8",
"4 c #F9F8F9",
"5 c #FAF8F8",
"6 c #FAF8F9",
"7 c #F9FAF9",
"8 c #F9F8FA",
"9 c #F8F8FB",
"0 c #FBF8FA",
/* pixels */
"2,,,,,,2",
"2,,,,,,2",
"2,,,,,,2",
"2,,,,,,2",
"2,,,,,,2",
"2,,,,,,2",
"2,,,,,,9",
"2,,,,,,9"
};
