/* XPM */
static char *rcp08532288561783[] = {
/* columns rows colors chars-per-pixel */
"16 16 2 1 ",
"O c #D6428E",
"$ c #F8F8F8",
/* pixels */
"OOOOOOOOOOOOOO$$",
"OOOOOOOOOOOOOO$$",
"OOOOOOOOOOOOOO$$",
"OOOOOOOOOOOOOO$$",
"OOOOOOOOOOOOOO$$",
"OOOOOOOOOOOOOO$$",
"OOOOOOOOOOOOOO$$",
"OOOOOOOOOOOOOO$$",
"OOOOOOOOOOOOOO$$",
"OOOOOOOOOOOOOO$$",
"OOOOOOOOOOOOOO$$",
"OOOOOOOOOOOOOO$$",
"OOOOOOOOOOOOOO$$",
"OOOOOOOOOOOOOO$$",
"$$$$$$$$$$$$$$$$",
"$$$$$$$$$$$$$$$$",
};
