/* XPM */
static char *rcp08531019824348[] = {
/* columns rows colors chars-per-pixel */
"16 16 2 1 ",
"& c #D6428E",
": c #F8F8F8",
/* pixels */
"::&&&&&&&&&&&&&&",
"::&&&&&&&&&&&&&&",
"::&&&&&&&&&&&&&&",
"::&&&&&&&&&&&&&&",
"::&&&&&&&&&&&&&&",
"::&&&&&&&&&&&&&&",
"::&&&&&&&&&&&&&&",
"::&&&&&&&&&&&&&&",
"::&&&&&&&&&&&&&&",
"::&&&&&&&&&&&&&&",
"::&&&&&&&&&&&&&&",
"::&&&&&&&&&&&&&&",
"::&&&&&&&&&&&&&&",
"::&&&&&&&&&&&&&&",
"::&&&&&&&&&&&&&&",
"::&&&&&&&&&&&&&&",
};
