/* XPM */
static char *rcp07412500996816[] = {
/* columns rows colors chars-per-pixel */
"8 8 31 1 ",
"  c #D04E89",
". c #D14E89",
"X c #D04F89",
"o c #D14F89",
"O c #D24E89",
"+ c #D04E8A",
"@ c #D14F8A",
"# c #D04E8B",
"$ c #D04F8B",
"% c #D14F8B",
"& c #D34E8A",
"* c #D24F8A",
"= c #D34F8A",
"- c #D24E8B",
"; c #D34E8B",
": c #D24F8B",
"> c #D34F8B",
", c #D34F8C",
"< c #D05089",
"1 c #D0508A",
"2 c #D2508A",
"3 c #D2508B",
"4 c #D3508B",
"5 c #D3508C",
"6 c #F9F9F8",
"7 c #F9F8F9",
"8 c #FAF9F8",
"9 c #F9FAF8",
"0 c #FBFAF8",
"q c #F8F8FA",
"w c #F8FAFA",
/* pixels */
"w##2##2>",
"w2##,##2",
"w##2####",
"w2#2##2#",
"w#2#,###",
"w#####,2",
"w##5####",
"w##>####"
};
