/* XPM */
static char *rcp07415075936624[] = {
/* columns rows colors chars-per-pixel */
"8 8 22 1 ",
"  c #D6408C",
". c #D6428C",
"X c #D7428C",
"o c #D4408E",
"O c #D4408F",
"+ c #D6408E",
"@ c #D7408E",
"# c #D6418E",
"$ c #D4428E",
"% c #D5428E",
"& c #D6428E",
"* c #D7428E",
"= c #D6438E",
"- c #D7438E",
"; c #D6428F",
": c #D7428F",
"> c #D6438F",
", c #F8F8F8",
"< c #F9F8F8",
"1 c #F8F9F8",
"2 c #FAF8F8",
"3 c #FBFAF8",
/* pixels */
"&&&&&&&2",
"&&&&&&&2",
"&&&&&&&2",
"&&&&&&&2",
"&&&&&&&2",
"&&&&&&&2",
"&&&&&&&2",
"&&&&&&&2"
};
