/* XPM */
static char *a9a9a5af96a741fc98a161aaf6259be9HgUVe5cld4MJRhXw[] = {
/* columns rows colors chars-per-pixel */
"8 8 4 1 ",
"  c #D24F8B",
". c #D34F8C",
"X c #D3508B",
"o c #F8F8FA",
/* pixels */
"oooooooo",
"  XX   o",
"     XXo",
"     X o",
" XX .X o",
"       o",
"  X   Xo",
"oooooooo"
};
