/* XPM */
static char *_9306034f8fa4d04973983a2069fba74AUtJZEOSO7AhhShE[] = {
/* columns rows colors chars-per-pixel */
"8 8 5 1 ",
"  c #D2488A",
". c #D4498B",
"X c #D24A8C",
"o c #D4498C",
"O c #F8F8F8",
/* pixels */
"OOOOOOOO",
"oo ooooO",
"oXooXooO",
"oooXoooO",
"ooXooooO",
"o.oooooO",
"oooooXoO",
"oo X.XoO"
};
