/* XPM */
static char *dummy[]={
"64 64 12 1",
". c #000042",
"d c #003030",
"e c #006060",
"f c #006868",
"h c #008890",
"i c #00b0b8",
"g c #00b8a8",
"j c #00f0d0",
"# c #883000",
"a c #b88800",
"c c #e0e000",
"b c #f8f8f8",
"................................................................",
"................................................................",
"................................................................",
"................................................................",
"................................................................",
"................................................................",
"................................................................",
"................................................................",
"................................................................",
"................................................................",
"................................................................",
"................................................................",
"................................................................",
"................................................................",
"................................................................",
"................................................................",
"................................................................",
"................................................................",
"................................................................",
"................................................................",
"...............................##...............................",
"..............................#aa#..............................",
".............................#bbca#.............................",
".............................abbca#.............................",
".............................accca#.............................",
"...........................dd#aaa##dd...........................",
"..........................deef####feed..........................",
".........................deeggg##hhfeed.........................",
".......................##defgbbiihhhfed.........................",
"......................#aa#fhgbbjiihhhfed........................",
".....................#bbca#hijjjgihhhfed........................",
".....................abbca#hijjjgihhhfed........................",
".....................accca#hiiggiihhhfed........................",
".....................#aaa##hhiiiihhhffdd........................",
"......................####efhhhhhhhhfedd........................",
".......................##ddefhhhhhhfeed#........................",
".........................dddeffffffeddd#........................",
"..........................ddddeeeedddd##........................",
"...........................dddddddddd###........................",
".............................dddddd####.........................",
"....................................##..........................",
"................................................................",
"................................................................",
"................................................................",
"................................................................",
"................................................................",
"................................................................",
"................................................................",
"................................................................",
"................................................................",
"................................................................",
"................................................................",
"................................................................",
"................................................................",
"................................................................",
"................................................................",
"................................................................",
"................................................................",
"................................................................",
"................................................................",
"................................................................",
"................................................................",
"................................................................",
"................................................................"};
