/* XPM */
static char *dummy[]={
"64 64 11 1",
". c None",
"# c #003030",
"b c #006060",
"c c #006868",
"e c #008890",
"h c #00b0b8",
"d c #00b8a8",
"a c #883000",
"g c #b88800",
"i c #e0e000",
"f c #f8f8f8",
"................................................................",
"................................................................",
"................................................................",
"................................................................",
"................................................................",
"................................................................",
"................................................................",
"................................................................",
"................................................................",
"................................................................",
"................................................................",
"................................................................",
"................................................................",
"................................................................",
"................................................................",
"................................................................",
"................................................................",
"................................................................",
"................................................................",
"................................................................",
"................................................................",
"................................................................",
"................................................................",
"................................................................",
".............................######aa...........................",
"...........................##bbbbbb##a..........................",
"..........................#bbccccccbb#a.........................",
".........................#bbdddeeeecbb#.........................",
".........................#bcdffaaeeecb#.........................",
"........................#bcedfaggaeeecb#........................",
"........................#bcehaffigaeecb#........................",
"........................#bcehgffigaeecb#........................",
"........................#bcehgiiigaeecb#........................",
"........................##ceeagggaaecc##........................",
"........................##bceeaaaaeecb##........................",
".........................##bceeaaeecbb#.........................",
".........................###bccccccb###.........................",
".........................a####bbbb####..........................",
"..........................a##########...........................",
"...........................aa######.............................",
"................................................................",
"................................................................",
"................................................................",
"................................................................",
"................................................................",
"................................................................",
"................................................................",
"................................................................",
"................................................................",
"................................................................",
"................................................................",
"................................................................",
"................................................................",
"................................................................",
"................................................................",
"................................................................",
"................................................................",
"................................................................",
"................................................................",
"................................................................",
"................................................................",
"................................................................",
"................................................................",
"................................................................"};
