/* XPM */
static char *dummy[]={
"64 64 12 1",
". c None",
"b c #003030",
"d c #006060",
"e c #006868",
"g c #008890",
"i c #00b0b8",
"f c #00b8a8",
"j c #00f0d0",
"# c #883000",
"a c #b88800",
"c c #e0e000",
"h c #f8f8f8",
"................................................................",
"................................................................",
"................................................................",
"................................................................",
"................................................................",
"................................................................",
"................................................................",
"................................................................",
"................................................................",
"................................................................",
"................................................................",
"................................................................",
"................................................................",
"................................................................",
"................................................................",
"................................................................",
"................................................................",
"................................................................",
"................................................................",
"................................................................",
"................................................................",
"................................................................",
"................................................................",
"..........................##....................................",
".........................#aa#bbbbbb.............................",
"........................#acbbddddddbb...........................",
"........................#abddeeeeeeddb..........................",
"........................#bddfffggggeddb.........................",
"........................#bdefhhiigggedb##.......................",
"........................bdegfhhjiiggge#aa#......................",
"........................bdegijjjfiggg#hhca#.....................",
"........................bdegijjjfigggahhca#.....................",
"........................bdegiiffiigggaccca#.....................",
"........................bbeggiiiiggge#aaa##.....................",
"........................bbdegggggggged####......................",
".........................bbdeggggggeddb##.......................",
".........................bbbdee##eedbbb.........................",
"..........................bbbb#aa#bbbb..........................",
"...........................bb#hhca#bb...........................",
".............................ahhca#.............................",
".............................accca#.............................",
".............................#aaa##.............................",
"..............................####..............................",
"...............................##...............................",
"................................................................",
"................................................................",
"................................................................",
"................................................................",
"................................................................",
"................................................................",
"................................................................",
"................................................................",
"................................................................",
"................................................................",
"................................................................",
"................................................................",
"................................................................",
"................................................................",
"................................................................",
"................................................................",
"................................................................",
"................................................................",
"................................................................",
"................................................................"};
