/* XPM */
static char *atomic2_xpm[]={
"64 64 12 1",
". c None",
"c c #003030",
"d c #006060",
"e c #006868",
"g c #008890",
"i c #00b0b8",
"f c #00b8a8",
"j c #00f0d0",
"# c #883000",
"a c #b88800",
"b c #e0e000",
"h c #f8f8f8",
"................................................................",
"................................................................",
"................................................................",
"................................................................",
"................................................................",
"................................................................",
"................................................................",
"................................................................",
"................................................................",
"................................................................",
"................................................................",
"................................................................",
"................................................................",
"................................................................",
"................................................................",
"................................................................",
"................................................................",
"................................................................",
"................................................................",
"................................................................",
"...............................##...............................",
"..............................#aa#..............................",
".............................#abba#.............................",
".............................#abba#.............................",
".............................cccccc.............................",
"...........................ccddddddcc...........................",
"..........................cddeeeeeeddc..........................",
".........................cddfffggggeddc.........................",
".......................##cdefhhiigggedc.........................",
"......................#acdegfhhjiigggedc........................",
".....................#abcdegijjjfigggedc........................",
".....................#abcdegijjjfigggedc........................",
".....................##acdegiiffiig##edc........................",
".....................###cceggiiiig#aa#cc........................",
"......................##ccdeggggg#hhba#c........................",
".......................##ccdeggggahhba#.........................",
".........................cccdeeeeabbba#.........................",
"..........................ccccddd#aaa##.........................",
"...........................ccccccc####..........................",
".............................cccccc##...........................",
"................................................................",
"................................................................",
"................................................................",
"................................................................",
"................................................................",
"................................................................",
"................................................................",
"................................................................",
"................................................................",
"................................................................",
"................................................................",
"................................................................",
"................................................................",
"................................................................",
"................................................................",
"................................................................",
"................................................................",
"................................................................",
"................................................................",
"................................................................",
"................................................................",
"................................................................",
"................................................................",
"................................................................"};
