/* XPM */
static char *dummy[]={
"16 16 7 1",
". c #000042",
"# c #282828",
"c c #602800",
"b c #605850",
"a c #808078",
"d c #b8c8b8",
"e c #f8f8f8",
"..##..#aaa..####",
"###b##ab#ba##bb#",
"##b###b###b#b###",
"#caa###da###baa#",
"#ca###a##a##a###",
"#cdd#b#b####add#",
"#cd######ab#d###",
"#cee#bb#bda#dee#",
"#cee##b#ea##dee#",
"#cd####ea###d###",
"#cdd#bdab###add#",
"#ca##bab##b#a###",
"#caa########baa#",
"##b###bb##a#b###",
"###b#.#ada###bb#",
"..##...###..####"};
