/* XPM */
static char *dummy[]={
"16 16 7 1",
"# c None",
". c #282828",
"d c #602800",
"a c #605850",
"b c #808078",
"c c #b8c8b8",
"e c #f8f8f8",
"....##...###..##",
".aa...bcb.#.a...",
"...a.b..aa...a..",
".bba........bbd.",
"...b.a..aba..bd.",
".ccb...abca.ccd.",
"...c...be....cd.",
".eec..be.a..eed.",
".eec.bca.aa.eed.",
"...c.ab......cd.",
".ccb....a.a.ccd.",
"...b..b..b...bd.",
".bba...bc...bbd.",
"...a.a...a...a..",
".aa..ba.ab..a...",
"....##bbb.##..##"};
