/* XPM */
static const char *dummy[] = {
	"64 64 15 1",
	". c None",
	"j c #002860",
	"m c #003890",
	"k c #0068f8",
	"l c #00f8f8",
	"a c #080030",
	"c c #281050",
	"e c #303070",
	"i c #585890",
	"g c #8068a8",
	"h c #8080c0",
	"# c #883000",
	"b c #b88800",
	"f c #d0b8e0",
	"d c #f8f800",
	"................................................................",
	"................................................................",
	"................................................................",
	"................................................................",
	"................................................................",
	"................................................................",
	"................................................................",
	"................................................................",
	"................................................................",
	"................................................................",
	"................................................................",
	"................................................................",
	"................................................................",
	"................................................................",
	"................................................................",
	"................................................................",
	"................................................................",
	"................................................................",
	"................................................................",
	"................................................................",
	"................................................................",
	"................................................................",
	"................................................................",
	"................................................................",
	"................................................................",
	"................................................................",
	"................................................................",
	"................................................................",
	"................................................................",
	"................................................................",
	"................................................................",
	"................................................................",
	"................................................................",
	"................................................................",
	"................................................................",
	"................................................................",
	"................................................................",
	"................................................................",
	"................................................................",
	"................................................................",
	"................................................................",
	"................................................................",
	"................................................................",
	"................................................................",
	"................................................................",
	"................................................................",
	"................................................................",
	".................................#..............................",
	".........................aa.....#ba....ca.......................",
	".........................a##...abda...#da.......................",
	"..........................#dbc.adbeacbd#........................",
	"..........................abdcffeeffgcba........................",
	".......................aaaaccchfccfhcicaaaa.....................",
	"......................aabdbcfhfccccfhfi#bdba....................",
	".......................aa##ccfcagfacfcec#aa.....................",
	".........................ccficagfhgacifgc.......................",
	"........................aaahcaeeggeeacheaa......................",
	"......................acb#aicefgaagfeciea#ca....................",
	"......................ad#aceaaaaggaaaaecjkbd....................",
	"......................akj.acadb#aa#bdacajlaa....................",
	".......................kj.kjaea#aa#aea..kl......................",
	".......................mkjlj.haaaaahajk.jk......................",
	".......................aljkj.fhaaahfajl.aa......................",
	"........................kjaa.........jk........................."};
