/* XPM */
static char *dummy[]={
"128 64 2 1",
". c None",
"# c #aa1413",
".....................................................######################.....................................................",
"............................................########################################............................................",
".......................................##################################################.......................................",
"..................................############################################################..................................",
"..............................####################################################################..............................",
"...........................##########################################################################...........................",
"........................################################################################################........................",
".....................######################################################################################.....................",
"..................############################################################################################..................",
"................################################################################################################................",
".............######################################################################################################.............",
"...........##########################################################################################################...........",
".........##############################################################################################################.........",
".......##################################################################################################################.......",
".....######################################################################################################################.....",
"...##########################################################################################################################...",
".##############################################################################################################################.",
"################################################################################################################################",
"################################################################################################################################",
"################################################################################################################################",
"################################################################################################################################",
"################################################################################################################################",
"################################################################################################################################",
"################################################################################################################################",
"################################################################################################################################",
"################################################################################################################################",
"################################################################################################################################",
"################################################################################################################################",
"################################################################################################################################",
"################################################################################################################################",
"################################################################################################################################",
"################################################################################################################################",
"######################################################...................#######################################################",
"###############################################.................................################################################",
"##########################################...........................................###########################################",
"######################################...................................................#######################################",
"##################################...........................................................###################################",
"################################...............................................................#################################",
"#############################.....................................................................##############################",
"##########################...........................................................................###########################",
"########################...............................................................................#########################",
"######################...................................................................................#######################",
"####################.......................................................................................#####################",
"##################...........................................................................................###################",
"################...............................................................................................#################",
"##############...................................................................................................###############",
"#############.....................................................................................................##############",
"###########.........................................................................................................############",
"#########.............................................................................................................##########",
"########...............................................................................................................#########",
"#######.................................................................................................................########",
"#####.....................................................................................................................######",
"####.......................................................................................................................#####",
"###.........................................................................................................................####",
"#.............................................................................................................................##",
"...............................................................................................................................#",
"................................................................................................................................",
"................................................................................................................................",
"................................................................................................................................",
"................................................................................................................................",
"................................................................................................................................",
"................................................................................................................................",
"................................................................................................................................",
"................................................................................................................................"};
