/* XPM */
static char *dummy[]={
"96 96 2 1",
". c #000042",
"# c #aa1413",
"................................................................................................",
"................................................................................................",
"................................................................................................",
"................................................................................................",
"..............................................................................................##",
"...........................................................................................#####",
"........................................................................................########",
".....................................................................................###########",
"..................................................................................##############",
"................................................................................################",
".............................................................................###################",
"...........................................................................#####################",
".........................................................................#######################",
".......................................................................#########################",
".....................................................................###########################",
"...................................................................#############################",
".................................................................###############################",
"...............................................................#################################",
"..............................................................##################################",
"............................................................####################################",
"...........................................................#####################################",
".........................................................#######################################",
"........................................................########################################",
"......................................................##########################################",
".....................................................###########################################",
"...................................................#############################################",
"..................................................##############################################",
".................................................###############################################",
"................................................################################################",
"..............................................##################################################",
".............................................###################################################",
"............................................####################################################",
"...........................................#####################################################",
"..........................................######################################################",
".........................................#######################################################",
"........................................########################################################",
".......................................#########################################################",
".....................................###########################################################",
".....................................#########################################################..",
"....................................#######################################################.....",
"...................................######################################################.......",
"..................................#####################################################.........",
".................................####################################################...........",
"................................###################################################.............",
"...............................##################################################...............",
"..............................#################################################.................",
".............................#################################################..................",
".............................###############################################....................",
"............................##############################################......................",
"...........................##############################################.......................",
"..........................##############################################........................",
".........................#############################################..........................",
".........................############################################...........................",
"........................############################################............................",
".......................###########################################..............................",
".......................##########################################...............................",
"......................##########################################................................",
".....................##########################################.................................",
".....................#########################################..................................",
"....................#########################################...................................",
"...................#########################################....................................",
"...................########################################.....................................",
"..................########################################......................................",
".................########################################.......................................",
".................#######################################........................................",
"................#######################################.........................................",
"................######################################..........................................",
"...............#######################################..........................................",
"...............######################################...........................................",
"..............######################################............................................",
"..............#####################################.............................................",
".............######################################.............................................",
".............#####################################..............................................",
"............#####################################...............................................",
"............####################################................................................",
"...........#####################################................................................",
"...........####################################.................................................",
"..........#####################################.................................................",
"..........####################################..................................................",
"..........###################################...................................................",
".........####################################...................................................",
".........###################################....................................................",
"........####################################....................................................",
"........###################################.....................................................",
"........###################################.....................................................",
".......###################################......................................................",
".......###################################......................................................",
".......##################################.......................................................",
"......###################################.......................................................",
"......##################################........................................................",
"......##################################........................................................",
".....##################################.........................................................",
".....##################################.........................................................",
".....##################################.........................................................",
"....##################################..........................................................",
"....##################################.........................................................."};
