/* XPM */
static char *dmg3_xpm[]={
"96 96 2 1",
". c None",
"# c #aa1413",
"....##################################..........................................................",
"....##################################..........................................................",
".....##################################.........................................................",
".....##################################.........................................................",
".....##################################.........................................................",
"......##################################........................................................",
"......##################################........................................................",
"......###################################.......................................................",
".......##################################.......................................................",
".......###################################......................................................",
".......###################################......................................................",
"........###################################.....................................................",
"........###################################.....................................................",
"........####################################....................................................",
".........###################################....................................................",
".........####################################...................................................",
"..........###################################...................................................",
"..........####################################..................................................",
"..........#####################################.................................................",
"...........####################################.................................................",
"...........#####################################................................................",
"............####################################................................................",
"............#####################################...............................................",
".............#####################################..............................................",
".............######################################.............................................",
"..............#####################################.............................................",
"..............######################################............................................",
"...............######################################...........................................",
"...............#######################################..........................................",
"................######################################..........................................",
"................#######################################.........................................",
".................#######################################........................................",
".................########################################.......................................",
"..................########################################......................................",
"...................########################################.....................................",
"...................#########################################....................................",
"....................#########################################...................................",
".....................#########################################..................................",
".....................##########################################.................................",
"......................##########################################................................",
".......................##########################################...............................",
".......................###########################################..............................",
"........................############################################............................",
".........................############################################...........................",
".........................#############################################..........................",
"..........................##############################################........................",
"...........................##############################################.......................",
"............................##############################################......................",
".............................###############################################....................",
".............................#################################################..................",
"..............................#################################################.................",
"...............................##################################################...............",
"................................###################################################.............",
".................................####################################################...........",
"..................................#####################################################.........",
"...................................######################################################.......",
"....................................#######################################################.....",
".....................................#########################################################..",
".....................................###########################################################",
".......................................#########################################################",
"........................................########################################################",
".........................................#######################################################",
"..........................................######################################################",
"...........................................#####################################################",
"............................................####################################################",
".............................................###################################################",
"..............................................##################################################",
"................................................################################################",
".................................................###############################################",
"..................................................##############################################",
"...................................................#############################################",
".....................................................###########################################",
"......................................................##########################################",
"........................................................########################################",
".........................................................#######################################",
"...........................................................#####################################",
"............................................................####################################",
"..............................................................##################################",
"...............................................................#################################",
".................................................................###############################",
"...................................................................#############################",
".....................................................................###########################",
".......................................................................#########################",
".........................................................................#######################",
"...........................................................................#####################",
".............................................................................###################",
"................................................................................################",
"..................................................................................##############",
".....................................................................................###########",
"........................................................................................########",
"...........................................................................................#####",
"..............................................................................................##",
"................................................................................................",
"................................................................................................",
"................................................................................................",
"................................................................................................"};
