/* XPM */
static char *dummy[]={
"64 128 2 1",
". c None",
"# c #aa1413",
".........######################################.................",
"..........######################################................",
"..........######################################................",
"...........######################################...............",
"............#####################################...............",
".............#####################################..............",
".............#####################################..............",
"..............#####################################.............",
"...............####################################.............",
"................####################################............",
"................####################################............",
".................####################################...........",
".................####################################...........",
"..................####################################..........",
"...................###################################..........",
"...................###################################..........",
"....................###################################.........",
"....................###################################.........",
".....................###################################........",
".....................###################################........",
"......................##################################........",
"......................###################################.......",
".......................##################################.......",
".......................##################################.......",
"........................##################################......",
"........................##################################......",
".........................#################################......",
".........................##################################.....",
".........................##################################.....",
"..........................#################################.....",
"..........................##################################....",
"..........................##################################....",
"...........................#################################....",
"...........................#################################....",
"............................#################################...",
"............................#################################...",
"............................#################################...",
"............................#################################...",
".............................################################...",
".............................#################################..",
".............................#################################..",
".............................#################################..",
"..............................################################..",
"..............................################################..",
"..............................#################################.",
"..............................#################################.",
"..............................#################################.",
"...............................################################.",
"...............................################################.",
"...............................################################.",
"...............................################################.",
"...............................################################.",
"...............................################################.",
"...............................#################################",
"................................################################",
"................................################################",
"................................################################",
"................................################################",
"................................################################",
"................................################################",
"................................################################",
"................................################################",
"................................################################",
"................................################################",
"................................################################",
"................................################################",
"................................################################",
"................................################################",
"................................################################",
"................................################################",
"................................################################",
"................................################################",
"................................################################",
"...............................#################################",
"...............................#################################",
"...............................################################.",
"...............................################################.",
"...............................################################.",
"...............................################################.",
"...............................################################.",
"..............................#################################.",
"..............................#################################.",
"..............................#################################.",
"..............................#################################.",
"..............................################################..",
".............................#################################..",
".............................#################################..",
".............................#################################..",
".............................#################################..",
"............................#################################...",
"............................#################################...",
"............................#################################...",
"............................#################################...",
"...........................##################################...",
"...........................#################################....",
"..........................##################################....",
"..........................##################################....",
"..........................##################################....",
".........................##################################.....",
".........................##################################.....",
".........................##################################.....",
"........................##################################......",
"........................##################################......",
".......................###################################......",
".......................##################################.......",
"......................###################################.......",
"......................###################################.......",
".....................###################################........",
".....................###################################........",
"....................####################################........",
"....................###################################.........",
"...................####################################.........",
"...................###################################..........",
"..................####################################..........",
".................#####################################..........",
".................####################################...........",
"................#####################################...........",
"................####################################............",
"...............#####################################............",
"..............#####################################.............",
".............######################################.............",
".............#####################################..............",
"............######################################..............",
"...........######################################...............",
"..........#######################################...............",
"..........######################################................",
".........#######################################................",
"........#######################################................."};
