/* XPM */
static char *energy_4_xpm[]={
"16 16 3 1",
". c None",
"# c #283888",
"a c #f8f8f8",
"....##########..",
"....##########..",
"..####aaaaaa##..",
"..####aaaaaa##..",
"####aa##aaaa##..",
"####aa##aaaa##..",
"##aa####aaaa####",
"##aa####aaaa####",
"##aaaaaaaaaaaa##",
"##aaaaaaaaaaaa##",
"########aaaa####",
"########aaaa####",
"......########..",
"......########..",
"................",
"................"};
