/* XPM */
static char *dummy[]={
"16 16 3 1",
"a c None",
". c #283888",
"# c #f8f8f8",
"................",
"................",
"..############..",
"..############..",
"..........####..",
"..........####..",
"aaaa....####....",
"aaaa....####....",
"aaaa..####....aa",
"aaaa..####....aa",
"aaaa..####..aaaa",
"aaaa..####..aaaa",
"aaaa........aaaa",
"aaaa........aaaa",
"aaaaaaaaaaaaaaaa",
"aaaaaaaaaaaaaaaa"};
