/* XPM */
static char *energy_5_xpm[]={
"16 16 3 1",
"a c None",
". c #283888",
"# c #f8f8f8",
"................",
"................",
"..##########....",
"..##########....",
"..####........aa",
"..####........aa",
"..##########....",
"..##########....",
"..........####..",
"..........####..",
"..##########....",
"..##########....",
"..............aa",
"..............aa",
"aaaaaaaaaaaaaaaa",
"aaaaaaaaaaaaaaaa"};
