/* XPM */
static char *dummy[]={
"16 16 3 1",
". c #000042",
"a c #d83890",
"# c #f8f8f8",
"................",
"................",
"..############..",
"..############..",
"..##aaaaaaaaaa..",
"..##aaaaaaaaaa..",
"..##aaaaaaaaaa..",
"..##aaaaaaaaaa..",
"..##aaaaaaaaaa..",
"..##aaaaaaaaaa..",
"..##aaaaaaaaaa..",
"..##aaaaaaaaaa..",
"................",
"................",
"................",
"................"};
