/* XPM */
static char *dummy[]={
"64 14 3 1",
". c #000042",
"# c #283888",
"a c #f8f8f8",
"..########..##....##..########..######......######..##......##..",
"..########..##....##..########..######......######..##......##..",
"##aaaaaaaa##aa####aa##aaaaaaaa##aaaaaa##..##aaaaaa##aa##..##aa##",
"##aaaaaaaa##aa####aa##aaaaaaaa##aaaaaa##..##aaaaaa##aa##..##aa##",
"##aa########aaaa##aa##aa########aa####aa##aa######..##aa##aa##..",
"##aa########aaaa##aa##aa########aa####aa##aa######..##aa##aa##..",
"##aaaaaa####aa##aaaa##aaaaaa####aaaaaaaa##aa##aaaa##..##aa##....",
"##aaaaaa####aa##aaaa##aaaaaa####aaaaaaaa##aa##aaaa##..##aa##....",
"##aa########aa####aa##aa########aa##aa####aa####aa##..##aa##....",
"##aa########aa####aa##aa########aa##aa####aa####aa##..##aa##....",
"##aaaaaaaa##aa####aa##aaaaaaaa##aa####aa####aaaaaa##..##aa##....",
"##aaaaaaaa##aa####aa##aaaaaaaa##aa####aa####aaaaaa##..##aa##....",
"..########..##....##..########..##....##....######......##......",
"..########..##....##..########..##....##....######......##......"};
