/* XPM */
static char *dummy[]={
"64 64 10 1",
"d c #000000",
". c #000042",
"# c #182840",
"b c #505868",
"a c #602800",
"e c #708090",
"g c #a8c8d0",
"c c #b87000",
"f c #f8b000",
"h c #f8f8f8",
"................................................................",
"................................................................",
"................................................................",
"................................................................",
"................................................................",
"................................................................",
"................................................................",
"................................................................",
"................................................................",
"................................................................",
"................................................................",
"................................................................",
"................................................................",
"................................................................",
"................................................................",
"................................................................",
"................................................................",
"................................................................",
"................................................................",
"................................................................",
"................................................................",
"................................................................",
"................................................................",
"................................................................",
"................................................................",
"................................................................",
"................................................................",
"................................................................",
"................................................................",
"................................................................",
"................................................................",
"................................................................",
"....................####aaaaaaaaaaaaaaaa####....................",
"....................####aaaaaaaaaaaaaaaa####....................",
"..................##bb##cccccccccccccccc##bb##..................",
"..................##bb##cccccccccccccccc##bb##..................",
"................##bbbb##ccccccccccccddcc##bbbb##................",
"................##bbbb##ccccccccccccddcc##bbbb##................",
"................bbbbee##ffffccddddddddff##eebbbb................",
"................bbbbee##ffffccddddddddff##eebbbb................",
"................bbgggg##ffffccddccccccff##ggggbb................",
"................bbgggg##ffffccddccccccff##ggggbb................",
"................bbhhhh##hhhhccccccddgghh##hhhhbb................",
"................bbhhhh##hhhhccccccddgghh##hhhhbb................",
"................bbgggg##ggggccddddddeegg##ggggbb................",
"................bbgggg##ggggccddddddeegg##ggggbb................",
"................bbeeee##ffffccddccccccff##eeeebb................",
"................bbeeee##ffffccddccccccff##eeeebb................",
"................bbbbee##ffffccccccccddff##eebbbb................",
"................bbbbee##ffffccccccccddff##eebbbb................",
"................##bbbb##ccccddddddddddcc##bbbb##................",
"................##bbbb##ccccddddddddddcc##bbbb##................",
"..................##bbddaaaaaaaaaaaaaaaaddbb##..................",
"..................##bbddaaaaaaaaaaaaaaaaddbb##..................",
"....................########################....................",
"....................########################....................",
"........................####........####........................",
"........................####........####........................",
"........................eebb........eebb........................",
"........................eebb........eebb........................",
"..................####bbbbeegghhhhggeebbbb####..................",
"..................####bbbbeegghhhhggeebbbb####..................",
"..................####bbbbeegghhhhggeebbbb####..................",
"..................####bbbbeegghhhhggeebbbb####.................."};
