/* XPM */
static char *dummy[]={
"64 64 10 1",
"e c #000000",
". c None",
"# c #182840",
"b c #505868",
"a c #602800",
"f c #708090",
"h c #a8c8d0",
"c c #b87000",
"g c #f8b000",
"d c #f8f8f8",
"................................................................",
"................................................................",
"................................................................",
"................................................................",
"................................................................",
"................................................................",
"................................................................",
"................................................................",
"................................................................",
"................................................................",
"................................................................",
"................................................................",
"................................................................",
"................................................................",
"................................................................",
"................................................................",
"................................................................",
"................................................................",
"................................................................",
"................................................................",
"................................................................",
"................................................................",
"................................................................",
"................................................................",
"................................................................",
"................................................................",
"................................................................",
"................................................................",
"................................................................",
"................................................................",
"................................................................",
"................................................................",
"....................####aaaaaaaaaaaaaaaa####....................",
"....................####aaaaaaaaaaaaaaaa####....................",
"..................##bb##cccccccccccccccc##bb##..................",
"..................##bb##cccccccccccccccc##bb##..................",
"................##bbbb##ccccddddddddeecc##bbbb##................",
"................##bbbb##ccccddddddddeecc##bbbb##................",
"................bbbbff##ggggddeeeeeeeegg##ffbbbb................",
"................bbbbff##ggggddeeeeeeeegg##ffbbbb................",
"................bbhhhh##ggggddeeccccccgg##hhhhbb................",
"................bbhhhh##ggggddeeccccccgg##hhhhbb................",
"................bbdddd##ddddddddddeehhdd##ddddbb................",
"................bbdddd##ddddddddddeehhdd##ddddbb................",
"................bbhhhh##hhhhddeeeeeeffhh##hhhhbb................",
"................bbhhhh##hhhhddeeeeeeffhh##hhhhbb................",
"................bbffff##ggggddeeccccccgg##ffffbb................",
"................bbffff##ggggddeeccccccgg##ffffbb................",
"................bbbbff##ggggddddddddeegg##ffbbbb................",
"................bbbbff##ggggddddddddeegg##ffbbbb................",
"................##bbbb##cccceeeeeeeeeecc##bbbb##................",
"................##bbbb##cccceeeeeeeeeecc##bbbb##................",
"..................##bbeeaaaaaaaaaaaaaaaaeebb##..................",
"..................##bbeeaaaaaaaaaaaaaaaaeebb##..................",
"....................########################....................",
"....................########################....................",
"........................####........####........................",
"........................####........####........................",
"........................ffbb........ffbb........................",
"........................ffbb........ffbb........................",
"..................####bbbbffffddddffffbbbb####..................",
"..................####bbbbffffddddffffbbbb####..................",
"..................####bbbbffffddddffffbbbb####..................",
"..................####bbbbffffddddffffbbbb####.................."};
