/* XPM */
static char *dummy[]={
"64 64 5 1",
". c None",
"# c #984000",
"a c #b08000",
"c c #d0d0f8",
"b c #d8c800",
"................................................................",
"................................................................",
"................................................................",
"................................................................",
"................................................................",
"................................................................",
"................................................................",
"................................................................",
"................................................................",
"................................................................",
"................................................................",
"................................................................",
"................................................................",
"................................................................",
"................................................................",
"................................................................",
"................................................................",
"................................................................",
"................................................................",
"................................................................",
"................................................................",
"............................########............................",
"............................########............................",
"......................####aaaaaaaaaaaa##........................",
"......................####aaaaaaaaaaaa##........................",
"....................####aaaabbbbbbbbaaaa##......................",
"....................####aaaabbbbbbbbaaaa##......................",
"..................####aabbbbccccccccbbbbaa##....................",
"..................####aabbbbccccccccbbbbaa##....................",
"..................##aabbccccccccccccccbbaaaa##..................",
"..................##aabbccccccccccccccbbaaaa##..................",
"..................##aaccccccccccccaabbbbbbbbaa..................",
"..................##aaccccccccccccaabbbbbbbbaa..................",
"................##aabbccccccccccccbbbbccccbbbb##................",
"................##aabbccccccccccccbbbbccccbbbb##................",
"................##aabbccccccccccaabbccccccccbb##................",
"................##aabbccccccccccaabbccccccccbb##................",
"................##aabbccccccccccaabbccccccccbb##................",
"................##aabbccccccccccaabbccccccccbb##................",
"................##aabbccccccccccccbbbbccccbbbb##................",
"................##aabbccccccccccccbbbbccccbbbb##................",
"................####aabbaabbccccccaabbbbbbbbaa##................",
"................####aabbaabbccccccaabbbbbbbbaa##................",
"..................##bbccccbbbbccccccbbaaaa##....................",
"..................##bbccccbbbbccccccbbaaaa##....................",
"..................##bbccccbbaaccccccbbbbaa##....................",
"..................##bbccccbbaaccccccbbbbaa##....................",
"..................##aabbccbbaaaabbbbaaaa##......................",
"..................##aabbccbbaaaabbbbaaaa##......................",
"....................##aaaaaa####aaaa####........................",
"....................##aaaaaa####aaaa####........................",
"........................####....######..........................",
"........................####....######..........................",
"................................................................",
"................................................................",
"................................................................",
"................................................................",
"................................................................",
"................................................................",
"................................................................",
"................................................................",
"................................................................",
"................................................................",
"................................................................"};
