/* XPM */
static char *dummy[]={
"64 64 5 1",
". c #000042",
"# c #9c4200",
"a c #b58400",
"c c #d6d6ff",
"b c #dece00",
"................................................................",
"................................................................",
"................................................................",
"................................................................",
"................................................................",
"................................................................",
"................................................................",
"................................................................",
"................................................................",
"................................................................",
"................................................................",
"................................................................",
"................................................................",
"................................................................",
"................................................................",
"................................................................",
"................................................................",
"................................................................",
"................................................................",
"................................................................",
"................................................................",
"................................................................",
"................................................................",
"................................................................",
"................................................................",
"................................................................",
"................................................................",
"................................................................",
"................................................................",
"................................................................",
"................................................................",
"................................................................",
"................................................................",
"................................................................",
"................................................................",
"................................................................",
"................................................................",
"................................................................",
"................................................................",
"................................................................",
".............................##aa##.............................",
"...........................##aaaaaa##...........................",
"..........................##aabbbbaa##..........................",
"..........................#abbccccbba#..........................",
".........................#abccccccccba#.........................",
".........................#abccccccccba#.........................",
"........................#abccccccccccba#........................",
"........................#abccccccccccba#........................",
"........................#abccccccccccba#........................",
"........................#abccccccccccba#........................",
".........................#abccccccccba#.........................",
".........................#abccccccccba#.........................",
"..........................#abbccccbba#..........................",
"..........................##aabbbbaa##..........................",
"...........................##aaaaaa##...........................",
".............................##aa##.............................",
"................................................................",
"................................................................",
"................................................................",
"................................................................",
"................................................................",
"................................................................",
"................................................................",
"................................................................"};
