/* XPM */
static char *dummy[]={
"64 64 6 1",
". c #000042",
"a c #520063",
"# c #9c4200",
"c c #b58400",
"d c #d6d6ff",
"b c #dece00",
"................................................................",
"................................................................",
"................................................................",
"................................................................",
"................................................................",
"................................................................",
"................................................................",
"................................................................",
"................................................................",
"................................................................",
"................................................................",
"................................................................",
"................................................................",
"................................................................",
"................................................................",
"................................................................",
"................................................................",
"................................................................",
"................................................................",
"................................................................",
"................................................................",
"................................................................",
"................................................................",
"................................................................",
"................................................................",
"................................................................",
"................................................................",
"................................................................",
"................................................................",
"................................................................",
"................................................................",
"................................................................",
"................................................................",
"................................................................",
".........................#a.b#bccb#b.a#.........................",
".........................#b#cbbbbbbc#b#.........................",
"....................#a..a#cbbddddddbbc#a..a#....................",
"....................abb#ccbbddddddddbbcc#bba....................",
".....................abdbbddddddddddddbbdba.....................",
"....................bacddbddddddddddddbddcab....................",
".....................bcbddddbbccccbbddddbcb.....................",
".................aaaacbbdddbccbddbccbdddbbcaaaa.................",
"..................##cbbdddbcbddddddbcbdddbbc##..................",
"...................bdddddbcbddddddddbcbdddddb...................",
"...................#bddddbcddddddddddcbddddb#...................",
".................accbdddbcbddddddddddbcbdddbcca.................",
"..................acddddbcddddddddddddcbddddca..................",
"..................abddddccddddddddddddccddddba..................",
"..................abddddccddddddddddddccddddba..................",
"..................acddddbcddddddddddddcbddddca..................",
".................accbdddbcbddddddddddbcbdddbcca.................",
"...................#bddddbcddddddddddcbddddb#...................",
"...................bdddddbcbddddddddbcbdddddb...................",
"..................##cbbdddbcbddddddbcbdddbbc##..................",
".................aaaacbbdddbccbddbccbdddbbcaaaa.................",
".....................bcbddddbbccccbbddddbcb.....................",
"....................bacddbddddddddddddbddcab....................",
".....................abdbbddddddddddddbbdba.....................",
"....................abb#ccbbddddddddbbcc#bba....................",
"....................#a..a#cbbddddddbbc#a..a#....................",
".........................#b#cbbbbbbc#b#.........................",
".........................#a.b#bccb#b.a#.........................",
"..............................c##c..............................",
"................................................................"};
