/* XPM */
static char *explode_miss_big0_xpm[]={
"64 64 5 1",
". c None",
"# c #984000",
"a c #b08000",
"c c #d0d0f8",
"b c #d8c800",
"................................................................",
"................................................................",
"................................................................",
"................................................................",
"................................................................",
"................................................................",
"................................................................",
"................................................................",
"................................................................",
"................................................................",
"................................................................",
"................................................................",
"................................................................",
"................................................................",
"................................................................",
"................................................................",
"................................................................",
"................................................................",
"................................................................",
"................................................................",
"................................................................",
"................................................................",
"................................................................",
"................................................................",
"................................................................",
"................................................................",
"................................................................",
"................................................................",
"................................................................",
"............................##aaaa##............................",
"............................##aaaa##............................",
"..........................aabbbbbbbbaa..........................",
"..........................aabbbbbbbbaa..........................",
"........................##bbbbccccbbbb##........................",
"........................##bbbbccccbbbb##........................",
"........................aabbccccccccbbaa........................",
"........................aabbccccccccbbaa........................",
"........................aabbccccccccbbaa........................",
"........................aabbccccccccbbaa........................",
"........................##bbbbccccbbbb##........................",
"........................##bbbbccccbbbb##........................",
"..........................aabbbbbbbbaa..........................",
"..........................aabbbbbbbbaa..........................",
"............................##aaaa##............................",
"............................##aaaa##............................",
"................................................................",
"................................................................",
"................................................................",
"................................................................",
"................................................................",
"................................................................",
"................................................................",
"................................................................",
"................................................................",
"................................................................",
"................................................................",
"................................................................",
"................................................................",
"................................................................",
"................................................................",
"................................................................",
"................................................................",
"................................................................",
"................................................................"};
