/* XPM */
static char *explode_mid2_xpm[]={
"64 64 6 1",
". c None",
"# c #520063",
"a c #9c4200",
"b c #b58400",
"d c #d6d6ff",
"c c #dece00",
"................................................................",
"................................................................",
"................................................................",
"................................................................",
"................................................................",
"................................................................",
"................................................................",
"................................................................",
"................................................................",
"................................................................",
"................................................................",
"................................................................",
"................................................................",
"................................................................",
"................................................................",
"................................................................",
"................................................................",
"................................................................",
"................................................................",
"................................................................",
"............................#aaaaaa#............................",
"......................a...#abbbccbbba#...a......................",
".......................bcabbccddddccbbacb.......................",
".......................bccccddddddddccccb.......................",
".......................abcddddddddddddcba.......................",
"......................#bcddddddddddddddcb#......................",
"......................abcddddddddddddddcba......................",
".....................#bcddddddddddddddddcb#.....................",
".....................abcddddddddddddddddcba.....................",
".....................abddddddddddddddddddba.....................",
".....................acddddddddddddddddddca.....................",
".....................acddddddddddddddddddca.....................",
".....................acddddddddddddddddddca.....................",
".....................acddddddddddddddddddca.....................",
".....................abddddddddddddddddddba.....................",
".....................abcddddddddddddddddcba.....................",
".....................#bcddddddddddddddddcb#.....................",
"......................abcddddddddddddddcba......................",
"......................#bcddddddddddddddcb#......................",
".......................abcddddddddddddcba.......................",
".......................bccccddddddddccccb.......................",
".......................bcabbccddddccbbacb.......................",
"......................a...#abbbccbbba#...a......................",
"............................#aaaaaa#............................",
"................................................................",
"................................................................",
"................................................................",
"................................................................",
"................................................................",
"................................................................",
"................................................................",
"................................................................",
"................................................................",
"................................................................",
"................................................................",
"................................................................",
"................................................................",
"................................................................",
"................................................................",
"................................................................",
"................................................................",
"................................................................",
"................................................................",
"................................................................"};
