/* XPM */
static char *dummy[]={
"64 64 5 1",
". c None",
"b c #520063",
"c c #9c4200",
"a c #b58400",
"# c #dece00",
"................................................................",
"................................................................",
"................................................................",
"................................................................",
"................................................................",
"................................................................",
"................................................................",
"................................................................",
"................................................................",
"................................................................",
"................................................................",
"................................................................",
"................................................................",
"................................................................",
"................................................................",
"................................................................",
"..............................#..#..............................",
".......................a..abca#cc#acba..a.......................",
"...................bb...#bccaa####aaccb#...bb...................",
"...................bcabbc#a##########a#cbbacb...................",
"....................b##aa####aaaaaa####aa##b....................",
"..................a.ba#####aacabbacaa#####ab.a..................",
"...................#cca###acbbb..bbbca###acc#...................",
"....................aa###ccb..b..b..bcc###aa....................",
".................a.bc###abbb.cb..bc.bbba###cb.a.................",
"..................a#a##ccbbb........bbbcc##a#a..................",
"..................ba##abbbb..........bbbba##ab..................",
"..................c###cbb..b...cc...b..bbc###c..................",
".................aa##ab.....cccaaccc.....ba##aa.................",
".................ba##abbba..cacaacac..abbba##ab.................",
"................####abbbbb..ccaaaacc..bbbbba####................",
".................c###ab....caaaaaaaac....ba###c.................",
".................c###ab....caaaaaaaac....ba###c.................",
"................####abbbbb..ccaaaacc..bbbbba####................",
".................ba##abbba..cacaacac..abbba##ab.................",
".................aa##ab.....cccaaccc.....ba##aa.................",
"..................c###cbb..b...cc...b..bbc###c..................",
"..................ba##abbbb..........bbbba##ab..................",
"..................a#a##ccbbb........bbbcc##a#a..................",
".................a.bc###abbb.cb..bc.bbba###cb.a.................",
"....................aa###ccb..b..b..bcc###aa....................",
"...................#cca###acbbb..bbbca###acc#...................",
"..................a.ba#####aacabbacaa#####ab.a..................",
"....................b##aa####aaaaaa####aa##b....................",
"...................bcabbc#a##########a#cbbacb...................",
"...................bb...#bccaa####aaccb#...bb...................",
".......................a..abca#cc#acba..a.......................",
"..............................#..#..............................",
"................................................................",
"................................................................",
"................................................................",
"................................................................",
"................................................................",
"................................................................",
"................................................................",
"................................................................",
"................................................................",
"................................................................",
"................................................................",
"................................................................",
"................................................................",
"................................................................",
"................................................................",
"................................................................"};
