/* XPM */
static char *dummy[]={
"64 64 3 1",
". c #000042",
"a c #520063",
"# c #9c4200",
"................................................................",
"................................................................",
"................................................................",
"................................................................",
"................................................................",
"................................................................",
"................................................................",
"................................................................",
"................................................................",
"................................................................",
"................................................................",
"................................................................",
"................................................................",
"................................................................",
"................................................................",
"................................................................",
"................................................................",
"................................................................",
"................................................................",
"................................................................",
"................................................................",
"................................................................",
"................................................................",
"................................................................",
"................................................................",
"................................................................",
"................................................................",
"................................................................",
"................................................................",
"................................................................",
"................................................................",
"................................................................",
"..............................#..#..............................",
".......................a...a..#..#..a...a.......................",
".......................##a.#a..aa..a#.a##.......................",
"..................a..a.aa#a..a....a..a#aa.a..a..................",
"...................#a.#a#a#..........#a#a#.a#...................",
"....................#....aa..........aa....#....................",
"...................##a#...aa........aa...#a##...................",
"....................#aaa................aaa#....................",
".................#.aaa....................aaa.#.................",
"..................a#aaa..................aaa#a..................",
"..................a.#a........#..#........a#.a..................",
".....................aa..................aa.....................",
".................a#........a........a........#a.................",
".................a#..........#....#..........#a.................",
"................##aa......#....##....#......aa##................",
".................aa...........####...........aa.................",
".................aa...........####...........aa.................",
"................##aa......#....##....#......aa##................",
".................a#..........#....#..........#a.................",
".................a#........a........a........#a.................",
".....................aa..................aa.....................",
"..................a.#a........#..#........a#.a..................",
"..................a#aaa..................aaa#a..................",
".................#.aaa....................aaa.#.................",
"....................#aaa................aaa#....................",
"...................##a#...aa........aa...#a##...................",
"....................#....aa..........aa....#....................",
"...................#a.#a#a#..........#a#a#.a#...................",
"..................a..a.aa#a..a....a..a#aa.a..a..................",
".......................##a.#a..aa..a#.a##.......................",
".......................a...a..#..#..a...a.......................",
"..............................#..#.............................."};
