/* XPM */
static char *dummy[]={
"64 64 5 1",
". c None",
"# c #984000",
"a c #b08000",
"c c #d0d0f8",
"b c #d8c800",
"................................................................",
"................................................................",
"................................................................",
"................................................................",
"................................................................",
"................................................................",
"................................................................",
"................................................................",
"................................................................",
"................................................................",
"................................................................",
"................................................................",
"................................................................",
"................................................................",
"................................................................",
"................................................................",
"................................................................",
"................................................................",
"................................................................",
"................................................................",
"................................................................",
"..................................##aaaa##......................",
"..................................##aaaa##......................",
"....................########....##aabbbbaa##....................",
"....................########....##aabbbbaa##....................",
"..................##aabbbbaa####bbbbccccbbaa##..................",
"..................##aabbbbaa####bbbbccccbbaa##..................",
"................##aabbaaaaaaaaaabbccccccbbaa##..................",
"................##aabbaaaaaaaaaabbccccccbbaa##..................",
"................##bbaaaaaaaabbbbaaccbbbbbbaa##..................",
"................##bbaaaaaaaabbbbaaccbbbbbbaa##..................",
"................##bbaaaabbccccccccccaabbaa##....................",
"................##bbaaaabbccccccccccaabbaa##....................",
"................##aaaabbccccccccccccbbaaaaaa##..................",
"................##aaaabbccccccccccccbbaaaaaa##..................",
"................####aabbccccccccccccccbbbbaaaa##................",
"................####aabbccccccccccccccbbbbaaaa##................",
"..................####bbccccccccccccccbbccccaa##................",
"..................####bbccccccccccccccbbccccaa##................",
"..................##aaaabbccccccccccbbaabbbbaa##................",
"..................##aaaabbccccccccccbbaabbbbaa##................",
"................##aabbaabbbbccccccbbbbaaaaaa##..................",
"................##aabbaabbbbccccccbbbbaaaaaa##..................",
"................##aabbbbaaaaaabbbbaaaaaa########................",
"................##aabbbbaaaaaabbbbaaaaaa########................",
"..................##aaaa##aabbccccbbaaaa##aaaa##................",
"..................##aaaa##aabbccccbbaaaa##aaaa##................",
"..................########aabbccccbbaa####aa##..................",
"..................########aabbccccbbaa####aa##..................",
"......................######aabbbbaa########....................",
"......................######aabbbbaa########....................",
"............................##########..........................",
"............................##########..........................",
"................................................................",
"................................................................",
"................................................................",
"................................................................",
"................................................................",
"................................................................",
"................................................................",
"................................................................",
"................................................................",
"................................................................",
"................................................................"};
