/* XPM */
static char *dummy[]={
"64 64 5 1",
". c #000042",
"# c #984000",
"a c #b08000",
"c c #d0d0f8",
"b c #d8c800",
"................................................................",
"................................................................",
"................................................................",
"................................................................",
"................................................................",
"................................................................",
"................................................................",
"................................................................",
"................................................................",
"................................................................",
"................................................................",
"................................................................",
"................................................................",
"................................................................",
"................................................................",
"................................................................",
"................................................................",
"................................................................",
"................................................................",
"................................................................",
"................................................................",
"................................................................",
"................................................................",
"................................................................",
"................................................................",
"................................................................",
"................................................................",
"................................................................",
"................................................................",
".................................#aa#...........................",
"..........................####..#abba#..........................",
".........................#abba##bbccba#.........................",
"........................#abaaaaabcccba#.........................",
"........................#baaaabbacbbba#.........................",
"........................#baabcccccaba#..........................",
"........................#aabccccccbaaa#.........................",
"........................##abcccccccbbaa#........................",
".........................##bcccccccbcca#........................",
".........................#aabcccccbabba#........................",
"........................#ababbcccbbaaa#.........................",
"........................#abbaaabbaaa####........................",
".........................#aa#abccbaa#aa#........................",
".........................####abccba##a#.........................",
"...........................###abba####..........................",
"..............................#####.............................",
"................................................................",
"................................................................",
"................................................................",
"................................................................",
"................................................................",
"................................................................",
"................................................................",
"................................................................",
"................................................................",
"................................................................",
"................................................................",
"................................................................",
"................................................................",
"................................................................",
"................................................................",
"................................................................",
"................................................................",
"................................................................",
"................................................................"};
