/* XPM */
static const char *dummy[] = {
	"64 64 3 1",
	"# c #000000",
	". c #000010",
	"a c #001030",
	".##.....#.a.a####a#.##a##...a..#.##.....#.a.a####a#.##a##...a..#",
	"##..aa..###.a##..##.....#..aaa..##..aa..###.a##..##.....#..aaa..",
	"#..aaaa##..a##....##..a.#.aaaa..#..aaaa##..a##....##..a.#.aaaa..",
	"#..a.a.#....##..aa.#.aa.#..a.a..#..a.a.#....##..aa.#.aa.#..a.a..",
	"#.a.a.a#.aa.##.a.aa.#.a##.a.a...#.a.a.a#.aa.##.a.aa.#.a##.a.a...",
	"...a.a.#aaa.##..a.a.#..#...........a.a.#aaa.##..a.a.#..#........",
	"..aaa.#.aa.###.aaaaa...#######....aaa.#.aa.###.aaaaa...#######..",
	".aaa.###.a####.a.a.a...##....##..aaa.###.a####.a.a.a...##....##.",
	".#.a#####a#.#...a.a.####..aaa..#.#.a#####a#.#...a.a.####..aaa..#",
	"..#a####....##..aaa.#..#.aaaa.##..#a####....##..aaa.#..#.aaaa.##",
	"###a###..aa..###..a#.aa#.aaa..#.###a###..aa..###..a#.aa#.aaa..#.",
	"..#.###.aaa.#####a##aaa.#..a.##...#.###.aaa.#####a##aaa.#..a.##.",
	".a..###..a.###..#a#aaa..##.a##...a..###..a.###..#a#aaa..##.a##..",
	"aa...####.a##..aa##.aa#####a#..aaa...####.a##..aa##.aa#####a#..a",
	"a......##a##..aaa.#.#a...##.#.aaa......##a##..aaa.#.#a...##.#.aa",
	"..#..aa..a##..aa..###aaa..#..aaa..#..aa..a##..aa..###aaa..#..aaa",
	".##.aaaa...###aa.###.aaaa.#..aa..##.aaaa...###aa.###.aaaa.#..aa.",
	".#..aaaaa#...#.a###..aaaa.####a..#..aaaaa#...#.a###..aaaa.####a.",
	"##.aaaaaa#.aa##.##..a.aa.##.##a###.aaaaaa#.aa##.##..a.aa.##.##a#",
	"##.a.a.a.#.aa##.#..a.a.a.#.a..a###.a.a.a.#.aa##.#..a.a.a.#.a..a#",
	".#..a.a.a#.a##..#...a.aa##aa.##a.#..a.a.a#.a##..#...a.aa##aa.##a",
	".##a.a.a.#.a#aa.##.a.a.a#.aa##.a.##a.a.a.#.a#aa.##.a.a.a#.aa##.a",
	"a.#.a.a..###aa.###..a..a#..a#..aa.#.a.a..###aa.###..a..a#..a#..a",
	"aa.#..a.###.a..#####.a#.###a#.aaaa.#..a.###.a..#####.a#.###a#.aa",
	"aa.##.a####..a#######a#.###a.a.aaa.##.a####..a#######a#.###a.a.a",
	"aa.##########a###...#a#.###.a.aaaa.##########a###...#a#.###.a.aa",
	"a.#...a##.....###.a.#...###..a.aa.#...a##.....###.a.#...###..a.a",
	".##aa..#...aa.##.aa.#....##...aa.##aa..#...aa.##.aa.#....##...aa",
	"#.aaa..#..aaa.#..aa##.aa.###....#.aaa..#..aaa.#..aa##.aa.###....",
	"##.aa..#..aaaa##.a.#.aaa..###a#.##.aa..#..aaaa##.a.#.aaa..###a#.",
	".#..a###..a.aa##.a##.aaa.###.a#..#..a###..a.aa##.a##.aaa.###.a#.",
	"..##a..##a.a.a###a##..a.##.....#..##a..##a.a.a###a##..a.##.....#",
	".##.....#.a.a####a#.##a##...a..#.##.....#.a.a####a#.##a##...a..#",
	"##..aa..###.a##..##.....#..aaa..##..aa..###.a##..##.....#..aaa..",
	"#..aaaa##..a##....##..a.#.aaaa..#..aaaa##..a##....##..a.#.aaaa..",
	"#..a.a.#....##..aa.#.aa.#..a.a..#..a.a.#....##..aa.#.aa.#..a.a..",
	"#.a.a.a#.aa.##.a.aa.#.a##.a.a...#.a.a.a#.aa.##.a.aa.#.a##.a.a...",
	"...a.a.#aaa.##..a.a.#..#...........a.a.#aaa.##..a.a.#..#........",
	"..aaa.#.aa.###.aaaaa...#######....aaa.#.aa.###.aaaaa...#######..",
	".aaa.###.a####.a.a.a...##....##..aaa.###.a####.a.a.a...##....##.",
	".#.a#####a#.#...a.a.####..aaa..#.#.a#####a#.#...a.a.####..aaa..#",
	"..#a####....##..aaa.#..#.aaaa.##..#a####....##..aaa.#..#.aaaa.##",
	"###a###..aa..###..a#.aa#.aaa..#.###a###..aa..###..a#.aa#.aaa..#.",
	"..#.###.aaa.#####a##aaa.#..a.##...#.###.aaa.#####a##aaa.#..a.##.",
	".a..###..a.###..#a#aaa..##.a##...a..###..a.###..#a#aaa..##.a##..",
	"aa...####.a##..aa##.aa#####a#..aaa...####.a##..aa##.aa#####a#..a",
	"a......##a##..aaa.#.#a...##.#.aaa......##a##..aaa.#.#a...##.#.aa",
	"..#..aa..a##..aa..###aaa..#..aaa..#..aa..a##..aa..###aaa..#..aaa",
	".##.aaaa...###aa.###.aaaa.#..aa..##.aaaa...###aa.###.aaaa.#..aa.",
	".#..aaaaa#...#.a###..aaaa.####a..#..aaaaa#...#.a###..aaaa.####a.",
	"##.aaaaaa#.aa##.##..a.aa.##.##a###.aaaaaa#.aa##.##..a.aa.##.##a#",
	"##.a.a.a.#.aa##.#..a.a.a.#.a..a###.a.a.a.#.aa##.#..a.a.a.#.a..a#",
	".#..a.a.a#.a##..#...a.aa##aa.##a.#..a.a.a#.a##..#...a.aa##aa.##a",
	".##a.a.a.#.a#aa.##.a.a.a#.aa##.a.##a.a.a.#.a#aa.##.a.a.a#.aa##.a",
	"a.#.a.a..###aa.###..a..a#..a#..aa.#.a.a..###aa.###..a..a#..a#..a",
	"aa.#..a.###.a..#####.a#.###a#.aaaa.#..a.###.a..#####.a#.###a#.aa",
	"aa.##.a####..a#######a#.###a.a.aaa.##.a####..a#######a#.###a.a.a",
	"aa.##########a###...#a#.###.a.aaaa.##########a###...#a#.###.a.aa",
	"a.#...a##.....###.a.#...###..a.aa.#...a##.....###.a.#...###..a.a",
	".##aa..#...aa.##.aa.#....##...aa.##aa..#...aa.##.aa.#....##...aa",
	"#.aaa..#..aaa.#..aa##.aa.###....#.aaa..#..aaa.#..aa##.aa.###....",
	"##.aa..#..aaaa##.a.#.aaa..###a#.##.aa..#..aaaa##.a.#.aaa..###a#.",
	".#..a###..a.aa##.a##.aaa.###.a#..#..a###..a.aa##.a##.aaa.###.a#.",
	"..##a..##a.a.a###a##..a.##.....#..##a..##a.a.a###a##..a.##.....#"
};
