/* XPM */
static char *dummy[]={
"64 64 8 1",
"c c #000000",
". c #000828",
"a c #281828",
"# c #482038",
"b c #703040",
"d c #b01008",
"e c #b03008",
"f c #b06008",
"...#aaaaaa.aaaa.####.#.b.....c.....#aaaaaa.aaaa.####.#.b.....c..",
".....####aaaa##.bbde#d##....a........####aaaa##.bbde#d##....a...",
".a.ab#..###a###b..ccccc.#a.a.....a.ab#..###a###b..ccccc.#a.a....",
"aa.##bbd#####.#.cc.cccc..aaa..aaaa.##bbd#####.#.cc.cccc..aaa..aa",
"aa.cccc.d###.dd.accccaa.#aaa..aaaa.cccc.d###.dd.accccaa.#aaa..aa",
"##acccccd#deed#a.accaaa##a#.aaa###acccccd#deed#a.accaaa##a#.aaa#",
"#a..ccc.#ef.c.##.#aaaa.##aaaaa#d#a..ccc.#ef.c.##.#aaaa.##aaaaa#d",
"#a#.cc.c##.ccc.bb.#aa###aaa#aa#a#a#.cc.c##.ccc.bb.#aa###aaa#aa#a",
"a#..c..c#a.cccc..dd.###.ddaa##aaa#..c..c#a.cccc..dd.###.ddaa##aa",
"a.##..#..aaa.cc.a..#efed...aaaa.a.##..#..aaa.cc.a..#efed...aaaa.",
"..####b.#a##aaaaa.#.........a.....####b.#a##aaaaa.#.........a...",
"..b.#d....aaaaaaa#......a.aaa.....b.#d....aaaaaaa#......a.aaa...",
".#ddd.cccc.aaaaaa.#aa..aaaaab..a.#ddd.cccc.aaaaaa.#aa..aaaaab..a",
"##.c.ccccc.daaa#a.#.aaaaa##a...a##.c.ccccc.daaa#a.#.aaaaa##a...a",
".ccc.ccccc.aaaaaa.########aa..aa.ccc.ccccc.aaaaaa.########aa..aa",
"..ccc.c..a.a#aaa##b..#.##.a#aaa#..ccc.c..a.a#aaa##b..#.##.a#aaa#",
"#..c.ccaa..aaaa...ccccacaab.aaa##..c.ccaa..aaaa...ccccacaab.aaa#",
"#..ccaa.#.#.........ccc...#######..ccaa.#.#.........ccc...######",
"#..acca#.#........#.cc.....######..acca#.#........#.cc.....#####",
"#.aaaaa#.b.#aa....#.cc...##d#####.aaaaa#.b.#aa....#.cc...##d####",
"#aaaaa#.##b.#.aaaa#.c.######ed###aaaaa#.##b.#.aaaa#.c.######ed##",
"ad#aaa####d.######..c..b####.c..ad#aaa####d.######..c..b####.c..",
"a.#d####a.#ee##bed.....###..cc..a.#d####a.#ee##bed.....###..cc..",
"aa###.#.a...#edb.........#.cc...aa###.#.a...#edb.........#.cc...",
".a##.##aa..a.a...........#..c.#..a##.##aa..a.a...........#..c.#.",
".aadaaaa..aa.a#aaa.......b.......aadaaaa..aa.a#aaa.......b......",
"cccaa..#..a#aa.##aaaa.....##.#.#cccaa..#..a#aa.##aaaa.....##.#.#",
"ccc..a..#.#aab####aaa..aa.b###..ccc..a..#.#aab####aaa..aa.b###..",
".c...a.....ad.....daaa.aaa.edd.#.c...a.....ad.....daaa.aaa.edd.#",
".c.a.a#a.aaa..ccc..daaaa##b#...#.c.a.a#a.aaa..ccc..daaaa##b#...#",
"..aaaa#a.....cc..c.##.#.#.f....#..aaaa#a.....cc..c.##.#.#.f....#",
"..aaa#a#...........b####de.....#..aaa#a#...........b####de.....#",
"...#aaaaaa.aaaa.####.#.b.....c.....#aaaaaa.aaaa.####.#.b.....c..",
".....####aaaa##.bbde#d##....a........####aaaa##.bbde#d##....a...",
".a.ab#..###a###b..ccccc.#a.a.....a.ab#..###a###b..ccccc.#a.a....",
"aa.##bbd#####.#.cc.cccc..aaa..aaaa.##bbd#####.#.cc.cccc..aaa..aa",
"aa.cccc.d###.dd.accccaa.#aaa..aaaa.cccc.d###.dd.accccaa.#aaa..aa",
"##acccccd#deed#a.accaaa##a#.aaa###acccccd#deed#a.accaaa##a#.aaa#",
"#a..ccc.#ef.c.##.#aaaa.##aaaaa#d#a..ccc.#ef.c.##.#aaaa.##aaaaa#d",
"#a#.cc.c##.ccc.bb.#aa###aaa#aa#a#a#.cc.c##.ccc.bb.#aa###aaa#aa#a",
"a#..c..c#a.cccc..dd.###.ddaa##aaa#..c..c#a.cccc..dd.###.ddaa##aa",
"a.##..#..aaa.cc.a..#efed...aaaa.a.##..#..aaa.cc.a..#efed...aaaa.",
"..####b.#a##aaaaa.#.........a.....####b.#a##aaaaa.#.........a...",
"..b.#d....aaaaaaa#......a.aaa.....b.#d....aaaaaaa#......a.aaa...",
".#ddd.cccc.aaaaaa.#aa..aaaaab..a.#ddd.cccc.aaaaaa.#aa..aaaaab..a",
"##.c.ccccc.daaa#a.#.aaaaa##a...a##.c.ccccc.daaa#a.#.aaaaa##a...a",
".ccc.ccccc.aaaaaa.########aa..aa.ccc.ccccc.aaaaaa.########aa..aa",
"..ccc.c..a.a#aaa##b..#.##.a#aaa#..ccc.c..a.a#aaa##b..#.##.a#aaa#",
"#..c.ccaa..aaaa...ccccacaab.aaa##..c.ccaa..aaaa...ccccacaab.aaa#",
"#..ccaa.#.#.........ccc...#######..ccaa.#.#.........ccc...######",
"#..acca#.#........#.cc.....######..acca#.#........#.cc.....#####",
"#.aaaaa#.b.#aa....#.cc...##d#####.aaaaa#.b.#aa....#.cc...##d####",
"#aaaaa#.##b.#.aaaa#.c.######ed###aaaaa#.##b.#.aaaa#.c.######ed##",
"ad#aaa####d.######..c..b####.c..ad#aaa####d.######..c..b####.c..",
"a.#d####a.#ee##bed.....###..cc..a.#d####a.#ee##bed.....###..cc..",
"aa###.#.a...#edb.........#.cc...aa###.#.a...#edb.........#.cc...",
".a##.##aa..a.a...........#..c.#..a##.##aa..a.a...........#..c.#.",
".aadaaaa..aa.a#aaa.......b.......aadaaaa..aa.a#aaa.......b......",
"cccaa..#..a#aa.##aaaa.....##.#.#cccaa..#..a#aa.##aaaa.....##.#.#",
"ccc..a..#.#aab####aaa..aa.b###..ccc..a..#.#aab####aaa..aa.b###..",
".c...a.....ad.....daaa.aaa.edd.#.c...a.....ad.....daaa.aaa.edd.#",
".c.a.a#a.aaa..ccc..daaaa##b#...#.c.a.a#a.aaa..ccc..daaaa##b#...#",
"..aaaa#a.....cc..c.##.#.#.f....#..aaaa#a.....cc..c.##.#.#.f....#",
"..aaa#a#...........b####de.....#..aaa#a#...........b####de.....#"};
