/* XPM */
static const char *floor3_xpm[] = {
	"64 64 4 1",
	"a c #001810",
	". c #283050",
	"b c #404868",
	"# c #505878",
	"..#..a.b.aa.b.aa..#..a.b.aa.b.ab#b.aaa.b..aaaaab#b.aaa.b..aaaaab",
	"a.bb..aa.aaaa.aaa.bb..aa.aaaa.aabbbb.a.b#.aa..aabbbb.a.b#.aa..aa",
	"aa.b..aaaaaa.aaaaa.b..aaaaaa.aaa.bb..a.##..a.b.a.bb..a.##..a.b.a",
	".aa...aaa.aa...a.aa...aaa.aa...a.a..aaaab#ba.bb.aa..aaaab#ba.bb.",
	"a.aaa.a.aba..b..a.aaa.a.aba..b..aaaa..aa.b.a.#bb.aaa..aa.b.a.#bb",
	"a.b.aaabb.a.bb..a.b.aaabb.a.bb..aa..b.a..b.ab#b.aa..b.a..b.ab#b.",
	".b#b.a.bb.a.bb.a.b#b.a.bb.a.bb.aaa.b#.aa.ba.bb..aa.b#.aa.ba.bb..",
	"##b.a.bbbaa..a.b##b.a.bbbaa..a.a.b#baa.b.a.bb.aa.b#baa.b.a.bb.aa",
	"#b.aaa.b..aaaaab#b.aaa.b..aaaaaa..#..a.b.aa.b.aa..#..a.b.aa.b.aa",
	"bbbb.a.b#.aa..aabbbb.a.b#.aa..aaa.bb..aa.aaaa.aaa.bb..aa.aaaa.aa",
	".bb..a.##..a.b.a.bb..a.##..a.b.aaa.b..aaaaaa.aaaaa.b..aaaaaa.aaa",
	"aa..aaaab#ba.bb.aa..aaaab#ba.bb.aaa...aaa.aa...a.aa...aaa.aa...a",
	".aaa..aa.b.a.#bb.aaa..aa.b.a.#bb..aaa.a.aba..b..a.aaa.a.aba..b..",
	"aa..b.a..b.ab#b.aa..b.a..b.ab#b.a.b.aaabb.a.bb..a.b.aaabb.a.bb..",
	"aa.b#.aa.ba.bb..aa.b#.aa.ba.bb...b#b.a.bb.a.bb.a.b#b.a.bb.a.bb.a",
	".b#baa.b.a.bb.aa.b#baa.b.a.bb.ab##b.a.bbbaa..a.b##b.a.bbbaa..a.b",
	"#b.aaa.b..aaaaab#b.aaa.b..aaaaaa..#..a.b.aa.b.aa..#..a.b.aa.b.ab",
	"bbbb.a.b#.aa..aabbbb.a.b#.aa..aaa.bb..aa.aaaa.aaa.bb..aa.aaaa.aa",
	".bb..a.##..a.b.a.bb..a.##..a.b.aaa.b..aaaaaa.aaaaa.b..aaaaaa.aaa",
	".a..aaaab#ba.bb.aa..aaaab#ba.bb.aaa...aaa.aa...a.aa...aaa.aa...a",
	"aaaa..aa.b.a.#bb.aaa..aa.b.a.#bb..aaa.a.aba..b..a.aaa.a.aba..b..",
	"aa..b.a..b.ab#b.aa..b.a..b.ab#b.a.b.aaabb.a.bb..a.b.aaabb.a.bb..",
	"aa.b#.aa.ba.bb..aa.b#.aa.ba.bb...b#b.a.bb.a.bb.a.b#b.a.bb.a.bb.a",
	".b#baa.b.a.bb.aa.b#baa.b.a.bb.ab##b.a.bbbaa..a.b##b.a.bbbaa..a.a",
	"..#..a.b.aa.b.aa..#..a.b.aa.b.ab#b.aaa.b..aaaaab#b.aaa.b..aaaaaa",
	"a.bb..aa.aaaa.aaa.bb..aa.aaaa.aabbbb.a.b#.aa..aabbbb.a.b#.aa..aa",
	"aa.b..aaaaaa.aaaaa.b..aaaaaa.aaa.bb..a.##..a.b.a.bb..a.##..a.b.a",
	"aaa...aaa.aa...a.aa...aaa.aa...a.a..aaaab#ba.bb.aa..aaaab#ba.bb.",
	"..aaa.a.aba..b..a.aaa.a.aba..b..aaaa..aa.b.a.#bb.aaa..aa.b.a.#bb",
	"a.b.aaabb.a.bb..a.b.aaabb.a.bb..aa..b.a..b.ab#b.aa..b.a..b.ab#b.",
	".b#b.a.bb.a.bb.a.b#b.a.bb.a.bb.aaa.b#.aa.ba.bb..aa.b#.aa.ba.bb..",
	"##b.a.bbbaa..a.b##b.a.bbbaa..a.a.b#baa.b.a.bb.aa.b#baa.b.a.bb.ab",
	"..#..a.b.aa.b.ab#b.aaa.b..aaaaab#b.aaa.b..aaaaaa..#..a.b.aa.b.ab",
	"a.bb..aa.aaaa.aabbbb.a.b#.aa..aabbbb.a.b#.aa..aaa.bb..aa.aaaa.aa",
	"aa.b..aaaaaa.aaa.bb..a.##..a.b.a.bb..a.##..a.b.aaa.b..aaaaaa.aaa",
	"aaa...aaa.aa...a.a..aaaab#ba.bb.aa..aaaab#ba.bb.aaa...aaa.aa...a",
	"..aaa.a.aba..b..aaaa..aa.b.a.#bb.aaa..aa.b.a.#bb..aaa.a.aba..b..",
	"a.b.aaabb.a.bb..aa..b.a..b.ab#b.aa..b.a..b.ab#b.a.b.aaabb.a.bb..",
	".b#b.a.bb.a.bb.aaa.b#.aa.ba.bb..aa.b#.aa.ba.bb...b#b.a.bb.a.bb.a",
	"##b.a.bbbaa..a.a.b#baa.b.a.bb.aa.b#baa.b.a.bb.ab##b.a.bbbaa..a.a",
	"#b.aaa.b..aaaaaa..#..a.b.aa.b.aa..#..a.b.aa.b.ab#b.aaa.b..aaaaaa",
	"bbbb.a.b#.aa..aaa.bb..aa.aaaa.aaa.bb..aa.aaaa.aabbbb.a.b#.aa..aa",
	".bb..a.##..a.b.aaa.b..aaaaaa.aaaaa.b..aaaaaa.aaa.bb..a.##..a.b.a",
	".a..aaaab#ba.bb.aaa...aaa.aa...a.aa...aaa.aa...a.a..aaaab#ba.bb.",
	"aaaa..aa.b.a.#bb..aaa.a.aba..b..a.aaa.a.aba..b..aaaa..aa.b.a.#bb",
	"aa..b.a..b.ab#b.a.b.aaabb.a.bb..a.b.aaabb.a.bb..aa..b.a..b.ab#b.",
	"aa.b#.aa.ba.bb...b#b.a.bb.a.bb.a.b#b.a.bb.a.bb.aaa.b#.aa.ba.bb..",
	".b#baa.b.a.bb.ab##b.a.bbbaa..a.b##b.a.bbbaa..a.a.b#baa.b.a.bb.ab",
	"#b.aaa.b..aaaaaa..#..a.b.aa.b.ab#b.aaa.b..aaaaab#b.aaa.b..aaaaab",
	"bbbb.a.b#.aa..aaa.bb..aa.aaaa.aabbbb.a.b#.aa..aabbbb.a.b#.aa..aa",
	".bb..a.##..a.b.aaa.b..aaaaaa.aaa.bb..a.##..a.b.a.bb..a.##..a.b.a",
	"aa..aaaab#ba.bb.aaa...aaa.aa...a.a..aaaab#ba.bb.aa..aaaab#ba.bb.",
	".aaa..aa.b.a.#bb..aaa.a.aba..b..aaaa..aa.b.a.#bb.aaa..aa.b.a.#bb",
	"aa..b.a..b.ab#b.a.b.aaabb.a.bb..aa..b.a..b.ab#b.aa..b.a..b.ab#b.",
	"aa.b#.aa.ba.bb...b#b.a.bb.a.bb.aaa.b#.aa.ba.bb..aa.b#.aa.ba.bb..",
	".b#baa.b.a.bb.ab##b.a.bbbaa..a.a.b#baa.b.a.bb.aa.b#baa.b.a.bb.aa",
	"..#..a.b.aa.b.ab#b.aaa.b..aaaaaa..#..a.b.aa.b.aa..#..a.b.aa.b.aa",
	"a.bb..aa.aaaa.aabbbb.a.b#.aa..aaa.bb..aa.aaaa.aaa.bb..aa.aaaa.aa",
	"aa.b..aaaaaa.aaa.bb..a.##..a.b.aaa.b..aaaaaa.aaaaa.b..aaaaaa.aaa",
	".aa...aaa.aa...a.a..aaaab#ba.bb.aaa...aaa.aa...a.aa...aaa.aa...a",
	"a.aaa.a.aba..b..aaaa..aa.b.a.#bb..aaa.a.aba..b..a.aaa.a.aba..b..",
	"a.b.aaabb.a.bb..aa..b.a..b.ab#b.a.b.aaabb.a.bb..a.b.aaabb.a.bb..",
	".b#b.a.bb.a.bb.aaa.b#.aa.ba.bb...b#b.a.bb.a.bb.a.b#b.a.bb.a.bb.a",
	"##b.a.bbbaa..a.a.b#baa.b.a.bb.ab##b.a.bbbaa..a.b##b.a.bbbaa..a.b"
};
