/* XPM */
static char *dummy[]={
"64 64 4 1",
"a c #000000",
"# c #200010",
". c #401018",
"b c #601820",
"..#aa#......##a#..#aa#......##a#..#aa#......##a#..#aa#......##a#",
"##.##..####..#a###.##..####..#a###.##..####..#a###.##..####..#a#",
"##....#aaa##b#a###....#aaa##b#a###....#aaa##b#a###....#aaa##b#a#",
"a##b.##aa##..###a##b.##aa##..###a##b.##aa##..###a##b.##aa##..###",
"###.bb####..b...###.bb####..b...###.bb####..b...###.bb####..b...",
"...#...#..##..#a...#...#..##..#a...#...#..##..#a...#...#..##..#a",
"###aa#...####.#a###aa#...####.#a###aa#...####.#a###aa#...####.#a",
"##aaa###b#aa#.####aaa###b#aa#.####aaa###b#aa#.####aaa###b#aa#.##",
"##aaaa#..#aa##..##aaaa#..#aa##..##aaaa#..#aa##..##aaaa#..#aa##..",
".#aaaa#.##aa#.##.#aaaa#.##aa#.##.#aaaa#.##aa#.##.#aaaa#.##aa#.##",
".#####...####.aa.#####...####.aa.#####...####.aa.#####...####.aa",
".b##...#..##.#aa.b##...#..##.#aa.b##...#..##.#aa.b##...#..##.#aa",
"#...#.####.b.#aa#...#.####.b.#aa#...#.####.b.#aa#...#.####.b.#aa",
"aaa##b#aa###..##aaa##b#aa###..##aaa##b#aa###..##aaa##b#aa###..##",
"aaa##b#aaaa##.##aaa##b#aaaa##.##aaa##b#aaaa##.##aaa##b#aaaa##.##",
"##....#aaa##....##....#aaa##....##....#aaa##....##....#aaa##....",
"..#aa#......##a#..#aa#......##a#..#aa#......##a#..#aa#......##a#",
"##.##..####..#a###.##..####..#a###.##..####..#a###.##..####..#a#",
"##....#aaa##b#a###....#aaa##b#a###....#aaa##b#a###....#aaa##b#a#",
"a##b.##aa##..###a##b.##aa##..###a##b.##aa##..###a##b.##aa##..###",
"###.bb####..b...###.bb####..b...###.bb####..b...###.bb####..b...",
"...#...#..##..#a...#...#..##..#a...#...#..##..#a...#...#..##..#a",
"###aa#...####.#a###aa#...####.#a###aa#...####.#a###aa#...####.#a",
"##aaa###b#aa#.####aaa###b#aa#.####aaa###b#aa#.####aaa###b#aa#.##",
"##aaaa#..#aa##..##aaaa#..#aa##..##aaaa#..#aa##..##aaaa#..#aa##..",
".#aaaa#.##aa#.##.#aaaa#.##aa#.##.#aaaa#.##aa#.##.#aaaa#.##aa#.##",
".#####...####.aa.#####...####.aa.#####...####.aa.#####...####.aa",
".b##...#..##.#aa.b##...#..##.#aa.b##...#..##.#aa.b##...#..##.#aa",
"#...#.####.b.#aa#...#.####.b.#aa#...#.####.b.#aa#...#.####.b.#aa",
"aaa##b#aa###..##aaa##b#aa###..##aaa##b#aa###..##aaa##b#aa###..##",
"aaa##b#aaaa##.##aaa##b#aaaa##.##aaa##b#aaaa##.##aaa##b#aaaa##.##",
"##....#aaa##....##....#aaa##....##....#aaa##....##....#aaa##....",
"..#aa#......##a#..#aa#......##a#..#aa#......##a#..#aa#......##a#",
"##.##..####..#a###.##..####..#a###.##..####..#a###.##..####..#a#",
"##....#aaa##b#a###....#aaa##b#a###....#aaa##b#a###....#aaa##b#a#",
"a##b.##aa##..###a##b.##aa##..###a##b.##aa##..###a##b.##aa##..###",
"###.bb####..b...###.bb####..b...###.bb####..b...###.bb####..b...",
"...#...#..##..#a...#...#..##..#a...#...#..##..#a...#...#..##..#a",
"###aa#...####.#a###aa#...####.#a###aa#...####.#a###aa#...####.#a",
"##aaa###b#aa#.####aaa###b#aa#.####aaa###b#aa#.####aaa###b#aa#.##",
"##aaaa#..#aa##..##aaaa#..#aa##..##aaaa#..#aa##..##aaaa#..#aa##..",
".#aaaa#.##aa#.##.#aaaa#.##aa#.##.#aaaa#.##aa#.##.#aaaa#.##aa#.##",
".#####...####.aa.#####...####.aa.#####...####.aa.#####...####.aa",
".b##...#..##.#aa.b##...#..##.#aa.b##...#..##.#aa.b##...#..##.#aa",
"#...#.####.b.#aa#...#.####.b.#aa#...#.####.b.#aa#...#.####.b.#aa",
"aaa##b#aa###..##aaa##b#aa###..##aaa##b#aa###..##aaa##b#aa###..##",
"aaa##b#aaaa##.##aaa##b#aaaa##.##aaa##b#aaaa##.##aaa##b#aaaa##.##",
"##....#aaa##....##....#aaa##....##....#aaa##....##....#aaa##....",
"..#aa#......##a#..#aa#......##a#..#aa#......##a#..#aa#......##a#",
"##.##..####..#a###.##..####..#a###.##..####..#a###.##..####..#a#",
"##....#aaa##b#a###....#aaa##b#a###....#aaa##b#a###....#aaa##b#a#",
"a##b.##aa##..###a##b.##aa##..###a##b.##aa##..###a##b.##aa##..###",
"###.bb####..b...###.bb####..b...###.bb####..b...###.bb####..b...",
"...#...#..##..#a...#...#..##..#a...#...#..##..#a...#...#..##..#a",
"###aa#...####.#a###aa#...####.#a###aa#...####.#a###aa#...####.#a",
"##aaa###b#aa#.####aaa###b#aa#.####aaa###b#aa#.####aaa###b#aa#.##",
"##aaaa#..#aa##..##aaaa#..#aa##..##aaaa#..#aa##..##aaaa#..#aa##..",
".#aaaa#.##aa#.##.#aaaa#.##aa#.##.#aaaa#.##aa#.##.#aaaa#.##aa#.##",
".#####...####.aa.#####...####.aa.#####...####.aa.#####...####.aa",
".b##...#..##.#aa.b##...#..##.#aa.b##...#..##.#aa.b##...#..##.#aa",
"#...#.####.b.#aa#...#.####.b.#aa#...#.####.b.#aa#...#.####.b.#aa",
"aaa##b#aa###..##aaa##b#aa###..##aaa##b#aa###..##aaa##b#aa###..##",
"aaa##b#aaaa##.##aaa##b#aaaa##.##aaa##b#aaaa##.##aaa##b#aaaa##.##",
"##....#aaa##....##....#aaa##....##....#aaa##....##....#aaa##...."};
