/* XPM */
static char *floor5_xpm[]={
"64 64 5 1",
"c c #000000",
". c #000820",
"a c #201820",
"# c #402030",
"b c #703040",
"...#aaaaaa.aaaa.####.#.b.....c.....#aaaaaa.aaaa.####.#.b.....c..",
".....####aaaa##.bbbb####....a........####aaaa##.bbbb####....a...",
".a.ab#..###a###b..ccccc.#a.a.....a.ab#..###a###b..ccccc.#a.a....",
"aa.##bbb#####.#.cc.cccc..aaa..aaaa.##bbb#####.#.cc.cccc..aaa..aa",
"aa.cccc.b###.bb.accccaa.#aaa..aaaa.cccc.b###.bb.accccaa.#aaa..aa",
"##acccccb#bbbb#a.accaaa##a#.aaa###acccccb#bbbb#a.accaaa##a#.aaa#",
"#a..ccc.#bb.c.##.#aaaa.##aaaaa###a..ccc.#bb.c.##.#aaaa.##aaaaa##",
"#a#.cc.c##.ccc.bb.#aa###aaa#aa#a#a#.cc.c##.ccc.bb.#aa###aaa#aa#a",
"a#..c..c#a.cccc..bb.###.bbaa##aaa#..c..c#a.cccc..bb.###.bbaa##aa",
"a.##..#..aaa.cc.a..#bbbb...aaaa.a.##..#..aaa.cc.a..#bbbb...aaaa.",
"..####b.#a##aaaaa.#.........a.....####b.#a##aaaaa.#.........a...",
"..b.#b....aaaaaaa#......a.aaa.....b.#b....aaaaaaa#......a.aaa...",
".#bbb.cccc.aaaaaa.#aa..aaaaab..a.#bbb.cccc.aaaaaa.#aa..aaaaab..a",
"##.c.ccccc.#aaa#a.#.aaaaa##a...a##.c.ccccc.#aaa#a.#.aaaaa##a...a",
".ccc.ccccc.aaaaaa.########aa..aa.ccc.ccccc.aaaaaa.########aa..aa",
"..ccc.c..a.a#aaa##b..#.##.a#aaa#..ccc.c..a.a#aaa##b..#.##.a#aaa#",
"#..c.ccaa..aaaa...ccccacaab.aaa##..c.ccaa..aaaa...ccccacaab.aaa#",
"#..ccaa.#.#.........ccc...#######..ccaa.#.#.........ccc...######",
"#..acca#.#........#.cc.....######..acca#.#........#.cc.....#####",
"#.aaaaa#.b.#aa....#.cc...##b#####.aaaaa#.b.#aa....#.cc...##b####",
"#aaaaa#.##b.#.aaaa#.c.######bb###aaaaa#.##b.#.aaaa#.c.######bb##",
"a##aaa####b.######..c..b####.c..a##aaa####b.######..c..b####.c..",
"a.######a.#bb##bbb.....###..cc..a.######a.#bb##bbb.....###..cc..",
"aa###.#.a...#bbb.........#.cc...aa###.#.a...#bbb.........#.cc...",
".a##.##aa..a.a...........#..c.#..a##.##aa..a.a...........#..c.#.",
".aabaaaa..aa.a#aaa.......b.......aabaaaa..aa.a#aaa.......b......",
"cccaa..#..a#aa.##aaaa.....##.#.#cccaa..#..a#aa.##aaaa.....##.#.#",
"ccc..a..#.#aab####aaa..aa.b###..ccc..a..#.#aab####aaa..aa.b###..",
".c...a.....ab.....baaa.aaa.bbb.#.c...a.....ab.....baaa.aaa.bbb.#",
".c.a.a#a.aaa..ccc..baaaa##b#...#.c.a.a#a.aaa..ccc..baaaa##b#...#",
"..aaaa#a.....cc..c.##.#.#.b....#..aaaa#a.....cc..c.##.#.#.b....#",
"..aaa#a#...........b####bb.....#..aaa#a#...........b####bb.....#",
"####.#.b.....c.....#aaaaaa.aaaa.####.#.b.....c.....#aaaaaa.aaaa.",
"bbbb####....a........####aaaa##.bbbb####....a........####aaaa##.",
"..ccccc.#a.a.....a.ab#..###a###b..ccccc.#a.a.....a.ab#..###a###b",
"cc.cccc..aaa..aaaa.##bbb#####.#.cc.cccc..aaa..aaaa.##bbb#####.#.",
"accccaa.#aaa..aaaa.cccc.b###.bb.accccaa.#aaa..aaaa.cccc.b###.bb.",
".accaaa##a#.aaa###acccccb#bbbb#a.accaaa##a#.aaa###acccccb#bbbb#a",
".#aaaa.##aaaaa###a..ccc.#bb.c.##.#aaaa.##aaaaa###a..ccc.#bb.c.##",
"b.#aa###aaa#aa#a#a#.cc.c##.ccc.bb.#aa###aaa#aa#a#a#.cc.c##.ccc.b",
".bb.###.bbaa##aaa#..c..c#a.cccc..bb.###.bbaa##aaa#..c..c#a.cccc.",
"a..#bbbb...aaaa.a.##..#..aaa.cc.a..#bbbb...aaaa.a.##..#..aaa.cc.",
"a.#.........a.....####b.#a##aaaaa.#.........a.....####b.#a##aaaa",
"a#......a.aaa.....b.#b....aaaaaaa#......a.aaa.....b.#b....aaaaaa",
"a.#aa..aaaaab..a.#bbb.cccc.aaaaaa.#aa..aaaaab..a.#bbb.cccc.aaaaa",
"a.#.aaaaa##a...a##.c.ccccc.#aaa#a.#.aaaaa##a...a##.c.ccccc.#aaa#",
"a.########aa..aa.ccc.ccccc.aaaaaa.########aa..aa.ccc.ccccc.aaaaa",
"##b..#.##.a#aaa#..ccc.c..a.a#aaa##b..#.##.a#aaa#..ccc.c..a.a#aaa",
"..ccccacaab.aaa##..c.ccaa..aaaa...ccccacaab.aaa##..c.ccaa..aaaa.",
"....ccc...#######..ccaa.#.#.........ccc...#######..ccaa.#.#.....",
"..#.cc.....######..acca#.#........#.cc.....######..acca#.#......",
"..#.cc...##b#####.aaaaa#.b.#aa....#.cc...##b#####.aaaaa#.b.#aa..",
"aa#.c.######bb###aaaaa#.##b.#.aaaa#.c.######bb###aaaaa#.##b.#.aa",
"##..c..b####.c..a##aaa####b.######..c..b####.c..a##aaa####b.####",
"bb.....###..cc..a.######a.#bb##bbb.....###..cc..a.######a.#bb##b",
".........#.cc...aa###.#.a...#bbb.........#.cc...aa###.#.a...#bbb",
".........#..c.#..a##.##aa..a.a...........#..c.#..a##.##aa..a.a..",
"aa.......b.......aabaaaa..aa.a#aaa.......b.......aabaaaa..aa.a#a",
"#aaaa.....##.#.#cccaa..#..a#aa.##aaaa.....##.#.#cccaa..#..a#aa.#",
"##aaa..aa.b###..ccc..a..#.#aab####aaa..aa.b###..ccc..a..#.#aab##",
"..baaa.aaa.bbb.#.c...a.....ab.....baaa.aaa.bbb.#.c...a.....ab...",
"c..baaaa##b#...#.c.a.a#a.aaa..ccc..baaaa##b#...#.c.a.a#a.aaa..cc",
".c.##.#.#.b....#..aaaa#a.....cc..c.##.#.#.b....#..aaaa#a.....cc.",
"...b####bb.....#..aaa#a#...........b####bb.....#..aaa#a#........"};
