/* XPM */
static char *dummy[]={
"64 64 3 1",
"a c #301808",
". c #402810",
"# c #504018",
".#####..##.aaa.#.#####..##.aaa.#.#####..##.aaa.#.#####..##.aaa.#",
".#.#......###..#.#.#......###..#.#.#......###..#.#.#......###..#",
"####..aaa.##....####..aaa.##....####..aaa.##....####..aaa.##....",
"####.aaa..a#########.aaa..a#########.aaa..a#########.aaa..a#####",
"###.aa....a.#######.aa....a.#######.aa....a.#######.aa....a.####",
"..a....##.a.####..a....##.a.####..a....##.a.####..a....##.a.####",
".a...####.a......a...####.a......a...####.a......a...####.a.....",
"...####.#.aa.aaa...####.#.aa.aaa...####.#.aa.aaa...####.#.aa.aaa",
".#####..##.aaa.#.#####..##.aaa.#.#####..##.aaa.#.#####..##.aaa.#",
".#.#......###..#.#.#......###..#.#.#......###..#.#.#......###..#",
"####..aaa.##....####..aaa.##....####..aaa.##....####..aaa.##....",
"####.aaa..a#########.aaa..a#########.aaa..a#########.aaa..a#####",
"###.aa....a.#######.aa....a.#######.aa....a.#######.aa....a.####",
"..a....##.a.####..a....##.a.####..a....##.a.####..a....##.a.####",
".a...####.a......a...####.a......a...####.a......a...####.a.....",
"...####.#.aa.aaa...####.#.aa.aaa...####.#.aa.aaa...####.#.aa.aaa",
".#####..##.aaa.#.#####..##.aaa.#.#####..##.aaa.#.#####..##.aaa.#",
".#.#......###..#.#.#......###..#.#.#......###..#.#.#......###..#",
"####..aaa.##....####..aaa.##....####..aaa.##....####..aaa.##....",
"####.aaa..a#########.aaa..a#########.aaa..a#########.aaa..a#####",
"###.aa....a.#######.aa....a.#######.aa....a.#######.aa....a.####",
"..a....##.a.####..a....##.a.####..a....##.a.####..a....##.a.####",
".a...####.a......a...####.a......a...####.a......a...####.a.....",
"...####.#.aa.aaa...####.#.aa.aaa...####.#.aa.aaa...####.#.aa.aaa",
".#####..##.aaa.#.#####..##.aaa.#.#####..##.aaa.#.#####..##.aaa.#",
".#.#......###..#.#.#......###..#.#.#......###..#.#.#......###..#",
"####..aaa.##....####..aaa.##....####..aaa.##....####..aaa.##....",
"####.aaa..a#########.aaa..a#########.aaa..a#########.aaa..a#####",
"###.aa....a.#######.aa....a.#######.aa....a.#######.aa....a.####",
"..a....##.a.####..a....##.a.####..a....##.a.####..a....##.a.####",
".a...####.a......a...####.a......a...####.a......a...####.a.....",
"a...####.#.aa.aaa...####.#.aa.aaa...####.#.aa.aaa...####.#.aa.aa",
".#####..##.aaa.#.#####..##.aaa.#.#####..##.aaa.#.#####..##.aaa.#",
".#.#......###..#.#.#......###..#.#.#......###..#.#.#......###..#",
"####..aaa.##....####..aaa.##....####..aaa.##....####..aaa.##....",
"####.aaa..a#########.aaa..a#########.aaa..a#########.aaa..a#####",
"###.aa....a.#######.aa....a.#######.aa....a.#######.aa....a.####",
"..a....##.a.####..a....##.a.####..a....##.a.####..a....##.a.####",
".a...####.a......a...####.a......a...####.a......a...####.a.....",
"...####.#.aa.aaa...####.#.aa.aaa...####.#.aa.aaa...####.#.aa.aaa",
".#####..##.aaa.#.#####..##.aaa.#.#####..##.aaa.#.#####..##.aaa.#",
".#.#......###..#.#.#......###..#.#.#......###..#.#.#......###..#",
"####..aaa.##....####..aaa.##....####..aaa.##....####..aaa.##....",
"####.aaa..a#########.aaa..a#########.aaa..a#########.aaa..a#####",
"###.aa....a.#######.aa....a.#######.aa....a.#######.aa....a.####",
"..a....##.a.####..a....##.a.####..a....##.a.####..a....##.a.####",
".a...####.a......a...####.a......a...####.a......a...####.a.....",
"...####.#.aa.aaa...####.#.aa.aaa...####.#.aa.aaa...####.#.aa.aaa",
".#####..##.aaa.#.#####..##.aaa.#.#####..##.aaa.#.#####..##.aaa.#",
".#.#......###..#.#.#......###..#.#.#......###..#.#.#......###..#",
"####..aaa.##....####..aaa.##....####..aaa.##....####..aaa.##....",
"####.aaa..a#########.aaa..a#########.aaa..a#########.aaa..a#####",
"###.aa....a.#######.aa....a.#######.aa....a.#######.aa....a.####",
"..a....##.a.####..a....##.a.####..a....##.a.####..a....##.a.####",
".a...####.a......a...####.a......a...####.a......a...####.a.....",
"...####.#.aa.aaa...####.#.aa.aaa...####.#.aa.aaa...####.#.aa.aaa",
".#####..##.aaa.#.#####..##.aaa.#.#####..##.aaa.#.#####..##.aaa.#",
".#.#......###..#.#.#......###..#.#.#......###..#.#.#......###..#",
"####..aaa.##....####..aaa.##....####..aaa.##....####..aaa.##....",
"####.aaa..a#########.aaa..a#########.aaa..a#########.aaa..a#####",
"###.aa....a.#######.aa....a.#######.aa....a.#######.aa....a.####",
"..a....##.a.####..a....##.a.####..a....##.a.####..a....##.a.####",
".a...####.a......a...####.a......a...####.a......a...####.a.....",
"a...####.#.aa.aaa...####.#.aa.aaa...####.#.aa.aaa...####.#.aa.aa"};
