/* XPM */
static char *health_pu1_xpm[]={
"64 64 5 1",
". c None",
"# c #500060",
"a c #a000b0",
"c c #d0d0f8",
"b c #e800f8",
"................................................................",
"................................................................",
"................................................................",
"................................................................",
"................................................................",
"................................................................",
"................................................................",
"................................................................",
"................................................................",
"................................................................",
"................................................................",
"................................................................",
"................................................................",
"................................................................",
"................................................................",
"................................................................",
"................................................................",
"................................................................",
"................................................................",
"................................................................",
"................................................................",
"................................................................",
"................................................................",
"................................................................",
"................................................................",
"................................................................",
"................................................................",
"................................................................",
"................................................................",
"................................................................",
"................................................................",
"................................................................",
"................................................................",
"................................................................",
"................................................................",
"................................................................",
"................................................................",
"................................................................",
"................................................................",
"................................................................",
"................................................................",
"................................................................",
"................................................................",
"................................................................",
"................................................................",
"................................................................",
"................................................................",
"..............................#aa#..............................",
"............................#abbbba#............................",
"...........................#abbaabba#...........................",
"..........................#abbaaaabba#..........................",
"..........................#bbaabbaabb#..........................",
".........................#abaabccbaaba#.........................",
".........................#bbabccccbabb#.........................",
".........................#bbabccccbabb#.........................",
".........................#abaabccbaaba#.........................",
"..........................#bbaabbaabb#..........................",
"..........................#abbaaaabba#..........................",
"...........................#abbaabba#...........................",
"............................#abbbba#............................",
"..............................#aa#..............................",
"................................................................",
"................................................................",
"................................................................"};
