/* XPM */
static char *dummy[]={
"64 64 15 1",
". c None",
"# c #080030",
"a c #181858",
"c c #303070",
"i c #380040",
"k c #500010",
"b c #585890",
"f c #681070",
"g c #8068a8",
"e c #8080c0",
"m c #a00020",
"h c #a830a8",
"d c #d0b8e0",
"j c #f858f8",
"l c #f88000",
"................................................................",
"................................................................",
"................................................................",
"................................................................",
"................................................................",
"................................................................",
"................................................................",
"................................................................",
"................................................................",
"................................................................",
"................................................................",
"................................................................",
"................................................................",
"................................................................",
"................................................................",
"................................................................",
"................................................................",
"................................................................",
"................................................................",
"................................................................",
"................................................................",
"................................................................",
"................................................................",
"..............................#aa#..............................",
"..............#.............#aabbaa#.............#..............",
"..............a#..........aa#cbdebc#aa..........#a..............",
"..............ac.........accaabdebaabba.........ca..............",
"..............abc#......acbeb#cdec#bccca......#cba..............",
"...............ceb#.....#abde#cdec#bcccc.....#bec...............",
"...............abeb###.cbaacbe#ee#bbcaabc.###beba...............",
"...............acbdebc#fbebacbggggbcabebf#cbedbca...............",
"................acbddebhii#bbcbggbcbb#iihbeddbca................",
"................#accbbcjhfc##bccccb###fhjcbbcca#................",
".................#aaccahfibc########aaifhaccaa#.................",
"..................##aa#f#bgbc#klmk#aaaa.f#aa##..................",
"....................###.#cggb#kmkk#caa#..###....................",
"........................##bgeb#kk#ccaa#.........................",
".........................#cbeeb##ccaa#..........................",
".........................###cbebacaa##..........................",
".........................#ec#bedacaa#c#.........................",
".........................f#eccbeaca#c#f.........................",
".........................#f#e#abac#c#f#.........................",
"..........................#f###aa###f#..........................",
"...............................##...............................",
"................................................................",
"................................................................",
"................................................................",
"................................................................",
"................................................................",
"................................................................",
"................................................................",
"................................................................",
"................................................................",
"................................................................",
"................................................................",
"................................................................",
"................................................................",
"................................................................",
"................................................................",
"................................................................",
"................................................................",
"................................................................",
"................................................................",
"................................................................"};
