/* XPM */
static char *metroid_door_boss_anim4_xpm[]={
"64 64 9 1",
"# c #000008",
". c None",
"a c #100000",
"c c #201010",
"f c #312129",
"b c #402828",
"d c #604040",
"g c #734a52",
"e c #a07878",
"....#############a#a#a###a#a#a###a#a#a###a#a#a##############....",
"..###aaaaaaaaaa##a#b#a#a#a#b#a#a#a#b#a#a#a#b#a#a#aaaaaaaaac###..",
".##aabbbbbbbabaa#b#b#b#b#b#b#b#b#b#b#b#b#b#b#b#babbbabbabbaac##.",
".#abbbddddddbdbacdcdcdcdcdcdcdcdcdcdcdcdcdcdcdcdadddbddbdabbac#.",
"##abdddeeeeededbaeceaeceaeceaeceaeceaeceaeceaecebeeedeededaaba##",
"#abbdeeeddddedebaeceaeceaeceaeceaeceaeceaeceaecebdddeddeeeeabac#",
"#abddedddbbbdbdbcdadcdcdcdadcdcdcdadcdcdcdadcdcdbbbbebbeddeaaac#",
"#abdeedbbdaadabbcbcbcbcbcbcbcbcbcbcbcbcbcbcbcbcbbaaadabebddaabc#",
"#abdeddbadaababb#a#a#a#a#a#a#a#a#a#a#a#a#a#a#a#abaaadaadbbdbaac#",
"#abdedbbadaabbba#b#b#b#b#b#b#b#b#b#b#b#b#b#b#b#babbbbaadbbbbaac#",
"#abdedbaabbbaaaa#a#a#a#a#a#a#a#a#a#a#a#a#a#a#a#aaababbababdbaac#",
"#abdedbaaabaaaa##a###a###a###a###a###a###a###a###abaabababbbaac#",
"#bddedbaabaaccc##################################cccaabaabbaacc#",
"#abdeddbabaacc##.......................ff.......##ccaabaabbaacc#",
"#abdedbaabaac#.........................f.........f#caabaabbaacc#",
"##############....................................##############",
"aabdeedbabaa#......................................#aababdeedbaa",
"###cbccbc####......................................####cbccbc###",
"#abdeedbabaa#......................................#aababdeedba#",
"###bbccc#####......................................#####cccbb###",
"aabdeedbaba##......................................##ababdeedbaa",
"###ccbccb#a##.....................................f##a#bccbcc###",
"aabdeedbabaa#....................................ff#aababdeedbaa",
"##b###b######....................................ff######b###b##",
"aabdeedbabaa#....................................ff#aababdeedbaa",
"###cbccbc####....................................ff####cbccbc###",
"#abdeedbabaa#......................................#aababdeedba#",
"###bbccc#####......................................#####cccbb###",
"aabdeedbaba##......................................##ababdeedbaa",
"###ccbccb#a##......................................##a#bccbcc###",
"aabdeedbabaa#......................................#aababdeedbaa",
"##b###b######.............g........................######b###b##",
"aabdeedbabaa#.............g........................#aababdeedbaa",
"###cbccbc####.............gg.......................####cbccbc###",
"#abdeedbabaa#..................................g...#aababdeedba#",
"###bbccc#####....................................ff#####cccbb###",
"aabdeedbaba##.....................................f##ababdeedbaa",
"###ccbccb#a##f.....................................##a#bccbcc###",
"aabdeedbabaa#ff......................g.............#aababdeedbaa",
"##b###b######......................................######b###b##",
"aabdeedbabaa#......................................#aababdeedbaa",
"###cbccbc####......................................####cbccbc###",
"#abdeedbabaa#......................................#aababdeedba#",
"###bbccc#####......................................#####cccbb###",
"aabdeedbaba##......................................##ababdeedbaa",
"###ccbccb#a##......................................##a#bccbcc###",
"aabdeedbabaa#......................................#aababdeedbaa",
"##b###b######......................................######b###b##",
"aabdeedbabaa#......................................#aababdeedbaa",
"###cbccbc####.....gg...............................####cbccbc###",
"#abdeedbabaa#fffgg.................................#aababdeedba#",
"###bbccc#####fffg..................................#####cccbb###",
"aabdeedbaba##fff...................................##ababdeedbaa",
"###ccbccb#a##ff....................................##a#bccbcc###",
"aabdeedbabaa#f.....................................#aababdeedbaa",
"##b###b######f.....................................######b###b##",
"aabdeedbabaa#f.....................................#aababdeedbaa",
"###cbccbc####f.....................................####cbccbc###",
"#abdeedbabaa#......................................#aababdeedba#",
"###bbccc#####......................................#####cccbb###",
"aabdeedbaba##......................................##ababdeedbaa",
"###ccbccb#a##.............f........................##a#bccbcc###",
"aabdeedbabaa#............ff........................#aababdeedbaa",
"##b###b######...........fff........................######b###b##"};
