/* XPM */
static char *dummy[]={
"64 64 197 2",
"Qt c #00000c",
".R c #000042",
"aD c #000143",
"#x c #010143",
".S c #010244",
"a# c #010245",
"a0 c #010346",
"au c #020346",
".B c #02061a",
".# c #021832",
"#q c #030345",
"#y c #030446",
"b. c #03064a",
"a7 c #03064b",
"#3 c #04074d",
"#Z c #04084d",
".7 c #04084e",
".v c #041c3c",
"#e c #050547",
"aj c #060d54",
".Q c #070d55",
"#0 c #070e56",
"aN c #080f58",
"aa c #081059",
"#4 c #09125b",
".0 c #091942",
"ax c #0b1560",
"aX c #0b1762",
"ba c #0b285a",
"#a c #0d0f50",
"#i c #0d0f51",
"as c #0d1965",
"ak c #0d1a67",
"#r c #0e145a",
"#Y c #0e1c6a",
"aR c #0e1d6b",
"#l c #0f1152",
"#S c #101f6e",
".T c #10206f",
"aw c #102170",
"aE c #112373",
"#K c #112d6e",
".3 c #121656",
"a2 c #122374",
"aT c #122474",
"ay c #122475",
".m c #122f73",
"#T c #132577",
"#B c #13337c",
"an c #14287a",
"#t c #14347f",
"bc c #143884",
".s c #143986",
"aO c #152a7d",
"ac c #152b7e",
"ae c #153886",
".a c #153888",
"aQ c #153b8b",
"#z c #162876",
"a8 c #162c80",
"aW c #172e82",
"#g c #173e94",
".w c #173f95",
"#1 c #182f85",
"aU c #183086",
".d c #183f97",
".c c #184097",
".b c #184098",
"#w c #191d5d",
"#9 c #193389",
".C c #19419a",
".e c #19429b",
"#8 c #1a348c",
".N c #1a439c",
"aY c #1b378f",
".n c #1b449e",
".x c #1b459f",
"ao c #1c3992",
"#m c #1e3385",
"aC c #1e3c96",
".L c #1f1f41",
"#J c #204ba9",
".t c #204caa",
"a9 c #21429f",
"a1 c #2143a0",
".f c #214dac",
"aS c #2243a1",
"ap c #2245a3",
"a4 c #2347a6",
".z c #2350b0",
"#X c #2448a8",
"aM c #2449a9",
"#d c #254aaa",
"az c #254bab",
"ar c #264bac",
".2 c #264cad",
".o c #2655b8",
"a5 c #274eb0",
".g c #2757ba",
"a. c #2951b5",
".P c #2952b6",
"a6 c #2953b6",
"ai c #2a54b9",
"aK c #2a55ba",
"av c #2b56bb",
"a3 c #2b57bd",
".D c #2b5cc2",
".h c #2c5ec5",
".M c #2d3468",
"aF c #2d5ac1",
"aJ c #2d5ac2",
"#O c #2d5bc2",
"#s c #2d5fc6",
".y c #2d5fc7",
"aV c #2e5bc3",
"## c #2e5cc4",
"aZ c #2e5dc5",
".u c #2e62ca",
"#2 c #2f5ec7",
"b# c #305fc8",
".O c #3064ce",
".p c #3065cf",
"#h c #3161c8",
"ad c #3162cc",
".F c #3163cd",
".i c #3165d0",
"#U c #3264cf",
".6 c #3267d2",
".1 c #3267d3",
"#N c #3365d1",
"aL c #3366d2",
"#P c #3468d5",
".E c #3469d5",
".j c #346ad7",
"#5 c #3569d7",
"aH c #356ad7",
"aG c #356cda",
"aP c #366cda",
".k c #366cdb",
"#n c #366ddb",
".A c #366ddc",
".l c #376fde",
".q c #376fdf",
"aI c #3870df",
".r c #3870e0",
"#A c #3970e0",
"ah c #3971e0",
".8 c #3a4381",
"#L c #3a71e0",
"bb c #3b2d49",
"#C c #3b72e0",
"#V c #3b73e0",
"ab c #3c73e0",
".G c #3f75e0",
"#. c #4075e0",
"#F c #4372d6",
"#u c #4478e0",
"#I c #4579e0",
".5 c #4779e0",
"#R c #497be0",
"#c c #4c7de0",
"#j c #4e7ee0",
"am c #507fe0",
".H c #5482e0",
"af c #5783e0",
".I c #5885e0",
"#o c #5b87e0",
".Z c #5c87e0",
".J c #5d88e0",
"#W c #6089e0",
".K c #608ae0",
"aA c #628be0",
"#f c #638be0",
".U c #6b90e0",
"#p c #6e80ba",
"#Q c #6e92e0",
"#k c #7194e0",
"al c #7295e0",
"#G c #7395e0",
"#v c #788cc6",
"#6 c #7999e0",
".9 c #7a9ae0",
"ag c #7c9be0",
"aq c #7d9ce0",
"at c #819ee0",
"#b c #84a0e0",
"#7 c #86a1e0",
".V c #87a2e0",
".4 c #88a3e0",
"#M c #8aa4e0",
"#H c #8ba5e0",
"#D c #8ba6e0",
"#E c #8ca5e0",
".W c #8ea7e0",
".X c #8fa7e0",
"aB c #8fa8e0",
".Y c #90a8e0",
"Qt.#.#QtQtQtQtQt.#.#.#QtQtQt.#Qt.#Qt.#QtQtQtQtQt.a.b.c.b.b.b.b.b.b.b.b.b.b.c.c.a.#.#.#QtQtQt.#Qt.#Qt.#QtQtQtQtQtQt.#QtQt.#QtQtQt",
"Qt.#.#QtQtQt.#QtQt.#QtQtQt.#Qt.#.#.#QtQtQt.d.b.e.f.g.h.i.j.k.l.l.k.j.i.h.g.f.e.b.b.b.dQtQt.#Qt.#.#.#QtQtQtQtQtQt.#QtQt.#QtQtQtQt",
"Qt.#.#QtQtQt.#Qt.#QtQtQtQtQt.#Qt.#Qt.m.c.n.o.p.q.r.r.r.r.r.r.r.r.r.r.r.r.r.r.q.p.o.n.b.b.c.m.#Qt.#QtQtQtQtQtQtQtQtQtQtQtQt.#QtQt",
"Qt.#QtQtQt.#.#.#QtQt.#.#Qt.#.#.#.s.b.t.u.q.r.r.r.r.r.r.r.r.r.r.r.r.r.r.r.r.r.r.r.r.q.u.t.b.b.b.s.#Qt.#.#QtQt.#.#Qt.#Qt.#Qt.#.#Qt",
"Qt.#.#.#Qt.#.#.#Qt.#.#Qt.#.#.v.b.t.p.r.r.r.r.r.r.r.r.r.r.r.r.r.r.r.r.r.r.r.r.r.r.r.r.r.r.p.t.b.b.b.v.#.#Qt.#.#.#.#Qt.#Qt.#.#.#Qt",
"QtQt.#.#.#.#.#.#QtQtQtQt.#.w.x.y.r.r.r.r.r.r.r.r.r.r.r.r.r.r.r.r.r.r.r.r.r.r.r.r.r.r.r.r.r.r.y.x.b.b.wQtQt.#.#.#.#.#.#.#Qt.#QtQt",
"Qt.#QtQt.#QtQtQtQtQtQt.#.c.z.A.r.r.r.r.r.r.r.r.r.r.r.r.r.r.r.r.r.r.r.r.r.r.r.r.r.r.r.r.r.r.r.r.A.z.b.b.bQtQtQtQt.#Qt.#QtQtQtQtQt",
"Qt.#.#.#.#Qt.#.#Qt.#.B.C.D.r.r.r.r.r.r.E.F.r.r.r.r.r.G.H.I.J.K.G.r.r.r.r.r.r.r.r.r.r.r.r.r.r.r.r.r.D.C.b.b.vQt.#.#.#.#Qt.#.#.#.#",
".#.#QtQt.L.#.L.LQt.M.N.O.r.r.r.r.r.P.Q.R.R.S.T.r.U.V.W.X.Y.Y.Y.Z.r.r.r.r.r.r.r.r.r.r.r.r.r.r.r.r.r.r.O.N.b.b.0Qt.L.L.#.#.L.#.L.#",
".#QtQt.L.#.#.#.#.0.n.1.r.r.r.r.r.2.R.R.R.R.R.R.3.Y.Y.Y.Y.Y.Y.4.5.r.r.r.r.r.r.r.r.r.r.r.r.r.r.r.r.r.r.r.6.n.b.b.0.#.#.#.#.#.#Qt.#",
"QtQt.#.#Qt.#Qt.v.N.1.r.r.r.r.r.r.7.R.R.R.R.R.R.R.8.Y.Y.Y.Y.9#..r.r.r.r.r.r.r.r.r.r.r.r.r.r.r.r.r.r.r.r.r.6.N.b.b.BQtQt.#Qt.#Qt.#",
".#.#.#.#QtQt.#.C.O.r.r.r.r.r.r##.R.R.R.R.R.R.R.R#a.Y.Y#b#c.r.r.r.r.r.r.r.r.r.r.r.r.r.r.r.r.r.r.r.r.r.r.r.r.O.C.b.bQtQtQtQtQtQtQt",
".#.#.#QtQt.#.b.D.r.r.r.r.r.r.r#d.R.R.R.R.R.R.R.R#e.W#f.r.r.r.r.r.r.r.r.r.r.r.r.r.r.r.r.r.r.r.r.r.r.r.r.r.r.r.D.b.b.cQtQtQtQtQtQt",
".#.#QtQt.##g.z.r.r.r.r.r.r.r.r#h.R.R.R.R.R.R.R.R#i#j.r.r.r.r.r.r.r.r.r.r.r.r.r.r.r.r.r.r.r.r.r.r.r.r.r.r.r.r.r.z.b.b.wQtQtQtQt.#",
".#QtQt.#.B.x.A.r.r.r.r.r.r.r.r#k#l.R.R.R.R.R.R.R#m.r.r.r.r.r.r.r.r.r.r.r.r.r.r.r.r.r.r.r.r.r.r.r.r.r.r.r.r.r.r#n.x.b.b.v.#QtQt.#",
"Qt.#.#.#.b.y.r.r.r.r.r.r.r.r#o.Y#p#q.R.R.R.R.R#r.r.r.r.r.r.r.r.r.r.r.r.r.r.r.r.r.r.r.r.r.r.r.r.r.r.r.r.r.r.r.r.r#s.b.b.cQtQtQt.#",
".#Qt.##t.t.r.r.r.r.r.r.r.r#u.Y.Y.Y#v#w#x.R#y#z#A.r.r.r.r.r.r.r.r.r.r.r.r.r.r.r.r.r.r.r.r.r.r.r.r.r.r.r.r.r.r.r.r.r.t.b.b#BQt.#Qt",
".#.#Qt.b.p.r.r.r.r.r.r.r#C#D.Y.Y.Y.Y.Y#E#F.r.r.r.r.r.r.r.r.r.r.r.r.r.r.r.r.r.r.r.r.r.r.r.r.r.r.r.r.r.r.r.r.r.r.r.r.p.b.b.c.#Qt.#",
".#Qt.m.t.r.r.r.r.r.r.r.r#G.Y.Y.Y.Y.Y#H#I.r.r.r.r.r.r.r.r.r.r.r.r.r.r.r.r.r.r.r.r.r.r.r.r.r.r.r.r.r.r.r.r.r.r.r.r.r.r#J.b.b#K.#Qt",
".#Qt.b.u.r.r.r.r.r.r.r#L.Y.Y.Y.Y.Y#M.5.r.r.r.r.r.r.r.r.r.r.r.r.r.r.r.r.r.r.r.r.r.r.r.r.r.r.r.r.r.r#N#O#P.r.r.r.r.r.r.u.b.b.b.#.#",
".#.#.n.q.r.r.r.r.r.r.r#Q.Y.Y.Y.Y.W#R.r.r.r.r.r.r.r.r.r.r.r.r.r.r.r.r.r.r.r.r.r.r.r.r.r.r.r.r.r#O#S.R.R.R#T#U.r.r.r.r.q.n.b.b.#.#",
".#.c.o.r.r.r.r.r.r.r#V.Y.Y.Y.Y.Y#W.r.r.r.r.r.r.r.r.r.r.r.r.r.r.r#X#Y#Z#0#1#N.r.r.r.r.r.r.r.r#2#3.R.R.R.R.R#4#5.r.r.r.r.o.b.b.c.#",
".#.b.p.r.r.r.r.r.r.r#6.Y.Y.Y.Y#7#L.r.r.r.r.r.r.r.r.r.r.r.r.r.r#8.R.R.R.R.R.Q#2.r.r.r.r.r.r.r#T.R.R.R.R.R.R.R#9.r.r.r.r.p.b.b.bQt",
"Qt.e.q.r.r.r.r.r.r.r.Y.Y.Y.Y.Y.K.r.r.r.r.r.r.r.r.r.r.r.r.r.ra..R.R.R.R.R.R.R.T.r.r.r.r.r.r.ra#.R.R.R.R.R.R.Raa.r.r.r.r.l.e.b.bQt",
".a.f.r.r.r.r.r.r.r.G.Y.Y.Y.Y#kab.r.r.r.r.r.r.r.r.r.r.r.r.r.rac.R.R.R.R.R.R.R.Rad.r.r.r.r.r#5.R.R.R.R.R.R.R.R#Z.r.r.r.r.r.f.b.bae",
".c.g.r.r.r.r.r.r.raf.Y.Y.Yagah.r.r.r.r.r.r.r.r.r.r.r.r.r.r.r#Y.R.R.R.R.R.R.R.Rai.r.r.r.r.r.raj.R.R.R.R.R.R.Rak.r.r.r.r.r.g.b.b.c",
".c.h.r.r.r.r.r.r.ral.Y.Y.Yam.r.r.r.r.r.r.r.r.r.r.r.r.r.r.r.ran.R.R.R.R.R.R.R.R#2.r.r.r.r.r.rao.R.R.R.R.R.R.Rap.r.r.r.r.r.h.b.b.c",
".b.i.r.r.r.r.r.r.raq.Y.Y.X.r.r.r.r.r.r.r.r.r.r.r.r.r.r.r.r.rar.R.R.R.R.R.R.Ras.r.r.r.r.r.r.r.r#T.R.R.R.R.R#1.r.r.r.r.r.r.i.b.b.b",
".b.j.r.r.r.r.r.r.rat.Y.Y.9.r.r.r.r.r.r.r.r.r.r.r.r.r.r.r.r.r.rac.R.R.R.R.Rauav.r.r.r.r.r.r.r.r.rapawaxayaz.r.r.r.r.r.r.r.j.b.b.b",
".b.k.r.r.r.r.r.r.raAaB#H#u.r.r.r.r.r.r.r.r.r.r.r.r.r.r.r.r.r.r.raC#0.RaDaEaF.r.r.r.r.r.r.r.r.r.r.r.r.r.r.r.r.r.r.r.r.r.raG.b.b.b",
".b.l.r.r.r.r.r.r.r.r.5.G.r.r.r.r.r.r.r.r.r.r.r.r.r.r.r.r.r.r.r.r.r.raHaI.r.r.r.r.r.r.r.r.r.r.r.r.r.r.r.r.r.r.r.r.r.r.r.r.l.b.b.b",
".b.l.r.r.r.r.r.r.r.r.r.r.r.r.r.r.r.r.r.r.r.r.r.r.r.r.r.r.r.r.r.r.r.r.r.r.r.r.r.r.r.r.r.r.r.r.r.r.r.r.r.r.r.r.r.r.r.r.r.r.l.b.b.b",
".b.k.r.r.r.r.r.r.r.r.r.r.r.r.r.r.r.r.r.r.r.r.r.r.r.r.r.r.r.r.r.r.r.r.r.r.r.r.r.r.r.r.r.r.r.r.r.r.r.r.r.r.r.r.r.r.r.r.r.raG.b.b.b",
".b.j.r.r.r.r.r.r.r.r.r.r.r.r.r.r.r.r.r.r.r.r.r.r.r.r.r.r.r.r.r.r.r.r.r.r.r.r.r.r.r.r.r.r.r.r.r.r.r.r.r.r.r.r.r.r.r.r.r.r.j.b.b.b",
".b.i.r.r.r.r.r.r.r.r.r.r.r.r.r.r.r.r.r.r.r.r.r.r.r.r.r.r.r.r.r.r.r.r.r.r.r.r.r.r.r.r.r.r.r.r.r.r.r.r.r.r.r.r.r.r.r.r.r.r.i.b.b.b",
".b.h.r.r.r.r.r.r.r.r.r.r.r.r.r.r.r.r.r.r.r.r.r.r.r.r.r.r.r.r.r.r.r.r.r.r.r.r.r.r.r.r.r.r.r.r.r.r.r.r.r.r.r.r.r.r.r.r.r.r.h.b.b.b",
".b.g.r.r.r.r.r.r.r.r.r.r.r.r.r.r.r.r.r.r.r.r.r.r.r.r.r.r.r.r.r.r.r.r.r.r.r.r.r.r.r.r.r.r.r.r.r.r.r.r.r.r.r.r.r.r.r.r.r.r.g.b.b.b",
".c.f.r.r.r.r.r.r.r.r.r.r.r.r.r.r.r.r.r.r.r.r.r.r.r.r.r.r.r.r.r.r.r.r.r.r.r.r.r.r.r.r.r.r.r.r.r.r.r.r.r.r.r.r.r.r.r.r.r.r.f.b.b.c",
".c.e.q.r.r.r.r.r.r.r.r.r.r.r.raJaKaL.r.r.r.r.r.r.r.r.r.r.r.r.r.r.r.r.r.r.r.r.r.r.r.r.r.r.r.r.r.r.r.r.r.r.r.r.r.r.r.r.r.l.e.b.b.c",
".a.b.p.r.r.r.r.r.r.r.r.r.raMaN.R.R.RaOaP.r.r.r.r.r.r.r.r.r.r.r.r.r.r.r.r.r.r.r.r.r.r.r.r.r.r.r.r.r.r.r.r.r.r.r.r.r.r.r.p.b.b.baQ",
".#.b.o.r.r.r.r.r.r.r.r.raM.R.R.R.R.R.RaR.r.r.r.r.r.r.r.r.r.r.r.r.r.r.r.r.r.r.r.r.r.r.r.r.r.r.r.r.r.r.r.r.r.r.r.r.r.r.r.o.b.b.b.#",
".#.b.n.q.r.r.r.r.r.r.r.raN.R.R.R.R.R.R.RaS.r.r.r.r.r.r.r.r.r.r.r.r.r.r.r.r.r.r.r.r.r.r.r.r.r.r.r.r.r.r.r.r.r.r.r.r.r.q.n.b.b.b.#",
"Qt.d.b.u.r.r.r.r.r.r.raJ.R.R.R.R.R.R.R.RaT.r.r.r.r.r.r.r.r.r.r.r.r.r.r.r.r.r.r.r.r.r.r.r.r.r.r.r.r.r.r.r.r.r.r.r.r.r.u.b.b.b.d.#",
".#.#.b.t.r.r.r.r.r.r.raK.R.R.R.R.R.R.R.RaR.r.r.r.r.r.r.r.r.r.r.r.r.r.r.r.r.r.r.r.r.r.r.r.r.r.r.r.r.r.r.r.r.r.r.r.r.r#J.b.b.bQtQt",
".#.#.b.b.p.r.r.r.r.r.raL.R.R.R.R.R.R.R.RaU.r.r.r.r.r.r.r.r.raVaWaXakaYaH.r.r.r.r.r.r.r.r.r.r.r.r.r.r.r.r.r.r.r.r.r.p.b.b.b.cQtQt",
".#.#.m.b.t.r.r.r.r.r.r.raO.R.R.R.R.R.R.R#O.r.r.r.r.r.r.r.r#X.R.R.R.R.R#0aZ.r.r.r.r.r.r.r.r.r.r.r.r.r.r.r.r.r.r.r.r.t.b.b.b#KQt.#",
".#QtQt.b.b.y.r.r.r.r.r.raPaR.R.R.R.R.RaS.r.r.r.r.r.r.r.r#Ua0.R.R.R.R.R.Rak.r.r.r.r.r.r.r.r.r.r.r.r.r.r.r.r.r.r.r#s.b.b.b.bQtQt.#",
"Qt.#.#.s.b.x.A.r.r.r.r.r.r.ra1a2aRaUaJ.r.r.r.r.r.r.r.r.raC.R.R.R.R.R.R.R.Ra3.r.r.r.r.r.r.r.r.r.r.r.r.r.r.r.r.r#n.x.b.b.b#BQtQt.#",
".#Qt.#Qt.c.b.z.r.r.r.r.r.r.r.r.r.r.r.r.r.r.r.r.r.r.r.r.rac.R.R.R.R.R.R.R.Ra4.r.r.r.r.r.r.r.r.r.r.r.r.r.r.r.r.r.z.b.b.b.cQtQt.#Qt",
".#.#QtQt.B.b.b.D.r.r.r.r.r.r.r.r.r.r.r.r.r.r.r.r.r.r.r.r#9.R.R.R.R.R.R.R.Ra5.r.r.r.r.r.r.r.r.r.r.r.r.r.r.r.r.D.b.b.b.b.BQt.#Qt.#",
".#QtQtQtQt#g.b.C.O.r.r.r.r.r.r.r.r.r.r.r.r.r.r.r.r.r.r.ra6.R.R.R.R.R.R.Ra7.k.r.r.r.r.r.r.r.r.r.r.r.r.r.r.r.O.C.b.b.b#gQtQtQt.#Qt",
".#Qt.#.#QtQt.b.b.N.6.r.r.r.r.r.r.r.r.r.r.r.r.r.r.r.r.r.r.ra8.R.R.R.R.R.Ra9.r.r.r.r.r.r.r.r.r.r.r.r.r.r.r.6.N.b.b.b.c.#.#Qt.#.#.#",
".#.#.#.#Qt.#.#.b.b.n.6.r.r.r.r.r.r.r.r.r.r.r.r.r.r.r.r.r.r.raYb..R.Raaa4.r.r.r.r.r.r.r.r.r.r.r.r.r.r.r.6.n.b.b.b.b.#.#Qt.#.#.#.#",
".#.#.#QtQt.#.#.v.b.b.N.O.r.r.r.r.r.r.r.r.r.r.r.r.r.r.r.r.r.r.r.raZb#.r.r.r.r.r.r.r.r.r.r.r.r.r.r.r.r.O.N.b.b.b.b.BQtQtQt.#.#.#.#",
".#QtQt.#QtQtQtQtba.b.b.C.D.r.r.r.r.r.r.r.r.r.r.r.r.r.r.r.r.r.r.r.r.r.r.r.r.r.r.r.r.r.r.r.r.r.r.r.r.D.C.b.b.b.b.0QtQtQt.#Qt.#QtQt",
"QtQt.#.#.#.#Qt.#.#ba.b.b.b.z#n.r.r.r.r.r.r.r.r.r.r.r.r.r.r.r.r.r.r.r.r.r.r.r.r.r.r.r.r.r.r.r.r#n.z.b.b.b.b.bba.#Qt.#Qt.#.#.#QtQt",
"Qt.#.L.L.LbbQtQt.L.L.v.b.b.b.x#s.r.r.r.r.r.r.r.r.r.r.r.r.r.r.r.r.r.r.r.r.r.r.r.r.r.r.r.r.r.r#s.x.b.b.b.b.b.v.L.LQtbb.#.L.L.#.#Qt",
"Qt.#.L.#.#.#.#Qt.#.#.#.#.b.b.b.b.t.p.r.r.r.r.r.r.r.r.r.r.r.r.r.r.r.r.r.r.r.r.r.r.r.r.r.r.p.t.b.b.b.b.b.b.#.#.#.#Qt.#.#.#.#.#.#Qt",
"Qt.#.#.#.#QtQtQtQtQtQt.#Qt.w.b.b.b.b#J.u.q.r.r.r.r.r.r.r.r.r.r.r.r.r.r.r.r.r.r.r.r.q.u#J.b.b.b.b.b.b.w.#Qt.#Qt.#.#Qt.#.LQt.L.#Qt",
"Qt.#Qt.#Qt.#.#.#.#QtQtQtQtQt.B.c.b.b.b.b.n.o.p.q.r.r.r.r.r.r.r.r.r.r.r.r.r.r.q.p.o.n.b.b.b.b.b.b.b.v.#.#QtQt.#.#.#Qt.#Qt.#.#.#Qt",
"Qt.#QtQtQt.#.#.#QtQtQtQtQtQtQtQtbc.b.b.b.b.b.b.e.f.g.h.i.jaG.l.laG.j.i.h.g.f.e.b.b.b.b.b.b.b.c#B.#.#.#QtQt.#.#.#.#.#QtQtQt.#.#Qt",
"QtQtQt.#.#.#.#QtQtQt.#QtQtQtQt.#.#.#.m.c.b.b.b.b.b.b.b.b.b.b.b.b.b.b.b.b.b.b.b.b.b.b.b.b.c#KQt.#.#.#QtQt.#Qt.#Qt.#QtQtQtQtQtQtQt",
"QtQt.#QtQt.#QtQtQt.#Qt.#.#QtQt.#.#QtQt.#Qt.c.b.b.b.b.b.b.b.b.b.b.b.b.b.b.b.b.b.b.b.b.d.#.#QtQt.#.#QtQt.#Qt.#QtQtQtQtQtQt.#.#QtQt",
"QtQt.#.#.#QtQtQt.#Qt.#QtQtQtQt.#Qt.#.#.#.#QtQtQtae.c.b.b.b.b.b.b.b.b.b.b.b.c.cae.#Qt.#QtQtQtQt.#Qt.#.#.#.#QtQtQtQtQt.#.#Qt.#QtQt"};
