/* XPM */
static char *dummy[]={
"64 64 88 2",
"Qt c #00000c",
".p c #000011",
".y c #000021",
".N c #000032",
".e c #000034",
".M c #000037",
"#v c #00003b",
".a c #00003c",
".6 c #000040",
".b c #000042",
".E c #000141",
".k c #000142",
".f c #00043f",
".g c #01053f",
".t c #020142",
".8 c #020220",
".h c #021634",
".# c #021832",
".d c #040240",
".H c #040343",
".F c #05030f",
".z c #05031e",
"#t c #05033f",
".O c #060438",
".A c #061931",
".0 c #070443",
".7 c #071335",
".j c #071931",
".R c #08053e",
".5 c #08083c",
".4 c #090637",
"#. c #0a063d",
".q c #0c083c",
".X c #0d0844",
"#a c #0d1732",
"## c #0e093b",
".L c #0f0a31",
".T c #0f0a3a",
".U c #0f0a44",
".c c #110b3a",
".x c #110c18",
".3 c #110c39",
".9 c #111930",
".i c #120c39",
".P c #130d38",
".K c #140d45",
".v c #171036",
".n c #191135",
"#s c #1b1334",
"#h c #1c1246",
".1 c #1c1334",
".2 c #1d1333",
".S c #1e1433",
"#j c #1f1532",
".r c #1f1f41",
".w c #201532",
"#u c #221720",
".Q c #221731",
"#r c #241821",
".Z c #241830",
".s c #241c46",
"#e c #25192f",
"#k c #261a2e",
"#n c #261a2f",
"#q c #271a23",
".u c #281a48",
".I c #281b2e",
"#o c #281f2b",
"#d c #291b2d",
"#p c #2a1c2c",
".l c #2a1c2d",
".B c #2b1d2c",
".V c #2c1e2b",
".Y c #2d1e2b",
"#c c #2f202a",
".C c #302028",
"#l c #30202a",
".m c #302129",
".o c #312129",
".J c #352249",
"#b c #3b2d49",
"#i c #3c264a",
"#m c #3e284b",
".W c #452d4c",
"#f c #57384e",
"#g c #5e3c4f",
".G c #6e4751",
".D c #734a52",
"Qt.#.#QtQtQtQtQt.#.#.#QtQtQt.#Qt.#Qt.#QtQtQtQtQt.a.b.b.b.c.d.b.b.b.b.b.b.b.b.b.a.#.#.#QtQtQt.#Qt.#Qt.#QtQtQtQtQtQt.#QtQt.#QtQtQt",
"Qt.#.#QtQtQt.#QtQt.#QtQtQt.#Qt.#.#.#QtQtQt.b.b.b.b.b.b.b.b.b.b.b.b.b.b.b.b.b.b.b.b.b.bQtQt.#Qt.#.#.#QtQtQtQtQtQt.#QtQt.#QtQtQtQt",
"Qt.#.#QtQtQt.#Qt.#QtQtQtQtQt.#Qt.#Qt.e.b.b.b.b.b.b.b.b.b.b.b.b.b.b.b.b.b.b.b.b.b.b.b.b.b.b.e.#Qt.#QtQtQtQtQtQtQtQtQtQtQtQt.#QtQt",
"Qt.#QtQtQt.#.#.#QtQt.#.#Qt.#.#.#.f.b.b.b.b.b.b.b.b.b.b.b.b.b.b.b.b.b.b.b.b.b.b.b.b.b.b.b.b.b.b.g.#Qt.#.#QtQt.#.#Qt.#Qt.#Qt.#.#Qt",
"Qt.#.#.#Qt.#.#.#Qt.#.#Qt.#.#.h.b.b.b.b.b.b.b.b.b.b.b.b.b.b.b.b.b.b.b.b.b.b.b.b.b.b.b.b.b.b.b.b.b.i.j.#.#Qt.#.#.#.#Qt.#Qt.#.#.#Qt",
"QtQt.#.#.#.#.#.#QtQtQtQt.#.k.b.b.b.b.b.b.b.b.b.b.b.b.b.b.b.b.b.b.b.b.b.b.b.b.b.b.b.b.b.b.b.b.b.b.b.l.mQtQt.#.#.#.#.#.#.#Qt.#QtQt",
"Qt.#QtQt.#QtQtQtQtQtQt.#.b.b.b.b.b.b.b.b.b.b.b.b.b.b.b.b.b.b.b.b.b.b.b.b.b.b.b.b.b.b.b.b.b.b.b.b.b.n.o.oQtQtQtQt.#Qt.#QtQtQtQtQt",
"Qt.#.#.#.#Qt.#.#Qt.#.p.b.b.b.b.b.b.b.b.b.b.b.b.b.b.b.b.b.b.b.b.b.b.b.b.b.b.b.b.b.b.b.b.b.b.b.b.b.b.q.o.o.o.jQt.#.#.#.#Qt.#.#.#.#",
".#.#QtQt.r.#.r.rQt.s.b.b.b.b.b.b.b.b.b.b.b.b.b.b.b.b.b.b.b.b.b.b.b.b.b.b.b.b.b.b.b.b.b.b.b.b.b.b.b.t.u.i.v.w.xQt.r.r.#.#.r.#.r.#",
".#QtQt.r.#.#.#.#.y.b.b.b.b.b.b.b.b.b.b.b.b.b.b.b.b.b.b.b.b.b.b.b.b.b.b.b.b.b.b.b.b.b.b.b.b.b.b.b.b.b.b.b.b.b.b.z.#.#.#.#.#.#Qt.#",
"QtQt.#.#Qt.#Qt.A.b.b.b.b.b.b.b.b.b.b.b.b.b.b.b.b.b.b.b.b.b.b.b.b.b.b.b.b.b.b.b.b.b.b.b.b.b.b.b.b.b.b.b.b.b.b.b.b.pQtQt.#Qt.#Qt.#",
".#.#.#.#QtQt.#.l.b.b.b.b.b.b.b.b.b.b.b.b.b.b.b.b.b.b.b.b.b.b.b.b.b.b.b.b.b.b.b.b.b.b.b.b.b.b.b.b.b.b.b.b.b.b.b.b.bQtQtQtQtQtQtQt",
".#.#.#QtQt.#.o.B.b.b.b.b.b.b.b.b.b.b.b.b.b.b.b.b.b.b.b.b.b.b.b.b.b.b.b.b.b.b.b.b.b.b.b.b.b.b.b.b.b.b.b.b.b.b.b.b.b.bQtQtQtQtQtQt",
".#.#QtQt.#.C.o.D.b.b.b.b.b.b.b.b.b.b.b.b.b.b.b.b.b.b.b.b.b.b.b.b.b.b.b.b.b.b.b.b.b.b.b.b.b.b.b.b.b.b.b.b.b.b.b.b.b.b.EQtQtQtQt.#",
".#QtQt.#.F.o.D.G.H.b.b.b.b.b.b.b.b.b.b.b.b.b.b.b.b.b.b.b.b.b.b.b.b.b.b.b.b.b.b.b.b.b.b.b.b.b.b.b.b.b.b.b.b.b.b.b.b.b.b.h.#QtQt.#",
"Qt.#.#.#.I.J.K.b.b.b.b.b.b.b.b.b.b.b.b.b.b.b.b.b.b.b.b.b.b.b.b.b.b.b.b.b.b.b.b.b.b.b.b.b.b.b.b.b.b.b.b.b.b.b.b.b.b.b.b.bQtQtQt.#",
".#Qt.#.L.b.b.b.b.b.b.b.b.b.b.b.b.b.b.b.b.b.b.b.b.b.b.b.b.b.b.b.b.b.b.b.b.b.b.b.b.b.b.b.b.b.b.b.b.b.b.b.b.b.b.b.b.b.b.b.b.MQt.#Qt",
".#.#Qt.b.b.b.b.b.b.b.b.b.b.b.b.b.b.b.b.b.b.b.b.b.b.b.b.b.b.b.b.b.b.b.b.b.b.b.b.b.b.b.b.b.b.b.b.b.b.b.b.b.b.b.b.b.b.b.b.b.b.#Qt.#",
".#Qt.e.b.b.b.b.b.b.b.b.b.b.b.b.b.b.b.b.b.b.b.b.b.b.b.b.b.b.b.b.b.b.b.b.b.b.b.b.b.b.b.b.b.b.b.b.b.b.b.b.b.b.b.b.b.b.b.b.b.b.N.#Qt",
".#Qt.b.b.b.b.b.b.b.b.b.b.b.b.b.b.b.b.b.b.b.b.b.b.b.b.b.b.b.b.b.b.b.b.b.b.b.b.b.b.b.b.b.b.b.b.b.b.b.b.b.b.b.b.b.b.b.b.b.b.b.b.#.#",
".#.#.b.b.b.b.b.b.b.b.b.b.b.b.b.b.b.b.b.b.b.b.b.b.b.b.b.b.b.b.b.b.b.b.b.b.b.b.b.b.b.b.b.b.b.b.b.b.b.b.b.b.b.b.b.b.b.b.b.b.b.b.#.#",
".#.b.b.b.b.b.b.b.b.b.b.b.b.b.b.b.b.b.b.b.b.b.b.b.b.b.b.b.b.b.b.b.b.b.b.b.b.b.b.b.b.b.b.b.b.b.b.b.b.b.b.b.b.b.b.b.b.b.b.b.b.b.b.#",
".#.b.b.b.b.b.b.b.b.b.b.b.b.b.b.b.b.b.b.b.b.b.b.b.b.b.b.b.b.b.b.b.b.b.b.b.b.b.b.b.b.b.b.b.b.b.b.b.b.b.b.b.b.b.b.b.b.b.b.b.b.b.bQt",
"Qt.b.b.b.b.b.b.b.b.b.b.b.b.b.b.b.b.b.b.b.b.b.b.b.b.b.b.b.b.b.b.b.b.b.b.b.b.b.b.b.b.b.b.b.b.b.b.b.b.b.b.b.b.b.b.b.b.b.b.b.b.b.bQt",
".a.b.b.b.b.b.b.b.b.b.b.b.b.b.b.b.b.b.b.b.b.b.b.b.b.b.b.b.b.b.b.b.b.b.b.b.b.b.b.b.b.b.b.b.b.b.b.b.b.b.b.b.b.b.b.b.b.b.b.b.b.b.b.O",
".b.b.b.b.b.b.b.b.b.b.b.b.b.b.b.b.b.b.b.b.b.b.b.b.b.b.b.b.b.b.b.b.b.b.b.b.b.b.b.b.b.b.b.b.b.b.b.b.b.b.b.b.b.b.b.b.b.b.b.b.b.b.b.P",
".b.b.b.b.b.b.b.b.b.b.b.b.b.b.b.b.b.b.b.b.b.b.b.b.b.b.b.b.b.b.b.b.b.b.b.b.b.b.b.b.b.b.b.b.b.b.b.b.b.b.b.b.b.b.b.b.b.b.b.b.b.b.b.Q",
".b.b.b.b.b.b.b.b.b.b.b.b.b.b.b.b.b.b.b.b.b.b.b.b.b.b.b.b.b.b.b.b.b.b.b.b.b.b.b.b.b.b.b.b.b.b.b.b.b.b.b.b.b.b.b.b.b.b.b.b.b.b.R.o",
".b.b.b.b.b.b.b.b.b.b.b.b.b.b.b.b.b.b.b.b.b.b.b.b.b.b.b.b.b.b.b.b.b.b.b.b.b.b.b.b.b.b.b.b.b.b.b.b.b.b.b.b.b.b.b.b.b.b.b.b.b.b.S.o",
".b.b.b.b.b.b.b.b.b.b.b.b.b.b.b.b.b.b.b.b.b.b.b.b.b.b.b.b.b.b.b.b.b.b.b.b.b.b.b.b.b.b.b.b.b.b.b.b.b.b.b.b.b.b.b.b.b.b.b.b.b.T.o.o",
".b.b.b.b.b.b.b.b.b.b.b.b.b.b.b.b.b.b.b.b.b.b.b.b.b.b.b.b.b.b.b.b.b.b.b.b.b.b.b.b.b.b.b.b.b.b.b.b.b.b.b.b.b.b.b.b.b.b.b.b.U.V.o.o",
".b.b.b.b.b.b.b.b.b.b.b.b.b.b.b.b.b.b.b.b.b.b.b.b.b.b.b.b.b.b.b.b.b.b.b.b.b.b.b.b.b.b.b.b.b.b.b.b.b.b.b.b.b.b.b.b.b.b.b.b.W.o.o.o",
".b.b.b.b.b.b.b.b.b.b.b.b.b.b.b.b.b.b.b.b.b.b.b.b.b.b.b.b.b.b.b.b.b.b.b.b.b.b.b.b.b.b.b.b.b.b.b.b.b.b.b.b.b.b.b.b.b.b.b.b.X.Y.o.o",
".b.b.b.b.b.b.b.b.b.b.b.b.b.b.b.b.b.b.b.b.b.b.b.b.b.b.b.b.b.b.b.b.b.b.b.b.b.b.b.b.b.b.b.b.b.b.b.b.b.b.b.b.b.b.b.b.b.b.b.b.b.i.o.o",
".q.b.b.b.b.b.b.b.b.b.b.b.b.b.b.b.b.b.b.b.b.b.b.b.b.b.b.b.b.b.b.b.b.b.b.b.b.b.b.b.b.b.b.b.b.b.b.b.b.b.b.b.b.b.b.b.b.b.b.b.b.b.Z.o",
".Y.0.b.b.b.b.b.b.b.b.b.b.b.b.b.b.b.b.b.b.b.b.b.b.b.b.b.b.b.b.b.b.b.b.b.b.b.b.b.b.b.b.b.b.b.b.b.b.b.b.b.b.b.b.b.b.b.b.b.b.b.b.T.o",
".l.b.b.b.b.b.b.b.b.b.b.b.b.b.b.b.b.b.b.b.b.b.b.b.b.b.b.b.b.b.b.b.b.b.b.b.b.b.b.b.b.b.b.b.b.b.b.b.b.b.b.b.b.b.b.b.b.b.b.b.b.b.b.B",
".1.b.b.b.b.b.b.b.b.b.b.b.b.b.b.b.b.b.b.b.b.b.b.b.b.b.b.b.b.b.b.b.b.b.b.b.b.b.b.b.b.b.b.b.b.b.b.b.b.b.b.b.b.b.b.b.b.b.b.b.b.b.b.2",
".3.b.b.b.b.b.b.b.b.b.b.b.b.b.b.b.b.b.b.b.b.b.b.b.b.b.b.b.b.b.b.b.b.b.b.b.b.b.b.b.b.b.b.b.b.b.b.b.b.b.b.b.b.b.b.b.b.b.b.b.b.b.b.3",
".4.b.b.b.b.b.b.b.b.b.b.b.b.b.b.b.b.b.b.b.b.b.b.b.b.b.b.b.b.b.b.b.b.b.b.b.b.b.b.b.b.b.b.b.b.b.b.b.b.b.b.b.b.b.b.b.b.b.b.b.b.b.b.5",
".#.b.b.b.b.b.b.b.b.b.b.b.b.b.b.b.b.b.b.b.b.b.b.b.b.b.b.b.b.b.b.b.b.b.b.b.b.b.b.b.b.b.b.b.b.b.b.b.b.b.b.b.b.b.b.b.b.b.b.b.b.b.b.#",
".#.b.b.b.b.b.b.b.b.b.b.b.b.b.b.b.b.b.b.b.b.b.b.b.b.b.b.b.b.b.b.b.b.b.b.b.b.b.b.b.b.b.b.b.b.b.b.b.b.b.b.b.b.b.b.b.b.b.b.b.b.b.b.#",
"Qt.b.b.b.b.b.b.b.b.b.b.b.b.b.b.b.b.b.b.b.b.b.b.b.b.b.b.b.b.b.b.b.b.b.b.b.b.b.b.b.b.b.b.b.b.b.b.b.b.b.b.b.b.b.b.b.b.b.b.b.b.b.b.#",
".#.#.b.b.b.b.b.b.b.b.b.b.b.b.b.b.b.b.b.b.b.b.b.b.b.b.b.b.b.b.b.b.b.b.b.b.b.b.b.b.b.b.b.b.b.b.b.b.b.b.b.b.b.b.b.b.b.b.b.b.b.bQtQt",
".#.#.b.b.b.b.b.b.b.b.b.b.b.b.b.b.b.b.b.b.b.b.b.b.b.b.b.b.b.b.b.b.b.b.b.b.b.b.b.b.b.b.b.b.b.b.b.b.b.b.b.b.b.b.b.b.b.b.b.b.b.bQtQt",
".#.#.e.b.b.b.b.b.b.b.b.b.b.b.b.b.b.b.b.b.b.b.b.b.b.b.b.b.b.b.b.b.b.b.b.b.b.b.b.b.b.b.b.b.b.b.b.b.b.b.b.b.b.b.b.b.b.b.b.b.b.NQt.#",
".#QtQt.b.b.b.b.b.b.b.b.b.b.b.b.b.b.b.b.b.b.b.b.b.b.b.b.b.b.b.b.b.b.b.b.b.b.b.b.b.b.b.b.b.b.b.b.b.b.b.b.b.b.b.b.b.b.b.b.b.bQtQt.#",
"Qt.#.#.f.b.b.b.b.b.b.b.b.b.b.b.b.b.b.b.b.b.b.b.b.b.b.b.b.b.b.b.b.b.b.b.b.b.b.b.b.b.b.b.b.b.b.b.b.b.b.b.b.b.b.b.b.b.b.b.b.MQtQt.#",
".#Qt.#Qt.b.b.b.b.b.b.b.b.b.b.b.b.b.b.b.b.b.b.b.b.b.b.b.b.b.b.b.b.b.b.b.b.b.b.b.b.b.b.b.b.b.b.b.b.b.b.b.b.b.b.b.b.b.b.b.bQtQt.#Qt",
".#.#QtQt.p.b.b.b.b.b.b.b.b.b.b.b.b.b.b.b.b.b.b.b.b.b.b.b.b.b.b.b.b.b.b.b.b.b.b.b.b.b.b.b.b.b.b.b.b.b.b.b.b.b.b.b.b.b.b.pQt.#Qt.#",
".#QtQtQtQt.6.b.b.b.b.b.b.b.b.b.b.b.b.b.b.b.b.b.b.b.b.b.b.b.b.b.b.b.b.b.b.b.b.b.b.b.b.b.b.b.b.b.b.b.b.b.b.b.b.b.b.b.b.6QtQtQt.#Qt",
".#Qt.#.#QtQt.b.b.b.b.b.b.b.b.b.b.b.b.b.b.b.b.b.b.b.b.b.b.b.b.b.b.b.b.b.b.b.b.b.b.b.b.b.b.b.b.b.b.b.b.b.b.b.b.b.b.b.b.#.#Qt.#.#.#",
".#.#.#.#Qt.#.#.b.b.b.b.b.b.b.b.b.b.b.b.b.b.b.b.b.b.b.b.b.b.b.b.b.b.b.b.b.b.b.b.b.b.b.b.b.b.b.b.b.b.b.b.b.b.b.b.b.b.#.#Qt.#.#.#.#",
".#.#.#QtQt.#.#.h.b.b.b.b.b.b.b.b.b.b.b.b.b.b.b.b.b.b.b.b.b.b.b.b.b.b.b.b.b.b.b.b.b.b.b.b.b.b.b.b.b.b.b.b.b.b.b.b.pQtQtQt.#.#.#.#",
".#QtQt.#QtQtQtQt.7.b.b.b.b.b.b.b.b.b.b.b.b.b.b.b.b.b.b.b.b.b.b.b.b.b.b.b.b.b.b.b.b.b.b.b.b.b.b.b.b.b.b.b.b.b.b.8QtQtQt.#Qt.#QtQt",
"QtQt.#.#.#.#Qt.#.#.9.v#..b.b.b.b.b.b.b.b.b.b.b.b.b.b.b.b.b.b.b.b.b.b.b.b.b.b.b.b.b.b.b.b.b.b.b.b.b.b.b.b.b###a.#Qt.#Qt.#.#.#QtQt",
"Qt.#.r.r.r#bQtQt.r.r.j.o#c#d#e#f#g#h.b.b.b.b.b.b.b.b.b.b.b.b.b.b.b.b.b.b.b.b.b.b.b.b.b.b.b.b#i#j.1.1.w#k#l.j.r.rQt#b.#.r.r.#.#Qt",
"Qt.#.r.#.#.#.#Qt.#.#.#.#.o.o.o.o.o#m.b.b.b.b.b.b.b.b.b.b.b.b.b.b.b.b.b.b.b.b.b.b.b.b.b.b.b.b#c.o.o.o.o.o.#.#.#.#Qt.#.#.#.#.#.#Qt",
"Qt.#.#.#.#QtQtQtQtQtQt.#Qt.m.o.o.o.B.b.b.b.b.b.b.b.b.b.b.b.b.b.b.b.b.b.b.b.b.b.b.b.b.b.b.b.i.o.o.o.o.m.#Qt.#Qt.#.#Qt.#.rQt.r.#Qt",
"Qt.#Qt.#Qt.#.#.#.#QtQtQtQtQt.F.o.o.o.P.b.b.b.b.b.b.b.b.b.b.b.b.b.b.b.b.b.b.b.b.b.b.b.b.b.b#n.o.o.o.j.#.#QtQt.#.#.#Qt.#Qt.#.#.#Qt",
"Qt.#QtQtQt.#.#.#QtQtQtQtQtQtQtQt#o.o#p.b.b.b.b.b.b.b.b.b.b.b.b.b.b.b.b.b.b.b.b.b.b.b.b.b.i.o.o#q.#.#.#QtQt.#.#.#.#.#QtQtQt.#.#Qt",
"QtQtQt.#.#.#.#QtQtQt.#QtQtQtQt.#.#.##r#s.b.b.b.b.b.b.b.b.b.b.b.b.b.b.b.b.b.b.b.b.b.b.b#t.Y#uQt.#.#.#QtQt.#Qt.#Qt.#QtQtQtQtQtQtQt",
"QtQt.#QtQt.#QtQtQt.#Qt.#.#QtQt.#.#QtQt.#Qt.b.b.b.b.b.b.b.b.b.b.b.b.b.b.b.b.b.b.b.b.b.b.#.#QtQt.#.#QtQt.#Qt.#QtQtQtQtQtQt.#.#QtQt",
"QtQt.#.#.#QtQtQt.#Qt.#QtQtQtQt.#Qt.#.#.#.#QtQtQt#v.b.b.b.b.b.b.b.b.b.b.b.b.b.b#v.#Qt.#QtQtQtQt.#Qt.#.#.#.#QtQtQtQtQt.#.#Qt.#QtQt"};
