/* XPM */
static char *dummy[]={
"64 64 23 1",
". c #00000c",
"h c #000011",
"k c #000021",
"o c #000032",
"c c #000034",
"n c #000037",
"m c #000038",
"p c #00003b",
"a c #00003c",
"r c #000040",
"l c #000041",
"b c #000042",
"g c #000141",
"f c #000142",
"q c #000340",
"d c #00043f",
"u c #00053f",
"s c #010f38",
"e c #021634",
"# c #021832",
"i c #1f1f41",
"j c #241c46",
"t c #3b2d49",
".##.....###...#.#.#.....abbbbbbbbbbbbbba###...#.#.#......#..#...",
".##...#..#...#.###...bbbbbbbbbbbbbbbbbbbbbb..#.###......#..#....",
".##...#.#.....#.#.cbbbbbbbbbbbbbbbbbbbbbbbbbbc#.#............#..",
".#...###..##.###dbbbbbbbbbbbbbbbbbbbbbbbbbbbbbbd#.##..##.#.#.##.",
".###.###.##.##ebbbbbbbbbbbbbbbbbbbbbbbbbbbbbbbbbbe##.####.#.###.",
"..######....#fbbbbbbbbbbbbbbbbbbbbbbbbbbbbbbbbbbbbg..#######.#..",
".#..#......#bbbbbbbbbbbbbbbbbbbbbbbbbbbbbbbbbbbbbbbb....#.#.....",
".####.##.#hbbbbbbbbbbbbbbbbbbbbbbbbbbbbbbbbbbbbbbbbbbe.####.####",
"##..i#ii.jbbbbbbbbbbbbbbbbbbbbbbbbbbbbbbbbbbbbbbbbbbbbk.ii##i#i#",
"#..i####kbbbbbbbbbbbbbbbbbbbbbbbbbbbbbbbbbbbbbbbbbbbbbbk######.#",
"..##.#.ebbbbbbbbbbbbbbbbbbbbbbbbbbbbbbbbbbbbbbbbbbbbbbbbh..#.#.#",
"####..#bbbbbbbbbbbbbbbbbbbbbbbbbbbbbbbbbbbbbbbbbbbbbbbbbb.......",
"###..#bbbbbbbbbbbbbbbbbbbbbbbbbbbbbbbbbbbbbbbbbbbbbbbbbbbb......",
"##..#lbbbbbbbbbbbbbbbbbbbbbbbbbbbbbbbbbbbbbbbbbbbbbbbbbbbbg....#",
"#..#hbbbbbbbbbbbbbbbbbbbbbbbbbbbbbbbbbbbbbbbbbbbbbbbbbbbbbbe#..#",
".###bbbbbbbbbbbbbbbbbbbbbbbbbbbbbbbbbbbbbbbbbbbbbbbbbbbbbbbb...#",
"#.#mbbbbbbbbbbbbbbbbbbbbbbbbbbbbbbbbbbbbbbbbbbbbbbbbbbbbbbbbn.#.",
"##.bbbbbbbbbbbbbbbbbbbbbbbbbbbbbbbbbbbbbbbbbbbbbbbbbbbbbbbbbb#.#",
"#.cbbbbbbbbbbbbbbbbbbbbbbbbbbbbbbbbbbbbbbbbbbbbbbbbbbbbbbbbbbo#.",
"#.bbbbbbbbbbbbbbbbbbbbbbbbbbbbbbbbbbbbbbbbbbbbbbbbbbbbbbbbbbbb##",
"##bbbbbbbbbbbbbbbbbbbbbbbbbbbbbbbbbbbbbbbbbbbbbbbbbbbbbbbbbbbb##",
"#bbbbbbbbbbbbbbbbbbbbbbbbbbbbbbbbbbbbbbbbbbbbbbbbbbbbbbbbbbbbbb#",
"#bbbbbbbbbbbbbbbbbbbbbbbbbbbbbbbbbbbbbbbbbbbbbbbbbbbbbbbbbbbbbb.",
".bbbbbbbbbbbbbbbbbbbbbbbbbbbbbbbbbbbbbbbbbbbbbbbbbbbbbbbbbbbbbb.",
"abbbbbbbbbbbbbbbbbbbbbbbbbbbbbbbbbbbbbbbbbbbbbbbbbbbbbbbbbbbbbbp",
"bbbbbbbbbbbbbbbbbbbbbbbbbbbbbbbbbbbbbbbbbbbbbbbbbbbbbbbbbbbbbbbb",
"bbbbbbbbbbbbbbbbbbbbbbbbbbbbbbbbbbbbbbbbbbbbbbbbbbbbbbbbbbbbbbbb",
"bbbbbbbbbbbbbbbbbbbbbbbbbbbbbbbbbbbbbbbbbbbbbbbbbbbbbbbbbbbbbbbb",
"bbbbbbbbbbbbbbbbbbbbbbbbbbbbbbbbbbbbbbbbbbbbbbbbbbbbbbbbbbbbbbbb",
"bbbbbbbbbbbbbbbbbbbbbbbbbbbbbbbbbbbbbbbbbbbbbbbbbbbbbbbbbbbbbbbb",
"bbbbbbbbbbbbbbbbbbbbbbbbbbbbbbbbbbbbbbbbbbbbbbbbbbbbbbbbbbbbbbbb",
"bbbbbbbbbbbbbbbbbbbbbbbbbbbbbbbbbbbbbbbbbbbbbbbbbbbbbbbbbbbbbbbb",
"bbbbbbbbbbbbbbbbbbbbbbbbbbbbbbbbbbbbbbbbbbbbbbbbbbbbbbbbbbbbbbbb",
"bbbbbbbbbbbbbbbbbbbbbbbbbbbbbbbbbbbbbbbbbbbbbbbbbbbbbbbbbbbbbbbb",
"bbbbbbbbbbbbbbbbbbbbbbbbbbbbbbbbbbbbbbbbbbbbbbbbbbbbbbbbbbbbbbbb",
"bbbbbbbbbbbbbbbbbbbbbbbbbbbbbbbbbbbbbbbbbbbbbbbbbbbbbbbbbbbbbbbb",
"bbbbbbbbbbbbbbbbbbbbbbbbbbbbbbbbbbbbbbbbbbbbbbbbbbbbbbbbbbbbbbbb",
"bbbbbbbbbbbbbbbbbbbbbbbbbbbbbbbbbbbbbbbbbbbbbbbbbbbbbbbbbbbbbbbb",
"bbbbbbbbbbbbbbbbbbbbbbbbbbbbbbbbbbbbbbbbbbbbbbbbbbbbbbbbbbbbbbbb",
"abbbbbbbbbbbbbbbbbbbbbbbbbbbbbbbbbbbbbbbbbbbbbbbbbbbbbbbbbbbbbbq",
"#bbbbbbbbbbbbbbbbbbbbbbbbbbbbbbbbbbbbbbbbbbbbbbbbbbbbbbbbbbbbbb#",
"#bbbbbbbbbbbbbbbbbbbbbbbbbbbbbbbbbbbbbbbbbbbbbbbbbbbbbbbbbbbbbb#",
".bbbbbbbbbbbbbbbbbbbbbbbbbbbbbbbbbbbbbbbbbbbbbbbbbbbbbbbbbbbbbb#",
"##bbbbbbbbbbbbbbbbbbbbbbbbbbbbbbbbbbbbbbbbbbbbbbbbbbbbbbbbbbbb..",
"##bbbbbbbbbbbbbbbbbbbbbbbbbbbbbbbbbbbbbbbbbbbbbbbbbbbbbbbbbbbb..",
"##cbbbbbbbbbbbbbbbbbbbbbbbbbbbbbbbbbbbbbbbbbbbbbbbbbbbbbbbbbbo.#",
"#..bbbbbbbbbbbbbbbbbbbbbbbbbbbbbbbbbbbbbbbbbbbbbbbbbbbbbbbbbb..#",
".##dbbbbbbbbbbbbbbbbbbbbbbbbbbbbbbbbbbbbbbbbbbbbbbbbbbbbbbbbn..#",
"#.#.bbbbbbbbbbbbbbbbbbbbbbbbbbbbbbbbbbbbbbbbbbbbbbbbbbbbbbbb..#.",
"##..hbbbbbbbbbbbbbbbbbbbbbbbbbbbbbbbbbbbbbbbbbbbbbbbbbbbbbbh.#.#",
"#....rbbbbbbbbbbbbbbbbbbbbbbbbbbbbbbbbbbbbbbbbbbbbbbbbbbbbr...#.",
"#.##..bbbbbbbbbbbbbbbbbbbbbbbbbbbbbbbbbbbbbbbbbbbbbbbbbbbb##.###",
"####.##bbbbbbbbbbbbbbbbbbbbbbbbbbbbbbbbbbbbbbbbbbbbbbbbbb##.####",
"###..##ebbbbbbbbbbbbbbbbbbbbbbbbbbbbbbbbbbbbbbbbbbbbbbbbh...####",
"#..#....sbbbbbbbbbbbbbbbbbbbbbbbbbbbbbbbbbbbbbbbbbbbbbbk...#.#..",
"..####.##sbbbbbbbbbbbbbbbbbbbbbbbbbbbbbbbbbbbbbbbbbbbbs#.#.###..",
".#iiit..iiebbbbbbbbbbbbbbbbbbbbbbbbbbbbbbbbbbbbbbbbbbeii.t#ii##.",
".#i####.####bbbbbbbbbbbbbbbbbbbbbbbbbbbbbbbbbbbbbbbb####.######.",
".####......#.gbbbbbbbbbbbbbbbbbbbbbbbbbbbbbbbbbbbbg#.#.##.#i.i#.",
".#.#.####.....hbbbbbbbbbbbbbbbbbbbbbbbbbbbbbbbbbbe##..###.#.###.",
".#...###........ubbbbbbbbbbbbbbbbbbbbbbbbbbbbbbn###..#####...##.",
"...####...#....###cbbbbbbbbbbbbbbbbbbbbbbbbbbo.###..#.#.#.......",
"..#..#...#.##..##..#.bbbbbbbbbbbbbbbbbbbbbb##..##..#.#......##..",
"..###...#.#....#.####...pbbbbbbbbbbbbbbp#.#....#.####.....##.#.."};
