/* XPM */
static char *dummy[]={
"64 64 12 1",
"# c #000008",
". c None",
"a c #100000",
"f c #184098",
"i c #184099",
"j c #184199",
"c c #201010",
"g c #3870e0",
"b c #402828",
"d c #604040",
"h c #90a8e0",
"e c #a07878",
"....#############a#a#a###a#a#a###a#a#a###a#a#a##############....",
"..###aaaaaaaaaa##a#b#a#a#a#b#a#a#a#b#a#a#a#b#a#a#aaaaaaaaac###..",
".##aabbbbbbbabaa#b#b#b#b#b#b#b#b#b#b#b#b#b#b#b#babbbabbabbaac##.",
".#abbbddddddbdbacdcdcdcdcdcdcdcdcdcdcdcdcdcdcdcdadddbddbdabbac#.",
"##abdddeeeeededbaeceaeceaeceaeceaeceaeceaeceaecebeeedeededaaba##",
"#abbdeeeddddedebaeceaeceaeceaeceaeceaeceaeceaecebdddeddeeeeabac#",
"#abddedddbbbdbdbcdadcdcdcdadcdcdcdadcdcdcdadcdcdbbbbebbeddeaaac#",
"#abdeedbbdaadabbcbcbcbcbcbcbcbcbcbcbcbcbcbcbcbcbbaaadabebddaabc#",
"#abdeddbadaababb#a#a#a#a#a#a#a#a#a#a#a#a#a#a#a#abaaadaadbbdbaac#",
"#abdedbbadaabbba#b#b#b#b#b#b#b#b#b#b#b#b#b#b#b#babbbbaadbbbbaac#",
"#abdedbaabbbaaaa#a#a#a#a#a#a#a#a#a#a#a#a#a#a#a#aaababbababdbaac#",
"#abdedbaaabaaaa##a###a###a###a###a###a###a###a###abaabababbbaac#",
"#bddedbaabaaccc##################################cccaabaabbaacc#",
"#abdeddbabaacc##ffffffffffffffffffffffffffffffff##ccaabaabbaacc#",
"#abdedbaabaac#ffffffffffffffffffffffffffffffffffff#caabaabbaacc#",
"##############ffffffffffffffffffffffffffffffffffff##############",
"aabdeedbabaa#fffff...ggggggggggggggggggggggggffffff#aababdeedbaa",
"###cbccbc####ffff.....gggggggggggggggggggggggggffff####cbccbc###",
"#abdeedbabaa#fff.......ggggggggggggggggggggggggffff#aababdeedba#",
"###bbccc#####fff.......ggggggggggghhhhhhggggggggfff#####cccbb###",
"aabdeedbaba##fff.......ggggggggggggghhhhhhggggggfff##ababdeedbaa",
"###ccbccb#a##fffg.....gggggggggggggggghhhhhgggggfff##a#bccbcc###",
"aabdeedbabaa#fffgg...ggggggggggggggggggghhhhggggfff#aababdeedbaa",
"##b###b######fffggggggggggggggggggggggggghhhggggfff######b###b##",
"aabdeedbabaa#fffgggggggggggggggggg....gggghhhgggfff#aababdeedbaa",
"###cbccbc####fffggggggggggggggggg......gggghhgggfff####cbccbc###",
"#abdeedbabaa#fffgggggggggggggggg........ggghhgggfff#aababdeedba#",
"###bbccc#####fffgggggggggggggggg........gggghgggfff#####cccbb###",
"aabdeedbaba##fffgggggggggggggggg........gggghgggfff##ababdeedbaa",
"###ccbccb#a##fffgggggggggggggggg........ggggggggfff##a#bccbcc###",
"aabdeedbabaa#fffggggggggggggggggg......gggggggggfff#aababdeedbaa",
"##b###b######fffgggggggggggggggggg....ggggggggggfff######b###b##",
"aabdeedbabaa#fffggggggggggggggggggggggggggggggggfff#aababdeedbaa",
"###cbccbc####fffggggggggggggggggggggggggggggggggfff####cbccbc###",
"#abdeedbabaa#fffggggggggggggggggggggggggggggggggfff#aababdeedba#",
"###bbccc#####fffggggggggggggggggggggggggggggggggfff#####cccbb###",
"aabdeedbaba##fffggggggggggggggggggggggggggggggggfff##ababdeedbaa",
"###ccbccb#a##fffggggggggggggggggggggggggggggggggfff##a#bccbcc###",
"aabdeedbabaa#fffggggggggggggggggggggggggggggggggfff#aababdeedbaa",
"##b###b######fffggggggggggggggggggggggggggggggggfff######b###b##",
"aabdeedbabaa#fffgggggggggg....ggggggggggggggggggfff#aababdeedbaa",
"###cbccbc####fffggggggggg......gggggggggggggggggfff####cbccbc###",
"#abdeedbabaa#fffgggggggg........ggggggggggggggggfff#aababdeedba#",
"###bbccc#####fffgggggggg........ggggggggggggggggfff#####cccbb###",
"aabdeedbaba##fffgggggggg........ggggggggggggggggfff##ababdeedbaa",
"###ccbccb#a##fffgggggggg........ggggggggggggggggfff##a#bccbcc###",
"aabdeedbabaa#fffggggggggg......gggggggggggggggggfff#aababdeedbaa",
"##b###b######fffgggggggggg....ggggggggggggggggggfff######b###b##",
"aabdeedbabaa#fffggggggggggggggggggggggggggggggggfff#aababdeedbaa",
"###cbccbc####fffggggggggggggggggggggggggggggggggfff####cbccbc###",
"#abdeedbabaa#fffggggggggggggggggggggggggggggggggfff#aababdeedba#",
"###bbccc#####fffggggggggggggggggggggggggggggggggfff#####cccbb###",
"aabdeedbaba##fffggggggggggggggggggggggg...ggggggfff##ababdeedbaa",
"###ccbccb#a##fffgggggggggggggggggggggg.....gggggfff##a#bccbcc###",
"aabdeedbabaa#fffggggggggggggggggggggg.......ggggfff#aababdeedbaa",
"##b###b######fffggggggggggggggggggggg.......ggggiff######b###b##",
"aabdeedbabaa#fffggggggggggggggggggggg.......ggggiff#aababdeedbaa",
"###cbccbc####fffgggggggggggggggggggggg.....gggggiff####cbccbc###",
"#abdeedbabaa#ffiigggggggggggggggggggggg...gggggiiff#aababdeedba#",
"###bbccc#####fffiggggggggggggggggggggggggggggggjiff#####cccbb###",
"aabdeedbaba##fffjjiggggggggggggggggggggggggggijjfff##ababdeedbaa",
"###ccbccb#a##ffffjjjiiiiiiiiiiiiiiiiiiiiiiiiijjffff##a#bccbcc###",
"aabdeedbabaa#fffffijjjjjiiiiiiiiiiiiiiiiiijjjifffff#aababdeedbaa",
"##b###b######ffffffffffffffffffffffffffffffffffffff######b###b##"};
