/* XPM */
static char *dummy[]={
"64 64 200 2",
"Qt c #00000c",
".q c #000042",
"#S c #010142",
"#b c #020142",
"at c #020143",
".# c #021832",
"a1 c #030242",
"#i c #030243",
"ac c #040243",
"#u c #040343",
".C c #05030f",
".Y c #050343",
"a7 c #060443",
"a3 c #070443",
".4 c #070543",
".f c #071931",
".K c #080543",
"aZ c #090643",
"ah c #0a0743",
"#r c #0b0744",
"#7 c #0c0844",
"#8 c #0c0846",
"#a c #0d0844",
"aO c #0e0944",
"a0 c #0f0a44",
"#J c #110b44",
".S c #120b44",
"#R c #120c45",
"ae c #120c48",
".p c #130c45",
".T c #130d17",
"#n c #140d45",
"ba c #141b2f",
"bb c #150d45",
".j c #160e45",
"#4 c #170f45",
"#Z c #181045",
"aq c #191046",
".i c #1a1146",
"au c #1a1147",
".t c #1c1246",
".9 c #1d1346",
"aD c #1e1346",
"aw c #1f1446",
".N c #1f1f41",
".X c #201446",
".6 c #201547",
"aB c #20164e",
".k c #211547",
"#m c #221647",
"#G c #221720",
"be c #231647",
"ao c #231747",
"#9 c #23184f",
".y c #241747",
".d c #241821",
"aA c #24184e",
".3 c #251847",
".U c #25194f",
"al c #261847",
"#w c #271a23",
"ar c #281a48",
"#p c #281b24",
"bf c #281f2b",
"#6 c #291a48",
"#e c #291b48",
".e c #291f2b",
"#z c #2a1b48",
"#T c #2b1c48",
"ai c #2b1d25",
".a c #2b1d26",
"a2 c #2b202a",
".h c #2c1c48",
"an c #2c1d4c",
".z c #2d1d48",
"bc c #2e1d48",
"ab c #2e1e48",
"#A c #2f1e49",
"b# c #2f2028",
".D c #2f2052",
"as c #301f49",
"#d c #302028",
".n c #302129",
".r c #311f49",
"#V c #312049",
".b c #312129",
".0 c #322049",
"ag c #332149",
"#y c #332355",
"a4 c #342249",
"aL c #352249",
"#F c #36234a",
"#j c #37234a",
".R c #37244a",
".O c #37283d",
"#W c #38244a",
"a6 c #39254a",
"aC c #392653",
"#K c #3a254a",
".l c #3b264a",
"bd c #3b2d49",
"#t c #3c264a",
".x c #3c274a",
"aU c #3d274a",
"a5 c #3d274b",
"a8 c #3e284b",
"#D c #3e2b59",
"#l c #3f284b",
"#v c #40294b",
"#o c #412a4b",
"aR c #422a4b",
"az c #422b4f",
".s c #442c4b",
".L c #452c4c",
"aP c #452d4c",
"#Y c #462d4c",
"aj c #47305b",
"#5 c #482e4c",
"aS c #492f4c",
"#q c #493159",
".8 c #4a304c",
"a9 c #4b304c",
".g c #4c314d",
"aX c #4d314d",
"am c #4d324d",
"aM c #4e324d",
"#M c #4f334d",
".o c #51344d",
"#E c #52354d",
".A c #53354d",
"aY c #53354e",
"aI c #53364e",
"aV c #54364e",
"ap c #55374e",
".Z c #56374e",
"#. c #57384e",
"b. c #58394e",
"aN c #59394e",
"aK c #5a3a4e",
".5 c #5a3a4f",
"aW c #5b3b4f",
"aT c #5c3b4f",
"aQ c #5d3c4f",
"#c c #5e3c4f",
"ax c #5f3d4f",
"#g c #603e4f",
"#U c #613e4f",
".m c #613f50",
"#f c #623f50",
"av c #634050",
".P c #634466",
".J c #644050",
".w c #654150",
"#0 c #654252",
"ay c #664250",
".7 c #66445b",
"#k c #684350",
"aE c #6a4451",
"#h c #6b4551",
"#s c #6c4551",
"ad c #6c4651",
".u c #6d4651",
"a. c #6d4b6a",
"#L c #6e4751",
"## c #6f4751",
"#N c #6f4851",
"aJ c #704852",
"#I c #704d6b",
".B c #714952",
".M c #724952",
".c c #734a52",
".W c #744b53",
".I c #754b54",
"aH c #754b55",
".v c #754c54",
"aF c #754c59",
"#Q c #764c55",
"ak c #774d56",
"aG c #774e5c",
".Q c #784e57",
".2 c #794f58",
"#B c #7b505a",
"af c #7c556f",
"#1 c #7e566e",
"#x c #815560",
"#O c #845763",
"#3 c #875a66",
"#H c #8b5d6a",
"#X c #90626f",
".1 c #906377",
"#2 c #926477",
".H c #936472",
".E c #946573",
".V c #966675",
"#C c #986877",
"#P c #996878",
"aa c #996978",
".F c #9b6a7a",
"a# c #9b6a7b",
".G c #9c6b7b",
"Qt.#.#QtQtQtQtQt.#.#.#QtQtQt.#Qt.#Qt.#QtQtQtQtQt.a.b.b.b.b.b.b.b.b.b.b.b.b.b.b.a.#.#.#QtQtQt.#Qt.#Qt.#QtQtQtQtQtQt.#QtQt.#QtQtQt",
"Qt.#.#QtQtQt.#QtQt.#QtQtQt.#Qt.#.#.#QtQtQt.b.b.b.b.b.c.c.c.c.c.c.c.c.c.c.b.b.b.b.b.b.bQtQt.#Qt.#.#.#QtQtQtQtQtQt.#QtQt.#QtQtQtQt",
"Qt.#.#QtQtQt.#Qt.#QtQtQtQtQt.#Qt.#Qt.d.b.b.b.c.c.c.c.c.c.c.c.c.c.c.c.c.c.c.c.c.c.b.b.b.b.b.d.#Qt.#QtQtQtQtQtQtQtQtQtQtQtQt.#QtQt",
"Qt.#QtQtQt.#.#.#QtQt.#.#Qt.#.#.#.e.b.b.c.c.c.c.c.c.c.c.c.c.c.c.c.c.c.c.c.c.c.c.c.c.c.c.b.b.b.b.e.#Qt.#.#QtQt.#.#Qt.#Qt.#Qt.#.#Qt",
"Qt.#.#.#Qt.#.#.#Qt.#.#Qt.#.#.f.b.b.g.h.i.j.k.l.m.c.c.c.c.c.c.c.c.c.c.c.c.c.c.c.c.c.c.c.c.c.b.b.b.b.f.#.#Qt.#.#.#.#Qt.#Qt.#.#.#Qt",
"QtQt.#.#.#.#.#.#QtQtQtQt.#.n.b.o.p.q.q.q.q.q.q.q.r.c.c.c.c.c.c.c.c.c.c.c.c.c.c.c.c.c.c.c.c.c.c.b.b.b.nQtQt.#.#.#.#.#.#.#Qt.#QtQt",
"Qt.#QtQt.#QtQtQtQtQtQt.#.b.b.s.q.q.q.q.q.q.q.q.q.q.t.u.c.v.c.c.c.c.c.c.w.x.y.z.A.B.c.c.c.c.c.c.c.b.b.b.bQtQtQtQt.#Qt.#QtQtQtQtQt",
"Qt.#.#.#.#Qt.#.#Qt.#.C.b.b.A.q.q.q.q.q.q.q.q.q.q.q.q.D.E.F.G.H.I.c.c.J.t.q.q.q.K.L.M.c.c.c.c.c.c.c.b.b.b.b.fQt.#.#.#.#Qt.#.#.#.#",
".#.#QtQt.N.#.N.NQt.O.b.c.c.j.q.q.q.q.q.q.q.q.q.q.q.q.q.P.G.G.F.Q.c.c.R.q.q.q.q.q.S.w.c.c.c.c.c.c.c.c.c.b.b.b.TQt.N.N.#.#.N.#.N.#",
".#QtQt.N.#.#.#.#.T.b.c.c.o.q.q.q.q.q.q.q.q.q.q.q.q.q.q.U.G.G.V.W.c.c.X.q.q.q.q.q.Y.Z.c.c.c.c.c.c.c.c.c.c.b.b.b.T.#.#.#.#.#.#Qt.#",
"QtQt.#.#Qt.#Qt.f.b.c.c.c.0.q.q.q.q.q.q.q.q.q.q.q.q.q.q.q.1.H.2.c.c.c.3.q.q.q.q.q.4.5.c.c.c.c.c.c.c.c.c.c.c.b.b.b.CQtQt.#Qt.#Qt.#",
".#.#.#.#QtQt.#.b.c.c.c.c.6.q.q.q.q.q.q.q.q.q.q.q.q.q.q.q.7.W.c.c.c.c.8.Y.q.q.q.q.k.u.c.c.c.c.c.c.c.c.c.c.c.c.b.b.bQtQtQtQtQtQtQt",
".#.#.#QtQt.#.b.b.c.c.c.c.9.q.q.q.q.q.q.q.q.q.q.q.q.q.q.q#..c.c.c.c.c##.l#a#b.Y.X#c.c.c.c.c.c.c.c.c.c.c.c.c.c.b.b.b.bQtQtQtQtQtQt",
".#.#QtQt.##d.b.c.c.c.c.c#e.q.q.q.q.q.q.q.q.q.q.q.q.q.q.q#f.c.c.c.c.c.c.B#g.o#.#h.c.c.c.c.c.c.c.c.c.c.c.c.c.c.c.b.b.b.nQtQtQtQt.#",
".#QtQt.#.C.b.c.c.c.c.c.c.s.q.q.q.q.q.q.q.q.q.q.q.q.q.q#a.c.c.c.c.c.c.c.c.c.c.c.c.c.c.c.c.c.c.c.c.c.c.c.c.c.c.c.c.b.b.b.f.#QtQt.#",
"Qt.#.#.#.b.c.c.c.c.c.c.c#h#i.q.q.q.q.q.q.q.q.q.q.q.q.q#j.c.c.c.c.c.c.c.c.c.c.c.c.c.c.c.c.c.c#k#l#m.p#n.y#o#h.c.c.c.b.b.bQtQtQt.#",
".#Qt.##p.b.c.c.c.c.c.c.c.W#q.q.q.q.q.q.q.q.q.q.q.q.q#r#s.c.c.c.c.c.c.c.c.c.c.c.c.c.c.c.c.c#t.q.q.q.q.q.q.q#u#v.c.c.b.b.b#wQt.#Qt",
".#.#Qt.b.c.c.c.c.c.c.c.c#x.G#y.q.q.q.q.q.q.q.q.q.q.q.o.c.c.c.c.c.c.c.c.c.c.c.c.c.c.c.c.c#z.q.q.q.q.q.q.q.q.q.q#A.c.c.b.b.b.#Qt.#",
".#Qt.d.b.c.c.c.c.c.c.c#B#C.G.G#D.q.q.q.q.q.q.q.q#a#E.c.c.c.c.c.c.c.c.c.c.c.c.c.c.c.c.c#F.q.q.q.q.q.q.q.q.q.q.q.q.x.c.b.b.b#G.#Qt",
".#Qt.b.c.c.c.c.c.c.c.I#H.G.G.G.G#I.D#b.q.q.q#J#K#L.c.c.c.c.c.c.c#g#M.g#.#N.c.c.c.c.c#c.q.q.q.q.q.q.q.q.q.q.q.q.q.q.w.c.b.b.b.#.#",
".#.#.b.c.c.c.c.c.c.c#O.F.G.G.G.G#P#Q.c.m#c#k.c.c.c.c.c.c.c.c#o#R.q.q.q.q#S#T#U.c.c.c#V.q.q.q.q.q.q.q.q.q.q.q.q.q.q#W.c.b.b.b.#.#",
".#.b.b.c.c.c.c.c.c.c#X.G.G.G.G.G.Q.c.c.c.c.c.c.c.c.c.c.c#k.9.q.q.q.q.q.q.q.q.q#Y.c.c#J.q.q.q.q.q.q.q.q.q.q.q.q.q.q#Z.c.b.b.b.b.#",
".#.b.c.c.c.c.c.c###0#1#2.G.G.G#3.c.c.c.c.c.c.c.c.c.c.c#N#4.q.q.q.q.q.q.q.q.q.q.q#5.c.q.q.q.q.q.q.q.q.q.q.q.q.q.q.q.4.c.c.b.b.bQt",
"Qt.b.c.c.c.c.c#f#6#7#8#9a.a#aa.c.c.c.c.c.c.c.c.c.c.c.cab.q.q.q.q.q.q.q.q.q.q.q.qac.J.q.q.q.q.q.q.q.q.q.q.q.q.q.q.q.Y.c.c.b.b.bQt",
".a.b.c.c.c.cad#m.q.q.q.qaeaf#3.c.c.c.c.c.c.c.c.c.c.c#U.q.q.q.q.q.q.q.q.q.q.q.q.q.qagah.q.q.q.q.q.q.q.q.q.q.q.q.q.q.S.c.c.b.b.bai",
".b.b.c.c.c.c.Z.Y.q.q.q.q.qajak.c.c.c.c.c.c.c.c.c.c.c.l.q.q.q.q.q.q.q.q.q.q.q.q.q.q#ral.q.q.q.q.q.q.q.q.q.q.q.q.q.q.z.c.c.b.b.b.b",
".b.c.c.c.c.cam.q.q.q.q.q.qan.c.c.c.c.c.c.c.c.c.c.c.cao.q.q.q.q.q.q.q.q.q.q.q.q.q.q.q.s.q.q.q.q.q.q.q.q.q.q.q.q.q.qap.c.c.c.b.b.b",
".b.c.c.c.c.c.5.K.q.q.q.q.q.x.c.c.c.c.c.c.c.c.c.c.c.caq.q.q.q.q.q.q.q.q.q.q.q.q.q.q.q.5.k.q.q.q.q.q.q.q.q.q.q.q.qar.c.c.c.c.b.b.b",
".b.c.c.c.c.c#Nasat.q.q.qauav.c.c.c.c.c.c.c.c.c.c.c.caw.q.q.q.q.q.q.q.q.q.q.q.q.q.q.qaxay#J.q.q.q.q.q.q.q.q.q.q.j#s.c.c.c.c.b.b.b",
".b.c.c.c.c.c.c#hazaAaBaCax.c.c.c.c.c.c.c.c.c.c.c.c.c.0.q.q.q.q.q.q.q.q.q.q.q.q.q.q#S.B.c.waD.q.q.q.q.q.q.q.q#maE.c.c.c.c.c.b.b.b",
".b.c.c.c.c.c.c.c.caFaGaH.c.c.c.c.c.c.c.c.c.c.c.c.c.caI.q.q.q.q.q.q.q.q.q.q.q.q.q.q.3.c.c.c.c#5.t.q.q.q.qaw.8.c.c.c.c.c.c.c.b.b.b",
".b.c.c.c.c.c.c.c.c.c.c.c.c.c.c.c.c.c.c.c.c.c.c.c.c.c.c.t.q.q.q.q.q.q.q.q.q.q.q.q.qap.c.c.c.c.c.caJavav.B.c.c.c.c.c.c.c.c.c.b.b.b",
".b.c.c.c.c.c.c.c.c.c.c.c.c.c.c.c.c.c.c.c.c.c.c.c.c.c.c.5.q.q.q.q.q.q.q.q.q.q.q.q.0.c.c.c.c.c.c.c.c.c.c.c.c.c.c.c.c.c.c.c.c.b.b.b",
".b.c.c.c.c.c.c.c.c.c.caK#t#T#6aL#M.c.c.c.c.c.c.c.c.c.c.caM#S.q.q.q.q.q.q.q.q.q#T.c.c.c.c.c.c.c.c.c.c.c.c.c.c.c.c.c.c.c.c.c.b.b.b",
".b.c.c.c.c.c.c.c.caNaD.q.q.q.q.q.qaOaP.c.c.c.c.c.c.c.c.c.caQ.k.q.q.q.q.q.qahaR.c.c.c.c.c.c.c.c.c.c.c.c.c.c.c.c.c.c.c.c.c.c.b.b.b",
".b.c.c.c.c.c.c.caS.q.q.q.q.q.q.q.q.q.qas.c.c.c.c.c.c.c.c.c.c.caTaU#Taragam.c.c.c.c.c.c.c.c.c.c.c.c.c.c.c.c.c.c.c.c.c.c.c.c.b.b.b",
".b.b.c.c.c.c.caV.q.q.q.q.q.q.q.q.q.q.q.q.R.c.c.c.c.c.c.c.c.c.c.c.c.c.c.c.c.c.c.c.c.c.c.c.c.c.c.c.c.c.c.c.c.c.c.c.c.c.c.c.b.b.b.b",
".b.b.c.c.c.c.c.j.q.q.q.q.q.q.q.q.q.q.q.q.qaW.c.c.c.c.c.c.c.c.c.c.c.c.c.c.c.c.c.c.c.c.c.c.c.c.c.c.c.c.c.c.c.c.c.c.c.c.c.c.b.b.b.b",
".b.b.c.c.c.caX.q.q.q.q.q.q.q.q.q.q.q.q.q.q#T.c.c.c.c.c.c.c.c.c.c.c.c.c.c.c.c.c.c.c.c.c.c.c.c.M#faY#.#h.c.c.c.c.c.c.c.c.c.b.b.b.b",
".a.b.c.c.c.c#T.q.q.q.q.q.q.q.q.q.q.q.q.q.qaZ.c.c.c.c.c.c.c.c.c.c.c.c.c.c.c.c.c.c.c.c.c.c.caJ#oa0a1.YaDaT.c.c.c.c.c.c.c.c.b.b.ba2",
".#.b.b.c.c.c#4.q.q.q.q.q.q.q.q.q.q.q.q.q.q.qay.c.c.c.c.c.c#NaT.Zax.c.c.c.c.c.c.c.c.c.c.c.c.oa3.q.q.q.q.9aE.c.c.c.c.c.c.b.b.b.b.#",
".#.b.b.c.c.c#R.q.q.q.q.q.q.q.q.q.q.q.q.q.q.q.m.c.c.c.cap.y.q.q.q.q.Y.hax.c.c.c.c.c.c.c.c.c.h.q.q.q.q.q.Y.Z.c.c.c.c.c.c.b.b.b.b.#",
"Qt.b.b.c.c.c.t.q.q.q.q.q.q.q.q.q.q.q.q.q.q.qaE.c.c.cag.q.q.q.q.q.q.q.q.q#o.c.c.c.c.c.c.c.c.3.q.q.q.q.q#b.o.c.c.c.c.c.c.b.b.b.b.#",
".#.#.b.b.c.ca4.q.q.q.q.q.q.q.q.q.q.q.q.q.q#R.c.c.cab.q.q.q.q.q.q.q.q.q.q.q#l.c.c.c.c.c.c.ca5#S.q.q.q.q#a#U.c.c.c.c.c.b.b.b.bQtQt",
".#.#.b.b.c.caK.q.q.q.q.q.q.q.q.q.q.q.q.q.qa6.c.c#Y.q.q.q.q.q.q.q.q.q.q.q.q.qaN.c.c.c.c.c.cayaD.q.q.qa7a8.B.c.c.c.c.c.b.b.b.bQtQt",
".#.#.d.b.b.c.car.q.q.q.q.q.q.q.q.q.q.q.qaZad.c.ca0.q.q.q.q.q.q.q.q.q.q.q.q.qao.c.c.c.c.c.c.cay.xao#6aMaJ.c.c.c.c.c.b.b.b.b#GQt.#",
".#QtQt.b.b.c.caE.S.q.q.q.q.q.q.q.q.q.q.qaM.c.caY.q.q.q.q.q.q.q.q.q.q.q.q.q.q.q#k.c.c.c.c.c.c.c.c.B.M.c.c.c.c.c.c.c.b.b.b.bQtQt.#",
"Qt.#.#.e.b.b.c.cavaq.q.q.q.q.q.q.q.q#ua9.c.c.c#K.q.q.q.q.q.q.q.q.q.q.q.q.q.q.q#M.c.c.c.c.c.c.c.c.c.c.c.c.c.c.c.c.b.b.b.b#wQtQt.#",
".#Qt.#Qt.b.b.b.c.c.ca8a0.q.q.q.qacab.J.c.c.c.c#A.q.q.q.q.q.q.q.q.q.q.q.q.q.q.q.L.c.c.c.c.c.c.c.c.c.c.c.c.c.c.c.b.b.b.b.bQtQt.#Qt",
".#.#QtQt.C.b.b.b.c.c.c.caxaM.gb..M.c.c.c.c.c.cag.q.q.q.q.q.q.q.q.q.q.q.q.q.q.qaS.c.c.c.c.c.c.c.c.c.c.c.c.c.c.b.b.b.b.b.CQt.#Qt.#",
".#QtQtQtQtb#.b.b.c.c.c.c.c.c.c.c.c.c.c.c.c.c.c.L.q.q.q.q.q.q.q.q.q.q.q.q.q.q.q.5.c.c.c.c.c.c.c.c.c.c.c.c.c.c.b.b.b.bb#QtQtQt.#Qt",
".#Qt.#.#QtQt.b.b.b.c.c.c.c.c.c.c.c.c.c.c.c.c.c.J.q.q.q.q.q.q.q.q.q.q.q.q.q.q#a.c.c.c.c.c.c.c.c.c.c.c.c.c.c.b.b.b.b.b.#.#Qt.#.#.#",
".#.#.#.#Qt.#.#.b.b.b.c.c.c.c.c.c.c.c.c.c.c.c.c.c#6.q.q.q.q.q.q.q.q.q.q.q.q.q.x.c.c.c.c.c.c.c.c.c.c.c.c.c.b.b.b.b.b.#.#Qt.#.#.#.#",
".#.#.#QtQt.#.#.f.b.b.b.c.c.c.c.c.c.c.c.c.c.c.c.c.waZ.q.q.q.q.q.q.q.q.q.q.q.i.c.c.c.c.c.c.c.c.c.c.c.c.c.b.b.b.b.b.CQtQtQt.#.#.#.#",
".#QtQt.#QtQtQtQtba.b.b.b.b.c.c.c.c.c.c.c.c.c.c.c.capa3.q.q.q.q.q.q.q.q.qbb.w.c.c.c.c.c.c.c.c.c.c.c.b.b.b.b.b.b.TQtQtQt.#Qt.#QtQt",
"QtQt.#.#.#.#Qt.#.#ba.b.b.b.b.c.c.c.c.c.c.c.c.c.c.c.c#U#m.q.q.q.q.q.q.qbc#L.c.c.c.c.c.c.c.c.c.c.c.b.b.b.b.b.bba.#Qt.#Qt.#.#.#QtQt",
"Qt.#.N.N.NbdQtQt.N.N.f.b.b.b.b.c.c.c.c.c.c.c.c.c.c.c.c.caN.Rbe.9.3aU#U.c.c.c.c.c.c.c.c.c.c.c.c.b.b.b.b.b.b.f.N.NQtbd.#.N.N.#.#Qt",
"Qt.#.N.#.#.#.#Qt.#.#.#.#.b.b.b.b.b.c.c.c.c.c.c.c.c.c.c.c.c.c.c.c.c.c.c.c.c.c.c.c.c.c.c.c.c.b.b.b.b.b.b.b.#.#.#.#Qt.#.#.#.#.#.#Qt",
"Qt.#.#.#.#QtQtQtQtQtQt.#Qt.n.b.b.b.b.b.c.c.c.c.c.c.c.c.c.c.c.c.c.c.c.c.c.c.c.c.c.c.c.c.b.b.b.b.b.b.b.n.#Qt.#Qt.#.#Qt.#.NQt.N.#Qt",
"Qt.#Qt.#Qt.#.#.#.#QtQtQtQtQt.C.b.b.b.b.b.b.b.c.c.c.c.c.c.c.c.c.c.c.c.c.c.c.c.c.c.b.b.b.b.b.b.b.b.b.f.#.#QtQt.#.#.#Qt.#Qt.#.#.#Qt",
"Qt.#QtQtQt.#.#.#QtQtQtQtQtQtQtQtbf.b.b.b.b.b.b.b.b.b.c.c.c.c.c.c.c.c.c.c.b.b.b.b.b.b.b.b.b.b.b#w.#.#.#QtQt.#.#.#.#.#QtQtQt.#.#Qt",
"QtQtQt.#.#.#.#QtQtQt.#QtQtQtQt.#.#.#.d.b.b.b.b.b.b.b.b.b.b.b.b.b.b.b.b.b.b.b.b.b.b.b.b.b.b#GQt.#.#.#QtQt.#Qt.#Qt.#QtQtQtQtQtQtQt",
"QtQt.#QtQt.#QtQtQt.#Qt.#.#QtQt.#.#QtQt.#Qt.b.b.b.b.b.b.b.b.b.b.b.b.b.b.b.b.b.b.b.b.b.b.#.#QtQt.#.#QtQt.#Qt.#QtQtQtQtQtQt.#.#QtQt",
"QtQt.#.#.#QtQtQt.#Qt.#QtQtQtQt.#Qt.#.#.#.#QtQtQtai.b.b.b.b.b.b.b.b.b.b.b.b.b.bai.#Qt.#QtQtQtQt.#Qt.#.#.#.#QtQtQtQtQt.#.#Qt.#QtQt"};
