/* XPM */
static char *dummy[]={
"64 64 63 1",
". c #00000c",
"# c #021832",
"i c #05030f",
"f c #071931",
"w c #130d17",
"6 c #141b2f",
"r c #1f1f41",
"U c #221720",
"d c #241821",
"S c #271a23",
"P c #281b24",
"8 c #281f2b",
"e c #291f2b",
"0 c #2b1d25",
"a c #2b1d26",
"4 c #2b202a",
"5 c #2f2028",
"I c #302028",
"g c #302129",
"b c #312129",
"s c #37283d",
"7 c #3b2d49",
"c c #734a52",
"y c #744b53",
"q c #754b54",
"h c #754c54",
"X c #764c55",
"z c #764d55",
"1 c #774d56",
"v c #784e57",
"C c #794f58",
"G c #7a4f59",
"j c #7b505a",
"t c #7c515b",
"H c #7d525c",
"D c #7e535d",
"3 c #7f545e",
"N c #815560",
"O c #815660",
"2 c #825661",
"F c #835762",
"V c #845763",
"J c #875a66",
"x c #885b67",
"L c #895c68",
"A c #8b5d6a",
"K c #8d5f6c",
"k c #8e606d",
"T c #8f616e",
"Q c #90616f",
"Y c #90626f",
"Z c #916270",
"u c #926371",
"p c #936472",
"m c #946573",
"l c #966675",
"E c #976776",
"B c #986877",
"W c #996878",
"R c #996978",
"M c #9a6979",
"n c #9b6a7a",
"o c #9c6b7b",
".##.....###...#.#.#.....abbbbbbbbbbbbbba###...#.#.#......#..#...",
".##...#..#...#.###...bbbbbccccccccccbbbbbbb..#.###......#..#....",
".##...#.#.....#.#.dbbbccccccccccccccccccbbbbbd#.#............#..",
".#...###..##.###ebbccccccccccccccccccccccccbbbbe#.##..##.#.#.##.",
".###.###.##.##fbbccccccccccccccccccccccccccccbbbbf##.####.#.###.",
"..######....#gbccccccccccccccccccccccccccccccccbbbg..#######.#..",
".#..#......#bbcccccccccccccchcccccccccccccccccccbbbb....#.#.....",
".####.##.#ibbcccccccccccjklmnopqcccccccccccccccccbbbbf.####.####",
"##..r#rr.sbccccccccccctunooooonvcccccccccccccccccccbbbw.rr##r#r#",
"#..r####wbcccccccccccxoooooooolyccccccccccccccccccccbbbw######.#",
"..##.#.fbccccccccczABoooooooopCccccccccccccccccccccccbbbi..#.#.#",
"####..#bcccccccccDpooooooooEFyccccccccccccccccccccccccbbb.......",
"###..#bbcccccccyGloooooooEHyccccccccccccccccccccccccccbbbb......",
"##..#IbcccccccyJnoooooonKCcccccccccccccccccccccccccccccbbbg....#",
"#..#ibccccccccLMoooooooNccccccccccccccccccccccccccccccccbbbf#..#",
".###bccccccccOnooooooMDccccccccccccccccccccccccccccccccccbbb...#",
"#.#PbcccccccyQooooooRCcccccccccccccccccccccccccccccccccccbbbS.#.",
"##.bccccccccNooooooECcccccccccccccccccccccccccccccccccccccbbb#.#",
"#.dbcccccccjBoooooTcccccccccccccccccccccccccccccccccccccccbbbU#.",
"#.bcccccccqAooooolcccccccccccccccccccccccccccccccccccccccccbbb##",
"##bcccccccVnooooWXcccccccccccccccccccccccccccccccccccccccccbbb##",
"#bbcccccccYooooovccccccccccccccccccccccccccccccccccccccccccbbbb#",
"#bccccccczBooooJccccccccccccccccccccccccccccccccccccccccccccbbb.",
".bcccccccCooooRcccccccccccccccccccccccccccccccccccccccccccccbbb.",
"abcccccccZooooJcccccccccccccccccccccccccccccccccccccccccccccbbb0",
"bbccccccXnooon1cccccccccccccccccccccccccccccccccccccccccccccbbbb",
"bcccccccjooonNcccccccccccccccccccccccccccccccccccccccccccccccbbb",
"bccccccc2oooAccccccccccccccccccccccccccccccccccccccccccccccccbbb",
"bcccccccFooojccccccccccccccccccccccccccccccccccccccccccccccccbbb",
"bcccccccjBokcccccccccccccccccccccccccccccccccccccccccccccccccbbb",
"bccccccccj3Xcccccccccccccccccccccccccccccccccccccccccccccccccbbb",
"bccccccccccccccccccccccccccccccccccccccccccccccccccccccccccccbbb",
"bccccccccccccccccccccccccccccccccccccccccccccccccccccccccccccbbb",
"bccccccccccccccccccccccccccccccccccccccccccccccccccccccccccccbbb",
"bccccccccccccccccccccccccccccccccccccccccccccccccccccccccccccbbb",
"bccccccccccccccccccccccccccccccccccccccccccccccccccccccccccccbbb",
"bbccccccccccccccccccccccccccccccccccccccccccccccccccccccccccbbbb",
"bbccccccccccccccccccccccccccccccccccccccccccccccccccccccccccbbbb",
"bbccccccccccccccccccccccccccccccccccccccccccccccccccccccccccbbbb",
"abccccccccccccccccccccccccccccccccccccccccccccccccccccccccccbbb4",
"#bbccccccccccccccccccccccccccccccccccccccccccccccccccccccccbbbb#",
"#bbccccccccccccccccccccccccccccccccccccccccccccccccccccccccbbbb#",
".bbccccccccccccccccccccccccccccccccccccccccccccccccccccccccbbbb#",
"##bbccccccccccccccccccccccccccccccccccccccccccccccccccccccbbbb..",
"##bbccccccccccccccccccccccccccccccccccccccccccccccccccccccbbbb..",
"##dbbccccccccccccccccccccccccccccccccccccccccccccccccccccbbbbU.#",
"#..bbccccccccccccccccccccccccccccccccccccccccccccccccccccbbbb..#",
".##ebbccccccccccccccccccccccccccccccccccccccccccccccccccbbbbS..#",
"#.#.bbbccccccccccccccccccccccccccccccccccccccccccccccccbbbbb..#.",
"##..ibbbccccccccccccccccccccccccccccccccccccccccccccccbbbbbi.#.#",
"#....5bbccccccccccccccccccccccccccccccccccccccccccccccbbbb5...#.",
"#.##..bbbccccccccccccccccccccccccccccccccccccccccccccbbbbb##.###",
"####.##bbbccccccccccccccccccccccccccccccccccccccccccbbbbb##.####",
"###..##fbbbccccccccccccccccccccccccccccccccccccccccbbbbbi...####",
"#..#....6bbbbccccccccccccccccccccccccccccccccccccbbbbbbw...#.#..",
"..####.##6bbbbccccccccccccccccccccccccccccccccccbbbbbb6#.#.###..",
".#rrr7..rrfbbbbccccccccccccccccccccccccccccccccbbbbbbfrr.7#rr##.",
".#r####.####bbbbbccccccccccccccccccccccccccccbbbbbbb####.######.",
".####......#.gbbbbbccccccccccccccccccccccccbbbbbbbg#.#.##.#r.r#.",
".#.#.####.....ibbbbbbbccccccccccccccccccbbbbbbbbbf##..###.#.###.",
".#...###........8bbbbbbbbbccccccccccbbbbbbbbbbbS###..#####...##.",
"...####...#....###dbbbbbbbbbbbbbbbbbbbbbbbbbbU.###..#.#.#.......",
"..#..#...#.##..##..#.bbbbbbbbbbbbbbbbbbbbbb##..##..#.#......##..",
"..###...#.#....#.####...0bbbbbbbbbbbbbb0#.#....#.####.....##.#.."};
