/* XPM */
static char *dummy[]={
"64 64 100 2",
"Qt c #00000c",
".E c #000011",
".I c #000021",
".O c #000032",
".j c #000034",
".M c #000037",
".L c #000038",
".W c #00003b",
".a c #00003c",
"#b c #000040",
".J c #000041",
".b c #000042",
".K c #000141",
".v c #000142",
".o c #00043f",
"#r c #00053f",
".N c #010133",
".k c #010142",
".0 c #010242",
"#d c #010340",
"#y c #010431",
"#c c #010f38",
".X c #02043f",
"#o c #020442",
"#D c #02053e",
".z c #020542",
".F c #021633",
".r c #021634",
".# c #021832",
"#p c #03063d",
".s c #030842",
"#f c #04081a",
"#e c #04083c",
"#x c #040930",
"#. c #050b39",
".V c #050b41",
"#q c #051c2e",
"#l c #060d38",
".u c #061e2d",
"## c #070e37",
"#n c #071041",
".Q c #081441",
"#g c #091134",
"#H c #091233",
".4 c #0a1432",
".i c #0c172f",
".1 c #0c1b41",
".9 c #0d1a2d",
".2 c #0e1c2b",
".m c #0e1c2c",
"#k c #0e1d2b",
"#h c #112f1f",
"#z c #122425",
".A c #142822",
"#w c #142f40",
"#s c #152a20",
".e c #152b20",
"#a c #152e1e",
"#C c #162b1f",
"#v c #162d1e",
"#G c #172e1d",
".S c #172f1c",
".3 c #17353f",
".w c #17363f",
".Z c #18393f",
".p c #19321a",
".T c #1b3e3f",
".h c #1b3f3f",
"#j c #1c3715",
".C c #1c3914",
".B c #1d3914",
".8 c #1d3a13",
".t c #1d3a14",
".6 c #1d443e",
".f c #1d453e",
".n c #1e3c03",
"#u c #1e3d11",
".l c #1e473e",
".G c #1f1f41",
".D c #1f3e10",
".U c #1f483e",
"#B c #21410d",
".q c #224809",
".c c #23450a",
".x c #23460a",
".H c #241c46",
"#E c #244702",
".Y c #244709",
"#A c #244808",
"#m c #254b05",
"#F c #274e03",
".R c #275c3d",
".5 c #285001",
".y c #285002",
"#t c #295101",
".d c #295200",
".7 c #34793c",
".P c #37813b",
"#i c #3b2d49",
".g c #4aad39",
"Qt.#.#QtQtQtQtQt.#.#.#QtQtQt.#Qt.#Qt.#QtQtQtQtQt.a.b.b.b.c.d.d.e.b.b.b.b.b.b.b.a.#.#.#QtQtQt.#Qt.#Qt.#QtQtQtQtQtQt.#QtQt.#QtQtQt",
"Qt.#.#QtQtQt.#QtQt.#QtQtQt.#Qt.#.#.#QtQtQt.b.b.b.b.b.b.b.f.g.h.b.b.b.b.b.b.b.b.b.b.b.iQtQt.#Qt.#.#.#QtQtQtQtQtQt.#QtQt.#QtQtQtQt",
"Qt.#.#QtQtQt.#Qt.#QtQtQtQtQt.#Qt.#Qt.j.b.b.b.b.b.b.b.b.b.k.l.b.b.b.b.b.b.b.b.b.b.b.b.b.m.d.n.#Qt.#QtQtQtQtQtQtQtQtQtQtQtQt.#QtQt",
"Qt.#QtQtQt.#.#.#QtQt.#.#Qt.#.#.#.o.b.b.b.b.b.b.b.b.b.b.b.b.b.b.b.b.b.b.b.b.b.b.b.b.b.b.b.p.d.d.q.#Qt.#.#QtQt.#.#Qt.#Qt.#Qt.#.#Qt",
"Qt.#.#.#Qt.#.#.#Qt.#.#Qt.#.#.r.b.b.b.b.b.b.b.b.b.b.b.b.b.b.b.b.b.b.b.b.b.b.b.b.b.b.b.b.b.s.t.d.d.d.u.#.#Qt.#.#.#.#Qt.#Qt.#.#.#Qt",
"QtQt.#.#.#.#.#.#QtQtQtQt.#.v.b.b.b.b.b.b.b.b.b.b.b.b.b.b.b.b.b.b.b.b.b.b.b.b.b.b.b.b.b.b.b.b.w.x.d.d.yQtQt.#.#.#.#.#.#.#Qt.#QtQt",
"Qt.#QtQt.#QtQtQtQtQtQt.#.b.b.b.b.b.b.b.b.b.b.b.b.b.b.b.b.b.b.b.b.b.b.b.b.b.b.b.b.b.b.b.b.b.b.b.z.A.B.C.DQtQtQtQt.#Qt.#QtQtQtQtQt",
"Qt.#.#.#.#Qt.#.#Qt.#.E.b.b.b.b.b.b.b.b.b.b.b.b.b.b.b.b.b.b.b.b.b.b.b.b.b.b.b.b.b.b.b.b.b.b.b.b.b.b.b.b.b.b.FQt.#.#.#.#Qt.#.#.#.#",
".#.#QtQt.G.#.G.GQt.H.b.b.b.b.b.b.b.b.b.b.b.b.b.b.b.b.b.b.b.b.b.b.b.b.b.b.b.b.b.b.b.b.b.b.b.b.b.b.b.b.b.b.b.b.IQt.G.G.#.#.G.#.G.#",
".#QtQt.G.#.#.#.#.I.b.b.b.b.b.b.b.b.b.b.b.b.b.b.b.b.b.b.b.b.b.b.b.b.b.b.b.b.b.b.b.b.b.b.b.b.b.b.b.b.b.b.b.b.b.b.I.#.#.#.#.#.#Qt.#",
"QtQt.#.#Qt.#Qt.r.b.b.b.b.b.b.b.b.b.b.b.b.b.b.b.b.b.b.b.b.b.b.b.b.b.b.b.b.b.b.b.b.b.b.b.b.b.b.b.b.b.b.b.b.b.b.b.b.EQtQt.#Qt.#Qt.#",
".#.#.#.#QtQt.#.b.b.b.b.b.b.b.b.b.b.b.b.b.b.b.b.b.b.b.b.b.b.b.b.b.b.b.b.b.b.b.b.b.b.b.b.b.b.b.b.b.b.b.b.b.b.b.b.b.bQtQtQtQtQtQtQt",
".#.#.#QtQt.#.b.b.b.b.b.b.b.b.b.b.b.b.b.b.b.b.b.b.b.b.b.b.b.b.b.b.b.b.b.b.b.b.b.b.b.b.b.b.b.b.b.b.b.b.b.b.b.b.b.b.b.bQtQtQtQtQtQt",
".#.#QtQt.#.J.b.b.b.b.b.b.b.b.b.b.b.b.b.b.b.b.b.b.b.b.b.b.b.b.b.b.b.b.b.b.b.b.b.b.b.b.b.b.b.b.b.b.b.b.b.b.b.b.b.b.b.b.KQtQtQtQt.#",
".#QtQt.#.E.b.b.b.b.b.b.b.b.b.b.b.b.b.b.b.b.b.b.b.b.b.b.b.b.b.b.b.b.b.b.b.b.b.b.b.b.b.b.b.b.b.b.b.b.b.b.b.b.b.b.b.b.b.b.r.#QtQt.#",
"Qt.#.#.#.b.b.b.b.b.b.b.b.b.b.b.b.b.b.b.b.b.b.b.b.b.b.b.b.b.b.b.b.b.b.b.b.b.b.b.b.b.b.b.b.b.b.b.b.b.b.b.b.b.b.b.b.b.b.b.bQtQtQt.#",
".#Qt.#.L.b.b.b.b.b.b.b.b.b.b.b.b.b.b.b.b.b.b.b.b.b.b.b.b.b.b.b.b.b.b.b.b.b.b.b.b.b.b.b.b.b.b.b.b.b.b.b.b.b.b.b.b.b.b.b.b.MQt.#Qt",
".#.#Qt.b.b.b.b.b.b.b.b.b.b.b.b.b.b.b.b.b.b.b.b.b.b.b.b.b.b.b.b.b.b.b.b.b.b.b.b.b.b.b.b.b.b.b.b.b.b.b.b.b.b.b.b.b.b.b.b.b.b.#Qt.#",
".#Qt.N.b.b.b.b.b.b.b.b.b.b.b.b.b.b.b.b.b.b.b.b.b.b.b.b.b.b.b.b.b.b.b.b.b.b.b.b.b.b.b.b.b.b.b.b.b.b.b.b.b.b.b.b.b.b.b.b.b.b.O.#Qt",
".#Qt.B.b.b.b.b.b.b.b.b.b.b.b.b.b.b.b.b.b.b.b.b.b.b.b.b.b.b.b.b.b.b.b.b.b.b.b.b.b.b.b.b.b.b.b.b.b.b.b.b.b.b.b.b.b.b.b.b.b.b.b.#.#",
".#.#.d.P.Q.b.b.b.b.b.b.b.b.b.b.b.b.b.b.b.b.b.b.b.b.b.b.b.b.b.b.b.b.b.b.b.b.b.b.b.b.b.b.b.b.b.b.b.b.b.b.b.b.b.b.b.b.b.b.b.b.b.#.#",
".#.d.d.g.R.b.b.b.b.b.b.b.b.b.b.b.b.b.b.b.b.b.b.b.b.b.b.b.b.b.b.b.b.b.b.b.b.b.b.b.b.b.b.b.b.b.b.b.b.b.b.b.b.b.b.b.b.b.b.b.b.b.b.#",
".#.S.T.U.V.b.b.b.b.b.b.b.b.b.b.b.b.b.b.b.b.b.b.b.b.b.b.b.b.b.b.b.b.b.b.b.b.b.b.b.b.b.b.b.b.b.b.b.b.b.b.b.b.b.b.b.b.b.b.b.b.b.bQt",
"Qt.b.b.b.b.b.b.b.b.b.b.b.b.b.b.b.b.b.b.b.b.b.b.b.b.b.b.b.b.b.b.b.b.b.b.b.b.b.b.b.b.b.b.b.b.b.b.b.b.b.b.b.b.b.b.b.b.b.b.b.b.b.bQt",
".a.b.b.b.b.b.b.b.b.b.b.b.b.b.b.b.b.b.b.b.b.b.b.b.b.b.b.b.b.b.b.b.b.b.b.b.b.b.b.b.b.b.b.b.b.b.b.b.b.b.b.b.b.b.b.b.b.b.b.b.b.b.b.W",
".b.b.b.b.b.b.b.b.b.b.b.b.b.b.b.b.b.b.b.b.b.b.b.b.b.b.b.b.b.b.b.b.b.b.b.b.b.b.b.b.b.b.b.b.b.b.b.b.b.b.b.b.b.b.b.b.b.b.b.b.b.b.b.b",
".b.b.b.b.b.b.b.b.b.b.b.b.b.b.b.b.b.b.b.b.b.b.b.b.b.b.b.b.b.b.b.b.b.b.b.b.b.b.b.b.b.b.b.b.b.b.b.b.b.b.b.b.b.b.b.b.b.b.b.b.b.b.b.b",
".b.b.b.b.b.b.b.b.b.b.b.b.b.b.b.b.b.b.b.b.b.b.b.b.b.b.b.b.b.b.b.b.b.b.b.b.b.b.b.b.b.b.b.b.b.b.b.b.b.b.b.b.b.b.b.b.b.b.b.b.b.b.b.b",
".b.b.b.b.b.b.b.b.b.b.b.b.b.b.b.b.b.b.b.b.b.b.b.b.b.b.b.b.b.b.b.b.b.b.b.b.b.b.b.b.b.b.b.b.b.b.b.b.b.b.b.b.b.b.b.b.b.b.b.b.b.b.b.b",
".b.b.b.b.b.b.b.b.b.b.b.b.b.b.b.b.b.b.b.b.b.b.b.b.b.b.b.b.b.b.b.b.b.b.b.b.b.b.b.b.b.b.b.b.b.b.b.b.b.b.b.b.b.b.b.b.b.b.b.b.b.b.b.b",
".b.b.b.b.b.b.b.b.b.b.b.b.b.b.b.b.b.b.b.b.b.b.b.b.b.b.b.b.b.b.b.b.b.b.b.b.b.b.b.b.b.b.b.b.b.b.b.b.b.b.b.b.b.b.b.b.b.b.b.b.b.b.b.X",
".Y.Z.0.b.b.b.b.b.b.b.b.b.b.b.b.b.b.b.b.b.b.b.b.b.b.b.b.b.b.b.b.b.b.b.b.b.b.b.b.b.b.b.b.b.b.b.b.b.b.b.b.b.b.b.b.b.b.b.b.b.b.b.b.S",
".d.g.1.b.b.b.b.b.b.b.b.b.b.b.b.b.b.b.b.b.b.b.b.b.b.b.b.b.b.b.b.b.b.b.b.b.b.b.b.b.b.b.b.b.b.b.b.b.b.b.b.b.b.b.b.b.b.b.b.b.b.b.2.d",
".d.g.3.b.b.b.b.b.b.b.b.b.b.b.b.b.b.b.b.b.b.b.b.b.b.b.b.b.b.b.b.b.b.b.b.b.b.b.b.b.b.b.b.b.b.b.b.b.b.b.b.b.b.b.b.b.b.b.b.b.b.4.5.d",
".d.g.6.b.b.b.b.b.b.b.b.b.b.b.b.b.b.b.b.b.b.b.b.b.b.b.b.b.b.b.b.b.b.b.b.b.b.b.b.b.b.b.b.b.b.b.b.b.b.b.b.b.b.b.b.b.b.b.b.b.b.c.d.d",
".d.7.k.b.b.b.b.b.b.b.b.b.b.b.b.b.b.b.b.b.b.b.b.b.b.b.b.b.b.b.b.b.b.b.b.b.b.b.b.b.b.b.b.b.b.b.b.b.b.b.b.b.b.b.b.b.b.b.b.b.b.8.d.d",
".D.b.b.b.b.b.b.b.b.b.b.b.b.b.b.b.b.b.b.b.b.b.b.b.b.b.b.b.b.b.b.b.b.b.b.b.b.b.b.b.b.b.b.b.b.b.b.b.b.b.b.b.b.b.b.b.b.b.b.b.b.9.d.d",
"#..b.b.b.b.b.b.b.b.b.b.b.b.b.b.b.b.b.b.b.b.b.b.b.b.b.b.b.b.b.b.b.b.b.b.b.b.b.b.b.b.b.b.b.b.b.b.b.b.b.b.b.b.b.b.b.b.b.b.b.b.b.8.d",
".b.b.b.b.b.b.b.b.b.b.b.b.b.b.b.b.b.b.b.b.b.b.b.b.b.b.b.b.b.b.b.b.b.b.b.b.b.b.b.b.b.b.b.b.b.b.b.b.b.b.b.b.b.b.b.b.b.b.b.b.b.b##.d",
".a.b.b.b.b.b.b.b.b.b.b.b.b.b.b.b.b.b.b.b.b.b.b.b.b.b.b.b.b.b.b.b.b.b.b.b.b.b.b.b.b.b.b.b.b.b.b.b.b.b.b.b.b.b.b.b.b.b.b.b.b.b.b#a",
".#.b.b.b.b.b.b.b.b.b.b.b.b.b.b.b.b.b.b.b.b.b.b.b.b.b.b.b.b.b.b.b.b.b.b.b.b.b.b.b.b.b.b.b.b.b.b.b.b.b.b.b.b.b.b.b.b.b.b.b.b.b.b.#",
".#.b.b.b.b.b.b.b.b.b.b.b.b.b.b.b.b.b.b.b.b.b.b.b.b.b.b.b.b.b.b.b.b.b.b.b.b.b.b.b.b.b.b.b.b.b.b.b.b.b.b.b.b.b.b.b.b.b.b.b.b.b.b.#",
"Qt.b.b.b.b.b.b.b.b.b.b.b.b.b.b.b.b.b.b.b.b.b.b.b.b.b.b.b.b.b.b.b.b.b.b.b.b.b.b.b.b.b.b.b.b.b.b.b.b.b.b.b.b.b.b.b.b.b.b.b.b.b.b.#",
".#.#.b.b.b.b.b.b.b.b.b.b.b.b.b.b.b.b.b.b.b.b.b.b.b.b.b.b.b.b.b.b.b.b.b.b.b.b.b.b.b.b.b.b.b.b.b.b.b.b.b.b.b.b.b.b.b.b.b.b.b.bQtQt",
".#.#.b.b.b.b.b.b.b.b.b.b.b.b.b.b.b.b.b.b.b.b.b.b.b.b.b.b.b.b.b.b.b.b.b.b.b.b.b.b.b.b.b.b.b.b.b.b.b.b.b.b.b.b.b.b.b.b.b.b.b.bQtQt",
".#.#.j.b.b.b.b.b.b.b.b.b.b.b.b.b.b.b.b.b.b.b.b.b.b.b.b.b.b.b.b.b.b.b.b.b.b.b.b.b.b.b.b.b.b.b.b.b.b.b.b.b.b.b.b.b.b.b.b.b.b.OQt.#",
".#QtQt.b.b.b.b.b.b.b.b.b.b.b.b.b.b.b.b.b.b.b.b.b.b.b.b.b.b.b.b.b.b.b.b.b.b.b.b.b.b.b.b.b.b.b.b.b.b.b.b.b.b.b.b.b.b.b.b.b.bQtQt.#",
"Qt.#.#.o.b.b.b.b.b.b.b.b.b.b.b.b.b.b.b.b.b.b.b.b.b.b.b.b.b.b.b.b.b.b.b.b.b.b.b.b.b.b.b.b.b.b.b.b.b.b.b.b.b.b.b.b.b.b.b.b.MQtQt.#",
".#Qt.#Qt.b.b.b.b.b.b.b.b.b.b.b.b.b.b.b.b.b.b.b.b.b.b.b.b.b.b.b.b.b.b.b.b.b.b.b.b.b.b.b.b.b.b.b.b.b.b.b.b.b.b.b.b.b.b.b.bQtQt.#Qt",
".#.#QtQt.E.b.b.b.b.b.b.b.b.b.b.b.b.b.b.b.b.b.b.b.b.b.b.b.b.b.b.b.b.b.b.b.b.b.b.b.b.b.b.b.b.b.b.b.b.b.b.b.b.b.b.b.b.b.b.EQt.#Qt.#",
".#QtQtQtQt#b.b.b.b.b.b.b.b.b.b.b.b.b.b.b.b.b.b.b.b.b.b.b.b.b.b.b.b.b.b.b.b.b.b.b.b.b.b.b.b.b.b.b.b.b.b.b.b.b.b.b.b.b#bQtQtQt.#Qt",
".#Qt.#.#QtQt.b.b.b.b.b.b.b.b.b.b.b.b.b.b.b.b.b.b.b.b.b.b.b.b.b.b.b.b.b.b.b.b.b.b.b.b.b.b.b.b.b.b.b.b.b.b.b.b.b.b.b.b.#.#Qt.#.#.#",
".#.#.#.#Qt.#.#.b.b.b.b.b.b.b.b.b.b.b.b.b.b.b.b.b.b.b.b.b.b.b.b.b.b.b.b.b.b.b.b.b.b.b.b.b.b.b.b.b.b.b.b.b.b.b.b.b.b.#.#Qt.#.#.#.#",
".#.#.#QtQt.#.#.r.b.b.b.b.b.b.b.b.b.b.b.b.b.b.b.b.b.b.b.b.b.b.b.b.b.b.b.b.b.b.b.b.b.b.b.b.b.b.b.b.b.b.b.b.b.b.b.b.EQtQtQt.#.#.#.#",
".#QtQt.#QtQtQtQt#c.b.b.b.b.b.b.b.b.b.b.b.b.b.b.b.b.b.b.b.b.b.b.b.b.b.b.b.b.b.b.b.b.b.b.b.b.b.b.b.b.b.b.b.X#d#e#fQtQtQt.#Qt.#QtQt",
"QtQt.#.#.#.#Qt.#.##c.b.b.b.b.b.b.b.b.b.b.b.b.b.b.b.b.b.b.b.b.b.b.b.b.b.b.b.b.b.b.b.b.b.b.b.b.b.b.b.b.b#g.d.d#h.#Qt.#Qt.#.#.#QtQt",
"Qt.#.G.G.G#iQtQt.G.G.r.b.b.b.b.b.b.b.b.b.b.b.b.b.b.b.b.b.b.b.b.b.b.b.b.b.b.b.b.b.b.b.b.b.b.b.b.b.b.b.b#j.d.u.G.GQt#i.#.G.G.#.#Qt",
"Qt.#.G.#.#.#.#Qt.#.#.#.#.b.b.b.b.b.b.b.b.b.b.b.b.b.b.b.b.b.b.b.b.b.b.b.b.b.b.b.b.b.b.b.b.b.b.b.b.b.b#k.d.#.#.#.#Qt.#.#.#.#.#.#Qt",
"Qt.#.#.#.#QtQtQtQtQtQt.#Qt.K.b.b.b.b.b.b.b.b.b.b.b.b.b.b.b.b.b.b.b.b.b.b.b.b.b.b.b.b.b.b.b.b.b.b.b#l#m.#Qt.#Qt.#.#Qt.#.GQt.G.#Qt",
"Qt.#Qt.#Qt.#.#.#.#QtQtQtQtQt.E.b.b.b.b.b.b.b#n#o.b.b.b.b.b.b.b.b.b.b.b.b.b.b.b.b.b.b.b.b.b.b.b.b#p#q.#.#QtQt.#.#.#Qt.#Qt.#.#.#Qt",
"Qt.#QtQtQt.#.#.#QtQtQtQtQtQtQtQt#r.b.b.b.b#s.d#t#u#v#w.v.b.b.b.b.b.b.b.b.b.b.b.b.b.b.b.b.b.b.b#x.#.#.#QtQt.#.#.#.#.#QtQtQt.#.#Qt",
"QtQtQt.#.#.#.#QtQtQt.#QtQtQtQt.#.#.##y#z#A.d.d.d.d.d.d#B#g.b.b.b.b.b.b.b.b.b.b.b.b.b.b.b.b.OQt.#.#.#QtQt.#Qt.#Qt.#QtQtQtQtQtQtQt",
"QtQt.#QtQt.#QtQtQt.#Qt.#.#QtQt.#.#QtQt.#Qt.d.d.d.d.d.d.d.d#C#D.b.b.b.b.b.b.b.b.b.b.b.b.#.#QtQt.#.#QtQt.#Qt.#QtQtQtQtQtQt.#.#QtQt",
"QtQt.#.#.#QtQtQt.#Qt.#QtQtQtQt.#Qt.#.#.#.#QtQtQt#E.d.d.d.d.d#F#G#H.b.b.b.b.b.b.W.#Qt.#QtQtQtQt.#Qt.#.#.#.#QtQtQtQtQt.#.#Qt.#QtQt"};
