/* XPM */
static char *dummy[]={
"64 64 103 2",
"Qt c #00000c",
".# c #021832",
".o c #120010",
".g c #141632",
".w c #1f1f41",
"#J c #3b2d49",
".E c #46001a",
"#I c #470f32",
".x c #6a1c40",
"#f c #7e0026",
".e c #850027",
"#a c #91002a",
"#K c #910531",
".8 c #94002a",
".f c #950431",
"#v c #9e002c",
"#G c #9e0331",
".a c #a0002d",
"#H c #af0030",
".i c #af0131",
".V c #b00030",
".h c #b00131",
".b c #b40031",
".c c #b50031",
".d c #de3994",
".n c #de3a95",
".F c #de3b95",
".J c #de3b96",
"#p c #de3c96",
".Z c #de3d97",
".j c #de3e97",
"#A c #de3e98",
".p c #de3f99",
"#m c #de409a",
".l c #de429a",
".R c #de439b",
".U c #df4099",
"#i c #df429b",
"#E c #df439b",
".k c #df449c",
".O c #df459c",
".4 c #df459d",
"## c #df479e",
"#u c #df499f",
".m c #df4aa0",
"#l c #df4ba1",
".3 c #e04da3",
"#e c #e04ea3",
"#F c #e050a4",
"#b c #e054a7",
".0 c #e054a8",
".y c #e055a8",
"#s c #e05aac",
"#h c #e05cae",
"#q c #e157a9",
".G c #e15bac",
".K c #e15cad",
".v c #e164b3",
".7 c #e264b2",
".D c #e268b6",
"#g c #e26bb8",
"#j c #e26eba",
".T c #e270bb",
".Y c #e270bc",
"#k c #e271bc",
"#z c #e273bd",
".W c #e276c0",
".q c #e373bd",
".2 c #e378c1",
".Q c #e379c2",
"#o c #e37ac3",
".P c #e37cc4",
".S c #e380c7",
".I c #e479c1",
".z c #e481c8",
"#r c #e483c8",
"#x c #e488cc",
".9 c #e590d2",
"#C c #e591d3",
"#D c #e596d6",
"#w c #e597d7",
"#B c #e599d9",
".H c #e59cdb",
".L c #e59ddb",
".X c #e69bda",
".N c #e69cdb",
"#. c #e69fdd",
"#c c #e6a0de",
".r c #e6a2df",
".t c #e6a3e0",
".5 c #e6a4e1",
".A c #e6a5e1",
".s c #e6a6e2",
".6 c #e6a7e3",
".1 c #e6a8e4",
"#n c #e7a6e2",
"#d c #e7a7e3",
".u c #e7a9e4",
"#t c #e7aae5",
"#y c #e7abe5",
".C c #e7abe6",
".M c #e7ace6",
".B c #e7ade7",
"Qt.#.#QtQtQtQtQt.#.#.#QtQtQt.#Qt.#Qt.#QtQtQtQtQt.a.b.b.c.c.c.c.c.c.c.c.c.c.b.b.a.#.#.#QtQtQt.#Qt.#Qt.#QtQtQtQtQtQt.#QtQt.#QtQtQt",
"Qt.#.#QtQtQt.#QtQt.#QtQtQt.#Qt.#.#.#QtQtQt.b.c.c.c.c.d.d.d.d.d.d.d.d.d.d.c.c.c.c.c.c.bQtQt.#Qt.#.#.#QtQtQtQtQtQt.#QtQt.#QtQtQtQt",
"Qt.#.#QtQtQt.#Qt.#QtQtQtQtQt.#Qt.#Qt.e.b.c.c.d.d.d.d.d.d.d.d.d.d.d.d.d.d.d.d.d.d.c.c.c.c.b.e.#Qt.#QtQtQtQtQtQtQtQtQtQtQtQt.#QtQt",
"Qt.#QtQtQt.#.#.#QtQt.#.#Qt.#.#.#.f.c.c.d.d.d.d.d.d.d.d.d.d.d.d.d.d.d.d.d.d.d.d.d.d.d.d.c.c.c.c.f.#Qt.#.#QtQt.#.#Qt.#Qt.#Qt.#.#Qt",
"Qt.#.#.#Qt.#.#.#Qt.#.#Qt.#.#.g.b.c.d.d.d.d.d.d.d.d.d.d.d.d.d.d.d.d.d.d.d.d.d.d.d.d.d.d.d.d.c.c.c.b.g.#.#Qt.#.#.#.#Qt.#Qt.#.#.#Qt",
"QtQt.#.#.#.#.#.#QtQtQtQt.#.h.c.d.d.d.d.d.d.d.d.d.d.d.d.d.d.d.d.d.d.d.d.d.d.d.d.d.d.d.d.d.d.d.d.c.c.c.iQtQt.#.#.#.#.#.#.#Qt.#QtQt",
"Qt.#QtQt.#QtQtQtQtQtQt.#.b.c.d.d.d.d.d.d.d.d.d.d.d.d.j.k.l.m.n.d.d.d.d.d.d.d.d.d.d.d.d.d.d.d.d.d.c.c.c.bQtQtQtQt.#Qt.#QtQtQtQtQt",
"Qt.#.#.#.#Qt.#.#Qt.#.o.c.c.d.d.d.d.d.d.d.d.d.d.d.p.q.r.s.t.u.v.d.d.d.d.d.d.d.d.d.d.d.d.d.d.d.d.d.d.c.c.c.c.gQt.#.#.#.#Qt.#.#.#.#",
".#.#QtQt.w.#.w.wQt.x.c.d.d.d.d.d.d.d.d.d.d.n.y.z.A.B.B.B.B.C.D.d.d.d.d.d.d.d.d.d.d.d.d.d.d.d.d.d.d.d.d.c.c.c.EQt.w.w.#.#.w.#.w.#",
".#QtQt.w.#.#.#.#.E.c.d.d.d.d.d.d.d.d.d.F.G.H.B.B.B.B.B.B.B.I.J.d.d.d.d.d.d.d.d.d.d.d.d.d.d.d.d.d.d.d.d.d.c.c.c.E.#.#.#.#.#.#Qt.#",
"QtQt.#.#Qt.#Qt.g.c.d.d.d.d.d.d.d.d.n.K.L.M.B.B.B.B.B.B.B.N.O.d.d.d.d.d.d.d.d.d.d.d.d.d.d.d.d.d.d.d.d.d.d.d.c.c.c.oQtQt.#Qt.#Qt.#",
".#.#.#.#QtQt.#.c.d.d.d.d.d.d.d.d.J.P.M.B.B.B.B.B.B.B.A.Q.R.d.d.d.d.d.d.d.d.d.d.d.d.d.d.d.d.d.d.d.d.d.d.d.d.d.c.c.cQtQtQtQtQtQtQt",
".#.#.#QtQt.#.b.c.d.d.d.d.d.d.d.F.S.B.B.B.B.B.B.B.M.T.U.d.d.d.d.d.d.d.d.d.d.d.d.d.d.d.d.d.d.d.d.d.d.d.d.d.d.d.c.c.c.bQtQtQtQtQtQt",
".#.#QtQt.#.V.c.d.d.d.d.d.d.d.d.W.B.B.B.B.B.B.B.X.Y.Z.d.d.d.d.d.d.d.d.d.d.d.d.d.d.d.d.d.d.d.d.d.d.d.d.d.d.d.d.d.c.c.c.iQtQtQtQt.#",
".#QtQt.#.o.c.d.d.d.d.d.d.d.d.0.M.B.B.B.B.B.1.2.3.d.d.d.d.d.d.d.d.d.d.d.d.d.d.d.d.d.d.d.d.d.d.d.d.d.d.d.d.d.d.d.d.c.c.c.g.#QtQt.#",
"Qt.#.#.#.b.d.d.d.d.d.d.d.d.4.5.B.B.B.B.B.6.7.d.d.d.d.d.d.d.d.d.d.d.d.d.d.d.d.d.d.d.d.d.d.d.d.d.d.d.d.d.d.d.d.d.d.d.c.c.bQtQtQt.#",
".#Qt.#.8.c.d.d.d.d.d.d.d.d.9.B.B.B.B.B#.##.d.d.d.d.d.d.d.d.d.d.d.d.d.d.d.d.d.d.d.d.d.d.d.d.d.d.d.d.d.d.d.d.d.d.d.d.c.c.c#aQt.#Qt",
".#.#Qt.c.d.d.d.d.d.d.d.d.K.B.B.B.B.B#.#b.d.d.d.d.d.d.d.d.d.d.d.d.d.d.d.d.d.d.d.d.d.d.d.d.d.d.d.d.d.d.d.d.d.d.d.d.d.d.c.c.b.#Qt.#",
".#Qt.e.c.d.d.d.d.d.d.d.Z#c.B.B.B.B#d#e.d.d.d.d.d.d.d.d.d.d.d.d.d.d.d.d.d.d.d.d.d.d.d.d.d.d.d.d.d.d.d.d.d.d.d.d.d.d.d.c.c.c#f.#Qt",
".#Qt.b.d.d.d.d.d.d.d.d#g.B.B.B.B.u#h.n.d.d.d.d.d.d.d.d.d.d.d.d.d.d.d.d.d.d.d.d.d.d.d.d.d.d.d.d.d.d.d.d.d.d.d.d.d.d.d.d.c.c.b.#.#",
".#.#.c.d.d.d.d.d.d.d#i.t.B.B.B.B#j.d.d.d.d.d.d.d.d.d.d.d.d.d.d.d.d.d.d.d.d.d.d.d.d.d.d.d.d.d.d.d.d.d.d.d.d.d.d.d.d.d.d.c.c.c.#.#",
".#.b.c.d.d.d.d.d.d.d#k.B.B.B.B.u#l.d.d.d.d.d.d.d.d.d.d.d.d.d.d.d.d.d.d.d.d.d.d.d.d.d.d.d.d.d.d.d.d.d.d.d.d.d.d.d.d.d.d.c.c.c.b.#",
".#.c.d.d.d.d.d.d.d#m#n.B.B.B.M#o#p.d.d.d.d.d.d.d.d.d.d.d.d.d.d.d.d.d.d.d.d.d.d.d.d.d.d.d.d.d.d.d.d.d.d.d.d.d.d.d.d.d.d.d.c.c.cQt",
"Qt.c.d.d.d.d.d.d.d#q.M.B.B.B#r#p.d.d.d.d.d.d.d.d.d.d.d.d.d.d.d.d.d.d.d.d.d.d.d.d.d.d.d.d.d.d.d.d.d.d.d.d.d.d.d.d.d.d.d.d.c.c.cQt",
".a.c.d.d.d.d.d.d.d#s.M.B.B#t#u.d.d.d.d.d.d.d.d.d.d.d.d.d.d.d.d.d.d.d.d.d.d.d.d.d.d.d.d.d.d.d.d.d.d.d.d.d.d.d.d.d.d.d.d.d.c.c.c#v",
".b.c.d.d.d.d.d.d.d.S.B.B.B#w#p.d.d.d.d.d.d.d.d.d.d.d.d.d.d.d.d.d.d.d.d.d.d.d.d.d.d.d.d.d.d.d.d.d.d.d.d.d.d.d.d.d.d.d.d.d.c.c.c.b",
".b.d.d.d.d.d.d.d.d#x.M.B#y#z.d.d.d.d.d.d.d.d.d.d.d.d.d.d.d.d.d.d.d.d.d.d.d.d.d.d.d.d.d.d.d.d.d.d.d.d.d.d.d.d.d.d.d.d.d.d.d.c.c.b",
".c.d.d.d.d.d.d.d#A#B.B.t#g.U.d.d.d.d.d.d.d.d.d.d.d.d.d.d.d.d.d.d.d.d.d.d.d.d.d.d.d.d.d.d.d.d.d.d.d.d.d.d.d.d.d.d.d.d.d.d.d.c.c.c",
".c.d.d.d.d.d.d.d.U#C.u#D#E.d.d.d.d.d.d.d.d.d.d.d.d.d.d.d.d.d.d.d.d.d.d.d.d.d.d.d.d.d.d.d.d.d.d.d.d.d.d.d.d.d.d.d.d.d.d.d.d.c.c.c",
".c.d.d.d.d.d.d.d.d#E#F.O.d.d.d.d.d.d.d.d.d.d.d.d.d.d.d.d.d.d.d.d.d.d.d.d.d.d.d.d.d.d.d.d.d.d.d.d.d.d.d.d.d.d.d.d.d.d.d.d.d.c.c.c",
".c.d.d.d.d.d.d.d.d.d.d.d.d.d.d.d.d.d.d.d.d.d.d.d.d.d.d.d.d.d.d.d.d.d.d.d.d.d.d.d.d.d.d.d.d.d.d.d.d.d.d.d.d.d.d.d.d.d.d.d.d.c.c.c",
".c.d.d.d.d.d.d.d.d.d.d.d.d.d.d.d.d.d.d.d.d.d.d.d.d.d.d.d.d.d.d.d.d.d.d.d.d.d.d.d.d.d.d.d.d.d.d.d.d.d.d.d.d.d.d.d.d.d.d.d.d.c.c.c",
".c.d.d.d.d.d.d.d.d.d.d.d.d.d.d.d.d.d.d.d.d.d.d.d.d.d.d.d.d.d.d.d.d.d.d.d.d.d.d.d.d.d.d.d.d.d.d.d.d.d.d.d.d.d.d.d.d.d.d.d.d.c.c.c",
".c.d.d.d.d.d.d.d.d.d.d.d.d.d.d.d.d.d.d.d.d.d.d.d.d.d.d.d.d.d.d.d.d.d.d.d.d.d.d.d.d.d.d.d.d.d.d.d.d.d.d.d.d.d.d.d.d.d.d.d.d.c.c.c",
".c.d.d.d.d.d.d.d.d.d.d.d.d.d.d.d.d.d.d.d.d.d.d.d.d.d.d.d.d.d.d.d.d.d.d.d.d.d.d.d.d.d.d.d.d.d.d.d.d.d.d.d.d.d.d.d.d.d.d.d.d.c.c.c",
".c.d.d.d.d.d.d.d.d.d.d.d.d.d.d.d.d.d.d.d.d.d.d.d.d.d.d.d.d.d.d.d.d.d.d.d.d.d.d.d.d.d.d.d.d.d.d.d.d.d.d.d.d.d.d.d.d.d.d.d.d.c.c.c",
".c.c.d.d.d.d.d.d.d.d.d.d.d.d.d.d.d.d.d.d.d.d.d.d.d.d.d.d.d.d.d.d.d.d.d.d.d.d.d.d.d.d.d.d.d.d.d.d.d.d.d.d.d.d.d.d.d.d.d.d.c.c.c.c",
".b.c.d.d.d.d.d.d.d.d.d.d.d.d.d.d.d.d.d.d.d.d.d.d.d.d.d.d.d.d.d.d.d.d.d.d.d.d.d.d.d.d.d.d.d.d.d.d.d.d.d.d.d.d.d.d.d.d.d.d.c.c.c.b",
".b.c.d.d.d.d.d.d.d.d.d.d.d.d.d.d.d.d.d.d.d.d.d.d.d.d.d.d.d.d.d.d.d.d.d.d.d.d.d.d.d.d.d.d.d.d.d.d.d.d.d.d.d.d.d.d.d.d.d.d.c.c.c.b",
".a.c.d.d.d.d.d.d.d.d.d.d.d.d.d.d.d.d.d.d.d.d.d.d.d.d.d.d.d.d.d.d.d.d.d.d.d.d.d.d.d.d.d.d.d.d.d.d.d.d.d.d.d.d.d.d.d.d.d.d.c.c.c#G",
".#.c.c.d.d.d.d.d.d.d.d.d.d.d.d.d.d.d.d.d.d.d.d.d.d.d.d.d.d.d.d.d.d.d.d.d.d.d.d.d.d.d.d.d.d.d.d.d.d.d.d.d.d.d.d.d.d.d.d.c.c.c.c.#",
".#.c.c.d.d.d.d.d.d.d.d.d.d.d.d.d.d.d.d.d.d.d.d.d.d.d.d.d.d.d.d.d.d.d.d.d.d.d.d.d.d.d.d.d.d.d.d.d.d.d.d.d.d.d.d.d.d.d.d.c.c.c.c.#",
"Qt.b.c.d.d.d.d.d.d.d.d.d.d.d.d.d.d.d.d.d.d.d.d.d.d.d.d.d.d.d.d.d.d.d.d.d.d.d.d.d.d.d.d.d.d.d.d.d.d.d.d.d.d.d.d.d.d.d.d.c.c.c.b.#",
".#.#.c.c.d.d.d.d.d.d.d.d.d.d.d.d.d.d.d.d.d.d.d.d.d.d.d.d.d.d.d.d.d.d.d.d.d.d.d.d.d.d.d.d.d.d.d.d.d.d.d.d.d.d.d.d.d.d.c.c.c.cQtQt",
".#.#.b.c.d.d.d.d.d.d.d.d.d.d.d.d.d.d.d.d.d.d.d.d.d.d.d.d.d.d.d.d.d.d.d.d.d.d.d.d.d.d.d.d.d.d.d.d.d.d.d.d.d.d.d.d.d.d.c.c.c.bQtQt",
".#.#.e.c.c.d.d.d.d.d.d.d.d.d.d.d.d.d.d.d.d.d.d.d.d.d.d.d.d.d.d.d.d.d.d.d.d.d.d.d.d.d.d.d.d.d.d.d.d.d.d.d.d.d.d.d.d.c.c.c.c#fQt.#",
".#QtQt.c.c.d.d.d.d.d.d.d.d.d.d.d.d.d.d.d.d.d.d.d.d.d.d.d.d.d.d.d.d.d.d.d.d.d.d.d.d.d.d.d.d.d.d.d.d.d.d.d.d.d.d.d.d.c.c.c.bQtQt.#",
"Qt.#.#.f.c.c.d.d.d.d.d.d.d.d.d.d.d.d.d.d.d.d.d.d.d.d.d.d.d.d.d.d.d.d.d.d.d.d.d.d.d.d.d.d.d.d.d.d.d.d.d.d.d.d.d.d.c.c.c.c#aQtQt.#",
".#Qt.#Qt.b.c.c.d.d.d.d.d.d.d.d.d.d.d.d.d.d.d.d.d.d.d.d.d.d.d.d.d.d.d.d.d.d.d.d.d.d.d.d.d.d.d.d.d.d.d.d.d.d.d.d.c.c.c.c.bQtQt.#Qt",
".#.#QtQt.o.c.c.c.d.d.d.d.d.d.d.d.d.d.d.d.d.d.d.d.d.d.d.d.d.d.d.d.d.d.d.d.d.d.d.d.d.d.d.d.d.d.d.d.d.d.d.d.d.d.c.c.c.c.c.oQt.#Qt.#",
".#QtQtQtQt#H.c.c.d.d.d.d.d.d.d.d.d.d.d.d.d.d.d.d.d.d.d.d.d.d.d.d.d.d.d.d.d.d.d.d.d.d.d.d.d.d.d.d.d.d.d.d.d.d.c.c.c.c#HQtQtQt.#Qt",
".#Qt.#.#QtQt.b.c.c.d.d.d.d.d.d.d.d.d.d.d.d.d.d.d.d.d.d.d.d.d.d.d.d.d.d.d.d.d.d.d.d.d.d.d.d.d.d.d.d.d.d.d.d.c.c.c.c.b.#.#Qt.#.#.#",
".#.#.#.#Qt.#.#.c.c.c.d.d.d.d.d.d.d.d.d.d.d.d.d.d.d.d.d.d.d.d.d.d.d.d.d.d.d.d.d.d.d.d.d.d.d.d.d.d.d.d.d.d.c.c.c.c.c.#.#Qt.#.#.#.#",
".#.#.#QtQt.#.#.g.c.c.c.d.d.d.d.d.d.d.d.d.d.d.d.d.d.d.d.d.d.d.d.d.d.d.d.d.d.d.d.d.d.d.d.d.d.d.d.d.d.d.d.c.c.c.c.c.oQtQtQt.#.#.#.#",
".#QtQt.#QtQtQtQt#I.c.c.c.c.d.d.d.d.d.d.d.d.d.d.d.d.d.d.d.d.d.d.d.d.d.d.d.d.d.d.d.d.d.d.d.d.d.d.d.d.c.c.c.c.c.c.EQtQtQt.#Qt.#QtQt",
"QtQt.#.#.#.#Qt.#.##I.c.c.c.c.d.d.d.d.d.d.d.d.d.d.d.d.d.d.d.d.d.d.d.d.d.d.d.d.d.d.d.d.d.d.d.d.d.d.c.c.c.c.c.c#I.#Qt.#Qt.#.#.#QtQt",
"Qt.#.w.w.w#JQtQt.w.w.g.c.c.c.c.d.d.d.d.d.d.d.d.d.d.d.d.d.d.d.d.d.d.d.d.d.d.d.d.d.d.d.d.d.d.d.d.c.c.c.c.c.c.g.w.wQt#J.#.w.w.#.#Qt",
"Qt.#.w.#.#.#.#Qt.#.#.#.#.b.c.c.c.c.d.d.d.d.d.d.d.d.d.d.d.d.d.d.d.d.d.d.d.d.d.d.d.d.d.d.d.d.c.c.c.c.c.c.b.#.#.#.#Qt.#.#.#.#.#.#Qt",
"Qt.#.#.#.#QtQtQtQtQtQt.#Qt.i.c.c.c.c.c.d.d.d.d.d.d.d.d.d.d.d.d.d.d.d.d.d.d.d.d.d.d.d.d.c.c.c.c.c.c.c.i.#Qt.#Qt.#.#Qt.#.wQt.w.#Qt",
"Qt.#Qt.#Qt.#.#.#.#QtQtQtQtQt.o.b.c.c.c.c.c.c.d.d.d.d.d.d.d.d.d.d.d.d.d.d.d.d.d.d.c.c.c.c.c.c.c.c.b.g.#.#QtQt.#.#.#Qt.#Qt.#.#.#Qt",
"Qt.#QtQtQt.#.#.#QtQtQtQtQtQtQtQt#K.c.c.c.c.c.c.c.c.c.d.d.d.d.d.d.d.d.d.d.c.c.c.c.c.c.c.c.c.c.b#a.#.#.#QtQt.#.#.#.#.#QtQtQt.#.#Qt",
"QtQtQt.#.#.#.#QtQtQt.#QtQtQtQt.#.#.#.e.b.c.c.c.c.c.c.c.c.c.c.c.c.c.c.c.c.c.c.c.c.c.c.c.c.b#fQt.#.#.#QtQt.#Qt.#Qt.#QtQtQtQtQtQtQt",
"QtQt.#QtQt.#QtQtQt.#Qt.#.#QtQt.#.#QtQt.#Qt.b.c.c.c.c.c.c.c.c.c.c.c.c.c.c.c.c.c.c.c.c.b.#.#QtQt.#.#QtQt.#Qt.#QtQtQtQtQtQt.#.#QtQt",
"QtQt.#.#.#QtQtQt.#Qt.#QtQtQtQt.#Qt.#.#.#.#QtQtQt#v.b.b.c.c.c.c.c.c.c.c.c.c.b.b#v.#Qt.#QtQtQtQt.#Qt.#.#.#.#QtQtQtQtQt.#.#Qt.#QtQt"};
