/* XPM */
static char *dummy[]={
"64 64 221 2",
"Qt c #00000c",
".j c #000034",
".f c #000042",
".F c #000142",
".s c #00043f",
"#t c #010042",
"aF c #020043",
".z c #021634",
".# c #021832",
".0 c #030143",
".M c #040011",
"ai c #040042",
".8 c #040144",
"#i c #050144",
"#7 c #060041",
"#b c #060244",
".I c #070245",
".2 c #080245",
"#4 c #090041",
"#s c #0a0246",
"ax c #0a0346",
"#P c #0b0041",
".k c #0b0346",
"bw c #0c0347",
".N c #0d0347",
"av c #0f0447",
"ar c #100448",
"#J c #110040",
"#u c #110448",
".6 c #120010",
"aC c #130549",
"aQ c #140549",
".E c #141632",
"a# c #150040",
"aJ c #18064b",
"#F c #19064b",
"#1 c #1a074c",
".3 c #1b074c",
"#G c #1c003f",
"aZ c #1c074c",
"bi c #1d074d",
"a7 c #1e084d",
"a4 c #1f084e",
".O c #1f1f41",
"aX c #20084e",
"aD c #21084e",
"ak c #23003f",
"ae c #23094f",
"#9 c #24094f",
".9 c #250950",
"#E c #260a50",
"#j c #270a50",
"#N c #28003e",
"as c #280a51",
"#z c #2a0b51",
"ay c #2b0b52",
".C c #2c0b52",
".G c #2d0c53",
"bf c #2f0c53",
"ad c #32003d",
"bs c #320d55",
"#y c #340d55",
"bo c #350e56",
"bx c #360e56",
"a0 c #370e56",
"aU c #380e57",
"#o c #390f57",
"#a c #3a0f58",
"aO c #3b0f58",
"br c #3b2d49",
"#V c #3e003c",
".w c #3e1059",
"#X c #3f1059",
".H c #401059",
"bd c #40115a",
"ah c #42003c",
"bt c #42115a",
"a8 c #43115b",
"aY c #44115b",
"am c #45125b",
".R c #46001a",
"#A c #46003b",
"bg c #46125c",
"bl c #470f32",
"bh c #49135d",
"aG c #4a135d",
"#R c #4c135e",
".a c #4d0035",
"#e c #4d145e",
"a3 c #4d145f",
"ab c #4e145f",
".g c #4f145f",
"an c #501560",
"bm c #531561",
"#p c #541561",
"bk c #541661",
"a2 c #551662",
".1 c #561662",
"#v c #571662",
".L c #581762",
"#3 c #591763",
"aq c #5b1763",
"#5 c #5b1764",
"a5 c #5c1864",
"#r c #5d1864",
"#O c #5e0039",
".v c #5e1865",
"af c #5f0039",
".P c #611c40",
"#g c #621966",
"aP c #631967",
"#I c #651a67",
"aI c #681b69",
"#T c #6a1b69",
"aN c #6d1c6a",
".V c #6f1c6b",
".7 c #6f1d6b",
"#S c #700037",
"#6 c #711d6c",
"bv c #721d6c",
"aW c #731e6c",
"aR c #741e6d",
".Z c #771f6e",
".S c #780037",
"#U c #781f6e",
"aK c #791f6f",
"## c #7a1f6f",
".W c #7c2070",
"bp c #7d2070",
"#L c #7e0026",
"#2 c #7e2071",
"#M c #802171",
"a. c #812172",
"b# c #832272",
".o c #842273",
".r c #850027",
"ap c #850035",
"#W c #872374",
"#h c #8a2475",
"aE c #8b2475",
".t c #8c2476",
"#D c #8d2476",
"ao c #8e2476",
"#C c #91002a",
"bz c #910531",
".p c #912577",
"#l c #912578",
"#H c #920034",
".4 c #932678",
"#x c #94002a",
".l c #942679",
".b c #950034",
".y c #950431",
".D c #97277a",
"#K c #980034",
"aA c #98277a",
"#Y c #99277b",
".n c #9a287b",
"ag c #9b0033",
".U c #9b287b",
"#m c #9c287c",
"ba c #9d287c",
"#Z c #9e002c",
"aj c #9e0033",
"aM c #9e0331",
"a9 c #9e287c",
"au c #9e297d",
"aV c #9f297d",
".e c #a0002d",
"#c c #a0297d",
"#k c #a22a7e",
"a6 c #a32a7e",
"ac c #a42a7e",
"az c #a82b80",
".A c #aa2c81",
"#B c #ab0032",
"aT c #ab2c81",
"al c #ac2c81",
"#w c #ae2d82",
"bb c #af0030",
"#Q c #af0031",
".K c #af0131",
".x c #af2d83",
"#d c #b00030",
"aa c #b00031",
"bn c #b12d83",
".c c #b40031",
"aH c #b42e85",
".d c #b50031",
".X c #b52e85",
".T c #b62f85",
"#n c #b92f86",
"bA c #bb3087",
".q c #bc3087",
"b. c #bf3188",
".J c #c03189",
".Q c #c13289",
".h c #c2328a",
"#0 c #c3328a",
"#. c #c4328a",
"aw c #c6338b",
"at c #c7338c",
"#f c #c8338c",
".B c #c9348c",
"a1 c #ca348d",
"bc c #cb348d",
"be c #ce358e",
"#q c #cf358f",
".m c #d0358f",
"bu c #d2368f",
"aL c #d33690",
"by c #d43690",
"aS c #d43790",
"bq c #d53791",
".u c #d73791",
"aB c #d83792",
"bj c #da3892",
"#8 c #db3893",
".Y c #dc3993",
".5 c #dd3994",
".i c #de3994",
"Qt.#.#QtQtQtQtQt.#.#.#QtQtQt.#Qt.#Qt.#QtQtQtQtQt.a.b.c.d.d.d.d.d.d.d.d.d.d.c.c.e.#.#.#QtQtQt.#Qt.#Qt.#QtQtQtQtQtQt.#QtQt.#QtQtQt",
"Qt.#.#QtQtQt.#QtQt.#QtQtQt.#Qt.#.#.#QtQtQt.f.f.f.f.f.g.h.i.i.i.i.i.i.i.i.d.d.d.d.d.d.cQtQt.#Qt.#.#.#QtQtQtQtQtQt.#QtQt.#QtQtQtQt",
"Qt.#.#QtQtQt.#Qt.#QtQtQtQtQt.#Qt.#Qt.j.f.f.f.f.f.f.f.f.k.l.i.i.i.i.i.m.n.o.p.q.i.d.d.d.d.c.r.#Qt.#QtQtQtQtQtQtQtQtQtQtQtQt.#QtQt",
"Qt.#QtQtQt.#.#.#QtQt.#.#Qt.#.#.#.s.f.f.f.f.f.f.f.f.f.f.f.f.t.i.i.u.v.f.f.f.f.f.w.x.i.i.d.d.d.d.y.#Qt.#.#QtQt.#.#Qt.#Qt.#Qt.#.#Qt",
"Qt.#.#.#Qt.#.#.#Qt.#.#Qt.#.#.z.f.f.f.f.f.f.f.f.f.f.f.f.f.f.f.A.B.C.f.f.f.f.f.f.f.f.D.i.i.i.d.d.d.c.E.#.#Qt.#.#.#.#Qt.#Qt.#.#.#Qt",
"QtQt.#.#.#.#.#.#QtQtQtQt.#.F.f.f.f.f.f.f.f.f.f.f.f.f.f.f.f.f.G.H.f.f.f.f.f.f.f.f.f.I.J.i.i.i.i.d.d.d.KQtQt.#.#.#.#.#.#.#Qt.#QtQt",
"Qt.#QtQt.#QtQtQtQtQtQt.#.f.f.f.f.f.f.f.f.f.f.f.f.f.f.f.f.f.f.f.f.f.f.f.f.f.f.f.f.f.f.L.i.i.i.i.i.d.d.d.cQtQtQtQt.#Qt.#QtQtQtQtQt",
"Qt.#.#.#.#Qt.#.#Qt.#.M.f.f.f.f.f.f.f.f.f.f.f.f.f.f.f.f.f.f.f.f.f.f.f.f.f.f.f.f.f.f.f.N.i.i.i.i.i.i.d.d.d.d.EQt.#.#.#.#Qt.#.#.#.#",
".#.#QtQt.O.#.O.OQt.P.f.f.f.f.f.f.f.f.f.f.f.f.f.f.f.f.f.f.f.f.f.f.f.f.f.f.f.f.f.f.f.f.f.Q.i.i.i.i.i.i.i.d.d.d.RQt.O.O.#.#.O.#.O.#",
".#QtQt.O.#.#.#.#.R.S.f.f.f.f.f.f.f.f.f.f.f.f.f.f.f.f.f.f.f.f.f.f.f.f.f.f.f.f.f.f.f.f.f.T.U.V.W.X.Y.i.i.i.d.d.d.R.#.#.#.#.#.#Qt.#",
"QtQt.#.#Qt.#Qt.E.d.Z.f.f.f.f.f.f.f.f.f.f.f.f.f.f.f.f.f.f.f.f.f.f.f.f.f.f.f.f.f.f.f.f.0.1.2.f.f.3.4.5.i.i.i.d.d.d.6QtQt.#Qt.#Qt.#",
".#.#.#.#QtQt.#.d.i.7.f.f.f.f.f.f.f.f.f.f.f.f.f.f.f.f.f.f.f.f.f.f.f.f.f.f.f.f.f.f.f.f.C.8.f.f.f.f.9#..i.i.i.i.d.d.dQtQtQtQtQtQtQt",
".#.#.#QtQt.#.c.d.i##.f.f.f.f.f.f.f.f.f.f.f.f.f.f.f.f.f.f.f.f.f.f.f.f.f.f.f.f.f.f.f.f#a.f.f.f.f.f#b#c.i.i.i.i.d.d.d.cQtQtQtQtQtQt",
".#.#QtQt.##d.d.i.i.D.f.f.f.f.f.f.f.f.f.f.f.f.f.f.f.f.f.f.f.f.f.f.8.f.f.f.f.f.f.f.f###e.f.f.f.f.f.I#c.i.i.i.i.i.d.d.d.KQtQtQtQt.#",
".#QtQt.#.6.d.i.i.i#f.f.f.f.f.f.f.f.f.f.f.f.f.f.f.f.f.f.f.f.f.f.f.f.f.f.f.f.f.f#b#g.i#h#i.f.f.f.f#j#k.U#l#m#n.i.i.d.d.d.E.#QtQt.#",
"Qt.#.#.#.c.i.i.i.i.i#o.f.f.f.f.f.f.f.f.f.f.f.f.f.f.f.f.f.f.f.f.f.f.f.f.f.f.f.f.f.f#p#q#r#s.f#t.k#s.f.f.f.f.f#u#v#w.d.d.cQtQtQt.#",
".#Qt.##x.d.i.i.i.i.X#g.f.f.f.f.f.f.f.f.f.f.f.f.f.f.f.f.f.f.f.f.f.f.f.f.f.f.f.f.f.f.f#y#f.4#z.f.f.f.f.f.f.f.f.f.f.f#A#B.d#CQt.#Qt",
".#.#Qt.d.i.i.i#D#E.f.f.f.f.f.f.f.f.f.f.f.f.f.f.f.f.f.f.f.f.f.f.f.f.f.f.f.f.f.f.f.f.f.f.G#F.f.f.f.f.f.f.f.f.f.f.f.f.f#G#H.c.#Qt.#",
".#Qt.r.d.i.i#I.f.f.f.f.f.f.f.f.f.f.f.f.f.f.f.f.f.f.f.f.f.f.f.f.f.f.f.f.f.f.f.f.f.f.f.f.f.f.f.f.f.f.f.f.f.f.f.f.f.f.f.f#J#K#L.#Qt",
".#Qt.c.i.i#M.f.f.f.f.f.f.f.f.f.f.f.f.f.f.f.f.f.f.f.f.f.f.f.f.f.f.f.f.f.f.f.f.f.f.f.f.f.f.f.f.f.f.f.f.f.f.f.f.f.f.f.f.f.f#N.c.#.#",
".#.#.d.i.Y#u.f.f.f.f.f.f.f.f.f.f.f.f.f.f.f.f.f.f.f.f.f.f.f.f.f.f.f.f.f.f.f.f.f.f.f.f.f.f.f.f.f.f.f.f.f.f.f.f.f.f.f.f.f.f.f#O.#.#",
".#.c.d.i.D.f.f.f.f.f.f.f.f.f.f.f.f.f.f.f.f.f.f.f.f.f.f.f.f.f.f.f.f.f.f.f.f.f.f.f.f.f.f.f.f.f.f.f.f.f.f.f.f.f.f.f.f.f.f.f.f#P#Q.#",
".#.d.i.i.7.f.f.f.f.f.f.f.f.f.f.f.f#R#R.9#u#u.9.G.f.f.f.f.f.f.f.f.f.f.f.f.f.f.f.f.f.f.f.f.f.f.f.f.f.f.f.f.f.f.f.f.f.f.f.f.f.f#SQt",
"Qt.d.i.i#T.f.f.f.f.f.f.f.f.f.f.f.f#U.i.i.i.i.i#g.f.f.f.f.f.f.f.f.f.f.f.f.f.f.f.f.f.f.f.f.f.f.f.f.f.f.f.f.f.f.f.f.f.f.f.f.f.f#VQt",
".e.d.i.i#W.f.f.f.f.f.f.f.f.f.f.f.f#X#Y.i.i.i.i#p.f.f.f.f.f.f.f.f.f.f.f.f.f.f.f.f.f.f.f.f.f.f.f.f.f.f.f.f.f.f.f.f.f.f.f.f.f.f#G#Z",
".c.d.i.i#0.f.f.f.f.f.f.f.f.f.f.f.f.f.f#1#2.i.i#3.f.f.f.f.f.f.f.f.f.f.f.f.f.f.f.f.f.f.f.f.f.f.f.f.f.f.f.f.f.f.f.f.f.f.f.f.f.f#4.c",
".c.i.i.i.i#5.f.f.f.f.f.f.f.f.f.f.f.f.f.f.f#o.Q#6.f.f.f.f.f.f.f.f.f.f.f.f.f.f.f.f.f.f.f.f.f.f.f.f.f.f.f.f.f.f.f.f.f.f.f.f.f.f#7.c",
".d.i.i.i.i#8#9.f.f.f.f.f.f.f.f.f.f.f.f.f.f.f.3a..f.f.f.f.f.f.f.f.f.f.f.f.f.f.f.f.f.f.f.f.f.f.f.f.f.f.f.f.f.f.f.f.f.f.f.f.f.fa#.d",
"aa.n#vab.oac.8.f.f.f.f.f.f.f.f.f.f.f.f.f.f.f.f#9.I.f.f.f.f.f.f.f.f.f.f.f.f.f.f.f.f.f.f.f.f.f.f.f.f.f.f.f.f.f.f.f.f.f.f.f.f.fad.d",
"#O.k.f.f.0#u.f.f.f.f.f.f.f.f.f.f.f.f.f.f.f.f.f.fae.f.f.f.f.f.f.f.f.f.f.f.f.f.f.f.f.f.f.f.f.f.f.f.f.f.f.f.f.f.f.f.f.f.f.f.f.faf.d",
"#J.f.f.f.f.f.f.f.f.f.f.f.f.f.f.f.f.f.f.f.f.f.f.f.f.f.f.f.f.f.f.f.f.f.f.f.f.f.f.f.f.f.f.f.f.f.f.f.f.f.f.f.f.f.f.f.f.f.f.f.f.fag.d",
"#t.f.f.f.f.f.f.f.f.f.f.f.f.f.f.f.f.f.f.f.f.f.f.f.f.G.f.f.f.f.f.f.f.f.f.f.f.f.f.f.f.f.f.f.f.f.f.f.f.f.f.f.f.f.f.f.f.f.f.f.fah.d.d",
"ai.f.f.f.f.f.f.f.f.f.f.f.f.f.f.f.f.f.f.f.f.f.f.f.f#s#5.f.f.f.f.f.f.f.f.f.f.f.f.f.f.f.f.f.f.f.f.f.f.f.f.f.f.f.f.f.f.f.f.f.2aj.d.d",
"ak.f.f.f.f.f.f.f.f.f.f.f.f.f.f.f.f.f.f.f.f.f.f.f.f.falam.f.f.f.f.f.f.f.f.f.f.f.f.f.fan.f.f.f.f.f.f.f.f.f.f.f.f.f.f.f.f.fao.d.d.d",
"ap.C#b#t.f.f.f.f.f.f.f.f.f.f.f.f.f.f.f.f.f.f.f.f.f.faqar.f.f.f.f.f.f.f.f.f.f.f.f#o.x.ias.f.f.f.f.f.f.f.f.f.f.f.f.f.f.fa..i.d.d.d",
".datau#X.f.f.f.f.f.f.f.f.f.f.f.f.f.f.f.f.f.f.f.f.f.f#F.f.f.f.f.f#t.f.f.f.fav#e#m.i.iaw.f.f.f.f.f.f.f.f.f.f.f.f.f.f.3.n.i.i.d.d.d",
".d.d.i#g.f.f.f.f.f.f.f.f.f.f.f.f.f.f.f.f.f.f.f.f.f.fax.f.f.f.f.fayalaz.A.J.i.i.i.i.iaA.f.f.f.f.f.f.f.f.f.f.f.f#s.7aB.i.i.d.d.d.d",
".c.d.i.W.f.f.f.f.f.f.f.f.f.f.f.f.f.f.f.f.f.f.f.f.f.faC.f.f.f.f.f.kaD.G#R.W.J.i.i.i.iaE.f.f.f.f.f.f.f.f.f.f.f.f#p.i.i.i.i.d.d.d.c",
".c.d.i.A.f.f.f.f.f.f.f.f.f.f.f.f.f.f.f.f.f.f.f.f.f.f#vaF.f.f.f.f.f.f.f.f.f.faGaH.i.iau.f.f.f.f.f.f.f.f.f.f.f.faI.i.i.i.i.d.d.d.c",
".e.d.i.iaJ.f.f.f.f.f.f.f.f.f.f.f.f.f.f.f.f.f.f.f.f.w#I.f.f.f.f.f.f.f.f.f.f.f.f.faK.iaL#t.f.f.f.f.f.f.f.f.f.f.fau.i.i.i.i.d.d.daM",
".#.d.d.iaN.f.f.f.f.f.f.f.f.f.f.f.f.f.f.f.f.f.f.f.faO.f.f.f.f.f.f.f.f.f.f.f.f.f.f.faP.i#r.f.f.f.f.f.f.f.f.f.f.G.i.i.i.i.d.d.d.d.#",
".#.d.d.iaLaQ.f.f.f.f.f.f.f.f.f.f.f.f.f.f.f.f.f.f#1.f.f.f.f.f.f.f.f.f.f.f.f.f.f.f.f.faRaS#j.f.f.f.f.f.f.f.f.faz.i.i.i.i.d.d.d.d.#",
"Qt.c.d.i.i.p.f.f.f.f.f.f.f.f.f.f.f.f.f.f.f.f.f#t.f.f.f.f.f.f.f.f.f.f.f.f.f.f.f.f.f.f.faT#0aU.f.f.f.f.f.f#FaV.i.i.i.i.i.d.d.d.c.#",
".#.#.d.d.i.iaW.f.f.f.f.f.f.f.f.f.f.f.f.f.f.f.faX.f.f.f.f.f.f.f.f.f.f.f.f.f.f.f.f.f.f.f.w.i.i#DaYaZaJa0#U.u.i.i.i.i.i.d.d.d.dQtQt",
".#.#.c.d.i.i.i.W.f.f.f.f.f.f.f.f.f.f.f.f.f.f.f.f.f.f.f.f.f.f.f.f.f.f.f.f.f.f.f.f.f.f.f.f.xaB#fa1#8.i.i.i.i.i.i.i.i.i.d.d.d.cQtQt",
".#.#.r.d.d.i.i.ial#o.f.f.f.f.f.f.f.f.f.f.f.f.f.f.f.f.f.f.f.f.f.f.f.f.f.f.f.f.f.f.f.f.f.fa2a3a4aea5.h.i.i.i.i.i.i.i.d.d.d.d#LQt.#",
".#QtQt.d.d.i.i.i.i.ia6.La7.f.f.f.f.f.f.f.f.f.f.f.f.f.f.f.f.f.f.f.f.f.f.f.f.f.f.f.f.f.f.f.k.f.f.f.fa8#q.i.i.i.i.i.i.d.d.d.cQtQt.#",
"Qt.#.#.y.d.d.i.i.i.i.i.i.iaC.f.f.f.f.f.f.f.f.f.f.f.f.f.f.f.f.f.f.f.f.f.f.f.f.f.f.f.f.f.f.f.f.f.f.f.Ia9.i.i.i.i.i.d.d.d.d#CQtQt.#",
".#Qt.#Qt.c.d.d.i.i.i.i.ib..f.f.f.f.f.f.f.f.f.f.f.f.f.f.f.f.f.f.f.f.f.f.f.f.f.f.f.f.f.f.f.f.f.f.f.f.fb#.i.i.i.i.d.d.d.d.cQtQt.#Qt",
".#.#QtQt.6.d.d.d.i.i.i.i.X.f.f.f.f.f.f.f.f.f.f.f.f.f.f.f.f.f.f.f.f.f.f.f.f.f.f.f.f.f.f.f.f.f.f.f.f#bba.i.i.i.d.d.d.d.d.6Qt.#Qt.#",
".#QtQtQtQtbb.d.d.i.i.i.ibc.f.f.f.f.f.f.f.f.f.f.f.f.f.f.f.f.f.f.f.f.f.f.f.f.f.f.f.f.f.f.f.2.f.f.f.fbdbe.i.i.i.d.d.d.dbbQtQtQt.#Qt",
".#Qt.#.#QtQt.c.d.d.i.i.i.ibf.f.f.f.f.f.f.f.f.f.f.f.f.f.f.f.f.f.f.f.f.f.f.f.f.f.f.f.f.f.fbgbhbiaX.L.J.i.i.i.d.d.d.d.c.#.#Qt.#.#.#",
".#.#.#.#Qt.#.#.d.d.d.i.i.iaE.f.f.f.f.f.f.f.f.f.f.f.f.f.f.f.f.f.f.f.f.f.f.f.f.f.f.f.f.f.f.D.uaw#fbj.i.i.i.d.d.d.d.d.#.#Qt.#.#.#.#",
".#.#.#QtQt.#.#.E.d.d.d.i.i.ibk.f.f.f.f.f.f.f.f.f.f.f.f.f.f.f.f.f.f.f.f.f.f.f.f.f.f.f.fa4.i.i.i.i.i.i.i.d.d.d.d.d.6QtQtQt.#.#.#.#",
".#QtQt.#QtQtQtQtbl.d.d.d.d.i.i#g.f.f.f.f.f.faQbm.f.f.f.f.f.f.f.f.f.f.f.f.f.f.f.f.f.f.f#W.i.i.i.i.i.d.d.d.d.d.d.RQtQtQt.#Qt.#QtQt",
"QtQt.#.#.#.#Qt.#.#bl.d.d.d.d.i.ibnaPboaya8bpbq.i#X.f.f.f.f.f.f.f.f.f.f.f.f.f.f.f.f.faG.i.i.i.i.i.d.d.d.d.d.dbl.#Qt.#Qt.#.#.#QtQt",
"Qt.#.O.O.ObrQtQt.O.O.E.d.d.d.d.i.i.i.i.i.i.i.i.ibcas.f.f.f.f.f.f.f.f.f.f.f.f.f.f.fbsbq.i.i.i.i.d.d.d.d.d.d.E.O.OQtbr.#.O.O.#.#Qt",
"Qt.#.O.#.#.#.#Qt.#.#.#.#.c.d.d.d.d.i.i.i.i.i.i.i.i.B#o.f.f.f.f.f.f.f.f.f.f.f.f.fbtbu.i.i.i.d.d.d.d.d.d.c.#.#.#.#Qt.#.#.#.#.#.#Qt",
"Qt.#.#.#.#QtQtQtQtQtQt.#Qt.K.d.d.d.d.d.i.i.i.i.i.i.i.ibv#b.f.f.f.f.f.f.f.f.fbwaK.i.i.i.d.d.d.d.d.d.d.K.#Qt.#Qt.#.#Qt.#.OQt.O.#Qt",
"Qt.#Qt.#Qt.#.#.#.#QtQtQtQtQt.6.c.d.d.d.d.d.d.i.i.i.i.i.ibe##bx.8.f.f.f.I#o#2by.i.d.d.d.d.d.d.d.d.c.E.#.#QtQt.#.#.#Qt.#Qt.#.#.#Qt",
"Qt.#QtQtQt.#.#.#QtQtQtQtQtQtQtQtbz.d.d.d.d.d.d.d.d.d.i.i.i.i.i.i#.bAaw.i.d.d.d.d.d.d.d.d.d.d.c#C.#.#.#QtQt.#.#.#.#.#QtQtQt.#.#Qt",
"QtQtQt.#.#.#.#QtQtQt.#QtQtQtQt.#.#.#.r.c.d.d.d.d.d.d.d.d.d.d.d.d.d.d.d.d.d.d.d.d.d.d.d.d.c#LQt.#.#.#QtQt.#Qt.#Qt.#QtQtQtQtQtQtQt",
"QtQt.#QtQt.#QtQtQt.#Qt.#.#QtQt.#.#QtQt.#Qt.c.d.d.d.d.d.d.d.d.d.d.d.d.d.d.d.d.d.d.d.d.c.#.#QtQt.#.#QtQt.#Qt.#QtQtQtQtQtQt.#.#QtQt",
"QtQt.#.#.#QtQtQt.#Qt.#QtQtQtQt.#Qt.#.#.#.#QtQtQt#Z.c.c.d.d.d.d.d.d.d.d.d.d.c.c#Z.#Qt.#QtQtQtQt.#Qt.#.#.#.#QtQtQtQtQt.#.#Qt.#QtQt"};
