/* XPM */
static char *metroid_door_missile_anim2_xpm[]={
"64 64 10 1",
"# c #000008",
". c None",
"a c #100000",
"c c #201010",
"b c #402828",
"d c #604040",
"e c #a07878",
"f c #b50031",
"g c #de3994",
"h c #e7ade7",
"....#############a#a#a###a#a#a###a#a#a###a#a#a##############....",
"..###aaaaaaaaaa##a#b#a#a#a#b#a#a#a#b#a#a#a#b#a#a#aaaaaaaaac###..",
".##aabbbbbbbabaa#b#b#b#b#b#b#b#b#b#b#b#b#b#b#b#babbbabbabbaac##.",
".#abbbddddddbdbacdcdcdcdcdcdcdcdcdcdcdcdcdcdcdcdadddbddbdabbac#.",
"##abdddeeeeededbaeceaeceaeceaeceaeceaeceaeceaecebeeedeededaaba##",
"#abbdeeeddddedebaeceaeceaeceaeceaeceaeceaeceaecebdddeddeeeeabac#",
"#abddedddbbbdbdbcdadcdcdcdadcdcdcdadcdcdcdadcdcdbbbbebbeddeaaac#",
"#abdeedbbdaadabbcbcbcbcbcbcbcbcbcbcbcbcbcbcbcbcbbaaadabebddaabc#",
"#abdeddbadaababb#a#a#a#a#a#a#a#a#a#a#a#a#a#a#a#abaaadaadbbdbaac#",
"#abdedbbadaabbba#b#b#b#b#b#b#b#b#b#b#b#b#b#b#b#babbbbaadbbbbaac#",
"#abdedbaabbbaaaa#a#a#a#a#a#a#a#a#a#a#a#a#a#a#a#aaababbababdbaac#",
"#abdedbaaabaaaa##a###a###a###a###a###a###a###a###abaabababbbaac#",
"#bddedbaabaaccc##################################cccaabaabbaacc#",
"#abdeddbabaacc##ffffffffffffffffffffffffffffffff##ccaabaabbaacc#",
"#abdedbaabaac#fff.....ffffffffffffffffffffffffffff#caabaabbaacc#",
"##############ff.......fffffffffffffffffffffffffff##############",
"aabdeedbabaa#ff.........ggggggggggggggggggg...fffff#aababdeedbaa",
"###cbccbc####f...........ggggggggggggggggg.....ffff####cbccbc###",
"#abdeedbabaa#f...........ggggggggggggggggg.....ffff#aababdeedba#",
"###bbccc#####f...........ggggggggghhhhhhgg.....gfff#####cccbb###",
"aabdeedbaba##f...........ggggggggggghhhhhhg...ggfff##ababdeedbaa",
"###ccbccb#a##f...........gggggggg......hhhhgggggfff##a#bccbcc###",
"aabdeedbabaa#ff.........gggggggg........hhhhggggfff#aababdeedbaa",
"##b###b######fff.......gggggggg..........hhhggggfff######b###b##",
"aabdeedbabaa#fffg.....gggggggg............hhhgggfff#aababdeedbaa",
"###cbccbc####fffggggggggggggg..............hhgggfff####cbccbc###",
"#abdeedbabaa#fffggggggggggggg..............hhgggfff#aababdeedba#",
"###bbccc#####fffggggggggggggg..............ghgggfff#####cccbb###",
"aabdeedbaba##fffggggggggggggg..............ghgggfff##ababdeedbaa",
"###ccbccb#a##fffggggggggggggg..............gggggfff##a#bccbcc###",
"aabdeedbabaa#fffgg...gggggggg..............gggggfff#aababdeedbaa",
"##b###b######fffg.....gggggggg............ggggggfff######b###b##",
"aabdeedbabaa#fffg.....ggggggggg..........gggggggfff#aababdeedbaa",
"###cbccbc####fffg.....gggggggggg........ggggggggfff####cbccbc###",
"#abdeedbabaa#fffgg...gggggggggggg......gggggggggfff#aababdeedba#",
"###bbccc#####fffggggggggggggggggggggggggggggggggfff#####cccbb###",
"aabdeedbaba##fffggggggggggggggggggggggggggggggggfff##ababdeedbaa",
"###ccbccb#a##fffgggggggggg.....gggggggggggggggggfff##a#bccbcc###",
"aabdeedbabaa#fffgggggggg.........gggggggggggggggfff#aababdeedbaa",
"##b###b######fffggggggg...........ggggggggg...ggfff######b###b##",
"aabdeedbabaa#fffgggggg.............ggggggg.....gfff#aababdeedbaa",
"###cbccbc####fffgggggg.............ggggggg.....gfff####cbccbc###",
"#abdeedbabaa#fffggggg...............gggggg.....gfff#aababdeedba#",
"###bbccc#####fffggggg...............ggggggg...ggfff#####cccbb###",
"aabdeedbaba##fffggggg...............ggggggggggggfff##ababdeedbaa",
"###ccbccb#a##fffggggg...............ggggggggggggfff##a#bccbcc###",
"aabdeedbabaa#fffggggg...............ggggggggggggfff#aababdeedbaa",
"##b###b######fffgggggg.............gggggggggggggfff######b###b##",
"aabdeedbabaa#fffgggggg.............gggggggggggggfff#aababdeedbaa",
"###cbccbc####fffggggggg...........ggggggggggggggfff####cbccbc###",
"#abdeedbabaa#fffgggggggg.........gggggg....gggggfff#aababdeedba#",
"###bbccc#####fffgggggggggg.....gggggg........gggfff#####cccbb###",
"aabdeedbaba##fffgggggggggggggggggggg..........ggfff##ababdeedbaa",
"###ccbccb#a##fffgggggggggggggggggggg..........ggfff##a#bccbcc###",
"aabdeedbabaa#fffggg...ggggggggggggg............gfff#aababdeedbaa",
"##b###b######fffgg.....gggggggggggg............gfff######b###b##",
"aabdeedbabaa#fffgg.....gggggggggggg............gfff#aababdeedbaa",
"###cbccbc####fffgg.....gggggggggggg............gfff####cbccbc###",
"#abdeedbabaa#ffffgg...gggggggggggggg..........gffff#aababdeedba#",
"###bbccc#####ffffggggggggggggggggggg..........gffff#####cccbb###",
"aabdeedbaba##ffffffgggggggggggggggggg........ffffff##ababdeedbaa",
"###ccbccb#a##ffffffffffffffffffffffffff....ffffffff##a#bccbcc###",
"aabdeedbabaa#ffffffffffffffffffffffffffffffffffffff#aababdeedbaa",
"##b###b######ffffffffffffffffffffffffffffffffffffff######b###b##"};
