/* XPM */
static char *dummy[]={
"64 64 186 2",
"Qt c #00000c",
".q c #000011",
".A c #000021",
"#. c #000032",
".i c #000034",
".4 c #000037",
".a c #00003c",
"ae c #000040",
".b c #000042",
".m c #000142",
".T c #000143",
".j c #00043f",
"#d c #010144",
"aa c #010245",
".H c #010346",
"ac c #010447",
"ao c #010f38",
".J c #020346",
".X c #020447",
"aw c #020448",
"aF c #020549",
".G c #02061a",
"#S c #02064a",
".k c #021634",
".# c #021832",
"#r c #030549",
"#Q c #03064a",
".I c #03064b",
"aV c #03074c",
"#4 c #03084b",
"#m c #03084c",
"a1 c #03084d",
"#k c #03094e",
"ar c #03133e",
".Y c #031837",
"#G c #04074d",
"#R c #04084e",
"aq c #04094f",
"aH c #040c52",
"az c #041b3a",
".l c #041b3b",
".t c #041c3c",
"#e c #05094f",
"av c #050a50",
"aW c #050a51",
"a0 c #050b51",
"a. c #050d53",
"aU c #060c53",
"#2 c #061058",
"ah c #061158",
"af c #061159",
"as c #070d55",
"aP c #070e55",
".K c #070e56",
"#g c #071253",
".c c #07125a",
"#w c #08115a",
"#3 c #08145d",
"aB c #08155e",
".f c #08165f",
"#1 c #081760",
"#U c #09135d",
"aC c #091660",
"#5 c #091761",
"a2 c #091862",
".z c #091942",
".P c #091963",
".9 c #0a145e",
"aX c #0a1560",
"#h c #0a1a65",
"#0 c #0b1d69",
"ax c #0b285a",
"#q c #0c1763",
".g c #0c1964",
"#Y c #0c1f6c",
"aM c #0c206b",
".O c #0c206d",
"#6 c #0c206e",
".p c #0c216e",
"ap c #0d1965",
"aT c #0d1a66",
"#l c #0d2270",
"#9 c #0d2371",
"#i c #0d2472",
"aA c #0e2473",
".M c #0e2574",
".U c #0e2673",
"#J c #0f1f6d",
".L c #0f1f6e",
"ai c #102a7a",
"#o c #102a7b",
".n c #102b7b",
"#u c #112475",
"## c #112c7d",
"#8 c #112d6e",
"#V c #112d7f",
"ad c #112e80",
"#v c #122374",
"aD c #122576",
"aY c #122676",
".7 c #122f73",
"#7 c #122f81",
"#X c #122f82",
".6 c #132678",
"an c #132779",
".r c #13287a",
"#M c #132a7c",
"al c #133083",
"#j c #133285",
"a# c #13337c",
"ab c #133386",
".1 c #14347f",
"ag c #14368a",
"aQ c #143884",
"#p c #152a7d",
".Q c #15378c",
"a3 c #153886",
"#W c #153888",
".N c #15398f",
"#Z c #153b8b",
".0 c #162d81",
"am c #163a91",
"#c c #172d82",
"aS c #172f84",
".d c #173c93",
".R c #173e94",
".o c #173f95",
"#n c #183f97",
"#N c #184097",
".e c #184098",
"#L c #193288",
"#f c #19338a",
".S c #19388f",
".s c #19419a",
"#T c #19429b",
"#s c #1a338a",
".w c #1a348b",
"aZ c #1a3a92",
".y c #1a439c",
".h c #1b358e",
".E c #1b449e",
".V c #1b459f",
"at c #1c3891",
"ak c #1e3d97",
"aE c #1e3d98",
".u c #1f1f41",
"aO c #1f3e9a",
"aj c #1f3f9b",
".B c #20419d",
"aI c #204ba9",
".2 c #204caa",
"#O c #214dac",
"#P c #2245a3",
"#x c #2346a5",
".v c #241c46",
"#a c #244cac",
".8 c #254aaa",
"aR c #254aab",
"aG c #264cad",
"aN c #2655b8",
"#I c #2757ba",
"#A c #2850b3",
"#F c #2951b5",
"#z c #2953b6",
"#E c #2b56bb",
".F c #2b57bd",
"#H c #2b5bc1",
"aL c #2c58bf",
"#C c #2c5ec5",
".Z c #2d5fc7",
"aJ c #2e62ca",
".3 c #2f5ec6",
"#D c #305fc8",
".x c #3064ce",
".5 c #3065cf",
"#B c #3165d0",
".D c #3267d2",
"au c #3365d1",
"#y c #3468d5",
"#t c #346ad7",
"#K c #3569d7",
".W c #356bd9",
"aK c #376fdf",
"#b c #386fdf",
".C c #3870e0",
"ay c #3b2d49",
"Qt.#.#QtQtQtQtQt.#.#.#QtQtQt.#Qt.#Qt.#QtQtQtQtQt.a.b.b.c.d.e.f.b.b.b.b.b.b.b.b.a.#.#.#QtQtQt.#Qt.#Qt.#QtQtQtQtQtQt.#QtQt.#QtQtQt",
"Qt.#.#QtQtQt.#QtQt.#QtQtQt.#Qt.#.#.#QtQtQt.b.b.b.b.b.b.b.g.h.b.b.b.b.b.b.b.b.b.b.b.b.bQtQt.#Qt.#.#.#QtQtQtQtQtQt.#QtQt.#QtQtQtQt",
"Qt.#.#QtQtQt.#Qt.#QtQtQtQtQt.#Qt.#Qt.i.b.b.b.b.b.b.b.b.b.b.b.b.b.b.b.b.b.b.b.b.b.b.b.b.b.b.i.#Qt.#QtQtQtQtQtQtQtQtQtQtQtQt.#QtQt",
"Qt.#QtQtQt.#.#.#QtQt.#.#Qt.#.#.#.j.b.b.b.b.b.b.b.b.b.b.b.b.b.b.b.b.b.b.b.b.b.b.b.b.b.b.b.b.b.b.j.#Qt.#.#QtQt.#.#Qt.#Qt.#Qt.#.#Qt",
"Qt.#.#.#Qt.#.#.#Qt.#.#Qt.#.#.k.b.b.b.b.b.b.b.b.b.b.b.b.b.b.b.b.b.b.b.b.b.b.b.b.b.b.b.b.b.b.b.b.b.b.l.#.#Qt.#.#.#.#Qt.#Qt.#.#.#Qt",
"QtQt.#.#.#.#.#.#QtQtQtQt.#.m.b.b.b.b.b.b.b.b.b.b.b.b.b.b.b.b.b.b.b.b.b.b.b.b.b.b.b.b.b.b.b.b.b.b.b.n.oQtQt.#.#.#.#.#.#.#Qt.#QtQt",
"Qt.#QtQt.#QtQtQtQtQtQt.#.b.b.b.b.b.b.b.b.b.b.b.b.b.b.b.b.b.b.b.b.b.b.b.b.b.b.b.b.b.b.b.b.b.b.b.b.b.p.e.eQtQtQtQt.#Qt.#QtQtQtQtQt",
"Qt.#.#.#.#Qt.#.#Qt.#.q.b.b.b.b.b.b.b.b.b.b.b.b.b.b.b.b.b.b.b.b.b.b.b.b.b.b.b.b.b.b.b.b.b.b.b.b.b.b.r.s.e.e.tQt.#.#.#.#Qt.#.#.#.#",
".#.#QtQt.u.#.u.uQt.v.b.b.b.b.b.b.b.b.b.b.b.b.b.b.b.b.b.b.b.b.b.b.b.b.b.b.b.b.b.b.b.b.b.b.b.b.b.b.b.w.x.y.e.e.zQt.u.u.#.#.u.#.u.#",
".#QtQt.u.#.#.#.#.A.b.b.b.b.b.b.b.b.b.b.b.b.b.b.b.b.b.b.b.b.b.b.b.b.b.b.b.b.b.b.b.b.b.b.b.b.b.b.b.b.B.C.D.E.e.e.z.#.#.#.#.#.#Qt.#",
"QtQt.#.#Qt.#Qt.k.b.b.b.b.b.b.b.b.b.b.b.b.b.b.b.b.b.b.b.b.b.b.b.b.b.b.b.b.b.b.b.b.b.b.b.b.b.b.b.b.b.F.C.C.D.y.e.e.GQtQt.#Qt.#Qt.#",
".#.#.#.#QtQt.#.b.b.b.b.b.b.b.b.b.b.b.b.b.b.b.b.b.b.b.b.b.b.b.b.b.b.b.b.b.b.b.b.b.b.b.b.b.b.b.b.b.H.I.b.J.K.L.M.N.eQtQtQtQtQtQtQt",
".#.#.#QtQt.#.O.b.b.b.b.b.b.b.b.b.b.b.b.b.b.b.b.b.b.b.b.b.b.b.b.b.b.b.b.b.b.b.b.b.b.b.b.b.b.b.b.b.b.b.b.b.b.b.b.b.P.QQtQtQtQtQtQt",
".#.#QtQt.#.R.S.b.b.b.b.b.b.b.b.b.b.b.b.b.b.b.b.b.b.b.b.b.b.b.b.b.b.b.b.b.b.b.b.b.b.b.b.b.b.b.b.b.b.b.b.b.b.b.b.b.b.T.UQtQtQtQt.#",
".#QtQt.#.G.V.W.X.b.b.b.b.b.b.b.b.b.b.b.b.b.b.b.b.b.b.b.b.b.b.b.b.b.b.b.b.b.b.b.b.b.b.b.b.b.b.b.b.b.b.b.b.b.b.b.b.b.b.b.Y.#QtQt.#",
"Qt.#.#.#.e.Z.C.0.b.b.b.b.b.b.b.b.b.b.b.b.b.b.b.b.b.b.b.b.b.b.b.b.b.b.b.b.b.b.b.b.b.b.b.b.b.b.b.b.b.b.b.b.b.b.b.b.b.b.b.bQtQtQt.#",
".#Qt.#.1.2.C.C.3.b.b.b.b.b.b.b.b.b.b.b.b.b.b.b.b.b.b.b.b.b.b.b.b.b.b.b.b.b.b.b.b.b.b.b.b.b.b.b.b.b.b.b.b.b.b.b.b.b.b.b.b.4Qt.#Qt",
".#.#Qt.e.5.C.C.C.6.b.b.b.b.b.b.b.b.b.b.b.b.b.b.b.b.b.b.b.b.b.b.b.b.b.b.b.b.b.b.b.b.b.b.b.b.b.b.b.b.b.b.b.b.b.b.b.b.b.b.b.b.#Qt.#",
".#Qt.7.2.C.C.8.9.b.b.b.b.b.b.b.b.b.b.b.b.b.b.b.b.b.b.b.b.b.b.b.b.b.b.b.b.b.b.b.b.b.b.b.b.b.b.b.b.b.b.b.b.b.b.b.b.b.b.b.b.b#..#Qt",
".#Qt###a#b#c.b.b.b.b.b.b.b.b.b.b.b.b.b.b.b.b.b.b.b.b.b.b.b.b.b.b.b.b.b.b.b.b.b.b.b.b.b.b.b.b.b.b.b.b.b.b.b.b.b.b.b.b.b.b.b.b.#.#",
".#.#.b.b#d.b.b.b.b.b.b.b.b.b.b.b.b.b.b.b.b.b.b.b.b.b.b.b.b.b.b.b.b.b.b.b.b.b.b.b.b.b.b.b.b.b.b.b.b.b.b.b.b.b.b.b.b.b.b.b.b.b.#.#",
".#.b.b.b.b.b.b.b.b.b.b.b.b.b.b.b.b.b.b.b.b.b.b.b.b.b.b.b.b.b.b.b.b.b.b.b.b.b.b.b.b.b.b.b.b.b.b.b.b.b.b.b.b.b.b.b.b.b.b.b.b.b.b.#",
".#.b.b.b.b.b.b.b.b.b.b.b.b.b.b.b.b.b.b.b.b.b#e.b.b.b.b.b.b.b.b.b.b.b.b.b.b.b.b.b.b.b.b.b.b.b.b.b.b.b.b.b.b.b.b.b.b.b.b.b.b.b.bQt",
"Qt.b.b.b.b.b.b.b.b.b.b.b.b.b.b.b.b.b.b.b.b.b#f.b.b.b.b.b.b.b.b.b.b.b.b.b.b.b.b.b.b.b.b.b.b.b.b.b.b.b.b.b.b.b.b.b.b.b.b.b.b.b.bQt",
".a.b.b.b.b.b.b.b.b.b.b.b.b.b.b.b.b.b.b.b.b.b.9.b.b.b.b.b.b.b.b.b.b.b.b.b.b.b.b.b.b.b.b.b.b.b.b.b.b.b.b.b.b.b.b.b.b.b.b.b.b.b.b#g",
".b.b.b.b.b.b.b.b.b.b.b.b.b.b.b.b.b.b.b.b.b.b.J.b.b.b.b.b.b.b.b.b.b.b.b.b.b.b.b.b.b.b.b.b.b.b.b.b.b.b.b.b.b.b.b.b.b.b.b.b.b.b.b#h",
".b.b.b.b.b.b.b.b.b.b.b.b.b.b.b.b.b.b.b.b.b.b.b.b.b.b.b.b.b.b.b.b.b.b.b.b.b.b.b.b.b.b.b.b.b.b.b.b.b.b.b.b.b.b.b.b.b.b.b.b.b.b.b#i",
".b.b.b.b.b.b.b.b.b.b.b.b.b.b.b.b.b.b.b.b.b.b.b.b.b.b.b.b.b.b.b.b.b.b.b.b.b.b.b.b.b.b.b.b.b.b.b.b.b.b.b.b.b.b.b.b.b.b.b.b.b.b.b#j",
".b.b.b.b.b.b.b.b.b.b.b.b.b.b.b.b.b.b.b.b.b.b.b.b.b.b.b.b.b.b.b.b.b.b.b.b.b.b.b.b.b.b.b.b.b.b.b.b.b.b.b.b.b.b.b.b.b.b.b.b.b.b#k.e",
".b.b.b.b.b.b.b.b.b.b.b.b.b.b.b.b.b.b.b.b.b.b.b.b.b.b.b.b.b.b.b.b.b.b.b.b.b.b.b.b.b.b.b.b.b.b.b.b.b.b.b.b.b.b.b.b.b.b.b.b.b.b#l.e",
".b.b.b.b.b.b.b.b.b.b.b.b.b.b.b.b.b.b.b.b.b.b.b.b.b.b.b.b.b.b.b.b.b.b.b.b.b.b.b.b.b.b.b.b.b.b.b.b.b.b.b.b.b.b.b.b.b.b.b.b.b#m#n.e",
".b.b.b.b.b.b.b.b.b.b.b.b.b.b.b.b.b.b.b.b.b.b.b.b.b.b.b.b.b.b.b.b.b.b.b.b.b.b.b.b.b.b.b.b.b.b.b.b.b.b.b.b.b.b.b.b.b.b.b.b.b#o.e.e",
".b.b.b.b.b.b.b.b.b.b.b.b.b.b.b.b.b.b.b.b.b.b#d.b.b.b.b.b.b.b.b.b.b.b.b.b.b.b.b.b.b.b.b.b.b.b.b.b.b.b.b.b.b.b.b.b.b.b.b.b.w.e.e.e",
".b.b.b.b.b.b.b.b.b.b.b.b.b.b.b.b.b.b.b.b.b.H#p#q.9#r.b.b.b.b.b.b.b.b.b.b.b.b.b.b.b.b.b.b.b.b.b.b.b.b.b.b.b.b.b.b.b.b.b#s#t.e.e.e",
"#l#u#v#w.b.b.b.b.b.b.b.b.b.b.b.b.b.b.b.b.b.b.b#x#y#z.T.b.b.b.b.b.b.b.b.b.b.b.b.b.b.b.b.b.b.b.b.b.b.b.b.b.b.b.b.b.b.b.b#A#B.e.e.e",
".e#C.C#D.H.b.b.b.b.b.b.b.b.b.b.b.b.b.b.b.b.b.b.b#E.C#F#G.b.b.b.b.b.b.b.b.b.b.b.b.b.b.b.b.b.b.b.b.b.b.b.b.b.b.b.b.b.b.b.K#H.e.e.e",
".e#I.C#J.b.b.b.b.b.b.b.b.b.b.b.b.b.b.b.b.b.b.b.b.9#K#L.T.b.b.b.b.b.b.b.b.b.b.b.b.b.b.b.b.b.b.b.b.b.b.b.b.b.b.b.b.b.b.b.b#M.e.e.e",
"#N#O#P.b.b.b.b.b.b.b.b.b.b.b.b.b.b.b.b.b.b.b.b.b.b#Q.b.b.b.b.b.b.b.b.b.b.b.b.b.b#R.b.b.b.b.b.b.b.b.b.b.b.b.b.b.b.b.b.b.b#S.e.e#N",
"#N#T#U.b.b.b.b.b.b.b.b.b.b.b.b.b.b.b.b.b.b.b.b.b.b.b.b.b.b.b.b.b.b.b.b.b.b.b.b.b.b.b.b.b.b.b.b.b.b.b.b.b.b.b.b.b.b.b.b.b.b#V.e#N",
"#W#X.b.b.b.b.b.b.b.b.b.b.b.b.b.b.b.b.b.b.b.b.b.b.b.b.b.b.b.b.b.b.b.b.b.b.b.b.b.b.b.b.b.b.b.b.b.b.b.b.b.b.b.b.b.b.b.b.b.b.b#Y.e#Z",
".##0.b.b.b.b.b.b.b.b.b.b.b.b.b.b.b.b.b.b.b.b.b.b.b.b.b.b.b.b.b.b.b.b.b.b.b.b.b.b.b.b.b.b.b.b.b.b.b.b.b.b.b.b.b.b.b.b.b.b.b#1.e.#",
".##2.b.b.b.b.b.b.b.b.b.b.b.b.b.b.b.b.b.b.b.b.b.b.b.b.b.b.b.b.b.b.b.b.b.b.b.b.b.b.b.b.b.b.b.b.b.b.b.b.b.b.b.b.b.b.b.b.b.b.b#3.e.#",
"Qt#4.b.b.b.b.b.b.b.b.b.b.b.b.b.b.b.b.b.b.b.b.b.b.b.b.b.b.b.b.b.b.b.b.b.b.b.b.b.b.b.b.b.b.b.b.b.b.b.b.b.b.b.b.b.b.b.b.b.b.b#5#n.#",
".#.#.b.b.b.b.b.b.b.b.b.b.b.b.b.b.b.b.b.b.b.b.b.b.b.b.b.b.b.b.b.b.b.b.b.b.b.b.b.b.b.b.b.b.b.b.b.b.b.b.b.b.b.b.b.b.b.b.b.b.b#6QtQt",
".#.#.b.b.b.b.b.b.b.b.b.b.b.b.b.b.b.b.b.b.b.b.b.b.b.b.b.b.b.b.b.b.b.b.b.b.b.b.b.b.b.b.b.b.b.b.b.b.b.b.b.b.b.b.b.b.b.b.b.b.b#7QtQt",
".#.#.i.b.b.b.b.b.b.b.b.b.b.b.b.b.b.b.b.b.b.b.b.b.b.b.b.b.b.b.b.b.b.b.b.b.b.b.b.b.b.b.b.b.b.b.b.b.b.b.b.b.b.b.b.b.b.b.b.b#m#8Qt.#",
".#QtQt.b.b.b.b.b.b.b.b.b.b.b.b.b.b.b.b.b.b.b.b.b.b.b.b.b.b.b.b.b.b.b.b.b.b.b.b.b.b.b.b.b.b.b.b.b.b.b.b.b.b.b.b.b.b.b.b.b#9QtQt.#",
"Qt.#.#.j.b.b.b.b.b.b.b.b.b.b.b.b.b.b.b.b.b.b.b.b.b.b.b.b.b.b.b.b.b.b.b.b.b.b.b.b.b.b.b.b.b.b.b.b.b.b.b.b.b.b.b.b.b.b.ba.a#QtQt.#",
".#Qt.#Qt.b.b.b.b.b.b.b.b.b.b.b.b.b.b.b.b.b.b.b.b.b.b.b.b.b.b.b.b.b.b.b.b.b.b.b.b.b.b.b.b.b.b.b.b.b.b.b.b.b.b.b.b.b.baaabQtQt.#Qt",
".#.#QtQt.q.b.b.b.b.b.b.b.b.b.b.b.b.b.b.b.b.b.b.b.b.b.b.b.b.b.b.b.b.b.b.b.b.b.b.b.b.b.b.b.b.b.b.b.b.b.b.b.b.b.b.b.bacad.GQt.#Qt.#",
".#QtQtQtQtae.b.b.b.b.b.b.b.b.b.b.b.b.b.b.b.b.b.b.b.b.b.b.b.b.b.b.b.b.b.b.b.b.b.b.b.b.b.b.b.b.b.b.b.b.b.b.b.b.b.bafag.RQtQtQt.#Qt",
".#Qt.#.#QtQt.b.b.b.b.b.b.b.b.b.b.b.b.b.b.b.b.b.b.b.b.b.b.b.b.b.b.b.b.b.b.b.b.b.b.b.b.b.b.b.b.b.b.b.b.b.b.b.bahai.e#N.#.#Qt.#.#.#",
".#.#.#.#Qt.#.#.b.b.b.b.b.b.b.b.b.b.b.b.b.b.b.b.b.b.b.b.b.b.b.b.b.b.b.b.b.b.b.b.b.b.b.b.b.b.b.b.b.b.Tajakalam.e.e.e.#.#Qt.#.#.#.#",
".#.#.#QtQt.#.#.k.b.b.b.b.b.b.b.b.b.b.b.b.b.b.b.b.b.b.b.b.b.b.b.b.b.b.b.b.b.b.b.b.b.b.b.b.b.b.b.b.b.ban.y.e.e.e.e.GQtQtQt.#.#.#.#",
".#QtQt.#QtQtQtQtao.b.b.b.b.b.b.b.b.b.b.b#eap.b.b.b.b.b.b.b.b.b.b.b.b.b.b.b.b.b.b.b.b.b.b.b.b.b.b.b.baq.e.e.e.e.zQtQtQt.#Qt.#QtQt",
"QtQt.#.#.#.#Qt.#.#ar.b.b.b.b.b.b.b.basat.Wauav.b.b.b.b.b.b.b.b.b.b.b.b.b.b.b.b.b.b.b.b.b.b.b.b.b.b.baw.e.e.eax.#Qt.#Qt.#.#.#QtQt",
"Qt.#.u.u.uayQtQt.u.uazaA#haBaCaDaE#E.C.C.C.C#A.b.b.b.b.b.b.b.b.b.b.b.b.b.b.b.b.b.b.b.b.b.b.b.b.b.b.baF.e.e.t.u.uQtay.#.u.u.#.#Qt",
"Qt.#.u.#.#.#.#Qt.#.#.#.#.e.e.e.e.2.5.C.C.C.C.CaG.T.b.b.b.b.b.b.b.b.b.b.b.b.b.b.b.b.b.b.b.b.b.b.b.b.baH.e.#.#.#.#Qt.#.#.#.#.#.#Qt",
"Qt.#.#.#.#QtQtQtQtQtQt.#Qt.o.e.e.e.eaIaJaK.C.C.CaL#q.b.b.b.b.b.b.b.b.b.b.b.b.b.b.b.b.b.b.b.b.b.b.b.baM.#Qt.#Qt.#.#Qt.#.uQt.u.#Qt",
"Qt.#Qt.#Qt.#.#.#.#QtQtQtQtQt.G#N.e.e.e.e.EaN.5aK.C.CaOaP.b.b.b.b.b.b.b.b.b.b.b.b.b.b.b.b.b.b.b.b.b.k.#.#QtQt.#.#.#Qt.#Qt.#.#.#Qt",
"Qt.#QtQtQt.#.#.#QtQtQtQtQtQtQtQtaQ.e.e.e.e.e.e#T#O#I#C#BaRaSaTaUaVaWaXaYaZa0.b.b.b.b.b.b.b.b.b.4.#.#.#QtQt.#.#.#.#.#QtQtQt.#.#Qt",
"QtQtQt.#.#.#.#QtQtQt.#QtQtQtQt.#.#.#.7#N.e.e.e.e.e.e.e.e.e.e.e.e.e.e.e.e.e.ea1.b.b.b.b.b.b#.Qt.#.#.#QtQt.#Qt.#Qt.#QtQtQtQtQtQtQt",
"QtQt.#QtQt.#QtQtQt.#Qt.#.#QtQt.#.#QtQt.#Qt#N.e.e.e.e.e.e.e.e.e.e.e.e.e.e.e.e.ea2aa.b.b.#.#QtQt.#.#QtQt.#Qt.#QtQtQtQtQtQt.#.#QtQt",
"QtQt.#.#.#QtQtQt.#Qt.#QtQtQtQt.#Qt.#.#.#.#QtQtQta3#N.e.e.e.e.e.e.e.e.e.e.e#N#Na3.#Qt.#QtQtQtQt.#Qt.#.#.#.#QtQtQtQtQt.#.#Qt.#QtQt"};
