/* XPM */
static char *f0c3212d972a43ad8d73da143ac78f3egDkvLr70N98KsmvD[] = {
/* columns rows colors chars-per-pixel */
"64 64 4 1 ",
"  c #00000C",
". c #021832",
"X c #1F1F41",
"o c #3B2D49",
/* pixels */
" ..     ...   . . .      .  .    ..     ...   . . .      .  .   ",
" ..   .  .   . ...      .  .     ..   .  .   . ...      .  .    ",
" ..   . .     . .            .   ..   . .     . .            .  ",
" .   ...  .. .... ..  .. . . ..  .   ...  .. .... ..  .. . . .. ",
" ... ... .. ........ .... . ...  ... ... .. ........ .... . ... ",
"  ......    .......  ....... .    ......    .......  ....... .  ",
" .  .      . .  .  .    . .      .  .      . .  .  .    . .     ",
" .... .. . ...    .... .... .... .... .. . ...    .... .... ....",
"..  X.XX o.XX..  .XXXo  XX..X.X...  X.XX o.XX..  .XXXo  XX..X.X.",
".  X.... ......  .X.... ...... ..  X.... ......  .X.... ...... .",
"  .. . .. .X X.  ....      . . .  .. . .. .X X.  ....      . . .",
"....  ... . ...  . . ....       ....  ... . ...  . . ....       ",
"...  .....   ..  .   ...        ...  .....   ..  .   ...        ",
"..  . . .          ....   .    ...  . . .          ....   .    .",
".  . .      ..    .  .   . ..  ..  . .      ..    .  .   . ..  .",
" ....     .. .    ...   . .    . ....     .. .    ...   . .    .",
". .      .  .    ..     ...   . . .      .  .    ..     ...   . ",
"..      .  .     ..   .  .   . ...      .  .     ..   .  .   . .",
".            .   ..   . .     . .            .   ..   . .     . ",
". ..  .. . . ..  .   ...  .. .... ..  .. . . ..  .   ...  .. ...",
".... .... . ...  ... ... .. ........ .... . ...  ... ... .. ....",
"...  ....... .    ......    .......  ....... .    ......    ....",
".  .    . .      .  .      . .  .  .    . .      .  .      . .  ",
"  .... .... .... .... .. . ...    .... .... .... .... .. . ...  ",
" .XXXo  XX..X.X...  X.XX o.XX..  .XXXo  XX..X.X...  X.XX o.XX.. ",
" .X.... ...... ..  X.... ......  .X.... ...... ..  X.... ...... ",
" ....      . . .  .. . .. .X X.  ....      . . .  .. . .. .X X. ",
" . . ....       ....  ... . ...  . . ....       ....  ... . ... ",
" .   ...        ...  .....   ..  .   ...        ...  .....   .. ",
"   ....   .    ...  . . .          ....   .    ...  . . .       ",
"  .  .   . ..  ..  . .      ..    .  .   . ..  ..  . .      ..  ",
"  ...   . .    . ....     .. .    ...   . .    . ....     .. .  ",
" ..     ...   . . .      .  .    ..     ...   . . .      .  .   ",
" ..   .  .   . ...      .  .     ..   .  .   . ...      .  .    ",
" ..   . .     . .            .   ..   . .     . .            .  ",
" .   ...  .. .... ..  .. . . ..  .   ...  .. .... ..  .. . . .. ",
" ... ... .. ........ .... . ...  ... ... .. ........ .... . ... ",
"  ......    .......  ....... .    ......    .......  ....... .  ",
" .  .      . .  .  .    . .      .  .      . .  .  .    . .     ",
" .... .. . ...    .... .... .... .... .. . ...    .... .... ....",
"..  X.XX o.XX..  .XXXo  XX..X.X...  X.XX o.XX..  .XXXo  XX..X.X.",
".  X.... ......  .X.... ...... ..  X.... ......  .X.... ...... .",
"  .. . .. .X X.  ....      . . .  .. . .. .X X.  ....      . . .",
"....  ... . ...  . . ....       ....  ... . ...  . . ....       ",
"...  .....   ..  .   ...        ...  .....   ..  .   ...        ",
"..  . . .          ....   .    ...  . . .          ....   .    .",
".  . .      ..    .  .   . ..  ..  . .      ..    .  .   . ..  .",
" ....     .. .    ...   . .    . ....     .. .    ...   . .    .",
". .      .  .    ..     ...   . . .      .  .    ..     ...   . ",
"..      .  .     ..   .  .   . ...      .  .     ..   .  .   . .",
".            .   ..   . .     . .            .   ..   . .     . ",
". ..  .. . . ..  .   ...  .. .... ..  .. . . ..  .   ...  .. ...",
".... .... . ...  ... ... .. ........ .... . ...  ... ... .. ....",
"...  ....... .    ......    .......  ....... .    ......    ....",
".  .    . .      .  .      . .  .  .    . .      .  .      . .  ",
"  .... .... .... .... .. . ...    .... .... .... .... .. . ...  ",
" .XXXo  XX..X.X...  X.XX o.XX..  .XXXo  XX..X.X...  X.XX o.XX.. ",
" .X.... ...... ..  X.... ......  .X.... ...... ..  X.... ...... ",
" ....      . . .  .. . .. .X X.  ....      . . .  .. . .. .X X. ",
" . . ....       ....  ... . ...  . . ....       ....  ... . ... ",
" .   ...        ...  .....   ..  .   ...        ...  .....   .. ",
"   ....   .    ...  . . .          ....   .    ...  . . .       ",
"  .  .   . ..  ..  . .      ..    .  .   . ..  ..  . .      ..  ",
"  ...   . .    . ....     .. .    ...   . .    . ....     .. .  "
};
