/* XPM */
static char *dummy[]={
"64 64 218 2",
"Qt c #00000c",
".R c #000042",
"#b c #000142",
"#h c #010142",
"#G c #010242",
"ap c #020442",
".1 c #020542",
".# c #021832",
"#C c #030642",
"#a c #030742",
"aa c #030842",
".n c #04080b",
"am c #040942",
"#z c #040a41",
"al c #050c41",
"#F c #060d41",
"#Z c #060e41",
"#0 c #060f41",
".g c #061e2d",
"aD c #070f41",
"aG c #071041",
".z c #081241",
"aK c #081441",
"#y c #091441",
".y c #091641",
"ac c #0a1641",
"#e c #0a1741",
"#H c #0a1841",
"a. c #0b1941",
"aR c #0b1a41",
"#q c #0c1b41",
".S c #0c1d40",
"#K c #0d1e40",
"aU c #0d1f40",
"#d c #0e2040",
".H c #0e2140",
"br c #0f2240",
"#x c #0f2340",
"bk c #0f2440",
".U c #102007",
"#i c #102540",
"#6 c #102640",
"a0 c #112740",
"bg c #112840",
"bt c #112f1f",
".W c #122940",
".I c #122a40",
"bb c #122b40",
".G c #132b40",
"bh c #132c40",
"aW c #132d40",
"#s c #142e40",
"aM c #142f40",
"#W c #15313f",
".Q c #15323f",
"aA c #16273b",
".A c #16333f",
"aT c #16343f",
"aO c #17353f",
"bn c #17363f",
"ai c #18363f",
"#r c #18383f",
"#8 c #18393f",
"#g c #193b3f",
"ah c #1a2d39",
"a2 c #1a3d3f",
"an c #1a3e3f",
"b# c #1b3e3f",
"#V c #1b3f3f",
".x c #1c403f",
"aB c #1c413f",
"ak c #1c423f",
"#N c #1d3904",
"aH c #1d443e",
"#p c #1d453e",
".X c #1e3337",
".e c #1e3c03",
"#5 c #1e453e",
".8 c #1e463e",
"bj c #1e473e",
".C c #1f1f41",
"#J c #1f3637",
"bf c #1f483e",
".J c #1f493e",
"aQ c #204a3e",
".F c #204b3e",
"#E c #214202",
"bx c #21460a",
"a4 c #214d3e",
"#Q c #214e3e",
"#B c #224302",
".f c #224809",
"#m c #224f3e",
"#3 c #23513e",
"aC c #23523e",
"#X c #23533e",
"ar c #244702",
".a c #244801",
"bc c #244a06",
"aV c #24553e",
"aq c #25553e",
"ay c #25563e",
"b. c #25583d",
"az c #26593d",
".2 c #275c3d",
"bo c #284f00",
"#j c #285000",
".h c #285001",
".i c #285002",
".c c #295100",
".b c #295200",
"a# c #29603d",
"#c c #29613d",
"#U c #2a623d",
"ag c #2b4933",
"aS c #2b643d",
"#k c #2b653d",
"aZ c #2c663d",
"#A c #2c673d",
"#L c #2c683d",
"#M c #2d683d",
"a3 c #2d693d",
".7 c #2d6a3c",
"bp c #2e6b3c",
"aL c #2e6d3c",
"bu c #2f6d3c",
".3 c #2f6f3c",
"aP c #30713c",
"be c #31723c",
"a5 c #31733c",
"#7 c #325830",
"bw c #32743c",
"bm c #32753c",
"#o c #33773c",
"#D c #33783c",
".D c #343b2d",
"at c #355a2f",
"bd c #357b3c",
"a8 c #357d3c",
".E c #367e3b",
"## c #367f3b",
".9 c #37803b",
"#Y c #37813b",
"aX c #38833b",
"bl c #38843b",
".0 c #398039",
"ao c #39843b",
".B c #39853b",
".V c #39863b",
"a1 c #3a873b",
"ba c #3a883b",
"bv c #3b2d49",
"aj c #3b893b",
"a7 c #3b8a3b",
"aF c #3b8b3b",
"au c #3c8c3b",
"#9 c #3c8d3b",
"#n c #3d8e3b",
".T c #3e913a",
"aE c #3e923a",
"aN c #3f933a",
".w c #3f943a",
"bq c #40953a",
"av c #40963a",
".l c #40973a",
"#T c #41973a",
"aw c #41983a",
".k c #41993a",
"aJ c #429a3a",
"#l c #429b3a",
"aI c #439c3a",
"a9 c #439d3a",
"#v c #449e3a",
"#u c #449f3a",
"aY c #44a03a",
"bs c #45a13a",
"#4 c #46a33a",
"#f c #46a439",
"#P c #477a29",
".m c #47a639",
"bi c #47a739",
".j c #48a839",
"#2 c #497d28",
"ax c #498029",
"#w c #49aa39",
"a6 c #49ab39",
"#t c #49ac39",
".K c #4a902e",
".d c #4aad39",
"#. c #4b8f2d",
".P c #4ba735",
".v c #4bae39",
".o c #4db037",
".p c #4fb235",
"ad c #4fb237",
"#R c #51b435",
"#I c #52b534",
".4 c #538e24",
"af c #599922",
".6 c #59bc2f",
".u c #61c42a",
"#1 c #63c62a",
".Y c #67b01d",
".q c #69cc26",
"ab c #6dd023",
".5 c #74d71f",
"as c #76d91d",
"#O c #77da1d",
"#S c #7dd515",
".r c #7de019",
".t c #80e318",
".s c #83e616",
".Z c #84e715",
".L c #86e914",
".O c #87ea13",
".M c #8aed11",
"ae c #8bee10",
".N c #8cef10",
"Qt.#.#QtQtQtQtQt.#.#.#QtQtQt.#Qt.#Qt.#QtQtQtQtQt.a.b.b.b.b.b.b.b.b.b.b.b.b.b.b.a.#.#.#QtQtQt.#Qt.#Qt.#QtQtQtQtQtQt.#QtQt.#QtQtQt",
"Qt.#.#QtQtQt.#QtQt.#QtQtQt.#Qt.#.#.#QtQtQt.c.b.b.b.b.d.d.d.d.d.d.d.d.d.d.b.b.b.b.b.b.cQtQt.#Qt.#.#.#QtQtQtQtQtQt.#QtQt.#QtQtQtQt",
"Qt.#.#QtQtQt.#Qt.#QtQtQtQtQt.#Qt.#Qt.e.b.b.b.d.d.d.d.d.d.d.d.d.d.d.d.d.d.d.d.d.d.b.b.b.b.b.e.#Qt.#QtQtQtQtQtQtQtQtQtQtQtQt.#QtQt",
"Qt.#QtQtQt.#.#.#QtQt.#.#Qt.#.#.#.f.b.b.d.d.d.d.d.d.d.d.d.d.d.d.d.d.d.d.d.d.d.d.d.d.d.d.b.b.b.b.f.#Qt.#.#QtQt.#.#Qt.#Qt.#Qt.#.#Qt",
"Qt.#.#.#Qt.#.#.#Qt.#.#Qt.#.#.g.b.b.d.d.d.d.d.d.d.d.d.d.d.d.d.d.d.d.d.d.d.d.d.d.d.d.d.d.d.d.b.b.b.b.g.#.#Qt.#.#.#.#Qt.#Qt.#.#.#Qt",
"QtQt.#.#.#.#.#.#QtQtQtQt.#.h.b.d.d.d.d.d.d.d.d.d.d.d.d.d.d.d.d.d.d.d.d.d.d.d.d.d.d.d.d.d.d.d.d.b.b.b.iQtQt.#.#.#.#.#.#.#Qt.#QtQt",
"Qt.#QtQt.#QtQtQtQtQtQt.#.b.b.d.d.d.d.d.d.d.d.d.d.d.d.d.d.d.d.d.d.d.j.k.l.m.d.d.d.d.d.d.d.d.d.d.d.b.b.b.bQtQtQtQt.#Qt.#QtQtQtQtQt",
"Qt.#.#.#.#Qt.#.#Qt.#.n.b.b.d.d.d.d.d.d.d.d.d.d.d.o.p.q.r.s.t.u.v.w.x.y.z.A.B.d.d.d.d.d.d.d.d.d.d.d.b.b.b.b.gQt.#.#.#.#Qt.#.#.#.#",
".#.#QtQt.C.#.C.CQt.D.b.d.d.d.d.d.d.E.F.G.H.I.J.K.L.M.N.N.N.N.O.P.Q.R.R.R.R.S.T.d.d.d.d.d.d.d.d.d.d.d.d.b.b.b.UQt.C.C.#.#.C.#.C.#",
".#QtQt.C.#.#.#.#.U.b.d.d.d.d.d.V.W.R.R.R.R.R.R.R.X.Y.N.N.N.N.Z.0.1.R.R.R.R.R.2.d.d.d.d.d.d.d.d.d.d.d.d.d.b.b.b.U.#.#.#.#.#.#Qt.#",
"QtQt.#.#Qt.#Qt.g.b.d.d.d.d.d.3.R.R.R.R.R.R.R.R.R.R.R.4.N.r.5.6.7.R.R.R.R.R.R.8.d.d.d.d.d.d.d.d.d.d.d.d.d.d.b.b.b.nQtQt.#Qt.#Qt.#",
".#.#.#.#QtQt.#.b.d.d.d.d.d.9.R.R.R.R.R.R.R.R.R.R.R.R.R#..d.d.d###a.R.R.R.R#b#c.d.d.d.d.d.d.d.d.d.d.d.d.d.d.d.b.b.bQtQtQtQtQtQtQt",
".#.#.#QtQt.#.b.b.d.d.d.d.d#d.R.R.R.R.R.R.R.R.R.R.R.R.R#e.d.d.d#f#g#h.R.R.R#i.l.d.d.d.d.d.d.d.d.d.d.d.d.d.d.d.b.b.b.bQtQtQtQtQtQt",
".#.#QtQt.##j.b.d.d.d.d.d.3.R.R.R.R.R.R.R.R.R.R.R.R.R.R.R#k.d.d.d#l#m.H.S.x#n.d.d.d.d.d.d.d.d#o#p#i#q#i#p#o.d.d.b.b.b.iQtQtQtQt.#",
".#QtQt.#.n.b.d.d.d.d.d.d#r.R.R.R.R.R.R.R.R.R.R.R.R.R.R.R#s.d.d.d.d#t#u#v#w.d.d.d.d.d.d.d.E#x.R.R.R.R.R.R.R#x.E.d.b.b.b.g.#QtQt.#",
"Qt.#.#.#.b.d.d.d.d.d.d.d#y.R.R.R.R.R.R.R.R.R.R.R.R.R.R.R#z.d.d.d.d.d.d.d.d.d.d.d.d.d.d#A.R.R.R.R.R.R.R.R.R.R.R#A.d.b.b.bQtQtQt.#",
".#Qt.##B.b.d.d.d.d.d.d.d#C.R.R.R.R.R.R.R.R.R.R.R.R.R.R.R.R.j.d.d.d.d.d.d.d.d.d.d.d.d#D.R.R.R.R.R.R.R.R.R.R.R.R.R#D.b.b.b#EQt.#Qt",
".#.#Qt.b.d.d.d.d.d.d.d.d#F.R.R.R.R.R.R.R.R.R.R.R.R.R.R.R#G.d.d.d.d.d.d.d.d.d.d.d.d.d#H.R.R.R.R.R.R.R.R.R.R.R.R.R#H.d.b.b.b.#Qt.#",
".#Qt.e.b.d.d.d.d.d.d.d#I#J.R.R.R.R.R.R.R.R.R.R.R.R.R.R.R#K.d.d.d.d.d.d.d.d.d.d.d.d#L.R.R.R.R.R.R.R.R.R.R.R.R.R.R.R#M.b.b.b#N.#Qt",
".#Qt.b.d.d.d.d.d.d.d.d#O#P.R.R.R.R.R.R.R.R.R.R.R.R.R.R.R#Q.d.d.d.d.d.d.d.d.d.d.d.d.Q.R.R.R.R.R.R.R.R.R.R.R.R.R.R.R.Q.d.b.b.b.#.#",
".#.#.b.d.d.d.d.d.d.d#R.M#S.R.R.R.R.R.R.R.R.R.R.R.R.R.R.R.T.d.d#T#U#V#W#r#X#Y.d.d.d#Z.R.R.R.R.R.R.R.R.R.R.R.R.R.R.R#0.d.b.b.b.#.#",
".#.b.b.d.d.d.d.d.d.d#1.N.N#2.R.R.R.R.R.R.R.R.R.R.R.R.R#3.d#4#5.R.R.R.R.R.R.R#6.E.d.R.R.R.R.R.R.R.R.R.R.R.R.R.R.R.R#b.d.b.b.b.b.#",
".#.b.d.d.d.d.d.d.d.d#O.N.N.N#7.R.R.R.R.R.R.R.R.R.R.R#8.d#9a..R.R.R.R.R.R.R.R.R.Ra##a.R.R.R.R.R.R.R.R.R.R.R.R.R.R.Raa.d.d.b.b.bQt",
"Qt.b.d.d.d.d.d.d.d.d.Z.N.N.Nab#3.R.R.R.R.R.R.R.R.R.F.d#u#e.R.R.R.R.R.R.R.R.R.R.R.Rac.R.R.R.R.R.R.R.R.R.R.R.R.R.R.R#i.d.d.b.b.bQt",
".a.b.d.d.d.d.d.d.dadaeafagahai.3ajakal.R.R.Ramanao.d.d#V.R.R.R.R.R.R.R.R.R.R.R.R.Rap.R.R.R.R.R.R.R.R.R.R.R.R.R.R.Raq.d.d.b.b.bar",
".b.b.d.d.d.d.d.d.dasat.R.R.R.R.Rak.d.d#Tauav.d.d.d.d#n.R.R.R.R.R.R.R.R.R.R.R.R.R.R.R.R.R.R.R.R.R.R.R.R.R.R.R.R.R.Raw.d.d.b.b.b.b",
".b.d.d.d.d.d.d.d.dax.R.R.R.R.R.R.R#c.d.d.d.d.d.d.d.day.R.R.R.R.R.R.R.R.R.R.R.R.R.R.Ral.R.R.R.R.R.R.R.R.R.R.R.R.Raz.d.d.d.d.b.b.b",
".b.d.d.d.d.d.d.d.daA.R.R.R.R.R.R.R#K.d.d.d.d.d.d.d.d.Q.R.R.R.R.R.R.R.R.R.R.R.R.R.R.R.R#g.R.R.R.R.R.R.R.R.R.R.RaB.d.d.d.d.d.b.b.b",
".b.d.d.d.d.d.d.d.d#b.R.R.R.R.R.R.R#h.d.d.d.d.d.d.d.d.H.R.R.R.R.R.R.R.R.R.R.R.R.R.R.R.R#naC.R.R.R.R.R.R.R.R.RaC.d.d.d.d.d.d.b.b.b",
".b.d.d.d.d.d.d.d.daD.R.R.R.R.R.R.R#Z.d.d.d.d.d.d.d.d#6.R.R.R.R.R.R.R.R.R.R.R.R.R.R.R.RaE.daF#paG.R.R.RaG#paF.d.d.d.d.d.d.d.b.b.b",
".b.d.d.d.d.d.d.d.daH.R.R.R.R.R.R.RaH.d.d.d.d.d.d.d.d#V.R.R.R.R.R.R.R.R.R.R.R.R.R.R.R.R#w.d.d.d.daIaEaI.d.d.d.d.d.d.d.d.d.d.b.b.b",
".b.d.d.d.d.d.d.d.daJaK.R.R.R.R.RaKaJ.d.d.d.d.d.d.d.daL.R.R.R.R.R.R.R.R.R.R.R.R.R.R.RaM.d.d.d.d.d.d.d.d.d.d.d.d.d.d.d.d.d.d.b.b.b",
".b.d.d.d.d.d.d.d.d.daNaO.R.R.RaO.w.d.d.d.d.d.d.d.d.d#taG.R.R.R.R.R.R.R.R.R.R.R.R.R.RaP.d.d.d.d.d.d.d.d.d.d.d.d.d.d.d.d.d.d.b.b.b",
".b.d.d.d.d.d.d.d.d.d.d.d#vau#v.d.d.d.d.d.d.d.d.d.d.d.d#L.R.R.R.R.R.R.R.R.R.R.R.R.R.Q.d.d.d.d.d.d.d.d.d.d.d.d.d.d.d.d.d.d.d.b.b.b",
".b.d.d.d.d.d.d.d.d.d.d.d.d.d.d.d.d.d.d.d.d.d.d.d.d.d.d.daQ.R.R.R.R.R.R.R.R.R.R.RaR#l.d.d.d.d.d.d.d.d.d.d.d.d.d.d.d.d.d.d.d.b.b.b",
".b.d.d.d.d.d.d.d.d.d.d.d.d.maSaT#HaGaUaB#o.d.d.d.d.d.d.d.daV.R.R.R.R.R.R.R.R.RaW.k.d.d.d.d.d#waX.9aY.d.d.d.d.d.d.d.d.d.d.d.b.b.b",
".b.b.d.d.d.d.d.d.d.d.d.daZal.R.R.R.R.R.R.Ra0.B.d.d.d.d.d.d.da1a2ap.R.R.R.R#ia3.d.d.d.d.d.d.2aa.R.R.RaQ.d.d.d.d.d.d.d.d.d.b.b.b.b",
".b.b.d.d.d.d.d.d.d.d.da4.R.R.R.R.R.R.R.R.R.R.Ra5.d.d.d.d.d.d.d.da6a7a8aXa9.d.d.d.d.d.d.db..R.R.R.R.R.Rb#.d.d.d.d.d.d.d.d.b.b.b.b",
".b.b.d.d.d.d.d.d.d.d.2.R.R.R.R.R.R.R.R.R.R.R.R.Rba.d.d.d.d.d.d.d.d.d.d.d.d.d.d.d.d.d.da9.R.R.R.R.R.R.R.R##.d.d.d.d.d.d.d.b.b.b.b",
".a.b.d.d.d.d.d.d.daN.R.R.R.R.R.R.R.R.R.R.R.R.R.Rbb.d.d.d.d.d.d.d.d.d.d.d.d.d.d.d.d.d.daP.R.R.R.R.R.R.R.R#3.d.d.d.d.d.d.d.b.b.bbc",
".#.b.b.d.d.d.d.d.d.F.R.R.R.R.R.R.R.R.R.R.R.R.R.R.R.E.d.d.d.d.d#vbdaLbea7.d.d.d.d.d.d.d#M.R.R.R.R.R.R.R.Rbf.d.d.d.d.d.d.b.b.b.b.#",
".#.b.b.d.d.d.d.d.d#y.R.R.R.R.R.R.R.R.R.R.R.R.R.R.R.J.d.d.d.E.Q.R.R.R.R.R.zay#w.d.d.d.d.B.R.R.R.R.R.R.R.RaZ.d.d.d.d.d.d.b.b.b.b.#",
"Qt.c.b.d.d.d.d.da9.R.R.R.R.R.R.R.R.R.R.R.R.R.R.R.Rbg.d.d#m.R.R.R.R.R.R.R.R.RaR.V.d.d.d.dbh.R.R.R.R.R.R.zbi.d.d.d.d.d.d.b.b.b.c.#",
".#.#.b.b.d.d.d.daE.R.R.R.R.R.R.R.R.R.R.R.R.R.R.R.R#q.dbj.R.R.R.R.R.R.R.R.R.R.R#aba.d.d.dav#d.R.R.R.Ral##.d.d.d.d.d.d.b.b.b.bQtQt",
".#.#.b.b.d.d.d.daJ.R.R.R.R.R.R.R.R.R.R.R.R.R.R.R.Rbk#L.R.R.R.R.R.R.R.R.R.R.R.R.R#d.d.d.d.d.d#U#raTb.a9.d.d.d.d.d.d.d.b.b.b.bQtQt",
".#.#.e.b.b.d.d.d.dal.R.R.R.R.R.R.R.R.R.R.R.R.R.R.RaB.z.R.R.R.R.R.R.R.R.R.R.R.R.R.Ra#.d.d.d.d.d.d.d.d.d.d.d.d.d.d.d.b.b.b.b#NQt.#",
".#QtQt.b.b.d.d.d.d#V.R.R.R.R.R.R.R.R.R.R.R.R.R.R.R.F.R.R.R.R.R.R.R.R.R.R.R.R.R.R.R#d.d.d.d.d.d.d.d.d.d.d.d.d.d.d.d.b.b.b.bQtQt.#",
"Qt.#.#.f.b.b.d.d.dbl.R.R.R.R.R.R.R.R.R.R.R.R.R.R#qbj.R.R.R.R.R.R.R.R.R.R.R.R.R.R.R.RaI.d.d.d.d.d.d.d.d.d.d.d.d.d.b.b.b.b#EQtQt.#",
".#Qt.#Qt.b.b.b.d.d.d.J.R.R.R.R.R.R.R.R.R.R.R.R.RbmaM.R.R.R.R.R.R.R.R.R.R.R.R.R.R.R.R.V.d.d.d.d.d.d.d.d.d.d.d.d.b.b.b.b.bQtQt.#Qt",
".#.#QtQt.n.b.b.b.d.d.dbn.R.R.R.R.R.R.R.R.R.R.R.2.daW.R.R.R.R.R.R.R.R.R.R.R.R.R.R.R.Rbl.d.d.d.d.d.d.d.d.d.d.d.b.b.b.b.b.nQt.#Qt.#",
".#QtQtQtQtbo.b.b.d.d.d.d.F.R.R.R.R.R.R.R.R#zbp.d.d#V.R.R.R.R.R.R.R.R.R.R.R.R.R.R.R.Rbq.d.d.d.d.d.d.d.d.d.d.d.b.b.b.bboQtQtQt.#Qt",
".#Qt.#.#QtQt.b.b.b.d.d.d.daj.8#y.R.R.Rbrazbs.d.d.d#k.R.R.R.R.R.R.R.R.R.R.R.R.R.R.R.z.d.d.d.d.d.d.d.d.d.d.d.b.b.b.b.b.#.#Qt.#.#.#",
".#.#.#.#Qt.#.#.b.b.b.d.d.d.d.d.d#fa9#w.d.d.d.d.d.d#v.R.R.R.R.R.R.R.R.R.R.R.R.R.R.R#m.d.d.d.d.d.d.d.d.d.d.b.b.b.b.b.#.#Qt.#.#.#.#",
".#.#.#QtQt.#.#.g.b.b.b.d.d.d.d.d.d.d.d.d.d.d.d.d.d.d#3.R.R.R.R.R.R.R.R.R.R.R.R.RaaaI.d.d.d.d.d.d.d.d.d.b.b.b.b.b.nQtQtQt.#.#.#.#",
".#QtQt.#QtQtQtQtbt.b.b.b.b.d.d.d.d.d.d.d.d.d.d.d.d.d.d.I.R.R.R.R.R.R.R.R.R.R.R.Rbu.d.d.d.d.d.d.d.d.b.b.b.b.b.b.UQtQtQt.#Qt.#QtQt",
"QtQt.#.#.#.#Qt.#.#bt.b.b.b.b.d.d.d.d.d.d.d.d.d.d.d.d.dbsaW.R.R.R.R.R.R.R.R.R.R#k.d.d.d.d.d.d.d.d.b.b.b.b.b.bbt.#Qt.#Qt.#.#.#QtQt",
"Qt.#.C.C.CbvQtQt.C.C.g.b.b.b.b.d.d.d.d.d.d.d.d.d.d.d.d.d.daz#z.R.R.R.R.R.RaM.V.d.d.d.d.d.d.d.d.b.b.b.b.b.b.g.C.CQtbv.#.C.C.#.#Qt",
"Qt.#.C.#.#.#.#Qt.#.#.#.#.b.b.b.b.b.d.d.d.d.d.d.d.d.d.d.d.d.d#wbw#3akbja##9.d.d.d.d.d.d.d.d.b.b.b.b.b.b.b.#.#.#.#Qt.#.#.#.#.#.#Qt",
"Qt.#.#.#.#QtQtQtQtQtQt.#Qt.i.b.b.b.b.b.d.d.d.d.d.d.d.d.d.d.d.d.d.d.d.d.d.d.d.d.d.d.d.d.b.b.b.b.b.b.b.i.#Qt.#Qt.#.#Qt.#.CQt.C.#Qt",
"Qt.#Qt.#Qt.#.#.#.#QtQtQtQtQt.n.b.b.b.b.b.b.b.d.d.d.d.d.d.d.d.d.d.d.d.d.d.d.d.d.d.b.b.b.b.b.b.b.b.b.g.#.#QtQt.#.#.#Qt.#Qt.#.#.#Qt",
"Qt.#QtQtQt.#.#.#QtQtQtQtQtQtQtQtbx.b.b.b.b.b.b.b.b.b.d.d.d.d.d.d.d.d.d.d.b.b.b.b.b.b.b.b.b.b.b#E.#.#.#QtQt.#.#.#.#.#QtQtQt.#.#Qt",
"QtQtQt.#.#.#.#QtQtQt.#QtQtQtQt.#.#.#.e.b.b.b.b.b.b.b.b.b.b.b.b.b.b.b.b.b.b.b.b.b.b.b.b.b.b#NQt.#.#.#QtQt.#Qt.#Qt.#QtQtQtQtQtQtQt",
"QtQt.#QtQt.#QtQtQt.#Qt.#.#QtQt.#.#QtQt.#Qt.b.b.b.b.b.b.b.b.b.b.b.b.b.b.b.b.b.b.b.b.b.c.#.#QtQt.#.#QtQt.#Qt.#QtQtQtQtQtQt.#.#QtQt",
"QtQt.#.#.#QtQtQt.#Qt.#QtQtQtQt.#Qt.#.#.#.#QtQtQtar.b.b.b.b.b.b.b.b.b.b.b.b.b.bar.#Qt.#QtQtQtQt.#Qt.#.#.#.#QtQtQtQtQt.#.#Qt.#QtQt"};
