/* XPM */
static char *dummy[]={
"64 64 158 2",
"Qt c #00000c",
".x c #000042",
"#d c #010142",
"ak c #020142",
".# c #021832",
"#I c #030242",
".O c #040243",
".i c #05030f",
"aw c #050343",
".2 c #050344",
"#K c #070443",
".f c #071931",
"#k c #080543",
"av c #090643",
".y c #0a0643",
".w c #0c0844",
"#Y c #0d0844",
".L c #0d0947",
"ap c #0e0944",
".U c #0e0a46",
".K c #110b44",
"#1 c #120b44",
".3 c #120b45",
"an c #120c45",
"#e c #130c45",
".C c #130d17",
"az c #141b2f",
"#x c #150d45",
"#q c #170f45",
"aa c #180f45",
".T c #19114b",
"ad c #1a1146",
"#8 c #1b1146",
".D c #1c1246",
"ax c #1e1346",
".E c #1f154d",
".s c #1f1f41",
"aj c #211547",
"#9 c #221647",
"#a c #221720",
"ac c #231647",
"#U c #241747",
".d c #241821",
"#O c #251847",
"am c #261847",
".4 c #271a23",
"au c #281a48",
".0 c #281b24",
"aB c #281f2b",
"ag c #291a48",
".e c #291f2b",
"af c #2b1c48",
"#C c #2b1d25",
".a c #2b1d26",
"ab c #2b202a",
".Z c #2d1f52",
"#B c #2e1e48",
"#0 c #2f1e49",
"as c #2f2028",
".R c #302028",
".g c #302129",
".b c #312129",
"#n c #332149",
"#z c #342249",
".v c #352249",
".z c #35234d",
"#5 c #37234a",
"ar c #37244a",
".t c #37283d",
".H c #38244a",
"#E c #39254a",
"ai c #3b264a",
"aA c #3b2d49",
"#Q c #3c264a",
"#4 c #3c274a",
"#W c #3d274a",
"#u c #3e284b",
"#J c #3f294b",
"#c c #40294b",
"#. c #412a4b",
"#R c #432b4b",
".I c #432e5b",
"#t c #442c4b",
"a# c #452d4c",
"#j c #472e4c",
"al c #482e4c",
".9 c #4a2f4c",
"#6 c #4a304c",
"#L c #4d324d",
"ay c #4e324d",
"ao c #4f334d",
".X c #50375f",
"## c #51344d",
"#v c #52354d",
"aq c #53364e",
"a. c #54364e",
"#T c #55374e",
"#N c #56374e",
"#f c #57384e",
"#2 c #59394e",
"ae c #5a3a4f",
"#3 c #5b3a4f",
"#P c #5c3b4f",
"at c #5d3c4f",
"#G c #5e3d4f",
"#A c #5f3d4f",
"#s c #613f50",
"#w c #634050",
"#p c #654150",
"#l c #664250",
"#7 c #684350",
".8 c #6a4451",
"#S c #6b4551",
"#V c #6c4651",
"#Z c #6d4651",
"#H c #6e4751",
".j c #6f4851",
"#F c #704852",
"ah c #714952",
".u c #724952",
".c c #734a52",
".G c #744b53",
".r c #754b54",
".h c #754c54",
"#i c #764c55",
"#o c #764d55",
"#D c #774d56",
".B c #784e57",
".J c #794f58",
".k c #7b505a",
".Q c #7d525c",
"#X c #7f545e",
".5 c #815560",
".Y c #815660",
"#M c #825661",
".N c #835762",
"#g c #845763",
".S c #875a66",
".V c #895c68",
"#b c #8b5d6a",
".A c #8c5f6f",
".l c #8e606d",
".7 c #8f616e",
".1 c #90616f",
"#m c #90626f",
"#y c #916270",
".q c #936472",
".P c #936475",
".n c #946573",
".F c #956679",
".m c #966675",
".M c #976776",
".6 c #986877",
"#h c #996878",
"#r c #996978",
".W c #9a6979",
".o c #9b6a7a",
".p c #9c6b7b",
"Qt.#.#QtQtQtQtQt.#.#.#QtQtQt.#Qt.#Qt.#QtQtQtQtQt.a.b.b.b.b.b.b.b.b.b.b.b.b.b.b.a.#.#.#QtQtQt.#Qt.#Qt.#QtQtQtQtQtQt.#QtQt.#QtQtQt",
"Qt.#.#QtQtQt.#QtQt.#QtQtQt.#Qt.#.#.#QtQtQt.b.b.b.b.b.c.c.c.c.c.c.c.c.c.c.b.b.b.b.b.b.bQtQt.#Qt.#.#.#QtQtQtQtQtQt.#QtQt.#QtQtQtQt",
"Qt.#.#QtQtQt.#Qt.#QtQtQtQtQt.#Qt.#Qt.d.b.b.b.c.c.c.c.c.c.c.c.c.c.c.c.c.c.c.c.c.c.b.b.b.b.b.d.#Qt.#QtQtQtQtQtQtQtQtQtQtQtQt.#QtQt",
"Qt.#QtQtQt.#.#.#QtQt.#.#Qt.#.#.#.e.b.b.c.c.c.c.c.c.c.c.c.c.c.c.c.c.c.c.c.c.c.c.c.c.c.c.b.b.b.b.e.#Qt.#.#QtQt.#.#Qt.#Qt.#Qt.#.#Qt",
"Qt.#.#.#Qt.#.#.#Qt.#.#Qt.#.#.f.b.b.c.c.c.c.c.c.c.c.c.c.c.c.c.c.c.c.c.c.c.c.c.c.c.c.c.c.c.c.b.b.b.b.f.#.#Qt.#.#.#.#Qt.#Qt.#.#.#Qt",
"QtQt.#.#.#.#.#.#QtQtQtQt.#.g.b.c.c.c.c.c.c.c.c.c.c.c.c.c.c.c.c.c.c.c.c.c.c.c.c.c.c.c.c.c.c.c.c.b.b.b.gQtQt.#.#.#.#.#.#.#Qt.#QtQt",
"Qt.#QtQt.#QtQtQtQtQtQt.#.b.b.c.c.c.c.c.c.c.c.c.c.c.c.c.c.h.c.c.c.c.c.c.c.c.c.c.c.c.c.c.c.c.c.c.c.b.b.b.bQtQtQtQt.#Qt.#QtQtQtQtQt",
"Qt.#.#.#.#Qt.#.#Qt.#.i.b.b.c.c.c.c.c.c.c.j.c.c.c.k.l.m.n.o.p.q.r.c.c.c.c.c.c.c.c.c.c.c.c.c.c.c.c.c.b.b.b.b.fQt.#.#.#.#Qt.#.#.#.#",
".#.#QtQt.s.#.s.sQt.t.b.c.c.c.c.c.c.u.v.w.x.y.z.A.o.p.p.p.p.p.o.B.c.c.c.c.c.c.c.c.c.c.c.c.c.c.c.c.c.c.c.b.b.b.CQt.s.s.#.#.s.#.s.#",
".#QtQt.s.#.#.#.#.C.b.c.c.c.c.c.c.c.D.x.x.x.x.x.E.F.p.p.p.p.p.m.G.c.c.c.c.c.c.c.c.c.c.c.c.c.c.c.c.c.c.c.c.b.b.b.C.#.#.#.#.#.#Qt.#",
"QtQt.#.#Qt.#Qt.f.b.c.c.c.c.c.c.c.H.x.x.x.x.x.x.x.I.p.p.p.p.q.J.c.c.c.c.c.c.c.c.c.c.c.c.c.c.c.c.c.c.c.c.c.c.b.b.b.iQtQt.#Qt.#Qt.#",
".#.#.#.#QtQt.#.b.c.c.c.c.c.c.c.c.K.x.x.x.x.x.x.x.L.p.p.M.N.G.c.c.c.c.c.c.c.c.c.c.c.c.c.c.c.c.c.c.c.c.c.c.c.c.b.b.bQtQtQtQtQtQtQt",
".#.#.#QtQt.#.b.b.c.c.c.c.c.c.c.G.O.x.x.x.x.x.x.x.x.P.Q.G.c.c.c.c.c.c.c.c.c.c.c.c.c.c.c.c.c.c.c.c.c.c.c.c.c.c.b.b.b.bQtQtQtQtQtQt",
".#.#QtQt.#.R.b.c.c.c.c.c.c.c.G.S.T.x.x.x.x.x.x.x.U.J.c.c.c.c.c.c.c.c.c.c.c.c.c.c.c.c.c.c.c.c.c.c.c.c.c.c.c.c.c.b.b.b.gQtQtQtQt.#",
".#QtQt.#.i.b.c.c.c.c.c.c.c.c.V.W.X.x.x.x.x.x.x.x.v.c.c.c.c.c.c.c.c.c.c.c.c.c.c.c.c.c.c.c.c.c.c.c.c.c.c.c.c.c.c.c.b.b.b.f.#QtQt.#",
"Qt.#.#.#.b.c.c.c.c.c.c.c.c.Y.o.p.p.Z.x.x.x.x.x.D.c.c.c.c.c.c.c.c.c.c.c.c.c.c.c.c.c.c.c.c.c.c.c.c.c.c.c.c.c.c.c.c.c.b.b.bQtQtQt.#",
".#Qt.#.0.b.c.c.c.c.c.c.c.G.1.p.p.p.p.X.T.2.3.H.c.c.c.c.c.c.c.c.c.c.c.c.c.c.c.c.c.c.c.c.c.c.c.c.c.c.c.c.c.c.c.c.c.c.b.b.b.4Qt.#Qt",
".#.#Qt.b.c.c.c.c.c.c.c.c.5.p.p.p.p.p.p.M.J.c.c.c.c.c.c.c.c.c.c.c.c.c.c.c.c.c.c.c.c.c.c.c.c.c.c.c.c.c.c.c.c.c.c.c.c.c.b.b.b.#Qt.#",
".#Qt.d.b.c.c.c.c.c.c.c.k.6.p.p.p.p.p.7.c.c.c.c.c.c.c.c.c.c.c.c.c.c.c.c.c.c.c.c.c.c.c.c.c.c.c.c.c.8.9#.##.c.c.c.c.c.c.b.b.b#a.#Qt",
".#Qt.b.c.c.c.c.c.c.c.r#b.p.p.p.p.p.m.c.c.c.c.c.c.c.c.c.c.c.c.c.c.c.c.c.c.c.c.c.c.c.c.c.c.c.c.c#c#d.x.x.x#e#f.c.c.c.c.c.b.b.b.#.#",
".#.#.b.c.c.c.c.c.c.c#g.o.p.p.p.p#h#i.c.c.c.c.c.c.c.c.c.c.c.c.c.c.c.c.c.c.c.c.c.c.c.c.c.c.c.c#j.x.x.x.x.x.x#k#l.c.c.c.c.b.b.b.#.#",
".#.b.b.c.c.c.c.c.c.c#m.p.p.p.p.p.B.c.c.c.c.c.c.c.c.c.c.c.c.c.c.c.c.c.c.c.c.c.c.c.c.c.c.c.c.c.K.x.x.x.x.x.x.x#n.c.c.c.c.b.b.b.b.#",
".#.b.c.c.c.c.c.c.c#o.6.p.p.p.p.S.c.c.c.c.c.c.c.c.c.c.c.c.c.c.c.c.c.c.c.c.c.c.c.c.c.c.c.c.c#p.x.x.x.x.x.x.x.x#q.c.c.c.c.c.b.b.bQt",
"Qt.b.c.c.c.c.c.c.c.J.p.p.p.p#r.c.c.c.c.c.c.c.c.c.c.c.c.c.c.c.c.c#s#t#u#v.c.c.c.c.c.c.c.c.c#w.x.x.x.x.x.x.x.x#x.c.c.c.c.c.b.b.bQt",
".a.b.c.c.c.c.c.c.c#y.p.p.p.p.S.c.c.c.c.c.c.c.c.c.c.c.c.c.c.c.c#z.x.x.x.x#q#A.c.c.c.c.c.c.c.c.w.x.x.x.x.x.x.x#B.c.c.c.c.c.b.b.b#C",
".b.b.c.c.c.c.c.c#i.o.p.p.p.o#D.c.c.c.c.c.c.c.c.c.c.c.c.c.c.c#E.x.x.x.x.x.x.K#F.c.c.c.c.c.c.c#c.x.x.x.x.x.x.x#G.c.c.c.c.c.b.b.b.b",
".b.c.c.c.c.c.c.c.k.p.p.p.o.5.c.c.c.c.c.c.c.c.c.c.c.c.c.c.c#H#I.x.x.x.x.x.x.x#J.c.c.c.c.c.c.c.c.v.x.x.x.x#K#L.c.c.c.c.c.c.c.b.b.b",
".b.c.c.c.c.c.c.c#M.p.p.p#b.c.c.c.c.c.c.c.c.c.c.c.c.c.c.c.c#N.x.x.x.x.x.x.x.x#O.c.c.c.c.c.c.c.c.c#P#Q#n#R#S.c.c.c.c.c.c.c.c.b.b.b",
".b.c.c.c.c.c.c.c.N.p.p.p.k.c.c.c.c.c.c.c.c.c.c.c.c.c.c.c.c#T.x.x.x.x.x.x.x.x#U.c.c.c.c.c.c.c.c.c.c.c.c.c.c.c.c.c.c.c.c.c.c.b.b.b",
".b.c.c.c.c.c.c.c.k.6.p.l.c.c.c.c.c.c.c.c.c.c.c.c.c.c.c.c.c#V.x.x.x.x.x.x.x.x#W.c.c.c.c.c.c.c.c.c.c.c.c.c.c.c.c.c.c.c.c.c.c.b.b.b",
".b.c.c.c.c.c.c.c.c.k#X#i.c.c.c.c.c.c.c.c.c.c.c.c.c.c.c.c.c.c.v.x.x.x.x.x.x#Y#Z.c.c.c.c.c.c.c.c.c.c.c.c.c.c.c.c.c.c.c.c.c.c.b.b.b",
".b.c.c.c.c.c.c.c.c.c.c.c.c.c.c.c.c.c.c.c.c.c.c.c.c.c.c.c.c.c.c#0.x.x.x.x#1#2.c.c.c.c.c.c.c.c.c.c.c.c.c.c.c.c.c.c.c.c.c.c.c.b.b.b",
".b.c.c.c.c.c.c.c.c.c.c.c.c.c.c.c.c.c.c.c.c.c.c.c.c.c.c.c.c.c.c.c#3#4#5#6.c.c.c.c.c.c.c.c.c.c.c.c.c.c.c.c.c.c.c.c.c.c.c.c.c.b.b.b",
".b.c.c.c.c.c.c.c.c.c.c.c.c.c.c.c.c.c.c.c.c.c.c.c.c.c.c.c.c.c.c.c.c.c.c.c.c.c.c.c.c.c.c.c.c.c.c.c.c.c.c.c.c.c.c.c.c.c.c.c.c.b.b.b",
".b.c.c.c.c.c.c.c.c.c.c.c.c.c.c.c.c.c.c.c.c.c.c.c.c.c.c.c.c.c.c.c.c.c.c.c.c.c.c.c.c.c.c.c.c.c.c.c.c.c.c.c.c.c.c.c.c.c.c.c.c.b.b.b",
".b.c.c.c.c.c.c.c.c.c.c.c.c.c.c.c.c.c.c.c.c.c.c.c.c.c.c.c.c.c.c.c.c.c.c.c.c.c.c.c.c.c.c.c.c.c.c.c.c.c.c.c.c.c.c.c.c.c.c.c.c.b.b.b",
".b.b.c.c.c.c.c.c.c.c.c.c.c.c#s#7.c.c.c.c.c.c.c.c.c.c.c.c.c.c.c.c.c.c.c.c.c.c.c.c.c.c.c.c.c.c.c.c.c.c.c.c.c.c.c.c.c.c.c.c.b.b.b.b",
".b.b.c.c.c.c.c.c.c.c.c.c#n.O.x.x#8#N.c.c.c.c.c.c.c.c.c.c.c.c.c.c.c.c.c.c.c.c.c.c.c.c.c.c.c.c.c.c.c.c.c.c.c.c.c.c.c.c.c.c.b.b.b.b",
".b.b.c.c.c.c.c.c.c.c.c#9.x.x.x.x.x.xa..c.c.c.c.c.c.c.c.c.c.c.c.c.c.c.c.c.c.c.c.c.c.c.c.c.c.c.c.c.c.c.c.c.c.c.c.c.c.c.c.c.b.b.b.b",
".a.b.c.c.c.c.c.c.c.ca#.x.x.x.x.x.x.xaa.c.c.c.c.c.c.c.c.c.c.c.c.c.c.c.c.c.c.c.c.c.c.c.c.c.c.c.c.c.c.c.c.c.c.c.c.c.c.c.c.c.b.b.bab",
".#.b.b.c.c.c.c.c.c.cac.x.x.x.x.x.x.x.x#w.c.c.c.c.c.c.c.c.c.c.c.c.c.c.c.c.c.c.c.c.c.c.c.c.c.c.c.c.c.c.c.c.c.c.c.c.c.c.c.b.b.b.b.#",
".#.b.b.c.c.c.c.c.c.cad.x.x.x.x.x.x.x.xae.c.c.c.c.c.c.c.c.c.c.c.c.c.c.c.c.c.c.c.c.c.c.c.c.c.c.c.c.c.c.c.c.c.c.c.c.c.c.c.b.b.b.b.#",
"Qt.b.b.c.c.c.c.c.c.caf.x.x.x.x.x.x.x.x.8.c.c.c.c.c.c.c.c.c.c.c.c.c.c.c.c.c.c.c.c.c.c.c.c.c.c.c.c.c.c.c.c.c.c.c.c.c.c.c.b.b.b.b.#",
".#.#.b.b.c.c.c.c.c.c#T.x.x.x.x.x.x.xag.c.c.c.c.c.c.c.c.c.c.c.cah.c.c.c.c.c.c.c.c.c.c.c.c.c.c.c.c.c.c.c.c.c.c.c.c.c.c.b.b.b.bQtQt",
".#.#.b.b.c.c.c.c.c.c.cai.x.x.x.x.xaa.8.c.c.c.c.c.c.c.c.c#fajak.x#qal.c.c.c.c.c.c.c.c.c.c.c.c.c.c.c.c.c.c.c.c.c.c.c.c.b.b.b.bQtQt",
".#.#.d.b.b.c.c.c.c.c.c.c#vamanad#4.c.c.c.c.c.c.c.c.c.cao.x.x.x.x.x.x#E.c.c.c.c.c.c.c.c.c.c.c.c.c.c.c.c.c.c.c.c.c.c.b.b.b.b#aQt.#",
".#QtQt.b.b.c.c.c.c.c.c.c.c.c.c.c.c.c.c.c.c.c.c.c.c.c.cap.x.x.x.x.x.x.x#P.c.c.c.c.c.c.c.c.c.c.c.c.c.c.c.c.c.c.c.c.c.b.b.b.bQtQt.#",
"Qt.#.#.e.b.b.c.c.c.c.c.c.c.c.c.c.c.c.c.c.c.c.c.c.c.caq.x.x.x.x.x.x.x.xar.c.c.c.c.c.c.c.c.c.c.c.c.c.c.c.c.c.c.c.c.b.b.b.b.4QtQt.#",
".#Qt.#Qt.b.b.b.c.c.c.c.c.c.c.c.c.c.c.c.c.c.c.c.c.c.cal.x.x.x.x.x.x.x.xaf.c.c.c.c.c.c.c.c.c.c.c.c.c.c.c.c.c.c.c.b.b.b.b.bQtQt.#Qt",
".#.#QtQt.i.b.b.b.c.c.c.c.c.c.c.c.c.c.c.c.c.c.c.c.c.c#T.x.x.x.x.x.x.x.x#E.c.c.c.c.c.c.c.c.c.c.c.c.c.c.c.c.c.c.b.b.b.b.b.iQt.#Qt.#",
".#QtQtQtQtas.b.b.c.c.c.c.c.c.c.c.c.c.c.c.c.c.c.c.c.c.can.x.x.x.x.x.x.x#A.c.c.c.c.c.c.c.c.c.c.c.c.c.c.c.c.c.c.b.b.b.basQtQtQt.#Qt",
".#Qt.#.#QtQt.b.b.b.c.c.c.c.c.c.c.c.c.c.c.c.c.c.c.c.c.caq#d.x.x.x.x.x#u.c.c.c.c.c.c.c.c.c.c.c.c.c.c.c.c.c.c.b.b.b.b.b.#.#Qt.#.#.#",
".#.#.#.#Qt.#.#.b.b.b.c.c.c.c.c.c.c.c.c.c.c.c.c.c.c.c.c.catauavawaxay.c.c.c.c.c.c.c.c.c.c.c.c.c.c.c.c.c.c.b.b.b.b.b.#.#Qt.#.#.#.#",
".#.#.#QtQt.#.#.f.b.b.b.c.c.c.c.c.c.c.c.c.c.c.c.c.c.c.c.c.c.c.c.c.c.c.c.c.c.c.c.c.c.c.c.c.c.c.c.c.c.c.c.b.b.b.b.b.iQtQtQt.#.#.#.#",
".#QtQt.#QtQtQtQtaz.b.b.b.b.c.c.c.c.c.c.c.c.c.c.c.c.c.c.c.c.c.c.c.c.c.c.c.c.c.c.c.c.c.c.c.c.c.c.c.c.b.b.b.b.b.b.CQtQtQt.#Qt.#QtQt",
"QtQt.#.#.#.#Qt.#.#az.b.b.b.b.c.c.c.c.c.c.c.c.c.c.c.c.c.c.c.c.c.c.c.c.c.c.c.c.c.c.c.c.c.c.c.c.c.c.b.b.b.b.b.baz.#Qt.#Qt.#.#.#QtQt",
"Qt.#.s.s.saAQtQt.s.s.f.b.b.b.b.c.c.c.c.c.c.c.c.c.c.c.c.c.c.c.c.c.c.c.c.c.c.c.c.c.c.c.c.c.c.c.c.b.b.b.b.b.b.f.s.sQtaA.#.s.s.#.#Qt",
"Qt.#.s.#.#.#.#Qt.#.#.#.#.b.b.b.b.b.c.c.c.c.c.c.c.c.c.c.c.c.c.c.c.c.c.c.c.c.c.c.c.c.c.c.c.c.b.b.b.b.b.b.b.#.#.#.#Qt.#.#.#.#.#.#Qt",
"Qt.#.#.#.#QtQtQtQtQtQt.#Qt.g.b.b.b.b.b.c.c.c.c.c.c.c.c.c.c.c.c.c.c.c.c.c.c.c.c.c.c.c.c.b.b.b.b.b.b.b.g.#Qt.#Qt.#.#Qt.#.sQt.s.#Qt",
"Qt.#Qt.#Qt.#.#.#.#QtQtQtQtQt.i.b.b.b.b.b.b.b.c.c.c.c.c.c.c.c.c.c.c.c.c.c.c.c.c.c.b.b.b.b.b.b.b.b.b.f.#.#QtQt.#.#.#Qt.#Qt.#.#.#Qt",
"Qt.#QtQtQt.#.#.#QtQtQtQtQtQtQtQtaB.b.b.b.b.b.b.b.b.b.c.c.c.c.c.c.c.c.c.c.b.b.b.b.b.b.b.b.b.b.b.4.#.#.#QtQt.#.#.#.#.#QtQtQt.#.#Qt",
"QtQtQt.#.#.#.#QtQtQt.#QtQtQtQt.#.#.#.d.b.b.b.b.b.b.b.b.b.b.b.b.b.b.b.b.b.b.b.b.b.b.b.b.b.b#aQt.#.#.#QtQt.#Qt.#Qt.#QtQtQtQtQtQtQt",
"QtQt.#QtQt.#QtQtQt.#Qt.#.#QtQt.#.#QtQt.#Qt.b.b.b.b.b.b.b.b.b.b.b.b.b.b.b.b.b.b.b.b.b.b.#.#QtQt.#.#QtQt.#Qt.#QtQtQtQtQtQt.#.#QtQt",
"QtQt.#.#.#QtQtQt.#Qt.#QtQtQtQt.#Qt.#.#.#.#QtQtQt#C.b.b.b.b.b.b.b.b.b.b.b.b.b.b#C.#Qt.#QtQtQtQt.#Qt.#.#.#.#QtQtQtQtQt.#.#Qt.#QtQt"};
