/* XPM */
static char *dummy[]={
"64 64 151 2",
"Qt c #00000c",
".J c #000011",
"#1 c #000021",
"#c c #000032",
".q c #000034",
"## c #000037",
"#k c #00003b",
".a c #00003c",
"#Q c #000040",
".b c #000042",
".4 c #000141",
".B c #000142",
".v c #00043f",
"#o c #020042",
"#L c #020043",
".y c #021634",
".# c #021832",
"am c #030042",
"ah c #031633",
"#6 c #040144",
"al c #060041",
".3 c #060244",
"#5 c #0a0041",
"#j c #0a0246",
".9 c #0b0346",
"ao c #0c0041",
".Y c #0d0010",
"#V c #0d0041",
".i c #0e0041",
".K c #0f0041",
"a# c #0f0447",
"ar c #100040",
"#e c #100041",
".5 c #120010",
"#M c #130040",
".h c #140040",
".R c #140549",
".A c #141632",
".C c #15054a",
"#E c #160040",
"#0 c #170040",
"#n c #1a0040",
"a. c #1c003f",
"au c #1e0038",
"#q c #1e003f",
".0 c #1f084e",
".M c #1f1f41",
".Q c #20001e",
"#D c #23003f",
".N c #241c46",
"#z c #26003e",
"#3 c #260f35",
"#p c #28003e",
"as c #2a003e",
"ap c #2b003e",
".r c #2b0b52",
".Z c #2c0b52",
".c c #2e003e",
"#s c #31003d",
"#S c #33003d",
".T c #34003d",
".7 c #340d55",
"#7 c #37003d",
".U c #380e57",
"ae c #39003d",
"#R c #3b003c",
"#4 c #3b2d49",
".j c #3c0036",
".t c #3c003c",
"#P c #3c0f58",
"#K c #3d1059",
"#G c #40003c",
"ad c #41003c",
".P c #46001a",
".H c #46003b",
"#u c #47003b",
"#Y c #470f32",
"#d c #49003b",
"af c #4a003b",
".D c #4b135e",
".g c #4c003b",
".o c #4f003b",
".s c #511560",
"#x c #52003a",
".k c #531561",
".w c #54003a",
"#2 c #55003a",
"#m c #5b0039",
"#a c #5c0039",
"#w c #5d0033",
"#I c #5e0039",
"at c #600039",
".W c #610039",
"#v c #620039",
".V c #630039",
"ac c #640039",
"#A c #660038",
".X c #6b0038",
"#b c #6d0029",
"#B c #6d0038",
"#H c #720037",
".n c #721d6c",
"aj c #7a0037",
"#8 c #7b0036",
".E c #7c2070",
"an c #7e0036",
".d c #7f0036",
".8 c #7f2171",
".L c #800036",
".O c #810036",
"#F c #820036",
"#J c #830036",
"#T c #840036",
".u c #850027",
"#Z c #890035",
"#C c #8a0035",
"#O c #8a2375",
"aa c #8c0035",
"#r c #8d0035",
"#U c #900034",
"ai c #910531",
"#g c #930034",
"#. c #94002a",
".x c #950431",
".f c #970034",
"#X c #980034",
"#W c #9a0034",
"#h c #9b0033",
"aq c #9e002c",
"#f c #9e0033",
"#y c #9e0331",
".F c #9f0033",
"#i c #a0002d",
"#l c #a00033",
"ab c #a10033",
".I c #a30033",
".S c #a50032",
"ak c #a60032",
"#9 c #a80032",
"#N c #af0030",
".G c #af0131",
".1 c #b00030",
"ag c #b10031",
"#t c #b20031",
".p c #b40031",
".e c #b50031",
".z c #b62f85",
".2 c #cd358e",
".6 c #d2368f",
".l c #d63791",
".m c #de3994",
"Qt.#.#QtQtQtQtQt.#.#.#QtQtQt.#Qt.#Qt.#QtQtQtQtQt.a.b.c.d.e.e.e.e.f.g.h.b.b.b.i.j.#.#.#QtQtQt.#Qt.#Qt.#QtQtQtQtQtQt.#QtQt.#QtQtQt",
"Qt.#.#QtQtQt.#QtQt.#QtQtQt.#Qt.#.#.#QtQtQt.b.b.b.b.b.b.b.k.l.m.n.b.b.b.b.b.b.b.b.b.o.pQtQt.#Qt.#.#.#QtQtQtQtQtQt.#QtQt.#QtQtQtQt",
"Qt.#.#QtQtQt.#Qt.#QtQtQtQtQt.#Qt.#Qt.q.b.b.b.b.b.b.b.b.b.b.r.s.b.b.b.b.b.b.b.b.b.b.b.t.e.p.u.#Qt.#QtQtQtQtQtQtQtQtQtQtQtQt.#QtQt",
"Qt.#QtQtQt.#.#.#QtQt.#.#Qt.#.#.#.v.b.b.b.b.b.b.b.b.b.b.b.b.b.b.b.b.b.b.b.b.b.b.b.b.b.b.w.e.e.e.x.#Qt.#.#QtQt.#.#Qt.#Qt.#Qt.#.#Qt",
"Qt.#.#.#Qt.#.#.#Qt.#.#Qt.#.#.y.b.b.b.b.b.b.b.b.b.b.b.b.b.b.b.b.b.b.b.b.b.b.b.b.b.b.b.b.b.z.e.e.e.p.A.#.#Qt.#.#.#.#Qt.#Qt.#.#.#Qt",
"QtQt.#.#.#.#.#.#QtQtQtQt.#.B.b.b.b.b.b.b.b.b.b.b.b.b.b.b.b.b.b.b.b.b.b.b.b.b.b.b.b.b.b.b.C.D.E.F.e.e.GQtQt.#.#.#.#.#.#.#Qt.#QtQt",
"Qt.#QtQt.#QtQtQtQtQtQt.#.b.b.b.b.b.b.b.b.b.b.b.b.b.b.b.b.b.b.b.b.b.b.b.b.b.b.b.b.b.b.b.b.b.b.b.b.H.I.e.pQtQtQtQt.#Qt.#QtQtQtQtQt",
"Qt.#.#.#.#Qt.#.#Qt.#.J.b.b.b.b.b.b.b.b.b.b.b.b.b.b.b.b.b.b.b.b.b.b.b.b.b.b.b.b.b.b.b.b.b.b.b.b.b.b.K.L.e.e.AQt.#.#.#.#Qt.#.#.#.#",
".#.#QtQt.M.#.M.MQt.N.b.b.b.b.b.b.b.b.b.b.b.b.b.b.b.b.b.b.b.b.b.b.b.b.b.b.b.b.b.b.b.b.b.b.b.b.b.b.b.b.b.O.e.e.PQt.M.M.#.#.M.#.M.#",
".#QtQt.M.#.#.#.#.Q.b.b.b.b.b.b.b.b.b.b.b.b.b.b.b.b.b.b.b.b.b.b.b.b.b.b.b.b.b.b.b.b.b.b.b.b.b.b.b.b.b.b.R.S.e.e.P.#.#.#.#.#.#Qt.#",
"QtQt.#.#Qt.#Qt.A.T.b.b.b.b.b.b.b.b.b.b.b.b.b.b.b.b.b.b.b.b.b.b.b.b.b.b.b.b.b.b.b.b.b.b.b.b.b.b.b.b.b.b.b.U.V.W.X.YQtQt.#Qt.#Qt.#",
".#.#.#.#QtQt.#.e.Z.b.b.b.b.b.b.b.b.b.b.b.b.b.b.b.b.b.b.b.b.b.b.b.b.b.b.b.b.b.b.b.b.b.b.b.b.b.b.b.b.b.b.b.b.b.b.b.bQtQtQtQtQtQtQt",
".#.#.#QtQt.#.p.e.0.b.b.b.b.b.b.b.b.b.b.b.b.b.b.b.b.b.b.b.b.b.b.b.b.b.b.b.b.b.b.b.b.b.b.b.b.b.b.b.b.b.b.b.b.b.b.b.b.bQtQtQtQtQtQt",
".#.#QtQt.#.1.e.2.3.b.b.b.b.b.b.b.b.b.b.b.b.b.b.b.b.b.b.b.b.b.b.b.b.b.b.b.b.b.b.b.b.b.b.b.b.b.b.b.b.b.b.b.b.b.b.b.b.b.4QtQtQtQt.#",
".#QtQt.#.5.e.6.7.b.b.b.b.b.b.b.b.b.b.b.b.b.b.b.b.b.b.b.b.b.b.b.b.b.b.b.b.b.b.b.b.b.b.b.b.b.b.b.b.b.b.b.b.b.b.b.b.b.b.b.y.#QtQt.#",
"Qt.#.#.#.p.8.9.b.b.b.b.b.b.b.b.b.b.b.b.b.b.b.b.b.b.b.b.b.b.b.b.b.b.b.b.b.b.b.b.b.b.b.b.b.b.b.b.b.b.b.b.b.b.b.b.b.b.b.b.bQtQtQt.#",
".#Qt.##..g.b.b.b.b.b.b.b.b.b.b.b.b.b.b.b.b.b.b.b.b.b.b.b.b.b.b.b.b.b.b.b.b.b.b.b.b.b.b.b.b.b.b.b.b.b.b.b.b.b.b.b.b.b.b.b##Qt.#Qt",
".#.#Qt#a.b.b.b.b.b.b.b.b.b.b.b.b.b.b.b.b.b.b.b.b.b.b.b.b.b.b.b.b.b.b.b.b.b.b.b.b.b.b.b.b.b.b.b.b.b.b.b.b.b.b.b.b.b.b.b.b.b.#Qt.#",
".#Qt#b.b.b.b.b.b.b.b.b.b.b.b.b.b.b.b.b.b.b.b.b.b.b.b.b.b.b.b.b.b.b.b.b.b.b.b.b.b.b.b.b.b.b.b.b.b.b.b.b.b.b.b.b.b.b.b.b.b.b#c.#Qt",
".#Qt#d.b.b.b.b.b.b.b.b.b.b.b.b.b.b.b.b.b.b.b.b.b.b.b.b.b.b.b.b.b.b.b.b.b.b.b.b.b.b.b.b.b.b.b.b.b.b.b.b.b.b.b.b.b.b.b.b.b.b.b.#.#",
".#.##e.b.b.b.b.b.b.b.b.b.b.b.b.b.b.b.b.b.b.b.b.b.b.b.b.b.b.b.b.b.b.b.b.b.b.b.b.b.b.b.b.b.b.b.b.b.b.b.b.b.b.b.b.b.b.b.b.b.b.b.#.#",
".##f.b.b.b.b.b.b.b.b.b.b.b.b.b.b.b.b.b.b.b.b.b.b.b.b.b.b.b.b.b.b.b.b.b.b.b.b.b.b.b.b.b.b.b.b.b.b.b.b.b.b.b.b.b.b.b.b.b.b.b.b.b.#",
".##g.b.b.b.b.b.b.b.b.b.b.b.b.b.b.b.b.b.b.b.b.b.b.b.b.b.b.b.b.b.b.b.b.b.b.b.b.b.b.b.b.b.b.b.b.b.b.b.b.b.b.b.b.b.b.b.b.b.b.b.b.bQt",
"Qt#h.b.b.b.b.b.b.b.b.b.b.b.b.b.b.b.b.b.b.b.b.b.b.b.b.b.b.b.b.b.b.b.b.b.b.b.b.b.b.b.b.b.b.b.b.b.b.b.b.b.b.b.b.b.b.b.b.b.b.b.b.bQt",
"#i.e#j.b.b.b.b.b.b.b.b.b.b.b.b.b.b.b.b.b.b.b.b.b.b.b.b.b.b.b.b.b.b.b.b.b.b.b.b.b.b.b.b.b.b.b.b.b.b.b.b.b.b.b.b.b.b.b.b.b.b.b.b#k",
".p#l.Z.b.b.b.b.b.b.b.b.b.b.b.b.b.b.b.b.b.b.b.b.b.b.b.b.b.b.b.b.b.b.b.b.b.b.b.b.b.b.b.b.b.b.b.b.b.b.b.b.b.b.b.b.b.b.b.b.b.b.b.b.b",
"#m.b.b.b.b.b.b.b.b.b.b.b.b.b.b.b.b.b.b.b.b.b.b.b.b.b.b.b.b.b.b.b.b.b.b.b.b.b.b.b.b.b.b.b.b.b.b.b.b.b.b.b.b.b.b.b.b.b.b.b.b.b.b.b",
".b.b.b.b.b.b.b.b.b.b.b.b.b.b.b.b.b.b.b.b.b.b.b.b.b.b.b.b.b.b.b.b.b.b.b.b.b.b.b.b.b.b.b.b.b.b.b.b.b.b.b.b.b.b.b.b.b.b.b.b.b.b.b.b",
".b.b.b.b.b.b.b.b.b.b.b.b.b.b.b.b.b.b.b.b.b.b.b.b.b.b.b.b.b.b.b.b.b.b.b.b.b.b.b.b.b.b.b.b.b.b.b.b.b.b.b.b.b.b.b.b.b.b.b.b.b.b.b.b",
".b.b.b.b.b.b.b.b.b.b.b.b.b.b.b.b.b.b.b.b.b.b.b.b.b.b.b.b.b.b.b.b.b.b.b.b.b.b.b.b.b.b.b.b.b.b.b.b.b.b.b.b.b.b.b.b.b.b.b.b.b.b.b.b",
".b.b.b.b.b.b.b.b.b.b.b.b.b.b.b.b.b.b.b.b.b.b.b.b.b.b.b.b.b.b.b.b.b.b.b.b.b.b.b.b.b.b.b.b.b.b.b.b.b.b.b.b.b.b.b.b.b.b.b.b.b.b.b.b",
".b.b.b.b.b.b.b.b.b.b.b.b.b.b.b.b.b.b.b.b.b.b.b.b.b.b.b.b.b.b.b.b.b.b.b.b.b.b.b.b.b.b.b.b.b.b.b.b.b.b.b.b.b.b.b.b.b.b.b.b.b.b.b.b",
".b.b.b.b.b.b.b.b.b.b.b.b.b.b.b.b.b.b.b.b.b.b.b.b.b.b.b.b.b.b.b.b.b.b.b.b.b.b.b.b.b.b.b.b.b.b.b.b.b.b.b.b.b.b.b.b.b.b.b.b.b.b.b.b",
".b.b.b.b.b.b.b.b.b.b.b.b.b.b.b.b.b.b.b.b.b.b.b.b.b.b.b.b.b.b.b.b.b.b.b.b.b.b.b.b.b.b.b.b.b.b.b.b.b.b.b.b.b.b.b.b.b.b.b.b.b.b.b.b",
".b.b.b.b.b.b.b.b.b.b.b.b.b.b.b.b.b.b.b.b.b.b.b.b.b.b.b.b.b.b.b.b.b.b.b.b.b.b.b.b.b.b.b.b.b.b.b.b.b.b.b.b.b.b.b.b.b.b.b.b.b.b.b.b",
"#n.b.b.b.b.b.b.b.b.b.b.b.b.b.b.b.b.b.b.b.b.b.b.b.b.b.b.b.b.b.b.b.b.b.b.b.b.b.b.b.b.b.b.b.b.b.b.b.b.b.b.b.b.b.b.b.b.b.b.b.b.b.b#o",
"#p.b.b.b.b.b.b.b.b.b.b.b.b.b.b.b.b.b.b.b.b.b.b.b.b.b.b.b.b.b.b.b.b.b.b.b.b.b.b.b.b.b.b.b.b.b.b.b.b.b.b.b.b.b.b.b.b.b.b.b.b.b#q#r",
"#s.b.b.b.b.b.b.b.b.b.b.b.b.b.b.b.b.b.b.b.b.b.b.b.b.b.b.b.b.b.b.b.b.b.b.b.b.b.b.b.b.b.b.b.b.b.b.b.b.b.b.b.b.b.b.b.b.b.b.b.b.t#t.p",
"#u.b.b.b.b.b.b.b.b.b.b.b.b.b.b.b.b.b.b.b.b.b.b.b.b.b.b.b.b.b.b.b.b.b.b.b.b.b.b.b.b.b.b.b.b.b.b.b.b.b.b.b.b.b.b.b.b.b.b.b.b#v.e.p",
"#w.b.b.b.b.b.b.b.b.b.b.b.b.b.b.b.b.b.b.b.b.b.b.b.b.b.b.b.b.b.b.b.b.b.b.b.b.b.b.b.b.b.b.b.b.b.b.b.b.b.b.b.b.b.b.b.b.b.b.b.b#x.e#y",
".#.b.b.b.b.b.b.b.b.b.b.b.b.b.b.b.b.b.b.b.b.b.b.b.b.b.b.b.b.b.b.b.b.b.b.b.b.b.b.b.b.b.b.b.b.b.b.b.b.b.b.b.b.b.b.b.b.b.b.b.b#x.e.#",
".##z.b.b.b.b.b.b.b.b.b.b.b.b.b.b.b.b.b.b.b.b.b.b.b.b.b.b.b.b.b.b.b.b.b.b.b.b.b.b.b.b.b.b.b.b.b.b.b.b.b.b.b.b.b.b.b.b.b.b.b#A.e.#",
"Qt#B.b.b.b.b.b.b.b.b.b.b.b.b.b.b.b.b.b.b.b.b.b.b.b.b.b.b.b.b.b.b.b.b.b.b.b.b.b.b.b.b.b.b.b.b.b.b.b.b.b.b.b.b.b.b.b.b.b.b.b#C.p.#",
".#.##D.b.b.b.b.b.b.b.b.b.b.b.b.b.b.b.b.b.b.b.b.b.b.b.b.b.b.b.b.b.b.b.b.b.b.b.b.b.b.b.b.b.b.b.b.b.b.b.b.b.b.b.b.b.b.b.b.b#E.eQtQt",
".#.##F.b.b.b.b.b.b.b.b.b.b.b.b.b.b.b.b.b.b.b.b.b.b.b.b.b.b.b.b.b.b.b.b.b.b.b.b.b.b.b.b.b.b.b.b.b.b.b.b.b.b.b.b.b.b.b.b.b#G#HQtQt",
".#.#.u#I.b.b.b.b.b.b.b.b.b.b.b.b.b.b.b.b.b.b.b.b.b.b.b.b.b.b.b.b.b.b.b.b.b.b.b.b.b.b.b.b.b.b.b.b.b.b.b.b.b.b.b.b.b.b.b.b.b#cQt.#",
".#QtQt.e#x.b.b.b.b.b.b.b.b.b.b.b.b.b.b.b.b.b.b.b.b.b.b.b.b.b.b.b.b.b.b.b.b.b.b.b.b.b.b.b.b.b.b.b.b.b.b.b.b.b.b.b.b.b.b.b.bQtQt.#",
"Qt.#.#.x.e#I.b.b.b.b.b.b.b.b.b.b.b.b.b.b.b.b.b.b.b.b.b.b.b.b.b.b.b.b.b.b.b.b.b.b.b.b.b.b.b.b.b.b.b.b.b.b.b.b.b.b.b.b.b.b##QtQt.#",
".#Qt.#Qt.p.e#J.r.b.b.b.b.b.b.b.b.b.b.b.b.b.b.b.b.b.b.b.b.b.b.b.b.b.b.b.b.b.b.b.b.b.b.b.b.b.b.b.b.b.b.b.b.b.b.b.b.b.b.b.bQtQt.#Qt",
".#.#QtQt.5.e.e.e#K.b.b.b.b.b.b.b.b.b.b.b.b.b.b.b.b.b.b.b.b.b.b.b.b.b.b.b.b.b.b.b.b.b.b.b.b.b.b.b.b.b.b.b.b#L#M.b.b.b.b.JQt.#Qt.#",
".#QtQtQtQt#N.e.e#O.b.b.b.b.b.b.b.b.b.b.b.b.b.b.b.b.b.b.b.b.b.b.b.b.b.b.b.b.b.b.b.b.b.b.b.b.b.b.b.b.b.b.b.b#P.b.b.b.b#QQtQtQt.#Qt",
".#Qt.#.#QtQt.p.e#l.b.b.b.b.b.b.b.b.b.b.b.b.b.b.b.b.b.b.b.b.b.b.b.b.b.b.b.b.b.b.b.b.b.b.b.b.b.b.b.b.b.b.b.b#a.b.b.b.b.#.#Qt.#.#.#",
".#.#.#.#Qt.#.#.e.e#R.b.b.b.b.b.b.b.b.b.b.b.b.b.b.b.b.b.b.b.b.b.b.b.b.b.b.b.b.b.b.b.b.b.b.b.b.b.b.b.b.b.b#S#T.b.b.b.#.#Qt.#.#.#.#",
".#.#.#QtQt.#.#.A.e#U.b.b.b.b.b.b.b.b.b.b.b.b.b.b.b.b.b.b.b.b.b.b.b.b.b.b.b.b.b.b.b.b.b.b.b.b.b.b.b.b.b#V#W#X.b.b.JQtQtQt.#.#.#.#",
".#QtQt.#QtQtQtQt#Y.e.W.b.b.b.b.b.b.b.b.b.b.b.b.b.b.b.b.b.b.b.b.b.b.b.b.b.b.b.b.b.b.b.b.b.b.b.b.b.b.b#V#Z.e.e#0#1QtQtQt.#Qt.#QtQt",
"QtQt.#.#.#.#Qt.#.##Y.e#2.b.b.b.b.b.b.b.b.b.b.b.b.b.b.b.b.b.b.b.b.b.b.b.b.b.b.b.b.b.b.b.b.b.b.b.b.b#S#W.e.e.e#3.#Qt.#Qt.#.#.#QtQt",
"Qt.#.M.M.M#4QtQt.M.M.A.e#B#5.b.b.b.b.b.b.b.b.b.b.b.b.b.b.b.b.b.b.b.b.b.b.b.b.b.b.b.b.b.b.b.b#6#7#8.e.e.e.e.A.M.MQt#4.#.M.M.#.#Qt",
"Qt.#.M.#.#.#.#Qt.#.#.#.#.p#9#ma..b.b.b.b.b.b.b.b.b.b.b.b.b.b.b.b.b.b.b.b.b.b.b.b.b.b.b.ba#aa.p.e.e.e.e.p.#.#.#.#Qt.#.#.#.#.#.#Qt",
"Qt.#.#.#.#QtQtQtQtQtQt.#Qt.G.e.eab#Zac.b.b.b.b.b.b.b.b.b.b.b.b.b.b.b.b.b.b.b.b.b.b.b.b.b#Gadaeaf#Hag.G.#Qt.#Qt.#.#Qt.#.MQt.M.#Qt",
"Qt.#Qt.#Qt.#.#.#.#QtQtQtQtQt.5.p.e.e.e#H.b.b.b.b.b.b.b.b.b.b.b.b.b.b.b.b.b.b.b.b.b.b.b.b.b.b.b.b.bah.#.#QtQt.#.#.#Qt.#Qt.#.#.#Qt",
"Qt.#QtQtQt.#.#.#QtQtQtQtQtQtQtQtai.e.e.eaj.i.b.b.b.b.b.b.b.b.b.b.b.b.b.b.b.b.b.b.b.b.b.b.b.b.b##.#.#.#QtQt.#.#.#.#.#QtQtQt.#.#Qt",
"QtQtQt.#.#.#.#QtQtQt.#QtQtQtQt.#.#.#.u.p.eak.oal.b.b.b.b.b.b.b.b.b.b.b.b.b.b.b.bam.b.b.b.b#cQt.#.#.#QtQt.#Qt.#Qt.#QtQtQtQtQtQtQt",
"QtQt.#QtQt.#QtQtQt.#Qt.#.#QtQt.#.#QtQt.#Qt.p.eaganaeao.b.b.b.b.b.b.b.b.b.b.b.bap.b.b.b.#.#QtQt.#.#QtQt.#Qt.#QtQtQtQtQtQt.#.#QtQt",
"QtQt.#.#.#QtQtQt.#Qt.#QtQtQtQt.#Qt.#.#.#.#QtQtQtaq.p.p#8#Gar.b.b.b.b.b.basat.Fau.#Qt.#QtQtQtQt.#Qt.#.#.#.#QtQtQtQtQt.#.#Qt.#QtQt"};
