/* XPM */
static char *dummy[]={
"64 64 262 2",
"Qt c #00000c",
".z c #000042",
"#p c #000043",
"a2 c #000143",
"aZ c #010143",
"a5 c #010144",
".V c #010244",
".W c #010245",
"#M c #010346",
"ah c #020244",
"a4 c #020344",
"by c #020346",
"aD c #020447",
".A c #020448",
"ar c #020549",
".9 c #02061a",
".y c #020945",
".# c #021832",
".H c #021836",
"a8 c #030549",
"bo c #03064a",
"bZ c #03064b",
"ac c #03074b",
"aO c #03084d",
"#K c #04074c",
"bg c #04074d",
"bq c #04084d",
"ca c #04084e",
".P c #041c3c",
"b5 c #050a50",
"#B c #050b51",
"#E c #060b52",
"aC c #060c53",
"aj c #060d54",
".Q c #061158",
"aS c #07094a",
"#e c #070e56",
"bH c #070f57",
"aK c #07135b",
"bF c #081058",
"#L c #081059",
".5 c #08115a",
".m c #081550",
".n c #08155e",
"ab c #09125b",
"br c #09125c",
"bQ c #09135d",
".o c #091660",
"#t c #091942",
"aT c #0a0d50",
"b# c #0a135d",
".R c #0a145e",
"aq c #0b0d4e",
"bf c #0b135b",
"bw c #0b1660",
"a0 c #0b1662",
"bj c #0b1762",
".2 c #0b1e6a",
"c# c #0b285a",
"#6 c #0c1763",
".M c #0c1863",
".I c #0c1864",
".N c #0c1965",
"bx c #0d1965",
"ba c #0d1966",
"a6 c #0d1c69",
"al c #0d1d6a",
"bS c #0e1b68",
"#v c #0e1c6a",
"#7 c #0e1d6b",
"b1 c #0e216f",
"av c #0e2473",
"aH c #0e2574",
"bv c #0f1e6c",
"cc c #0f1e6d",
"bM c #0f1f6d",
"au c #101f6e",
"bA c #102170",
".p c #102474",
"aR c #111455",
"ak c #112272",
"b6 c #112373",
"am c #112d6e",
"b8 c #122474",
"bE c #122475",
"c. c #122576",
".x c #122f73",
"#w c #131657",
"#O c #132677",
"#A c #132678",
"bT c #132779",
"#9 c #13337c",
".3 c #14287b",
"ad c #14297c",
"#Y c #14347f",
"b3 c #143589",
"cd c #143884",
".G c #143986",
"#o c #15297c",
"as c #152b7e",
"ae c #152c80",
"b4 c #153589",
"aW c #153886",
".a c #153888",
"bG c #153b8b",
"bd c #162b7f",
"bh c #162c80",
"#q c #162d81",
"#. c #16398f",
"aU c #172d7f",
"bW c #172e82",
"bn c #172f84",
"aE c #173d94",
"#N c #173e94",
".1 c #173f95",
"aa c #183086",
"#3 c #183187",
".d c #183f97",
".c c #184097",
".b c #184098",
"bk c #193187",
"#k c #19338a",
"#g c #19419a",
".e c #19429b",
".U c #1a348b",
"#2 c #1a358c",
"#j c #1a439c",
".B c #1b368f",
".w c #1b449e",
".0 c #1b459f",
"bu c #1c3790",
".X c #1c3891",
".L c #1c3992",
"a9 c #1c3a94",
"#V c #1d3993",
"ai c #1d3a93",
"#Q c #1d3a94",
".O c #1d3b95",
"b0 c #1e3c96",
"bP c #1e3c97",
"#h c #1f1f41",
"bV c #1f3d98",
"b9 c #1f3d99",
"bD c #1f3e9a",
"bN c #1f3f9b",
".q c #1f419d",
"#0 c #20409c",
"bU c #204ba9",
".F c #204caa",
"b7 c #21419e",
"bK c #2142a0",
"bX c #2143a0",
".f c #214dac",
"#4 c #2243a1",
"bm c #2244a2",
"#U c #2245a3",
"bI c #2345a4",
"bs c #2346a5",
".8 c #2350b0",
"#P c #2447a6",
"#5 c #2448a8",
"b2 c #254aaa",
"#Z c #264bac",
"bz c #264cad",
"bY c #2650b2",
".v c #2655b8",
"aA c #274eb0",
"bO c #274fb1",
".g c #2757ba",
"#8 c #284fb2",
"bp c #2850b3",
"bC c #2851b4",
"#1 c #2952b6",
"bJ c #2a54b8",
"bl c #2a55ba",
"#f c #2b5cc2",
"bL c #2c59bf",
".h c #2c5ec5",
"#i c #2d3468",
"aB c #2d5ac0",
"at c #2d5bc2",
"#X c #2d5fc6",
".Z c #2d5fc7",
"az c #2e5cc3",
"#T c #2e5cc4",
".E c #2e62ca",
"bi c #2f5ec6",
"#I c #2f5fc8",
"#J c #305fc8",
"#W c #3060ca",
"#s c #3064ce",
".u c #3065cf",
"#z c #3161cb",
".J c #3162cc",
"bR c #3162cd",
".i c #3165d0",
"aY c #323b79",
"b. c #323d7f",
"#C c #3263ce",
"#d c #3264cf",
"bb c #3265d0",
"#D c #3267d2",
"#u c #3267d3",
".4 c #3365d1",
"aV c #3366d2",
".6 c #3367d3",
"#S c #3467d4",
".K c #3468d4",
"a1 c #3468d5",
".D c #3469d6",
".j c #346ad7",
".S c #3569d7",
"bB c #356ad8",
".r c #356bd9",
"be c #356cda",
"a7 c #364487",
"#H c #366cda",
".k c #366cdb",
"#R c #366ddb",
".7 c #366ddc",
"bt c #376ddc",
"#r c #376edd",
".T c #376ede",
".l c #376fde",
".t c #376fdf",
".Y c #386fdf",
".C c #3870df",
".s c #3870e0",
"#l c #394381",
"bc c #3a53a0",
"an c #3a71e0",
"cb c #3b2d49",
"a. c #3b72e0",
"aF c #3b73e0",
"ap c #3e4886",
"#c c #3f75e0",
"#G c #4075e0",
"## c #4365ba",
"#y c #4779e0",
"aQ c #485491",
"a# c #485694",
"ay c #497be0",
"a3 c #526bb3",
"ag c #55639f",
"aX c #5681de",
"#n c #5c87e0",
"#a c #5d88e0",
"aG c #6089e0",
"#b c #608ae0",
"aw c #6e92e0",
"af c #7395e0",
"#F c #7796dc",
"aI c #7999e0",
"ao c #7e93cc",
"aM c #8196cf",
"aJ c #86a1e0",
"#x c #88a3e0",
"aN c #89a0d9",
"aP c #8aa1da",
"aL c #8ba3db",
"ax c #8ea7e0",
"#m c #90a8e0",
"Qt.#.#QtQtQtQtQt.#.#.#QtQtQt.#Qt.#Qt.#QtQtQtQtQt.a.b.c.b.b.b.b.b.b.b.b.b.b.c.c.a.#.#.#QtQtQt.#Qt.#Qt.#QtQtQtQtQtQt.#QtQt.#QtQtQt",
"Qt.#.#QtQtQt.#QtQt.#QtQtQt.#Qt.#.#.#QtQtQt.d.b.e.f.g.h.i.j.k.l.l.k.j.i.h.g.f.e.b.b.b.dQtQt.#Qt.#.#.#QtQtQtQtQtQt.#QtQt.#QtQtQtQt",
"Qt.#.#QtQtQt.#Qt.#QtQtQtQtQt.#Qt.#Qt.m.n.o.p.q.r.s.s.s.s.s.s.s.s.s.s.s.s.s.s.t.u.v.w.b.b.c.x.#Qt.#QtQtQtQtQtQtQtQtQtQtQtQt.#QtQt",
"Qt.#QtQtQt.#.#.#QtQt.#.#Qt.#.#.#.y.z.z.z.z.z.z.A.B.s.s.s.s.s.s.s.s.s.s.s.s.C.D.D.C.t.E.F.b.b.b.G.#Qt.#.#QtQt.#.#Qt.#Qt.#Qt.#.#Qt",
"Qt.#.#.#Qt.#.#.#Qt.#.#Qt.#.#.H.z.z.z.z.z.z.z.z.z.z.I.J.s.s.s.s.s.s.s.s.s.K.L.M.N.O.D.s.s.u.F.b.b.b.P.#.#Qt.#.#.#.#Qt.#Qt.#.#.#Qt",
"QtQt.#.#.#.#.#.#QtQtQtQt.#.Q.z.z.z.z.z.z.z.z.z.z.z.z.R.S.s.s.s.s.s.s.s.T.U.V.z.z.W.X.Y.s.s.s.Z.0.b.b.1QtQt.#.#.#.#.#.#.#Qt.#QtQt",
"Qt.#QtQt.#QtQtQtQtQtQt.#.2.z.z.z.z.z.z.z.z.z.z.z.z.z.z.3.s.s.s.s.s.s.s.4.5.z.z.z.z.R.6.s.s.s.s.7.8.b.b.bQtQtQtQt.#Qt.#QtQtQtQtQt",
"Qt.#.#.#.#Qt.#.#Qt.#.9#..z.z.z.z.z.z.z.z.z.z.z.z.z.z.z.z###a#b#c.s.s.s#d#e.z.z.z.z.5.4.s.s.s.s.s.s#f#g.b.b.PQt.#.#.#.#Qt.#.#.#.#",
".#.#QtQt#h.##h#hQt#i#j#k.z.z.z.z.z.z.z.z.z.z.z.z.z.z.z.z#l#m#m#n.s.s.s.7#o.z.z.z#p#q#r.s.s.s.s.s.s.s#s#j.b.b#tQt#h#h.#.##h.##h.#",
".#QtQt#h.#.#.#.##t.w#u#v.z.z.z.z.z.z.z.z.z.z.z.z.z.z.z.z#w#m#x#y.s.s.s.s#z#A#B#B.3#C.s.s.s.s.s.s.s.s.s#D.w.b.b#t.#.#.#.#.#.#Qt.#",
"QtQt.#.#Qt.#Qt.P#j#u.s#E.z.z.z.z.z.z.z.z.z.z.z.z.z.z.z.z.z#F#G.s.s.s.s.s.s#H#I#J#H.s.s.s.s.s.s.s.s.s.s.s#D#j.b.b.9QtQt.#Qt.#Qt.#",
".#.#.#.#QtQt.##g#s.s.s#K.z.z.z.z.z.z.z.z.z.z.z.z.z.z.z.z.z.S.s.s.s.s.s.s.s.s.s.s.s.s.s.s.s.s.s.s.s.s.s.s.s#s#g.b.bQtQtQtQtQtQtQt",
".#.#.#QtQt.#.b#f.s.s.s#L.z.z.z.z.z.z.z.z.z.z.z.z.z.z.z.z#M.s.s.s.s.s.s.s.s.s.s.s.s.s.s.s.s.s.s.s.s.s.s.s.s.s#f.b.b.cQtQtQtQtQtQt",
".#.#QtQt.##N.8.s.s.s.s#O.z.z.z.z.z.z.z.z.z.z.z.z.z.z.z.z.N.s.s.s.s.s.s.s.s.s.s.s.s.s.s.s.s.s.s.s.s.s.s.s.s.s.s.8.b.b.1QtQtQtQt.#",
".#QtQt.#.9.0.7.s.s.s.s#P.z.z.z.z.z.z.z.z.z.z.z.z.z.z.z.z#Q.s.s.s.s.s.s.s.s.s.s.s.s.s.s.s.s.s.s.s.s.s.s.s.s.s.s#R.0.b.b.P.#QtQt.#",
"Qt.#.#.#.b.Z.s.s.s.s.s.s#L.z.z.z.z.z.z.z.z.z.z.z.z.z.z.A#S.s.s.s.s.s.s.s.s.s.s.s.s.s.s.s.s.s.s.s.s#T#U#V#Q#P#W.s#X.b.b.cQtQtQt.#",
".#Qt.##Y.F.s.s.s.s.s.s.s#Z.z.z.z.z.z.z.z.z.z.z.z.z.z.z#0.s.s.s.s.s.s#1#2#3#4.s.s.s.s.s.s.s.s.s#5#6.z.z.z.z.z.z#7#8.F.b.b#9Qt.#Qt",
".#.#Qt.b.u.s.s.s.s.s.s.sa.a#.z.z.z.z.z.z.z.z.z.z.z.zaa.s.s.s.s#Hab#p.z.z.z.z.zac.O.s.s.s.s.sad.z.z.z.z.z.z.z.z.z.zae.b.b.c.#Qt.#",
".#Qt.x.F.s.s.s.s.s.s.s.saf#magah.z.z.z.z.z.z.z.z.zai.s.s.s.sad#p.z.z.z.z.z.z.z.z.zaj.s.s.sak.z.z.z.z.z.z.z.z.z.z.z.zal.b.bam.#Qt",
".#Qt.b.E.s.s.s.s.s.s.san#m#m#maoapaq.z.z.z.zarasat.s.s.s.sau.z.z.z.z.z.z.z.z.z.z.z.zac.s.U.z.z.z.z.z.z.z.z.z.z.z.z.z.zav.b.b.#.#",
".#.#.w.t.s.s.s.s.s.s.saw#m#m#m#maxayaz#8aAaB.s.s.s.s.s.s.O.z.z.z.z.z.z.z.z.z.z.z.z.z.zaC.z.z.z.z.z.z.z.z.z.z.z.z.z.z.zaDaE.b.#.#",
".#.c.v.s.s.s.s.s.s.saF#m#m#m#m#maG.s.s.s.s.s.s.s.s.s.s.s#M.z.z.z.z.z.z.z.z.z.z.z.z.z.z.z.z.z.z.z.z.z.z.z.z.z.z.z.z.z.z.zaH.b.c.#",
".#.b.u.s.s.s.s.s.s.saI#m#m#m#maJan.s.s.s.s.s.s.s.s.s.s#2.z.z.z.z.z.z.z.z.z.z.z.z.z.z.z.z.z.z.z.z.z.z.z.z.z.z.z.z.z.z.z.zaK.b.bQt",
"Qt.e.t.s.s.s.s.s.s.s#m#maLaMaN#b.s.s.s.s.s.s.s.s.s.s.saC.z.z.z.z.z.z.z.z.z.z.z.z.z.z.z.z.z.z.z.z.z.z.z.z.z.z.z.z.z.z.z.zaO.b.bQt",
".a.f.s.s.s.s.s.s.s#caPaQaRaSaTaUaV.s.s.s.s.s.s.s.s.s.s#M.z.z.z.z.z.z.z.z.z.z.z.z.z.z.z.z.z.z.z.z.z.z.z.z.z.z.z.z.z.z.z.zar.b.baW",
".c.g.s.s.s.s.s.s.saXaYaZ.z.z.z.za0a1.s.s.s.s.s.s.s.s.sa2.z.z.z.z.z.z.z.z.z.z.z.z.z.z.z.z.z.z.z.z.z.z.z.z.z.z.z.z.z.z.z.z#B.b.b.c",
".c.h.s.s.s.s.s.s.sa3a4.z.z.z.z.z#pai.s.s.s.s.s.s.s.s.sa5.z.z.z.z.z.z.z.z.z.z.z.z.z.z.z.z.z.z.z.z.z.z.z.z.z.z.z.z.z.z.z.za6.b.b.c",
".b.i.s.s.s.s.s.s.sa7.z.z.z.z.z.z.z.M.s.s.s.s.s.s.s.s.sa8.z.z.z.z.z.z.z.z.z.z.z.z.z.z.z.z.z.z.z.z.z.z.z.z.z.z.z.z.z.z.z.za9.b.b.b",
".b.j.s.s.s.s.s.s.sb..z.z.z.z.z.z.zb#.s.s.s.s.s.s.s.s.sba.z.z.z.z.z.z.z.z.z.z.z.z.z.z.z.z.z.z.z.z.z.z.z.z.z.z.z.z.z.z.zacbb.b.b.b",
".b.k.s.s.s.s.s.s.sbcaZ.z.z.z.z.z.zbd.s.s.s.s.s.s.s.s.s#C.z.z.z.z.z.z.z.z.z.z.z.z.z.z.z.zaC.z.z.z.z.z.z.z.z.z.z.z.z.z.z#0be.b.b.b",
".b.l.s.s.s.s.s.s.sa1bf.z.z.z.z.zbgaz.s.s.s.s.s.s.s.s.s.sab.z.z.z.z.z.z.z.z.z.z.z.z.z.za5.sak.z.z.z.z.z.z.z.z.z.z.z.zbh.s.l.b.b.b",
".b.l.s.s.s.s.s.s.s.sbibj.V#pa2#e#8.s.s.s.s.s.s.s.s.s.s.s.saD.z.z.z.z.z.z.z.z.z.z.z.z.z#Q.s.sad.z.z.z.z.z.z.z.z.z.zbk.s.s.l.b.b.b",
".b.k.s.s.s.s.s.s.s.s.s.kblbm#8.D.s.s.s.s.s.s.s.s.s.s.s.s.s.s.A.z.z.z.z.z.z.z.z.z.z.zbn.s.s.s.s#5#6.z.z.z.z.z.z#7#8.s.s.sbe.b.b.b",
".b.j.s.s.s.s.s.s.s.s.s.s.s.s.s.s.s.s.s.s.s.s.s.s.s.s.s.s.s.s.sb#.z.z.z.z.z.z.z.zbobp.s.s.s.s.s.s.s#T#U#V#Q#P#W.s.s.s.s.s.j.b.b.b",
".b.i.s.s.s.s.s.s.s.s.s.s.s.s.s.s.s.s.s.s.s.s.s.s.s.s.s.s.s.s.s.s.laubq#M.Varbrbs.s.s.s.s.s.s.s.s.s.s.s.s.s.s.s.s.s.s.s.s.i.b.b.b",
".b.h.s.s.s.s.s.s.s.s.sbtbubvbwbxbdbl.s.s.s.s.s.s.s.s.s.s.s.s.s.s.s.s.s.s.s.s.s.s.s.s.s.s.s.s.s.s.s.s.s.s.s.s.s.s.s.s.s.s.h.b.b.b",
".b.g.s.s.s.s.s.s.s#Hbx#p.z.z.z.z.z.z#B#U.s.s.s.s.s.s.s.s.s.s.s.s.s.s.s.s.s.s.s.s.s.s.s.s.s.s.s.s.s.s.s.s.s.s.s.s.s.s.s.s.g.b.b.b",
".c.f.s.s.s.s.s.s#Pby.z.z.z.z.z.z.z.z.z.zak.s.s.s.s.s.s.s.s.s.s.s.s.s.s.s.s.s.s.s.s.s.s.s.s.s.s.s.s.s.s.s.s.s.s.s.s.s.s.s.f.b.b.c",
".c.e.t.s.s.s.sbz#p.z.z.z.z.z.z.z.z.z.z.z.zbA.s.s.s.s.s.s.s.s.s.s.s.s.s.s.s.s.s.s.s.s.s.s.s.s.s.s.sbBbC#Ubl.k.s.s.s.s.s.l.e.b.b.c",
".a.b.u.s.s.s.sa8.z.z.z.z.z.z.z.z.z.z.z.z.z.zbD.s.s.s.s.s.s.lbEaCac#KbF#3.s.s.s.s.s.s.s.s.s.s.s.sa1#o.A.z#K#2.k.s.s.s.s.u.b.b.bbG",
".#.b.v.s.s.s#A.z.z.z.z.z.z.z.z.z.z.z.z.z.z.z#K.s.s.s.s.sbH.z.z.z.z.z.z.z#p#v.s.s.s.s.s.s.s.s.s.sbI.V.z.z.zacbJ.s.s.s.s.v.b.b.b.#",
".#.b.w.t.s.s.A.z.z.z.z.z.z.z.z.z.z.z.z.z.z.z.zbs.s.s#Za5.z.z.z.z.z.z.z.z.z.zac.s.s.s.s.s.s.s.s.saa.z.z.z.z.zbK.s.s.s.t.w.b.b.b.#",
"Qt.d.b.E.sbL.z.z.z.z.z.z.z.z.z.z.z.z.z.z.z.z.zbM.saB#p.z.z.z.z.z.z.z.z.z.z.z.zar.s.s.s.s.s.s.s.sbN#p.z.z.zaDbO.s.s.s.E.b.b.b.d.#",
".#.#.b.F.sbP.z.z.z.z.z.z.z.z.z.z.z.z.z.z.z.z.zbH.s.A.z.z.z.z.z.z.z.z.z.z.z.z.z.zbQ.s.s.s.s.s.s.sbRbS#p.z.VbT.D.s.s.sbU.b.b.bQtQt",
".#.#.b.b.u#2.z.z.z.z.z.z.z.z.z.z.z.z.z.z.z.z.z#Bbd.z.z.z.z.z.z.z.z.z.z.z.z.z.z.z.z.J.s.s.s.s.s.s.s.JbVbWbX.6.s.s.s.u.b.b.b.cQtQt",
".#.#.x.b.FbN.z.z.z.z.z.z.z.z.z.z.z.z.z.z.z.z.zbFar.z.z.z.z.z.z.z.z.z.z.z.z.z.z.z.z#6.s.s.s.s.s.s.s.s.s.s.s.s.s.s.s.F.b.b.bamQt.#",
".#QtQt.b.bbY.z.z.z.z.z.z.z.z.z.z.z.z.z.z.z.z.zak.z.z.z.z.z.z.z.z.z.z.z.z.z.z.z.z.z.A.s.s.s.s.s.s.s.s.s.s.s.s.s.s#X.b.b.b.bQtQt.#",
"Qt.#.#.G.b.0bZ.z.z.z.z.z.z.z.z.z.z.z.z.z.z.z.zb0.z.z.z.z.z.z.z.z.z.z.z.z.z.z.z.z.z#p.s.s.s.s.s.s.s.s.s.s.s.s.s#R.0.b.b.b#9QtQt.#",
".#Qt.#Qt.c.bb1.z.z.z.z.z.z.z.z.z.z.z.z.z.z.z#B#Z.z.z.z.z.z.z.z.z.z.z.z.z.z.z.z.z.z#p.s.s.s.s.s.s.s.s.s.s.s.s.s.8.b.b.b.cQtQt.#Qt",
".#.#QtQt.9.b.bbq.z.z.z.z.z.z.z.z.z.z.z.z.z.zb2bi.z.z.z.z.z.z.z.z.z.z.z.z.z.z.z.z.za2.s.s.s.s.s.s.s.s.s.s.s.s#f.b.b.b.b.9Qt.#Qt.#",
".#QtQtQtQt#N.bb3#M.z.z.z.z.z.z.z.z.z.z.z.zbd.s.s#p.z.z.z.z.z.z.z.z.z.z.z.z.z.z.z.zac.s.s.s.s.s.s.s.s.s.s.s#s#g.b.b.b#NQtQtQt.#Qt",
".#Qt.#.#QtQt.b.bb4#K.z.z.z.z.z.z.z.z.z#pbn.s.s.sb5.z.z.z.z.z.z.z.z.z.z.z.z.z.z.z.zak.s.s.s.s.s.s.s.s.s.s#D#j.b.b.b.c.#.#Qt.#.#.#",
".#.#.#.#Qt.#.#.b.b.wb6by.z.z.z.z.z.z.RbL.s.s.s.sb7.z.z.z.z.z.z.z.z.z.z.z.z.z.z.z#p.s.s.s.s.s.s.s.s.s.s#D.w.b.b.b.b.#.#Qt.#.#.#.#",
".#.#.#QtQt.#.#.P.b.b#j#sbzbWb8.3b9bt.s.s.s.s.s.s.saC.z.z.z.z.z.z.z.z.z.z.z.z.z.zc..s.s.s.s.s.s.s.s.s#s#j.b.b.b.b.9QtQtQt.#.#.#.#",
".#QtQt.#QtQtQtQtc#.b.b#g#f.s.s.s.s.s.s.s.s.s.s.s.s.s.A.z.z.z.z.z.z.z.z.z.z.z.z#L.s.s.s.s.s.s.s.s.s#f#g.b.b.b.b#tQtQtQt.#Qt.#QtQt",
"QtQt.#.#.#.#Qt.#.#c#.b.b.b.8#R.s.s.s.s.s.s.s.s.s.s.s.sca.z.z.z.z.z.z.z.z.z.zbw.s.s.s.s.s.s.s.s#R.8.b.b.b.b.bc#.#Qt.#Qt.#.#.#QtQt",
"Qt.##h#h#hcbQtQt#h#h.P.b.b.b.0#X.s.s.s.s.s.s.s.s.s.s.s.sbdby.z.z.z.z.z.z#K#U.s.s.s.s.s.s.s.s#X.0.b.b.b.b.b.P#h#hQtcb.##h#h.#.#Qt",
"Qt.##h.#.#.#.#Qt.#.#.#.#.b.b.b.b.F.u.s.s.s.s.s.s.s.s.s.s.s.saBbd#vcc#k.l.s.s.s.s.s.s.s.s.u.F.b.b.b.b.b.b.#.#.#.#Qt.#.#.#.#.#.#Qt",
"Qt.#.#.#.#QtQtQtQtQtQt.#Qt.1.b.b.b.bbU.E.t.s.s.s.s.s.s.s.s.s.s.s.s.s.s.s.s.s.s.s.s.t.EbU.b.b.b.b.b.b.1.#Qt.#Qt.#.#Qt.##hQt#h.#Qt",
"Qt.#Qt.#Qt.#.#.#.#QtQtQtQtQt.9.c.b.b.b.b.w.v.u.t.s.s.s.s.s.s.s.s.s.s.s.s.s.s.t.u.v.w.b.b.b.b.b.b.b.P.#.#QtQt.#.#.#Qt.#Qt.#.#.#Qt",
"Qt.#QtQtQt.#.#.#QtQtQtQtQtQtQtQtcd.b.b.b.b.b.b.e.f.g.h.i.jbe.l.lbe.j.i.h.g.f.e.b.b.b.b.b.b.b.c#9.#.#.#QtQt.#.#.#.#.#QtQtQt.#.#Qt",
"QtQtQt.#.#.#.#QtQtQt.#QtQtQtQt.#.#.#.x.c.b.b.b.b.b.b.b.b.b.b.b.b.b.b.b.b.b.b.b.b.b.b.b.b.camQt.#.#.#QtQt.#Qt.#Qt.#QtQtQtQtQtQtQt",
"QtQt.#QtQt.#QtQtQt.#Qt.#.#QtQt.#.#QtQt.#Qt.c.b.b.b.b.b.b.b.b.b.b.b.b.b.b.b.b.b.b.b.b.d.#.#QtQt.#.#QtQt.#Qt.#QtQtQtQtQtQt.#.#QtQt",
"QtQt.#.#.#QtQtQt.#Qt.#QtQtQtQt.#Qt.#.#.#.#QtQtQtaW.c.b.b.b.b.b.b.b.b.b.b.b.c.caW.#Qt.#QtQtQtQt.#Qt.#.#.#.#QtQtQtQtQt.#.#Qt.#QtQt"};
