/* XPM */
static char *dummy[]={
"64 64 102 2",
".r c #000000",
".c c #184097",
".a c #184098",
".z c #193f94",
".w c #193f95",
".C c #19419a",
".d c #19429b",
".K c #1a439c",
"#D c #1b3c8a",
".# c #1b3c8b",
".m c #1b449e",
".x c #1b459f",
".s c #1c3a84",
"#m c #1d3a82",
".l c #1e377a",
"#u c #1f3676",
"#t c #204ba9",
".t c #204caa",
".e c #214dac",
".A c #2350b0",
".n c #2655b8",
".J c #272c53",
".f c #2757ba",
".D c #2b5cc2",
".g c #2c5ec5",
"#j c #2d5fc6",
".y c #2d5fc7",
".v c #2e2333",
".u c #2e62ca",
"Qt c #302028",
".L c #3064ce",
".o c #3065cf",
".h c #3165d0",
".Y c #3267d2",
".S c #3267d3",
".i c #346ad7",
"#J c #356cda",
".j c #366cdb",
"#g c #366ddb",
".B c #366ddc",
".k c #376fde",
".p c #376fdf",
".q c #3870e0",
".T c #3970e0",
".3 c #3971e0",
".8 c #3a71e0",
"#a c #3a72e0",
"#n c #3b72e0",
"#y c #3b73e0",
"#C c #3c73e0",
".E c #3f75e0",
".2 c #4075e0",
"#k c #4478e0",
"#s c #4579e0",
"#f c #4679e0",
".X c #4779e0",
".Z c #477ae0",
"#q c #487ae0",
"#x c #497be0",
".7 c #4c7de0",
"#c c #4e7ee0",
"#H c #507fe0",
".F c #5482e0",
"#E c #5783e0",
".G c #5885e0",
".U c #5a85e0",
"#h c #5b87e0",
".R c #5c87e0",
".H c #5d88e0",
"#i c #5f89e0",
"#z c #6089e0",
".I c #608ae0",
".4 c #618ae0",
"#l c #628be0",
"## c #638be0",
".M c #6b90e0",
"#w c #6e92e0",
".9 c #6f93e0",
".b c #704850",
"#d c #7194e0",
"#G c #7295e0",
"#r c #7395e0",
"#b c #7496e0",
"#A c #7999e0",
".1 c #7a9ae0",
"#F c #7c9be0",
".0 c #7d9ce0",
"#I c #819ee0",
".6 c #84a0e0",
"#B c #86a1e0",
".N c #87a2e0",
".W c #88a3e0",
"#v c #8aa4e0",
".V c #8ba5e0",
"#o c #8ba6e0",
"#p c #8ca5e0",
".5 c #8ca6e0",
"#e c #8da6e0",
".O c #8ea7e0",
".P c #8fa7e0",
"#. c #8fa8e0",
".Q c #90a8e0",
"QtQtQtQtQtQtQtQtQtQtQtQtQtQtQtQtQtQtQtQtQtQtQtQt.#.a.a.a.a.a.a.a.a.a.a.a.a.a.a.#QtQtQtQtQtQtQtQtQtQtQtQtQtQtQtQtQtQtQtQtQtQtQtQt",
"QtQtQt.b.b.bQtQtQtQtQtQtQtQtQtQtQtQtQtQtQt.c.a.d.e.f.g.h.i.j.k.k.j.i.h.g.f.e.d.a.a.a.cQtQtQtQtQtQtQtQtQtQtQtQtQtQtQt.b.b.bQtQtQt",
"QtQt.b.b.b.b.bQtQtQtQtQtQtQtQtQtQtQt.l.a.m.n.o.p.q.q.q.q.q.q.q.q.q.q.q.q.q.q.p.o.n.m.a.a.a.lQtQtQtQtQtQtQtQtQtQtQt.b.b.b.b.bQtQt",
"Qt.b.b.r.r.r.b.bQtQtQtQtQtQtQtQt.s.a.t.u.p.q.q.q.q.q.q.q.q.q.q.q.q.q.q.q.q.q.q.q.q.p.u.t.a.a.a.sQtQtQtQtQtQtQtQt.b.b.r.r.r.b.bQt",
"Qt.b.b.r.r.r.b.bQtQtQtQtQtQt.v.a.t.o.q.q.q.q.q.q.q.q.q.q.q.q.q.q.q.q.q.q.q.q.q.q.q.q.q.q.o.t.a.a.a.vQtQtQtQtQtQt.b.b.r.r.r.b.bQt",
"Qt.b.b.r.r.r.b.bQtQtQtQtQt.w.x.y.q.q.q.q.q.q.q.q.q.q.q.q.q.q.q.q.q.q.q.q.q.q.q.q.q.q.q.q.q.q.y.x.a.a.zQtQtQtQtQt.b.b.r.r.r.b.bQt",
"QtQt.b.b.b.b.bQtQtQtQtQt.a.A.B.q.q.q.q.q.q.q.q.q.q.q.q.q.q.q.q.q.q.q.q.q.q.q.q.q.q.q.q.q.q.q.q.B.A.a.a.aQtQtQtQtQt.b.b.b.b.bQtQt",
"QtQtQt.b.b.bQtQtQtQt.v.C.D.q.q.q.q.q.q.q.q.q.q.q.q.q.E.F.G.H.I.E.q.q.q.q.q.q.q.q.q.q.q.q.q.q.q.q.q.D.C.a.a.vQtQtQtQt.b.b.bQtQtQt",
"QtQtQtQtQtQtQtQtQt.J.K.L.q.q.q.q.q.q.q.q.q.q.q.q.M.N.O.P.Q.Q.Q.R.q.q.q.q.q.q.q.q.q.q.q.q.q.q.q.q.q.q.L.K.a.a.JQtQtQtQtQtQtQtQtQt",
"QtQtQtQtQtQtQtQt.J.m.S.q.q.q.q.q.q.q.q.q.T.U.V.O.Q.Q.Q.Q.Q.Q.W.X.q.q.q.q.q.q.q.q.q.q.q.q.q.q.q.q.q.q.q.Y.m.a.a.JQtQtQtQtQtQtQtQt",
"QtQtQtQtQtQtQt.v.K.S.q.q.q.q.q.q.q.q.q.Z.0.P.Q.Q.Q.Q.Q.Q.Q.1.2.q.q.q.q.q.q.q.q.q.q.q.q.q.q.q.q.q.q.q.q.q.Y.K.a.a.vQtQtQtQtQtQtQt",
"QtQtQtQtQtQtQt.C.L.q.q.q.q.q.q.q.q.3.4.5.Q.Q.Q.Q.Q.Q.Q.6.7.q.q.q.q.q.q.q.q.q.q.q.q.q.q.q.q.q.q.q.q.q.q.q.q.L.C.a.aQtQtQtQtQtQtQt",
"QtQtQtQtQtQt.a.D.q.q.q.q.q.q.q.q.8.9.P.Q#..Q.Q.Q.Q.O##.q.q.q.q.q.q.q.q.q.q.q.q.q.q.q.q.q.q.q.q.q.q.q.q.q.q.q.D.a.a.aQtQtQtQtQtQt",
"QtQtQtQtQt.w.A.q.q.q.q.q.q.q.q#a#b.Q.Q.Q.Q.Q.Q.Q.W#c.q.q.q.q.q.q.q.q.q.q.q.q.q.q.q.q.q.q.q.q.q.q.q.q.q.q.q.q.q.A.a.a.zQtQtQtQtQt",
"QtQtQtQt.v.x.B.q.q.q.q.q.q.q.q#d.Q.Q.Q.Q.Q.Q.Q#e#f.q.q.q.q.q.q.q.q.q.q.q.q.q.q.q.q.q.q.q.q.q.q.q.q.q.q.q.q.q.q#g.x.a.a.vQtQtQtQt",
"QtQtQtQt.a.y.q.q.q.q.q.q.q.q#h.Q.Q.Q.Q.Q.Q.Q.O#i.q.q.q.q.q.q.q.q.q.q.q.q.q.q.q.q.q.q.q.q.q.q.q.q.q.q.q.q.q.q.q.q#j.a.a.aQtQtQtQt",
"QtQtQt.s.t.q.q.q.q.q.q.q.q#k.Q.Q.Q.Q.Q.Q.P#l#k.T.q.q.q.q.q.q.q.q.q.q.q.q.q.q.q.q.q.q.q.q.q.q.q.q.q.q.q.q.q.q.q.q.q.t.a.a#mQtQtQt",
"QtQtQt.a.o.q.q.q.q.q.q.q#n#o.Q.Q.Q.Q.Q#p#q.q.q.q.q.q.q.q.q.q.q.q.q.q.q.q.q.q.q.q.q.q.q.q.q.q.q.q.q.q.q.q.q.q.q.q.q.o.a.a.aQtQtQt",
"QtQt.l.t.q.q.q.q.q.q.q.q#r.Q.Q.Q.Q.Q.V#s.q.q.q.q.q.q.q.q.q.q.q.q.q.q.q.q.q.q.q.q.q.q.q.q.q.q.q.q.q.q.q.q.q.q.q.q.q.q#t.a.a#uQtQt",
"QtQt.a.u.q.q.q.q.q.q.q.8.Q.Q.Q.Q.Q#v.X.q.q.q.q.q.q.q.q.q.q.q.q.q.q.q.q.q.q.q.q.q.q.q.q.q.q.q.q.q.q.q.q.q.q.q.q.q.q.q.u.a.a.aQtQt",
"QtQt.m.p.q.q.q.q.q.q.q#w.Q.Q.Q.Q.O#x.q.q.q.q.q.q.q.q.q.q.q.q.q.q.q.q.q.q.q.q.q.q.q.q.q.q.q.q.q.q.q.q.q.q.q.q.q.q.q.q.p.m.a.aQtQt",
"Qt.c.n.q.q.q.q.q.q.q#y.Q.Q.Q.Q.Q#z.q.q.q.q.q.q.q.q.q.q.q.q.q.q.q.q.q.q.q.q.q.q.q.q.q.q.q.q.q.q.q.q.q.q.q.q.q.q.q.q.q.q.n.a.a.cQt",
"Qt.a.o.q.q.q.q.q.q.q#A.Q.Q.Q.Q#B.8.q.q.q.q.q.q.q.q.q.q.q.q.q.q.q.q.q.q.q.q.q.q.q.q.q.q.q.q.q.q.q.q.q.q.q.q.q.q.q.q.q.q.o.a.a.aQt",
"Qt.d.p.q.q.q.q.q.q.q.Q.Q.Q.Q.Q.I.q.q.q.q.q.q.q.q.q.q.q.q.q.q.q.q.q.q.q.q.q.q.q.q.q.q.q.q.q.q.q.q.q.q.q.q.q.q.q.q.q.q.q.k.d.a.aQt",
".#.e.q.q.q.q.q.q.q.E.Q.Q.Q.Q#d#C.q.q.q.q.q.q.q.q.q.q.q.q.q.q.q.q.q.q.q.q.q.q.q.q.q.q.q.q.q.q.q.q.q.q.q.q.q.q.q.q.q.q.q.q.e.a.a#D",
".a.f.q.q.q.q.q.q.q#E.Q.Q.Q#F.3.q.q.q.q.q.q.q.q.q.q.q.q.q.q.q.q.q.q.q.q.q.q.q.q.q.q.q.q.q.q.q.q.q.q.q.q.q.q.q.q.q.q.q.q.q.f.a.a.a",
".a.g.q.q.q.q.q.q.q#G.Q.Q.Q#H.q.q.q.q.q.q.q.q.q.q.q.q.q.q.q.q.q.q.q.q.q.q.q.q.q.q.q.q.q.q.q.q.q.q.q.q.q.q.q.q.q.q.q.q.q.q.g.a.a.a",
".a.h.q.q.q.q.q.q.q.0.Q.Q.P.q.q.q.q.q.q.q.q.q.q.q.q.q.q.q.q.q.q.q.q.q.q.q.q.q.q.q.q.q.q.q.q.q.q.q.q.q.q.q.q.q.q.q.q.q.q.q.h.a.a.a",
".a.i.q.q.q.q.q.q.q#I.Q.Q.1.q.q.q.q.q.q.q.q.q.q.q.q.q.q.q.q.q.q.q.q.q.q.q.q.q.q.q.q.q.q.q.q.q.q.q.q.q.q.q.q.q.q.q.q.q.q.q.i.a.a.a",
".a.j.q.q.q.q.q.q.q#l#..V#k.q.q.q.q.q.q.q.q.q.q.q.q.q.q.q.q.q.q.q.q.q.q.q.q.q.q.q.q.q.q.q.q.q.q.q.q.q.q.q.q.q.q.q.q.q.q.q#J.a.a.a",
".a.k.q.q.q.q.q.q.q.q.X.E.q.q.q.q.q.q.q.q.q.q.q.q.q.q.q.q.q.q.q.q.q.q.q.q.q.q.q.q.q.q.q.q.q.q.q.q.q.q.q.q.q.q.q.q.q.q.q.q.k.a.a.a",
".a.k.q.q.q.q.q.q.q.q.q.q.q.q.q.q.q.q.q.q.q.q.q.q.q.q.q.q.q.q.q.q.q.q.q.q.q.q.q.q.q.q.q.q.q.q.q.q.q.q.q.q.q.q.q.q.q.q.q.q.k.a.a.a",
".a.j.q.q.q.q.q.q.q.q.q.q.q.q.q.q.q.q.q.q.q.q.q.q.q.q.q.q.q.q.q.q.q.q.q.q.q.q.q.q.q.q.q.q.q.q.q.q.q.q.q.q.q.q.q.q.q.q.q.q#J.a.a.a",
".a.i.q.q.q.q.q.q.q.q.q.q.q.q.q.q.q.q.q.q.q.q.q.q.q.q.q.q.q.q.q.q.q.q.q.q.q.q.q.q.q.q.q.q.q.q.q.q.q.q.q.q.q.q.q.q.q.q.q.q.i.a.a.a",
".a.h.q.q.q.q.q.q.q.q.q.q.q.q.q.q.q.q.q.q.q.q.q.q.q.q.q.q.q.q.q.q.q.q.q.q.q.q.q.q.q.q.q.q.q.q.q.q.q.q.q.q.q.q.q.q.q.q.q.q.h.a.a.a",
".a.g.q.q.q.q.q.q.q.q.q.q.q.q.q.q.q.q.q.q.q.q.q.q.q.q.q.q.q.q.q.q.q.q.q.q.q.q.q.q.q.q.q.q.q.q.q.q.q.q.q.q.q.q.q.q.q.q.q.q.g.a.a.a",
".a.f.q.q.q.q.q.q.q.q.q.q.q.q.q.q.q.q.q.q.q.q.q.q.q.q.q.q.q.q.q.q.q.q.q.q.q.q.q.q.q.q.q.q.q.q.q.q.q.q.q.q.q.q.q.q.q.q.q.q.f.a.a.a",
".a.e.q.q.q.q.q.q.q.q.q.q.q.q.q.q.q.q.q.q.q.q.q.q.q.q.q.q.q.q.q.q.q.q.q.q.q.q.q.q.q.q.q.q.q.q.q.q.q.q.q.q.q.q.q.q.q.q.q.q.e.a.a.a",
".a.d.p.q.q.q.q.q.q.q.q.q.q.q.q.q.q.q.q.q.q.q.q.q.q.q.q.q.q.q.q.q.q.q.q.q.q.q.q.q.q.q.q.q.q.q.q.q.q.q.q.q.q.q.q.q.q.q.q.k.d.a.a.a",
".#.a.o.q.q.q.q.q.q.q.q.q.q.q.q.q.q.q.q.q.q.q.q.q.q.q.q.q.q.q.q.q.q.q.q.q.q.q.q.q.q.q.q.q.q.q.q.q.q.q.q.q.q.q.q.q.q.q.q.o.a.a.a#D",
"Qt.a.n.q.q.q.q.q.q.q.q.q.q.q.q.q.q.q.q.q.q.q.q.q.q.q.q.q.q.q.q.q.q.q.q.q.q.q.q.q.q.q.q.q.q.q.q.q.q.q.q.q.q.q.q.q.q.q.q.n.a.a.aQt",
"Qt.a.m.p.q.q.q.q.q.q.q.q.q.q.q.q.q.q.q.q.q.q.q.q.q.q.q.q.q.q.q.q.q.q.q.q.q.q.q.q.q.q.q.q.q.q.q.q.q.q.q.q.q.q.q.q.q.q.p.m.a.a.aQt",
"Qt.c.a.u.q.q.q.q.q.q.q.q.q.q.q.q.q.q.q.q.q.q.q.q.q.q.q.q.q.q.q.q.q.q.q.q.q.q.q.q.q.q.q.q.q.q.q.q.q.q.q.q.q.q.q.q.q.q.u.a.a.a.cQt",
"QtQt.a.t.q.q.q.q.q.q.q.q.q.q.q.q.q.q.q.q.q.q.q.q.q.q.q.q.q.q.q.q.q.q.q.q.q.q.q.q.q.q.q.q.q.q.q.q.q.q.q.q.q.q.q.q.q.q#t.a.a.aQtQt",
"QtQt.a.a.o.q.q.q.q.q.q.q.q.q.q.q.q.q.q.q.q.q.q.q.q.q.q.q.q.q.q.q.q.q.q.q.q.q.q.q.q.q.q.q.q.q.q.q.q.q.q.q.q.q.q.q.q.o.a.a.a.aQtQt",
"QtQt.l.a.t.q.q.q.q.q.q.q.q.q.q.q.q.q.q.q.q.q.q.q.q.q.q.q.q.q.q.q.q.q.q.q.q.q.q.q.q.q.q.q.q.q.q.q.q.q.q.q.q.q.q.q.q.t.a.a.a#uQtQt",
"QtQtQt.a.a.y.q.q.q.q.q.q.q.q.q.q.q.q.q.q.q.q.q.q.q.q.q.q.q.q.q.q.q.q.q.q.q.q.q.q.q.q.q.q.q.q.q.q.q.q.q.q.q.q.q.q#j.a.a.a.aQtQtQt",
"QtQtQt.s.a.x.B.q.q.q.q.q.q.q.q.q.q.q.q.q.q.q.q.q.q.q.q.q.q.q.q.q.q.q.q.q.q.q.q.q.q.q.q.q.q.q.q.q.q.q.q.q.q.q.q#g.x.a.a.a#mQtQtQt",
"QtQtQtQt.a.a.A.q.q.q.q.q.q.q.q.q.q.q.q.q.q.q.q.q.q.q.q.q.q.q.q.q.q.q.q.q.q.q.q.q.q.q.q.q.q.q.q.q.q.q.q.q.q.q.q.A.a.a.a.aQtQtQtQt",
"QtQtQtQt.v.a.a.D.q.q.q.q.q.q.q.q.q.q.q.q.q.q.q.q.q.q.q.q.q.q.q.q.q.q.q.q.q.q.q.q.q.q.q.q.q.q.q.q.q.q.q.q.q.q.D.a.a.a.a.vQtQtQtQt",
"QtQtQtQtQt.z.a.C.L.q.q.q.q.q.q.q.q.q.q.q.q.q.q.q.q.q.q.q.q.q.q.q.q.q.q.q.q.q.q.q.q.q.q.q.q.q.q.q.q.q.q.q.q.L.C.a.a.a.zQtQtQtQtQt",
"QtQtQtQtQtQt.a.a.K.Y.q.q.q.q.q.q.q.q.q.q.q.q.q.q.q.q.q.q.q.q.q.q.q.q.q.q.q.q.q.q.q.q.q.q.q.q.q.q.q.q.q.q.Y.K.a.a.a.aQtQtQtQtQtQt",
"QtQtQtQtQtQtQt.a.a.m.Y.q.q.q.q.q.q.q.q.q.q.q.q.q.q.q.q.q.q.q.q.q.q.q.q.q.q.q.q.q.q.q.q.q.q.q.q.q.q.q.q.Y.m.a.a.a.aQtQtQtQtQtQtQt",
"QtQtQtQtQtQtQt.v.a.a.K.L.q.q.q.q.q.q.q.q.q.q.q.q.q.q.q.q.q.q.q.q.q.q.q.q.q.q.q.q.q.q.q.q.q.q.q.q.q.q.L.K.a.a.a.a.vQtQtQtQtQtQtQt",
"QtQtQtQtQtQtQtQt.J.a.a.C.D.q.q.q.q.q.q.q.q.q.q.q.q.q.q.q.q.q.q.q.q.q.q.q.q.q.q.q.q.q.q.q.q.q.q.q.q.D.C.a.a.a.a.JQtQtQtQtQtQtQtQt",
"QtQtQtQtQtQtQtQtQt.J.a.a.a.A#g.q.q.q.q.q.q.q.q.q.q.q.q.q.q.q.q.q.q.q.q.q.q.q.q.q.q.q.q.q.q.q.q#g.A.a.a.a.a.a.JQtQtQtQtQtQtQtQtQt",
"QtQtQt.b.b.bQtQtQtQt.v.a.a.a.x#j.q.q.q.q.q.q.q.q.q.q.q.q.q.q.q.q.q.q.q.q.q.q.q.q.q.q.q.q.q.q#j.x.a.a.a.a.a.vQtQtQtQt.b.b.bQtQtQt",
"QtQt.b.b.b.b.bQtQtQtQtQt.a.a.a.a.t.o.q.q.q.q.q.q.q.q.q.q.q.q.q.q.q.q.q.q.q.q.q.q.q.q.q.q.o.t.a.a.a.a.a.aQtQtQtQtQt.b.b.b.b.bQtQt",
"Qt.b.b.r.r.r.b.bQtQtQtQtQt.z.a.a.a.a#t.u.p.q.q.q.q.q.q.q.q.q.q.q.q.q.q.q.q.q.q.q.q.p.u#t.a.a.a.a.a.a.zQtQtQtQtQt.b.b.r.r.r.b.bQt",
"Qt.b.b.r.r.r.b.bQtQtQtQtQtQt.v.a.a.a.a.a.m.n.o.p.q.q.q.q.q.q.q.q.q.q.q.q.q.q.p.o.n.m.a.a.a.a.a.a.a.vQtQtQtQtQtQt.b.b.r.r.r.b.bQt",
"Qt.b.b.r.r.r.b.bQtQtQtQtQtQtQtQt#m.a.a.a.a.a.a.d.e.f.g.h.i#J.k.k#J.i.h.g.f.e.d.a.a.a.a.a.a.a.a#mQtQtQtQtQtQtQtQt.b.b.r.r.r.b.bQt",
"QtQt.b.b.b.b.bQtQtQtQtQtQtQtQtQtQtQt.l.a.a.a.a.a.a.a.a.a.a.a.a.a.a.a.a.a.a.a.a.a.a.a.a.a.a#uQtQtQtQtQtQtQtQtQtQtQt.b.b.b.b.bQtQt",
"QtQtQt.b.b.bQtQtQtQtQtQtQtQtQtQtQtQtQtQtQt.c.a.a.a.a.a.a.a.a.a.a.a.a.a.a.a.a.a.a.a.a.cQtQtQtQtQtQtQtQtQtQtQtQtQtQtQt.b.b.bQtQtQt",
"QtQtQtQtQtQtQtQtQtQtQtQtQtQtQtQtQtQtQtQtQtQtQtQt#D.a.a.a.a.a.a.a.a.a.a.a.a.a.a#DQtQtQtQtQtQtQtQtQtQtQtQtQtQtQtQtQtQtQtQtQtQtQtQt"};
