/* XPM */
static char *metroid_door_anim3_xpm[]={
"64 64 11 1",
"# c #000008",
". c None",
"a c #100000",
"f c #184098",
"h c #184099",
"i c #184199",
"c c #201010",
"g c #3870e0",
"b c #402828",
"d c #604040",
"e c #a07878",
"....#############a#a#a###a#a#a###a#a#a###a#a#a##############....",
"..###aaaaaaaaaa##a#b#a#a#a#b#a#a#a#b#a#a#a#b#a#a#aaaaaaaaac###..",
".##aabbbbbbbabaa#b#b#b#b#b#b#b#b#b#b#b#b#b#b#b#babbbabbabbaac##.",
".#abbbddddddbdbacdcdcdcdcdcdcdcdcdcdcdcdcdcdcdcdadddbddbdabbac#.",
"##abdddeeeeededbaeceaeceaeceaeceaeceaeceaeceaecebeeedeededaaba##",
"#abbdeeeddddedebaeceaeceaeceaeceaeceaeceaeceaecebdddeddeeeeabac#",
"#abddedddbbbdbdbcdadcdcdcdadcdcdcdadcdcdcdadcdcdbbbbebbeddeaaac#",
"#abdeedbbdaadabbcbcbcbcbcbcbcbcbcbcbcbcbcbcbcbcbbaaadabebddaabc#",
"#abdeddbadaababb#a#a#a#a#a#a#a#a#a#a#a#a#a#a#a#abaaadaadbbdbaac#",
"#abdedbbadaabbba#b#b#b#b#b#b#b#b#b#b#b#b#b#b#b#babbbbaadbbbbaac#",
"#abdedbaabbbaaaa#a#a#a#a#a#a#a#a#a#a#a#a#a#a#a#aaababbababdbaac#",
"#abdedbaaabaaaa##a###a###a###a###a###a###a###a###abaabababbbaac#",
"#bddedbaabaaccc##################################cccaabaabbaacc#",
"#abdeddbabaacc##............ffff.....fffffffffff##ccaabaabbaacc#",
"#abdedbaabaac#..............ffff.....ffffff...ffff#caabaabbaacc#",
"##############..............fffff...fffff.......ff##############",
"aabdeedbabaa#................gggggggggggg.......fff#aababdeedbaa",
"###cbccbc####................gggg................ff####cbccbc###",
"#abdeedbabaa#................gg..................ff#aababdeedba#",
"###bbccc#####................g...................ff#####cccbb###",
"aabdeedbaba##...................................fff##ababdeedbaa",
"###ccbccb#a##...................................fff##a#bccbcc###",
"aabdeedbabaa#.................................ggfff#aababdeedbaa",
"##b###b######.................................ggfff######b###b##",
"aabdeedbabaa#..................................gfff#aababdeedbaa",
"###cbccbc####..................................gfff####cbccbc###",
"#abdeedbabaa#f...........g.....................gfff#aababdeedba#",
"###bbccc#####fffg.....gggg.....................gfff#####cccbb###",
"aabdeedbaba##fffgg...ggggg.....................g...##ababdeedbaa",
"###ccbccb#a##fff.......ggg.........................##a#bccbcc###",
"aabdeedbabaa#fff.......ggg.........................#aababdeedbaa",
"##b###b######ff.........ggg...................g....######b###b##",
"aabdeedbabaa#ff.........ggg...................gg...#aababdeedbaa",
"###cbccbc####ff.........gggg.................gggfff####cbccbc###",
"#abdeedbabaa#fff.......gg...................ggggfff#aababdeedba#",
"###bbccc#####fff...........................gggggfff#####cccbb###",
"aabdeedbaba##fffgg...g....................ggggggfff##ababdeedbaa",
"###ccbccb#a##fffggggg...................ggg....gfff##a#bccbcc###",
"aabdeedbabaa#fffgggg.................gggg........ff#aababdeedbaa",
"##b###b######fffggg...................ggg........ff######b###b##",
"aabdeedbabaa#fffggg...................gg..........f#aababdeedbaa",
"###cbccbc####fffgg.....................g..........f####cbccbc###",
"#abdeedbabaa#f...g.....................g..........f#aababdeedba#",
"###bbccc#####..........................g..........f#####cccbb###",
"aabdeedbaba##..........................gg........ff##ababdeedbaa",
"###ccbccb#a##....................................ff##a#bccbcc###",
"aabdeedbabaa#f...g.............................gfff#aababdeedbaa",
"##b###b######fffggg............................gfff######b###b##",
"aabdeedbabaa#fffggg.............................fff#aababdeedbaa",
"###cbccbc####fffgggg.............................ff####cbccbc###",
"#abdeedbabaa#fffggggg.............................f#aababdeedba#",
"###bbccc#####fffgggggg............................f#####cccbb###",
"aabdeedbaba##fffggg...............................f##ababdeedbaa",
"###ccbccb#a##fffg..................................##a#bccbcc###",
"aabdeedbabaa#fffg........ggggg.....................#aababdeedbaa",
"##b###b######fff..........gggg.....................######b###b##",
"aabdeedbabaa#fff..........gggg.....................#aababdeedbaa",
"###cbccbc####fff..........gggg.....................####cbccbc###",
"#abdeedbabaa#ffh..........gggg.....................#aababdeedba#",
"###bbccc#####fffh........gggggg...................f#####cccbb###",
"aabdeedbaba##..fi........gggggg...................f##ababdeedbaa",
"###ccbccb#a##...fii....hhhhhhhh...................f##a#bccbcc###",
"aabdeedbabaa#....fhiiiiihhhhhhhh.................ff#aababdeedbaa",
"##b###b######....ffffffffffffffff...............fff######b###b##"};
