/* XPM */
static char *dummy[]={
"64 64 83 2",
"Qt c #00000c",
".# c #021832",
".j c #04080b",
".g c #061e2d",
".A c #102007",
"#o c #112f1f",
".6 c #1d3904",
".e c #1e3c03",
".s c #1f1f41",
".1 c #214202",
"#q c #21460a",
".Y c #224302",
".f c #224809",
"#c c #244702",
".a c #244801",
"#m c #244a06",
"#n c #284f00",
".Q c #285000",
".h c #285001",
".i c #285002",
".c c #295100",
".b c #295200",
".t c #343b2d",
"#p c #3b2d49",
".d c #4aad39",
".r c #4bae39",
"#i c #4caf38",
".k c #4db037",
"#b c #4db038",
".W c #4eb137",
".l c #4fb235",
".B c #4fb236",
"#a c #4fb237",
".F c #50b335",
".z c #51b434",
".9 c #51b435",
".4 c #52b534",
".U c #55b832",
"#k c #56b931",
".G c #58bb2f",
".J c #59bc2f",
".2 c #59bc30",
".K c #5abd2f",
".P c #5cbf2e",
"#g c #5dc02e",
".0 c #5ec12c",
".q c #61c42a",
".M c #62c52a",
".5 c #63c62a",
".8 c #64c729",
".u c #68cb26",
".3 c #69cc25",
".m c #69cc26",
".C c #6acd25",
".X c #6bce24",
".L c #6ccf24",
".V c #6dd023",
".Z c #6ed122",
"#l c #73d620",
".I c #74d71f",
".T c #75d81e",
"#d c #76d91d",
"#j c #76d91e",
".7 c #77da1d",
".R c #78db1d",
"#. c #7add1b",
".n c #7de019",
"#e c #7de01a",
"#h c #7ee119",
".p c #80e318",
"#f c #82e516",
".o c #83e616",
".D c #84e714",
".E c #84e715",
"## c #86e913",
".v c #86e914",
".y c #87ea13",
".H c #88eb12",
".O c #88eb13",
".w c #8aed11",
".S c #8bee10",
".N c #8bee11",
".x c #8cef10",
"Qt.#.#QtQtQtQtQt.#.#.#QtQtQt.#Qt.#Qt.#QtQtQtQtQt.a.b.b.b.b.b.b.b.b.b.b.b.b.b.b.a.#.#.#QtQtQt.#Qt.#Qt.#QtQtQtQtQtQt.#QtQt.#QtQtQt",
"Qt.#.#QtQtQt.#QtQt.#QtQtQt.#Qt.#.#.#QtQtQt.c.b.b.b.b.d.d.d.d.d.d.d.d.d.d.b.b.b.b.b.b.cQtQt.#Qt.#.#.#QtQtQtQtQtQt.#QtQt.#QtQtQtQt",
"Qt.#.#QtQtQt.#Qt.#QtQtQtQtQt.#Qt.#Qt.e.b.b.b.d.d.d.d.d.d.d.d.d.d.d.d.d.d.d.d.d.d.b.b.b.b.b.e.#Qt.#QtQtQtQtQtQtQtQtQtQtQtQt.#QtQt",
"Qt.#QtQtQt.#.#.#QtQt.#.#Qt.#.#.#.f.b.b.d.d.d.d.d.d.d.d.d.d.d.d.d.d.d.d.d.d.d.d.d.d.d.d.b.b.b.b.f.#Qt.#.#QtQt.#.#Qt.#Qt.#Qt.#.#Qt",
"Qt.#.#.#Qt.#.#.#Qt.#.#Qt.#.#.g.b.b.d.d.d.d.d.d.d.d.d.d.d.d.d.d.d.d.d.d.d.d.d.d.d.d.d.d.d.d.b.b.b.b.g.#.#Qt.#.#.#.#Qt.#Qt.#.#.#Qt",
"QtQt.#.#.#.#.#.#QtQtQtQt.#.h.b.d.d.d.d.d.d.d.d.d.d.d.d.d.d.d.d.d.d.d.d.d.d.d.d.d.d.d.d.d.d.d.d.b.b.b.iQtQt.#.#.#.#.#.#.#Qt.#QtQt",
"Qt.#QtQt.#QtQtQtQtQtQt.#.b.b.d.d.d.d.d.d.d.d.d.d.d.d.d.d.d.d.d.d.d.d.d.d.d.d.d.d.d.d.d.d.d.d.d.d.b.b.b.bQtQtQtQt.#Qt.#QtQtQtQtQt",
"Qt.#.#.#.#Qt.#.#Qt.#.j.b.b.d.d.d.d.d.d.d.d.d.d.d.k.l.m.n.o.p.q.r.d.d.d.d.d.d.d.d.d.d.d.d.d.d.d.d.d.b.b.b.b.gQt.#.#.#.#Qt.#.#.#.#",
".#.#QtQt.s.#.s.sQt.t.b.d.d.d.d.d.d.d.d.d.d.d.d.u.v.w.x.x.x.x.y.z.d.d.d.d.d.d.d.d.d.d.d.d.d.d.d.d.d.d.d.b.b.b.AQt.s.s.#.#.s.#.s.#",
".#QtQt.s.#.#.#.#.A.b.d.d.d.d.d.d.d.d.d.d.B.C.D.x.x.x.x.x.x.x.E.F.d.d.d.d.d.d.d.d.d.d.d.d.d.d.d.d.d.d.d.d.b.b.b.A.#.#.#.#.#.#Qt.#",
"QtQt.#.#Qt.#Qt.g.b.d.d.d.d.d.d.d.d.d.d.G.H.x.x.x.x.x.x.x.n.I.J.d.d.d.d.d.d.d.d.d.d.d.d.d.d.d.d.d.d.d.d.d.d.b.b.b.jQtQt.#Qt.#Qt.#",
".#.#.#.#QtQt.#.b.d.d.d.d.d.d.d.d.d.d.K.w.x.x.x.x.x.x.x.L.d.d.d.d.d.d.d.d.d.d.d.d.d.d.d.d.d.d.d.d.d.d.d.d.d.d.b.b.bQtQtQtQtQtQtQt",
".#.#.#QtQt.#.b.b.d.d.d.d.d.d.d.d.d.M.N.x.x.x.x.x.x.O.P.d.d.d.d.d.d.d.d.d.d.d.d.d.d.d.d.d.d.d.d.d.d.d.d.d.d.d.b.b.b.bQtQtQtQtQtQt",
".#.#QtQt.#.Q.b.d.d.d.d.d.d.d.d.F.R.S.x.x.x.x.x.x.T.F.d.d.d.d.d.d.d.d.d.d.d.d.d.d.d.d.d.d.d.d.d.d.d.d.d.d.d.d.d.b.b.b.iQtQtQtQt.#",
".#QtQt.#.j.b.d.d.d.d.d.d.d.d.U.E.x.x.x.x.x.x.x.V.d.d.d.d.d.d.d.d.d.d.d.d.d.d.d.d.d.d.d.d.d.d.d.d.d.d.d.d.d.d.d.d.b.b.b.g.#QtQt.#",
"Qt.#.#.#.b.d.d.d.d.d.d.d.d.W.E.x.x.x.x.x.x.x.X.d.d.d.d.d.d.d.d.d.d.d.d.d.d.d.d.d.d.d.d.d.d.d.d.d.d.d.d.d.d.d.d.d.d.b.b.bQtQtQt.#",
".#Qt.#.Y.b.d.d.d.d.d.d.d.d.Z.x.x.x.x.x.x.v.0.d.d.d.d.d.d.d.d.d.d.d.d.d.d.d.d.d.d.d.d.d.d.d.d.d.d.d.d.d.d.d.d.d.d.d.b.b.b.1Qt.#Qt",
".#.#Qt.b.d.d.d.d.d.d.d.d.2.w.x.x.x.x.S.3.d.d.d.d.d.d.d.d.d.d.d.d.d.d.d.d.d.d.d.d.d.d.d.d.d.d.d.d.d.d.d.d.d.d.d.d.d.d.b.b.b.#Qt.#",
".#Qt.e.b.d.d.d.d.d.d.d.4.y.x.x.x.x.N.5.d.d.d.d.d.d.d.d.d.d.d.d.d.d.d.d.d.d.d.d.d.d.d.d.d.d.d.d.d.d.d.d.d.d.d.d.d.d.d.b.b.b.6.#Qt",
".#Qt.b.d.d.d.d.d.d.d.d.7.x.x.x.x.x.8.d.d.d.d.d.d.d.d.d.d.d.d.d.d.d.d.d.d.d.d.d.d.d.d.d.d.d.d.d.d.d.d.d.d.d.d.d.d.d.d.d.b.b.b.#.#",
".#.#.b.d.d.d.d.d.d.d.9.w.x.x.x.x#..d.d.d.d.d.d.d.d.d.d.d.d.d.d.d.d.d.d.d.d.d.d.d.d.d.d.d.d.d.d.d.d.d.d.d.d.d.d.d.d.d.d.b.b.b.#.#",
".#.b.b.d.d.d.d.d.d.d.5.x.x.x.x.y.9.d.d.d.d.d.d.d.d.d.d.d.d.d.d.d.d.d.d.d.d.d.d.d.d.d.d.d.d.d.d.d.d.d.d.d.d.d.d.d.d.d.d.b.b.b.b.#",
".#.b.d.d.d.d.d.d.d.d.7.x.x.x##.B.d.d.d.d.d.d.d.d.d.d.d.d.d.d.d.d.d.d.d.d.d.d.d.d.d.d.d.d.d.d.d.d.d.d.d.d.d.d.d.d.d.d.d.d.b.b.bQt",
"Qt.b.d.d.d.d.d.d.d.d.E.x.x.x.V.d.d.d.d.d.d.d.d.d.d.d.d.d.d.d.d.d.d.d.d.d.d.d.d.d.d.d.d.d.d.d.d.d.d.d.d.d.d.d.d.d.d.d.d.d.b.b.bQt",
".a.b.d.d.d.d.d.d.d#a.S.x.x.w#b.d.d.d.d.d.d.d.d.d.d.d.d.d.d.d.d.d.d.d.d.d.d.d.d.d.d.d.d.d.d.d.d.d.d.d.d.d.d.d.d.d.d.d.d.d.b.b.b#c",
".b.b.d.d.d.d.d.d.d#d.x.x.x#e.d.d.d.d.d.d.d.d.d.d.d.d.d.d.d.d.d.d.d.d.d.d.d.d.d.d.d.d.d.d.d.d.d.d.d.d.d.d.d.d.d.d.d.d.d.d.b.b.b.b",
".b.d.d.d.d.d.d.d.d#f.x.x.x#g.d.d.d.d.d.d.d.d.d.d.d.d.d.d.d.d.d.d.d.d.d.d.d.d.d.d.d.d.d.d.d.d.d.d.d.d.d.d.d.d.d.d.d.d.d.d.d.b.b.b",
".b.d.d.d.d.d.d.d.d#h.x.x.H#i.d.d.d.d.d.d.d.d.d.d.d.d.d.d.d.d.d.d.d.d.d.d.d.d.d.d.d.d.d.d.d.d.d.d.d.d.d.d.d.d.d.d.d.d.d.d.d.b.b.b",
".b.d.d.d.d.d.d.d.d#j.x.x.Z.d.d.d.d.d.d.d.d.d.d.d.d.d.d.d.d.d.d.d.d.d.d.d.d.d.d.d.d.d.d.d.d.d.d.d.d.d.d.d.d.d.d.d.d.d.d.d.d.b.b.b",
".b.d.d.d.d.d.d.d.d#k#l.L.W.d.d.d.d.d.d.d.d.d.d.d.d.d.d.d.d.d.d.d.d.d.d.d.d.d.d.d.d.d.d.d.d.d.d.d.d.d.d.d.d.d.d.d.d.d.d.d.d.b.b.b",
".b.d.d.d.d.d.d.d.d.d.d.d.d.d.d.d.d.d.d.d.d.d.d.d.d.d.d.d.d.d.d.d.d.d.d.d.d.d.d.d.d.d.d.d.d.d.d.d.d.d.d.d.d.d.d.d.d.d.d.d.d.b.b.b",
".b.d.d.d.d.d.d.d.d.d.d.d.d.d.d.d.d.d.d.d.d.d.d.d.d.d.d.d.d.d.d.d.d.d.d.d.d.d.d.d.d.d.d.d.d.d.d.d.d.d.d.d.d.d.d.d.d.d.d.d.d.b.b.b",
".b.d.d.d.d.d.d.d.d.d.d.d.d.d.d.d.d.d.d.d.d.d.d.d.d.d.d.d.d.d.d.d.d.d.d.d.d.d.d.d.d.d.d.d.d.d.d.d.d.d.d.d.d.d.d.d.d.d.d.d.d.b.b.b",
".b.d.d.d.d.d.d.d.d.d.d.d.d.d.d.d.d.d.d.d.d.d.d.d.d.d.d.d.d.d.d.d.d.d.d.d.d.d.d.d.d.d.d.d.d.d.d.d.d.d.d.d.d.d.d.d.d.d.d.d.d.b.b.b",
".b.d.d.d.d.d.d.d.d.d.d.d.d.d.d.d.d.d.d.d.d.d.d.d.d.d.d.d.d.d.d.d.d.d.d.d.d.d.d.d.d.d.d.d.d.d.d.d.d.d.d.d.d.d.d.d.d.d.d.d.d.b.b.b",
".b.d.d.d.d.d.d.d.d.d.d.d.d.d.d.d.d.d.d.d.d.d.d.d.d.d.d.d.d.d.d.d.d.d.d.d.d.d.d.d.d.d.d.d.d.d.d.d.d.d.d.d.d.d.d.d.d.d.d.d.d.b.b.b",
".b.b.d.d.d.d.d.d.d.d.d.d.d.d.d.d.d.d.d.d.d.d.d.d.d.d.d.d.d.d.d.d.d.d.d.d.d.d.d.d.d.d.d.d.d.d.d.d.d.d.d.d.d.d.d.d.d.d.d.d.b.b.b.b",
".b.b.d.d.d.d.d.d.d.d.d.d.d.d.d.d.d.d.d.d.d.d.d.d.d.d.d.d.d.d.d.d.d.d.d.d.d.d.d.d.d.d.d.d.d.d.d.d.d.d.d.d.d.d.d.d.d.d.d.d.b.b.b.b",
".b.b.d.d.d.d.d.d.d.d.d.d.d.d.d.d.d.d.d.d.d.d.d.d.d.d.d.d.d.d.d.d.d.d.d.d.d.d.d.d.d.d.d.d.d.d.d.d.d.d.d.d.d.d.d.d.d.d.d.d.b.b.b.b",
".a.b.d.d.d.d.d.d.d.d.d.d.d.d.d.d.d.d.d.d.d.d.d.d.d.d.d.d.d.d.d.d.d.d.d.d.d.d.d.d.d.d.d.d.d.d.d.d.d.d.d.d.d.d.d.d.d.d.d.d.b.b.b#m",
".#.b.b.d.d.d.d.d.d.d.d.d.d.d.d.d.d.d.d.d.d.d.d.d.d.d.d.d.d.d.d.d.d.d.d.d.d.d.d.d.d.d.d.d.d.d.d.d.d.d.d.d.d.d.d.d.d.d.d.b.b.b.b.#",
".#.b.b.d.d.d.d.d.d.d.d.d.d.d.d.d.d.d.d.d.d.d.d.d.d.d.d.d.d.d.d.d.d.d.d.d.d.d.d.d.d.d.d.d.d.d.d.d.d.d.d.d.d.d.d.d.d.d.d.b.b.b.b.#",
"Qt.c.b.d.d.d.d.d.d.d.d.d.d.d.d.d.d.d.d.d.d.d.d.d.d.d.d.d.d.d.d.d.d.d.d.d.d.d.d.d.d.d.d.d.d.d.d.d.d.d.d.d.d.d.d.d.d.d.d.b.b.b.c.#",
".#.#.b.b.d.d.d.d.d.d.d.d.d.d.d.d.d.d.d.d.d.d.d.d.d.d.d.d.d.d.d.d.d.d.d.d.d.d.d.d.d.d.d.d.d.d.d.d.d.d.d.d.d.d.d.d.d.d.b.b.b.bQtQt",
".#.#.b.b.d.d.d.d.d.d.d.d.d.d.d.d.d.d.d.d.d.d.d.d.d.d.d.d.d.d.d.d.d.d.d.d.d.d.d.d.d.d.d.d.d.d.d.d.d.d.d.d.d.d.d.d.d.d.b.b.b.bQtQt",
".#.#.e.b.b.d.d.d.d.d.d.d.d.d.d.d.d.d.d.d.d.d.d.d.d.d.d.d.d.d.d.d.d.d.d.d.d.d.d.d.d.d.d.d.d.d.d.d.d.d.d.d.d.d.d.d.d.b.b.b.b.6Qt.#",
".#QtQt.b.b.d.d.d.d.d.d.d.d.d.d.d.d.d.d.d.d.d.d.d.d.d.d.d.d.d.d.d.d.d.d.d.d.d.d.d.d.d.d.d.d.d.d.d.d.d.d.d.d.d.d.d.d.b.b.b.bQtQt.#",
"Qt.#.#.f.b.b.d.d.d.d.d.d.d.d.d.d.d.d.d.d.d.d.d.d.d.d.d.d.d.d.d.d.d.d.d.d.d.d.d.d.d.d.d.d.d.d.d.d.d.d.d.d.d.d.d.d.b.b.b.b.1QtQt.#",
".#Qt.#Qt.b.b.b.d.d.d.d.d.d.d.d.d.d.d.d.d.d.d.d.d.d.d.d.d.d.d.d.d.d.d.d.d.d.d.d.d.d.d.d.d.d.d.d.d.d.d.d.d.d.d.d.b.b.b.b.bQtQt.#Qt",
".#.#QtQt.j.b.b.b.d.d.d.d.d.d.d.d.d.d.d.d.d.d.d.d.d.d.d.d.d.d.d.d.d.d.d.d.d.d.d.d.d.d.d.d.d.d.d.d.d.d.d.d.d.d.b.b.b.b.b.jQt.#Qt.#",
".#QtQtQtQt#n.b.b.d.d.d.d.d.d.d.d.d.d.d.d.d.d.d.d.d.d.d.d.d.d.d.d.d.d.d.d.d.d.d.d.d.d.d.d.d.d.d.d.d.d.d.d.d.d.b.b.b.b#nQtQtQt.#Qt",
".#Qt.#.#QtQt.b.b.b.d.d.d.d.d.d.d.d.d.d.d.d.d.d.d.d.d.d.d.d.d.d.d.d.d.d.d.d.d.d.d.d.d.d.d.d.d.d.d.d.d.d.d.d.b.b.b.b.b.#.#Qt.#.#.#",
".#.#.#.#Qt.#.#.b.b.b.d.d.d.d.d.d.d.d.d.d.d.d.d.d.d.d.d.d.d.d.d.d.d.d.d.d.d.d.d.d.d.d.d.d.d.d.d.d.d.d.d.d.b.b.b.b.b.#.#Qt.#.#.#.#",
".#.#.#QtQt.#.#.g.b.b.b.d.d.d.d.d.d.d.d.d.d.d.d.d.d.d.d.d.d.d.d.d.d.d.d.d.d.d.d.d.d.d.d.d.d.d.d.d.d.d.d.b.b.b.b.b.jQtQtQt.#.#.#.#",
".#QtQt.#QtQtQtQt#o.b.b.b.b.d.d.d.d.d.d.d.d.d.d.d.d.d.d.d.d.d.d.d.d.d.d.d.d.d.d.d.d.d.d.d.d.d.d.d.d.b.b.b.b.b.b.AQtQtQt.#Qt.#QtQt",
"QtQt.#.#.#.#Qt.#.##o.b.b.b.b.d.d.d.d.d.d.d.d.d.d.d.d.d.d.d.d.d.d.d.d.d.d.d.d.d.d.d.d.d.d.d.d.d.d.b.b.b.b.b.b#o.#Qt.#Qt.#.#.#QtQt",
"Qt.#.s.s.s#pQtQt.s.s.g.b.b.b.b.d.d.d.d.d.d.d.d.d.d.d.d.d.d.d.d.d.d.d.d.d.d.d.d.d.d.d.d.d.d.d.d.b.b.b.b.b.b.g.s.sQt#p.#.s.s.#.#Qt",
"Qt.#.s.#.#.#.#Qt.#.#.#.#.b.b.b.b.b.d.d.d.d.d.d.d.d.d.d.d.d.d.d.d.d.d.d.d.d.d.d.d.d.d.d.d.d.b.b.b.b.b.b.b.#.#.#.#Qt.#.#.#.#.#.#Qt",
"Qt.#.#.#.#QtQtQtQtQtQt.#Qt.i.b.b.b.b.b.d.d.d.d.d.d.d.d.d.d.d.d.d.d.d.d.d.d.d.d.d.d.d.d.b.b.b.b.b.b.b.i.#Qt.#Qt.#.#Qt.#.sQt.s.#Qt",
"Qt.#Qt.#Qt.#.#.#.#QtQtQtQtQt.j.b.b.b.b.b.b.b.d.d.d.d.d.d.d.d.d.d.d.d.d.d.d.d.d.d.b.b.b.b.b.b.b.b.b.g.#.#QtQt.#.#.#Qt.#Qt.#.#.#Qt",
"Qt.#QtQtQt.#.#.#QtQtQtQtQtQtQtQt#q.b.b.b.b.b.b.b.b.b.d.d.d.d.d.d.d.d.d.d.b.b.b.b.b.b.b.b.b.b.b.1.#.#.#QtQt.#.#.#.#.#QtQtQt.#.#Qt",
"QtQtQt.#.#.#.#QtQtQt.#QtQtQtQt.#.#.#.e.b.b.b.b.b.b.b.b.b.b.b.b.b.b.b.b.b.b.b.b.b.b.b.b.b.b.6Qt.#.#.#QtQt.#Qt.#Qt.#QtQtQtQtQtQtQt",
"QtQt.#QtQt.#QtQtQt.#Qt.#.#QtQt.#.#QtQt.#Qt.b.b.b.b.b.b.b.b.b.b.b.b.b.b.b.b.b.b.b.b.b.c.#.#QtQt.#.#QtQt.#Qt.#QtQtQtQtQtQt.#.#QtQt",
"QtQt.#.#.#QtQtQt.#Qt.#QtQtQtQt.#Qt.#.#.#.#QtQtQt#c.b.b.b.b.b.b.b.b.b.b.b.b.b.b#c.#Qt.#QtQtQtQt.#Qt.#.#.#.#QtQtQtQtQt.#.#Qt.#QtQt"};
