/* XPM */
static char *dummy[]={
"64 64 178 2",
"Qt c #00000c",
".O c #000042",
".1 c #010342",
"#S c #020442",
".# c #021832",
"#m c #030742",
".j c #04080b",
"au c #060e41",
".g c #061e2d",
".3 c #070c3f",
"#R c #081441",
"ai c #091541",
"#Y c #091641",
".0 c #0a123e",
"aQ c #0a1741",
"aM c #0a1841",
"#h c #0b1a41",
".N c #0c1840",
"an c #0c1b41",
"az c #0c1c41",
".P c #0e173d",
"aP c #0e2140",
".A c #102007",
".8 c #102540",
"ap c #112740",
"#a c #112940",
"aT c #112f1f",
"at c #122940",
"#l c #132b40",
"## c #142e40",
"ab c #142f40",
"#Z c #15303f",
"aJ c #15313f",
"aC c #15323f",
"ay c #16343f",
"aR c #18373f",
"ah c #18393f",
"#5 c #193a3f",
"aD c #1a3d3f",
"aw c #1b3f3f",
"aF c #1c403f",
"#J c #1c413f",
"#A c #1c423f",
"#o c #1d3904",
"#O c #1d443e",
".e c #1e3c03",
"#s c #1e473e",
".s c #1f1f41",
"#P c #1f493e",
"aH c #204a3e",
"#b c #204b3e",
".Y c #213c38",
"#d c #214202",
"aV c #21460a",
"#D c #214d3e",
"aB c #214e3e",
".5 c #224302",
".f c #224809",
"#T c #23513e",
"ac c #23533e",
"#U c #244702",
".a c #244801",
"ak c #244a06",
"av c #25563e",
".7 c #264134",
"#t c #26583d",
"#. c #275a3d",
"#r c #275b3d",
"aN c #275c3d",
".X c #284936",
"aI c #284f00",
".W c #285000",
".h c #285001",
".i c #285002",
"#w c #285e3d",
".c c #295100",
".b c #295200",
"am c #29603d",
"#I c #2a623d",
"#N c #2b653d",
"ax c #2c673d",
"#Q c #2d683d",
"#z c #2f6d3c",
"aE c #2f6e3c",
"ad c #2f6f3c",
"#f c #306f3c",
"aj c #30703c",
"al c #31723c",
"#i c #31733c",
"aa c #32743c",
"aA c #32753c",
"#C c #33773c",
".t c #343b2d",
".M c #34793c",
"aS c #357b3c",
"aG c #357d3c",
"#G c #367e3b",
"as c #367f3b",
"#X c #39863b",
"aK c #3a873b",
"#v c #3a883b",
"aU c #3b2d49",
".S c #3b893b",
"#2 c #3b8a3b",
"#1 c #3d8e3b",
"#u c #3d8f3b",
".G c #3e8535",
"ao c #3e913a",
"#c c #3e923a",
"#g c #3f933a",
"aL c #40953a",
"af c #41973a",
"ar c #41993a",
"ae c #439c3a",
"#n c #439d3a",
"ag c #449f3a",
"aq c #45a13a",
"aO c #46a33a",
"#0 c #47a539",
"#F c #47a639",
".9 c #48a839",
"#M c #48a939",
".4 c #49ab39",
".d c #4aad39",
".r c #4bae39",
"#8 c #4caf38",
".k c #4db037",
"#L c #4db038",
"#k c #4e8527",
".2 c #4eb137",
".l c #4fb235",
".B c #4fb236",
"#K c #4fb237",
".F c #50b335",
".H c #518b26",
".z c #51b434",
"#x c #51b435",
"#j c #52b534",
".Z c #55b832",
"a. c #56b931",
".L c #59bc2f",
"#e c #59bc30",
".V c #5cbf2e",
".Q c #5d9e21",
"#4 c #5dc02e",
".I c #61a61f",
".q c #61c42a",
"#B c #63c62a",
"#q c #64c729",
".T c #68b11d",
".u c #68cb26",
".m c #69cc26",
".C c #6acd25",
".R c #6ccf24",
"#H c #6dd023",
".6 c #6ed122",
"a# c #73d620",
".K c #74d71f",
"#V c #76d91d",
"#9 c #76d91e",
"#p c #77da1d",
"#y c #7add1b",
".n c #7de019",
"#W c #7de01a",
"#6 c #7ee119",
".p c #80e318",
"#3 c #82e516",
".o c #83e616",
".D c #84e714",
".E c #84e715",
"#E c #86e913",
".v c #86e914",
".y c #87ea13",
"#7 c #88eb12",
".U c #88eb13",
".w c #8aed11",
".J c #8bee10",
".x c #8cef10",
"Qt.#.#QtQtQtQtQt.#.#.#QtQtQt.#Qt.#Qt.#QtQtQtQtQt.a.b.b.b.b.b.b.b.b.b.b.b.b.b.b.a.#.#.#QtQtQt.#Qt.#Qt.#QtQtQtQtQtQt.#QtQt.#QtQtQt",
"Qt.#.#QtQtQt.#QtQt.#QtQtQt.#Qt.#.#.#QtQtQt.c.b.b.b.b.d.d.d.d.d.d.d.d.d.d.b.b.b.b.b.b.cQtQt.#Qt.#.#.#QtQtQtQtQtQt.#QtQt.#QtQtQtQt",
"Qt.#.#QtQtQt.#Qt.#QtQtQtQtQt.#Qt.#Qt.e.b.b.b.d.d.d.d.d.d.d.d.d.d.d.d.d.d.d.d.d.d.b.b.b.b.b.e.#Qt.#QtQtQtQtQtQtQtQtQtQtQtQt.#QtQt",
"Qt.#QtQtQt.#.#.#QtQt.#.#Qt.#.#.#.f.b.b.d.d.d.d.d.d.d.d.d.d.d.d.d.d.d.d.d.d.d.d.d.d.d.d.b.b.b.b.f.#Qt.#.#QtQt.#.#Qt.#Qt.#Qt.#.#Qt",
"Qt.#.#.#Qt.#.#.#Qt.#.#Qt.#.#.g.b.b.d.d.d.d.d.d.d.d.d.d.d.d.d.d.d.d.d.d.d.d.d.d.d.d.d.d.d.d.b.b.b.b.g.#.#Qt.#.#.#.#Qt.#Qt.#.#.#Qt",
"QtQt.#.#.#.#.#.#QtQtQtQt.#.h.b.d.d.d.d.d.d.d.d.d.d.d.d.d.d.d.d.d.d.d.d.d.d.d.d.d.d.d.d.d.d.d.d.b.b.b.iQtQt.#.#.#.#.#.#.#Qt.#QtQt",
"Qt.#QtQt.#QtQtQtQtQtQt.#.b.b.d.d.d.d.d.d.d.d.d.d.d.d.d.d.d.d.d.d.d.d.d.d.d.d.d.d.d.d.d.d.d.d.d.d.b.b.b.bQtQtQtQt.#Qt.#QtQtQtQtQt",
"Qt.#.#.#.#Qt.#.#Qt.#.j.b.b.d.d.d.d.d.d.d.d.d.d.d.k.l.m.n.o.p.q.r.d.d.d.d.d.d.d.d.d.d.d.d.d.d.d.d.d.b.b.b.b.gQt.#.#.#.#Qt.#.#.#.#",
".#.#QtQt.s.#.s.sQt.t.b.d.d.d.d.d.d.d.d.d.d.d.d.u.v.w.x.x.x.x.y.z.d.d.d.d.d.d.d.d.d.d.d.d.d.d.d.d.d.d.d.b.b.b.AQt.s.s.#.#.s.#.s.#",
".#QtQt.s.#.#.#.#.A.b.d.d.d.d.d.d.d.d.d.d.B.C.D.x.x.x.x.x.x.x.E.F.d.d.d.d.d.d.d.d.d.d.d.d.d.d.d.d.d.d.d.d.b.b.b.A.#.#.#.#.#.#Qt.#",
"QtQt.#.#Qt.#Qt.g.b.d.d.d.d.d.d.d.d.d.d.G.H.I.J.x.x.x.x.x.n.K.L.d.d.d.d.d.d.d.d.d.d.d.d.d.d.d.d.d.d.d.d.d.d.b.b.b.jQtQt.#Qt.#Qt.#",
".#.#.#.#QtQt.#.b.d.d.d.d.d.d.d.d.d.M.N.O.O.O.P.Q.x.x.x.R.d.d.d.d.d.d.d.d.d.d.d.d.d.d.d.d.d.d.d.d.d.d.d.d.d.d.b.b.bQtQtQtQtQtQtQt",
".#.#.#QtQt.#.b.b.d.d.d.d.d.d.d.d.S.O.O.O.O.O.O.O.T.U.V.d.d.d.d.d.d.d.d.d.d.d.d.d.d.d.d.d.d.d.d.d.d.d.d.d.d.d.b.b.b.bQtQtQtQtQtQt",
".#.#QtQt.#.W.b.d.d.d.d.d.d.d.d.F.X.O.O.O.O.O.O.O.Y.F.d.d.d.d.d.d.d.d.d.d.d.d.d.d.d.d.d.d.d.d.d.d.d.d.d.d.d.d.d.b.b.b.iQtQtQtQt.#",
".#QtQt.#.j.b.d.d.d.d.d.d.d.d.Z.E.0.O.O.O.O.O.O.O.1.d.d.d.d.d.d.d.d.d.d.d.d.d.d.d.d.d.d.d.d.d.d.d.d.d.d.d.d.d.d.d.b.b.b.g.#QtQt.#",
"Qt.#.#.#.b.d.d.d.d.d.d.d.d.2.E.x.3.O.O.O.O.O.O.O.O.4.d.d.d.d.d.d.d.d.d.d.d.d.d.d.d.d.d.d.d.d.d.d.d.d.d.d.d.d.d.d.d.b.b.bQtQtQt.#",
".#Qt.#.5.b.d.d.d.d.d.d.d.d.6.x.x.7.O.O.O.O.O.O.O.8.d.d.d.d.d.d.d.d.d.d.d.d.d.d.d.d.d.d.d.d.d.9#.###a#b#c.d.d.d.d.d.b.b.b#dQt.#Qt",
".#.#Qt.b.d.d.d.d.d.d.d.d#e.w.x.x.I.O.O.O.O.O.O.O#f.d.d.d.d.d.d.d.d.d.d.d.d.d.d.d.d.d.d.d.d#g#h.O.O.O.O.O#i.d.d.d.d.d.b.b.b.#Qt.#",
".#Qt.e.b.d.d.d.d.d.d.d#j.y.x.x.x.x#k.O.O.O.O.O#..d.d.d.d.d.d.d.d.d.d.d.d.d.d.d.d.d.d.d.d.d#l.O.O.O.O.O.O#m#n.d.d.d.d.b.b.b#o.#Qt",
".#Qt.b.d.d.d.d.d.d.d.d#p.x.x.x.x.x#q#g#r#s#t#u.d.d.d.d.d.d.d.d.d.d.d.d.d.d.d.d.d.d.d.d.d#v.O.O.O.O.O.O.O.O#w.d.d.d.d.d.b.b.b.#.#",
".#.#.b.d.d.d.d.d.d.d#x.w.x.x.x.x#y.d.d.d.d.d.d.d.d.d.d.d.d.d.d.d.d.d.d.d.d.d.d.d.d.d.d.d#z.O.O.O.O.O.O.O.O#A.d.d.d.d.d.b.b.b.#.#",
".#.b.b.d.d.d.d.d.d.d#B.x.x.x.x.y#x.d.d.d.d.d.d.d.d.d.d.d.d.d.d.d.d.d.d.d.d.d.d.d.d.d.d.d#C.O.O.O.O.O.O.O.O#D.d.d.d.d.d.b.b.b.b.#",
".#.b.d.d.d.d.d.d.d.d#p.x.x.x#E.B.d.d.d.d.d.d.d.d.d.d.d.d.d.d.d.d.d.d.d.d.d.d.d.d.d.d.d.d#F#m.O.O.O.O.O.O.O#G.d.d.d.d.d.d.b.b.bQt",
"Qt.b.d.d.d.d.d.d.d.d.E.x.x.x#H.d.d.d.d.d.d.d.d.d.d.d.d.d.d.d.d.d.d.d.d.d.d.d.d.d.d.d.d.d.d#I.O.O.O.O.O.O#J.d.d.d.d.d.d.d.b.b.bQt",
".a.b.d.d.d.d.d.d.d#K.J.x.x.w#L.d.d.d.d.d.d.d.d.d.d.d.d.d.d.d.d.d#M#N#O#P#i.d.d.d.d.d.d.d.d.d#Q#R.O.O#S#T.d.d.d.d.d.d.d.d.b.b.b#U",
".b.b.d.d.d.d.d.d.d#V.x.x.x#W.d.d.d.d.d.d.d.d.d.d.d.d.d.d.d.d.d#X#Y.O.O.O.O#Z#0.d.d.d.d.d.d.d.d.d#1#2#M.d.d.d.d.d.d.d.d.d.b.b.b.b",
".b.d.d.d.d.d.d.d.d#3.x.x.x#4.d.d.d.d.d.d.d.d.d.d.d.d.d.d.d.d#M#Y.O.O.O.O.O.O#5.d.d.d.d.d.d.d.d.d.d.d.d.d.d.d.d.d.d.d.d.d.d.b.b.b",
".b.d.d.d.d.d.d.d.d#6.x.x#7#8.d.d.d.d.d.d.d.d.d.d.d.d.d.d.d.d#N.O.O.O.O.O.O.O.O#u.d.d.d.d.d.d.d.d.d.d.d.d.d.d.d.d.d.d.d.d.d.b.b.b",
".b.d.d.d.d.d.d.d.d#9.x.x.6.d.d.d.d.d.d.d.d.d.d.d.d.d.d.d.d.d#O.O.O.O.O.O.O.O.O#f.d.d.d.d.d.d.d.d.d.d.d.d.d.d.d.d.d.d.d.d.d.b.b.b",
".b.d.d.d.d.d.d.d.da.a#.R.2.d.d.d.d.d.d.d.d.d.d.d.d.d.d.d.d.d#P.O.O.O.O.O.O.O.Oaa.d.d.d.d.d.d.d.d.d.d.d.d.d.d.d.d.d.d.d.d.d.b.b.b",
".b.d.d.d.d.d.d.d.d.d.d.d.d.d.d.d.d.d.d.d.d.d.d.d.d.d.d.d.d.d#i.O.O.O.O.O.O.O.O#n.d.d.d.d.d.d.d.d.d.d.d.d.d.d.d.d.d.d.d.d.d.b.b.b",
".b.d.d.d.d.d.d.d.d.d.d.d.d.d.d.d.d.d.d.d.d.d.d.d.d.d.d.d.d.d.dab.O.O.O.O.O.Oac.d.d.d.d.d.d.d.d.d.d.d.d.d.d.d.d.d.d.d.d.d.d.b.b.b",
".b.d.d.d.d.d.d.d.d.d.d.d.d.d.d.d.d.d.d.d.d.d.d.d.d.d.d.d.d.d.d#0#5.O.O.O.Oac.d.d.d.d.d.d.d.d.d.d.d.d.d.d.d.d.d.d.d.d.d.d.d.b.b.b",
".b.d.d.d.d.d.d.d.d.d.d.d.d.d.d.d.d.d.d.d.d.d.d.d.d.d.d.d.d.d.d.d.d#1ad#iae.d.d.d.d.d.d.d.d.d.d.d.d.d.d.d.d.d.d.d.d.d.d.d.d.b.b.b",
".b.d.d.d.d.d.d.d.d.d.d.d.d.d.d.d.d.d.d.d.d.d.d.d.d.d.d.d.d.d.d.d.d.d.d.d.d.d.d.d.d.d.d.d.d.d.d.d.d.d.d.d.d.d.d.d.d.d.d.d.d.b.b.b",
".b.d.d.d.d.d.d.d.d.d.d.d.d.d.d.d.d.d.d.d.d.d.d.d.d.d.d.d.d.d.d.d.d.d.d.d.d.d.d.d.d.d.d.d.d.d.d.d.d.d.d.d.d.d.d.d.d.d.d.d.d.b.b.b",
".b.b.d.d.d.d.d.d.d.d.d.d.d.d.d.d.d.d.d.d.d.d.d.d.d.d.d.d.d.d.d.d.d.d.d.d.d.d.d.d.d.d.d.d.d.d.d.d.d.d.d.d.d.d.d.d.d.d.d.d.b.b.b.b",
".b.b.d.d.d.d.d.d.d.d.d.d.d.d.d.d.d.d.d.d.d.d.d.d.d.d.d.d.d.d.d.d.d.d.d.d.d.d.d.d.d.d.d.d.d.d.d.d.d.d.d.d.d.d.d.d.d.d.d.d.b.b.b.b",
".b.b.d.d.d.d.d.d.d.d.d.d.d.d.d.daf#G#v.d.d.d.d.d.d.d.d.d.d.d.d.d.d.d.d.d.d.d.d.d.d.d.d.d.d.d.d.d.d.d.d.d.d.d.d.d.d.d.d.d.b.b.b.b",
".a.b.d.d.d.d.d.d.d.d.d.d.d.dagah.O.O.Oaiaj.d.d.d.d.d.d.d.d.d.d.d.d.d.d.d.d.d.d.d.d.d.d.d.d.d.d.d.d.d.d.d.d.d.d.d.d.d.d.d.b.b.bak",
".#.b.b.d.d.d.d.d.d.d.d.d.d.d.8.O.O.O.O.O.Oal.d.d.d.d.d.d.d.d.d.d.d.d.d.d.d.d.d.d.d.d.d.d.d.d.d.d.d.d.d.d.d.d.d.d.d.d.d.b.b.b.b.#",
".#.b.b.d.d.d.d.d.d.d.d.d.dam.O.O.O.O.O.O.Oan.d.d.d.d.d.d.d.d.d.d.d.d.d.d.d.d.d.d.d.d.d.d.d.d.d.d.d.d.d.d.d.d.d.d.d.d.d.b.b.b.b.#",
"Qt.c.b.d.d.d.d.d.d.d.d.d.d#Z.O.O.O.O.O.O.O.Oao.d.d.d.d.d.d.d.d.d.d.d.d.d.d.d.d.d.d.d.d.d.d.d.d.d.d.d.d.d.d.d.d.d.d.d.d.b.b.b.c.#",
".#.#.b.b.d.d.d.d.d.d.d.d.dap.O.O.O.O.O.O.O.O.S.d.d.d.d.d.d.d.d.d.daqar.d.d.d.d.d.d.d.d.d.d.d.d.d.d.d.d.d.d.d.d.d.d.d.b.b.b.bQtQt",
".#.#.b.b.d.d.d.d.d.d.d.d.d#s.O.O.O.O.O.O.O.O#0.d.d.d.d.d.d.d.dasat.O.Oauav.d.d.d.d.d.d.d.d.d.d.d.d.d.d.d.d.d.d.d.d.d.b.b.b.bQtQt",
".#.#.e.b.b.d.d.d.d.d.d.d.d#2.O.O.O.O.O.O.O#P.d.d.d.d.d.d.d.d.M.O.O.O.O.O.Oaw.d.d.d.d.d.d.d.d.d.d.d.d.d.d.d.d.d.d.d.b.b.b.b#oQt.#",
".#QtQt.b.b.d.d.d.d.d.d.d.d.dax.O.O.O.O.Oay.d.d.d.d.d.d.d.d.daz.O.O.O.O.O.O.OaA.d.d.d.d.d.d.d.d.d.d.d.d.d.d.d.d.d.d.b.b.b.bQtQt.#",
"Qt.#.#.f.b.b.d.d.d.d.d.d.d.d.d#1aBaCaDaE.d.d.d.d.d.d.d.d.d#2.O.O.O.O.O.O.O.OaF.d.d.d.d.d.d.d.d.d.d.d.d.d.d.d.d.d.b.b.b.b#dQtQt.#",
".#Qt.#Qt.b.b.b.d.d.d.d.d.d.d.d.d.d.d.d.d.d.d.d.d.d.d.d.d.daG.O.O.O.O.O.O.O.OaC.d.d.d.d.d.d.d.d.d.d.d.d.d.d.d.d.b.b.b.b.bQtQt.#Qt",
".#.#QtQt.j.b.b.b.d.d.d.d.d.d.d.d.d.d.d.d.d.d.d.d.d.d.d.d.d#g.O.O.O.O.O.O.O.OaH.d.d.d.d.d.d.d.d.d.d.d.d.d.d.d.b.b.b.b.b.jQt.#Qt.#",
".#QtQtQtQtaI.b.b.d.d.d.d.d.d.d.d.d.d.d.d.d.d.d.d.d.d.d.d.d.daJ.O.O.O.O.O.O.OaK.d.d.d.d.d.d.d.d.d.d.d.d.d.d.d.b.b.b.baIQtQtQt.#Qt",
".#Qt.#.#QtQt.b.b.b.d.d.d.d.d.d.d.d.d.d.d.d.d.d.d.d.d.d.d.d.daLaM.O.O.O.O.OaN.d.d.d.d.d.d.d.d.d.d.d.d.d.d.d.b.b.b.b.b.#.#Qt.#.#.#",
".#.#.#.#Qt.#.#.b.b.b.d.d.d.d.d.d.d.d.d.d.d.d.d.d.d.d.d.d.d.d.daO#TaPaQaRaS.d.d.d.d.d.d.d.d.d.d.d.d.d.d.d.b.b.b.b.b.#.#Qt.#.#.#.#",
".#.#.#QtQt.#.#.g.b.b.b.d.d.d.d.d.d.d.d.d.d.d.d.d.d.d.d.d.d.d.d.d.d.d.d.d.d.d.d.d.d.d.d.d.d.d.d.d.d.d.d.b.b.b.b.b.jQtQtQt.#.#.#.#",
".#QtQt.#QtQtQtQtaT.b.b.b.b.d.d.d.d.d.d.d.d.d.d.d.d.d.d.d.d.d.d.d.d.d.d.d.d.d.d.d.d.d.d.d.d.d.d.d.d.b.b.b.b.b.b.AQtQtQt.#Qt.#QtQt",
"QtQt.#.#.#.#Qt.#.#aT.b.b.b.b.d.d.d.d.d.d.d.d.d.d.d.d.d.d.d.d.d.d.d.d.d.d.d.d.d.d.d.d.d.d.d.d.d.d.b.b.b.b.b.baT.#Qt.#Qt.#.#.#QtQt",
"Qt.#.s.s.saUQtQt.s.s.g.b.b.b.b.d.d.d.d.d.d.d.d.d.d.d.d.d.d.d.d.d.d.d.d.d.d.d.d.d.d.d.d.d.d.d.d.b.b.b.b.b.b.g.s.sQtaU.#.s.s.#.#Qt",
"Qt.#.s.#.#.#.#Qt.#.#.#.#.b.b.b.b.b.d.d.d.d.d.d.d.d.d.d.d.d.d.d.d.d.d.d.d.d.d.d.d.d.d.d.d.d.b.b.b.b.b.b.b.#.#.#.#Qt.#.#.#.#.#.#Qt",
"Qt.#.#.#.#QtQtQtQtQtQt.#Qt.i.b.b.b.b.b.d.d.d.d.d.d.d.d.d.d.d.d.d.d.d.d.d.d.d.d.d.d.d.d.b.b.b.b.b.b.b.i.#Qt.#Qt.#.#Qt.#.sQt.s.#Qt",
"Qt.#Qt.#Qt.#.#.#.#QtQtQtQtQt.j.b.b.b.b.b.b.b.d.d.d.d.d.d.d.d.d.d.d.d.d.d.d.d.d.d.b.b.b.b.b.b.b.b.b.g.#.#QtQt.#.#.#Qt.#Qt.#.#.#Qt",
"Qt.#QtQtQt.#.#.#QtQtQtQtQtQtQtQtaV.b.b.b.b.b.b.b.b.b.d.d.d.d.d.d.d.d.d.d.b.b.b.b.b.b.b.b.b.b.b#d.#.#.#QtQt.#.#.#.#.#QtQtQt.#.#Qt",
"QtQtQt.#.#.#.#QtQtQt.#QtQtQtQt.#.#.#.e.b.b.b.b.b.b.b.b.b.b.b.b.b.b.b.b.b.b.b.b.b.b.b.b.b.b#oQt.#.#.#QtQt.#Qt.#Qt.#QtQtQtQtQtQtQt",
"QtQt.#QtQt.#QtQtQt.#Qt.#.#QtQt.#.#QtQt.#Qt.b.b.b.b.b.b.b.b.b.b.b.b.b.b.b.b.b.b.b.b.b.c.#.#QtQt.#.#QtQt.#Qt.#QtQtQtQtQtQt.#.#QtQt",
"QtQt.#.#.#QtQtQt.#Qt.#QtQtQtQt.#Qt.#.#.#.#QtQtQt#U.b.b.b.b.b.b.b.b.b.b.b.b.b.b#U.#Qt.#QtQtQtQt.#Qt.#.#.#.#QtQtQtQtQt.#.#Qt.#QtQt"};
