/* XPM */
static char *dummy[]={
"64 64 170 2",
"Qt c #00000c",
".I c #000011",
".h c #000034",
".d c #000042",
".z c #000142",
".k c #00043f",
"#B c #010042",
".3 c #010142",
".Q c #020120",
"#y c #020141",
"#o c #020142",
".t c #021634",
".# c #021832",
"#V c #030242",
".C c #040243",
".X c #05030f",
".7 c #05033f",
"#E c #060443",
".T c #061931",
"#6 c #070443",
"#e c #07053e",
".U c #070543",
".y c #071931",
".e c #08053e",
".Z c #080543",
"#J c #090643",
"#k c #0a063d",
"#1 c #0a0643",
"al c #0a0743",
".R c #0b0744",
"#G c #0b0745",
".6 c #0c0844",
"a. c #0d0844",
"#a c #0d093b",
"#M c #0e0944",
".5 c #0f0a44",
".2 c #100a44",
".K c #110b44",
"ah c #120b44",
"#v c #120c39",
"a# c #120c45",
".P c #130d17",
"at c #130d38",
"#q c #140e38",
"aE c #141b2f",
".w c #160e45",
"#3 c #160f37",
".G c #170f45",
"#b c #181045",
"#H c #191135",
"aw c #1a1135",
"ar c #1a1146",
"#2 c #1b1146",
".N c #1b1247",
".a c #1b132e",
"aL c #1c1246",
".8 c #1c1334",
".o c #1d1346",
"#F c #1d1433",
"#. c #1e1346",
".L c #1f1f41",
"#0 c #201446",
"aq c #201547",
"#Y c #201632",
".p c #221647",
"#w c #221720",
"#I c #231647",
".j c #241821",
"#5 c #241830",
".M c #241c46",
"#7 c #251847",
"#C c #25192f",
"ax c #261847",
".F c #271947",
"#r c #271a23",
"#t c #271a2e",
"av c #281a48",
"#m c #281b24",
"aM c #281f2b",
".D c #291a48",
"au c #291c2d",
".s c #291f2b",
"#Q c #2a1b48",
"#f c #2a1c2d",
"#s c #2b1c48",
"#P c #2b1d25",
".c c #2b1d26",
".Y c #2b1d2c",
"ap c #2b202a",
".n c #2c1c48",
".4 c #2c1e2c",
"#U c #2d1d48",
"#d c #2e1d48",
"#p c #2e1e48",
"#T c #2e1f2a",
"#A c #2f1e49",
"aB c #2f2028",
".l c #301f49",
".9 c #302028",
"#l c #302029",
"#8 c #30202a",
".E c #302129",
".b c #312129",
".x c #322049",
"#Z c #332149",
"ak c #342149",
"#c c #342249",
".i c #352249",
"#L c #36234a",
"## c #37234a",
".q c #37244a",
"#g c #38244a",
"af c #39254a",
"#S c #3a254a",
"#O c #3b264a",
"aH c #3b2d49",
"ao c #3c274a",
".u c #3d274a",
"aF c #3d274b",
"#9 c #3f284b",
"aC c #3f294b",
"ac c #40294b",
".H c #432b4b",
"aA c #442c4b",
".J c #442c4d",
"aI c #462d4c",
"aa c #472e4c",
"#h c #482e4c",
"#W c #492f4c",
"#N c #4a2f4c",
".1 c #4a304c",
".m c #4b304c",
"#j c #4c314d",
".f c #4e324d",
"ai c #4f334d",
"ag c #50334d",
"#D c #50344d",
"ad c #51344d",
"aj c #52354d",
"#i c #53354e",
".S c #53364e",
"ae c #54364e",
"#K c #56374e",
".V c #57384e",
".v c #59394e",
".B c #5a3a4e",
"aJ c #5b3a4f",
".A c #5d3c4f",
"#X c #5e3c4f",
".r c #5e3d4f",
".O c #603e4f",
"#n c #613e4f",
"an c #613f50",
"aG c #623f50",
"#x c #644050",
"#z c #654150",
"#u c #674250",
"#4 c #684350",
"az c #694351",
"ay c #694451",
"aD c #6a4451",
"aN c #6b4551",
"aK c #6c4551",
"#R c #6c4651",
".0 c #6d4651",
"am c #6e4751",
"as c #6f4751",
".W c #6f4851",
"ab c #714952",
".g c #734a52",
"Qt.#.#QtQtQtQtQt.#.#.#QtQtQt.#Qt.#Qt.#QtQtQtQtQt.a.b.b.b.b.b.b.b.b.b.b.b.b.b.b.c.#.#.#QtQtQt.#Qt.#Qt.#QtQtQtQtQtQt.#QtQt.#QtQtQt",
"Qt.#.#QtQtQt.#QtQt.#QtQtQt.#Qt.#.#.#QtQtQt.d.d.d.d.e.f.g.g.g.g.g.g.g.g.g.b.b.b.b.b.b.bQtQt.#Qt.#.#.#QtQtQtQtQtQt.#QtQt.#QtQtQtQt",
"Qt.#.#QtQtQt.#Qt.#QtQtQtQtQt.#Qt.#Qt.h.d.d.d.d.d.d.d.d.i.g.g.g.g.g.g.g.g.g.g.g.g.b.b.b.b.b.j.#Qt.#QtQtQtQtQtQtQtQtQtQtQtQt.#QtQt",
"Qt.#QtQtQt.#.#.#QtQt.#.#Qt.#.#.#.k.d.d.d.d.d.d.d.d.d.d.d.l.g.g.g.g.g.g.m.n.o.p.q.r.g.g.b.b.b.b.s.#Qt.#.#QtQt.#.#Qt.#Qt.#Qt.#.#Qt",
"Qt.#.#.#Qt.#.#.#Qt.#.#Qt.#.#.t.d.d.d.d.d.d.d.d.d.d.d.d.d.d.u.g.g.g.v.w.d.d.d.d.d.d.x.g.g.g.b.b.b.b.y.#.#Qt.#.#.#.#Qt.#Qt.#.#.#Qt",
"QtQt.#.#.#.#.#.#QtQtQtQt.#.z.d.d.d.d.d.d.d.d.d.d.d.d.d.d.d.d.A.g.B.C.d.d.d.d.d.d.d.d.D.g.g.g.g.b.b.b.EQtQt.#.#.#.#.#.#.#Qt.#QtQt",
"Qt.#QtQt.#QtQtQtQtQtQt.#.d.d.d.d.d.d.d.d.d.d.d.d.d.d.d.d.d.d.F.g.G.d.d.d.d.d.d.d.d.d.d.H.g.g.g.g.b.b.b.bQtQtQtQt.#Qt.#QtQtQtQtQt",
"Qt.#.#.#.#Qt.#.#Qt.#.I.d.d.d.d.d.d.d.d.d.d.d.d.d.d.d.d.d.d.d.d.J.d.d.d.d.d.d.d.d.d.d.d.K.g.g.g.g.g.b.b.b.b.yQt.#.#.#.#Qt.#.#.#.#",
".#.#QtQt.L.#.L.LQt.M.d.d.d.d.d.d.d.d.d.d.d.d.d.d.d.d.d.d.d.d.d.N.d.d.d.d.d.d.d.d.d.d.d.d.O.g.g.g.g.g.g.b.b.b.PQt.L.L.#.#.L.#.L.#",
".#QtQt.L.#.#.#.#.Q.d.d.d.d.d.d.d.d.d.d.d.d.d.d.d.d.d.d.d.d.d.d.R.d.d.d.d.d.d.d.d.d.d.d.d.S.g.g.g.g.g.g.g.b.b.b.P.#.#.#.#.#.#Qt.#",
"QtQt.#.#Qt.#Qt.T.d.d.d.d.d.d.d.d.d.d.d.d.d.d.d.d.d.d.d.d.d.d.d.U.d.d.d.d.d.d.d.d.d.d.d.d.V.g.g.g.g.W.g.g.g.b.b.b.XQtQt.#Qt.#Qt.#",
".#.#.#.#QtQt.#.Y.d.d.d.d.d.d.d.d.d.d.d.d.d.d.d.d.d.d.d.d.d.d.d.Z.d.d.d.d.d.d.d.d.d.d.d.d.0.1.D.2.3.d.3.2.D.1.b.b.bQtQtQtQtQtQtQt",
".#.#.#QtQt.#.b.4.d.d.d.d.d.d.d.d.d.d.d.d.d.d.d.d.d.d.d.d.d.d.d.5.d.d.d.d.d.d.d.d.d.d.d.G.6.d.d.d.d.d.d.d.d.d.7.8.b.bQtQtQtQtQtQt",
".#.#QtQt.#.9.b.g.3.d.d.d.d.d.d.d.d.d.d.d.d.d.d.d.d.d.d.d.d.d.d#.##.d.d.d.d.d.d.d.d.d.3.d.d.d.d.d.d.d.d.d.d.d.d.d#a.4.EQtQtQtQt.#",
".#QtQt.#.X.b.g.g#b.d.d.d.d.d.d.d.d.d.d.d.d.d.d.d.d.d.d.d.d.d.d#c.g#d.d.d.d.d.d.d.d.d.d.d.d.d.d.d.d.d.d.d.d.d.d.d.d#e#f.y.#QtQt.#",
"Qt.#.#.#.b.g.g.g#g.d.d.d.d.d.d.d.d.d.d.d.d.d.d.d.d.d.d.d.d.d.d#h#i#j.l.K.d.d.d.d.Z.d.d.d.d.d.d.d.d.d.d.d.d.d.d.d.d.d#k#lQtQtQt.#",
".#Qt.##m.b.g.g.g#n.d.d.d.d.d.d.d.d.d.d.d.d.d.d.d.d.d.d.d.d.d#o.d.d.d.d.d.d.G#g#p.d.d.d.d.d.d.d.d.d.d.d.d.d.d.d.d.d.d.d#q#rQt.#Qt",
".#.#Qt.b.g.g.g.g.g#s.d.d.d.d.d.d.d.d.d.d.d.d.d.d.d.d.d.d.d.d.d.d.d.d.d.d.d.d.d.d.d.d.d.d.d.d.d.d.d.d.d.d.d.d.d.d.d.d.d.d#t.#Qt.#",
".#Qt.j.b.g.g.g.g.g#u.Z.d.d.d.d.d.d.d.d.d.d.d.d.d.d.d.d.d.d.d.d.d.d.d.d.d.d.d.d.d.d.d.d.d.d.d.d.d.d.d.d.d.d.d.d.d.d.d.d.d#v#w.#Qt",
".#Qt.b.g.g.g.g.g.g#x.J.d.d.d.d.d.d.d.d.d.d.d.d.d.d.d.d.d.d.d.d.d.d.d.d.d.d.d.d.d.d.d.d.d.d.d.d.d.d.d.d.d.d.d.d.d.d.d.d.d#y.b.#.#",
".#.#.b.g.g.g#z#A.Z.d.d#B.d.d.d.d.d.d.d.d.d.d.d.d.d.d.d.d.d.d.d.d.d.d.d.d.d.d.d.d.d.d.d.d.d.d.d.d.d.d.d.d.d.d.d.d.d.d.d.d.d#C.#.#",
".#.b.b.g.g#D#E.d.d.d.d.d.d.d.d.d.d.d.d.d.d.d.d.d.d.d.d.d.d.d.d.d.d.d.d.d.d.d.d.d.d.d.d.d.d.d.d.d.d.d.d.d.d.d.d.d.d.d.d.d.d#F.b.#",
".#.b.g.g.A#o.d.d.d.d.d.d.d.d.d#G.d.d.d.d.d.d.d.d.d.d.d.d.d.d.d.d.d.d.d.d.d.d.d.d.d.d.d.d.d.d.d.d.d.d.d.d.d.d.d.d.d.d.d.d.d#H.bQt",
"Qt.b.g.g#I.d.d.d.d.d.d.d.d.d.d#J#K#L#M.3.d.d#E.d.d.d.d.d.d.d.d.d.d.d.d.d.d.d.d.d.d.d.d.d.d.d.d.d.d.d.d.d.d.d.d.d.d.d.d.d.d#H.bQt",
".c.b.g#z.d.d.d.d.d.d.d.d.d.d.d.d#N#O.3.d.d.d.d.d.d.d.d.d.d.d.d.d.d.d.d.d.d.d.d.d.d.d.d.d.d.d.d.d.d.d.d.d.d.d.d.d.d.d.d.d.d#F.b#P",
".b.b.g.f.d.d.d.d.d.d.d.d.d.d.d.d#A.o.d.d.d.d.d.d.d.d.d.d.d.d.d.d.d.d.d.d.d.d.d.d.d.d.d.d.d.d.d.d.d.d.d.d.d.d.d.d.d.d.d.d.d#C.b.b",
".b.g.g#h.d.d.d.d.d.d.d.d.d.d.d.d#Q.o.d.d.d.d.d.d.d.d.d.d.d.d.d.d.d.d.d.d.d.d.d.d.d.d.d.d.d.d.d.d.d.d.d.d.d.d.d.d.d.d.d.d#E.b.b.b",
".b#R.m#I.d.d.d.d.d.d.d.d.d.d.d.d.q#S.3.d.d.d.d.d.d.d.d.d.d.d.d.d.d.d.d.d.d.d.d.d.d.d.d.d.d.d.d.d.d.d.d.d.d.d.d.d.d.d.d.d#p.b.b.b",
"#T#U#V.d.d.d.d.d.d.d.d.d.d.d.d.d#A#W#I#V.d.d.d.d.d.d.d.d.d.d.d.d.d.d.d.d.d.d.d.d.d.d.d.d.d.d.d.d.d.d.d.d.d.d.d.d.d.d.d.d#X.b.b.b",
"#Y#V.d.d.d.d.d.d.d.d.d.d.d.d.d.d.d.d.d.w.F.u.d.d.d.d.d.d.d.d.d.d.d.d.d.d.d.d.d.d.d.d.d.d.d.d.d.d.d.d.d.d.d.d.d.d.d.d.d#Z.g.b.b.b",
"#q.d.d.d.d.d.d.d.d.d.d.d.d.d.d.d.d.d.d.d.d#0#1.d.d.d.d.d.d.d.d.d.d.d.d.d.d.d.d.d.d.d.d.d.d.d.d.d.d.d.d.d.d.d.d.d.d.d#2.g.g.b.b.b",
"#3.d.d.d.d.d.d.d.d.d.d.d.d.d.d.d.d.d.d.d.d.d#o.d.d.d.d.d.d.d.d.d.d.d.d.d.d.d.d.d.d.d.d.d.d.d.d.d.d.d.d.d.d.d.d.d.d.G#4.g.g.b.b.b",
"#5.U.d.d.d.d#6.d.d.d.d.d.d.d.d.d.d.d.d.d.d.d.d.d.d.d.d.d.d.d.d.d.d.d.d.d.d.d.d.d.d.d.d.d.d.d.d.d.d.d.d.d.d.d.d.d#7.0.g.g.g.b.b.b",
"#8#9.6.d.3#J.d.d.d.d.d.d.d.d.d.d.d.d.d.d.d.d.d.d.d.d.d.d.d.d.d.d.d.d.d.d.d.d.d.d.d.d.d.da..d.d.d.d.d.d.d.d.da#aa.g.g.g.g.g.b.b.b",
".bab.A#Nac.d.d.d.d.d.d.d.d.d.d.d.d.d.d.d.d.d.d.d.d.d.d.d.d.d.d.d.d.d.d.d.d.d.d.d.d.d.d#A.gad.l.G#J.C#J.G.lad.g.g.g.g.g.g.g.b.b.b",
".b.g.g.g.n.d.d.d.d.d.d.d.d.d.d.d.d.d.d.d.d.d.d.d.d.d.d.d.d.d.d.d.d.d.d.d.d.d.d.d.d.d.o.g.g.gaeaf#A##ag.g.g.g.g.g.g.g.g.g.g.b.b.b",
".b.b.g#R.d.d.d.d.d.d.d.d.d.d.d.d.d.d.d.d.d.d.d.d.d.d.d.d.d.d.d.d.d.d.d.d.d.d.d.d.d#.#R.g.V#b.d.d.d.d.dahai.g.g.g.g.g.g.g.b.b.b.b",
".b.b.g#j.d.d.d.d.d.d.d.d.d.d.d.d.d.d.d.d.d.d.d.d.d.d#V.d.d.d.d.d.d.d.d.d.d.d.d.d.x.g.gaj.d.d.d.d.d.d.d.d.daa.g.g.g.g.g.g.b.b.b.b",
".b.b.gak.d.d.d.d.d.d.d.d.d.d.d.d.d.d.d.d.d.d.d.d.d.d.d.d.d.d.d.d.d.d.d.d.d.dal.f.g.gam.6.d.d.d.d.d.d.d.d.d.dan.g.g.g.g.g.b.b.b.b",
".c.b.g#7.d.d.d.d.d.d.d.d.d.d.d.d.d.d.d.d.d.d.d.d.d.d.d.d.d.d.d.d.d.d.d.d.d.d.da..A.gao.d.d.d.d.d.d.d.d.d.d.d#A.g.g.g.g.g.b.b.bap",
".#.b.baq.d.d.d.d.d.d.d.d.d.d.d.d.d.d.d.d.d.d.d.d.d.d.d.d.d.d.d.d.d.d.d.d.d.d.d.d.5#4ar.d.d.d.d.d.d.d.d.d.d.d.6.g.g.g.g.b.b.b.b.#",
".#.b.b#7.d.d.d.d.d.d.d.d.d.d.d.d.d.d.d.d.d.d.d.d.d.d.d.d.d.d.d.d.d.d.d.d.d.d.d.d.d#7#J.d.d.d.d.d.d.d.d.d.d.d.dam.g.g.g.b.b.b.b.#",
"Qt.b.bak.d.d.d.d.d.d.d.d.d.d.d.d.d.d.d.d.d.d.d.d.d.d.d.d.d.d.d.d.d.d.d.d.d.d.d.d.d.d.U.d.d.d.d.d.d.d.d.d.d.d.das.g.g.g.b.b.b.b.#",
".#.#.b#Y.d.d.d.d.d.d.d.d.d.d.d.d.d.d.d.d.d.d.d.d.d.d.d.d.d.d.d.d.d.d.d.d.d.d.d.d.d.d.Z.d.d.d.d.d.d.d.d.d.d.d.K.g.g.g.b.b.b.bQtQt",
".#.#.b#T.d.d.d.d.d.d.d.d.d.d.d.d.d.d.d.d.d.d.d.d.d.d.d.d.d.d.d.d.d.d.d.d.d.d.d.d.d.d.d.d.d.d.d.d.d.d.d.d.d.d.q.g.g.g.b.b.b.bQtQt",
".#.#.j.bat.d.d.d.d.d.d.d.d.d.d.d.d.d.d.d.d.d.d.d.d.d.d.d.d.d.d.d.d.d.d.d.d.d.d.d.d.d.d#M.d.d.d.d.d.d.d.d.da.#R.g.g.b.b.b.b#wQt.#",
".#QtQt.bau.d.d.d.d.d.d.d.d.d.d.d.d.d.d.d.d.d.d.d.d.d.d.d.d.d.d.d.d.d.d.d.d.d.d.d.d.d.dav.5.d.d.d.d.d.d.d#E#K.g.g.g.b.b.b.bQtQt.#",
"Qt.#.#.s.baw.d.d.d.d.d.d.d.d.d.d.d.d.d.d.d.d.d.d.d.d.d.d.d.d.d.d.d.d.d.d.d.d.d.d.d.d.daxay#s.d.d.d.d.d#7#n.g.g.g.b.b.b.b#rQtQt.#",
".#Qt.#Qt.b.bat.d.d.d.d.d.d.d.d.d.d.d.d.d.d.d.d.d.d.d.d.d.d.d.d.d.d.d.d.d.d.d.d.d.d.d.d#7.g.gaz.faA#j#z.g.g.g.g.b.b.b.b.bQtQt.#Qt",
".#.#QtQt.X.b.bat.d.d.d.d.d.d.d.d.d.d.d.d.d.d.d.d.d.d.d.d.d.d.d.d.d.d.d.d.d.d.d.d.d.d.d#d.g.g.g.g.g.g.g.g.g.g.b.b.b.b.b.XQt.#Qt.#",
".#QtQtQtQtaB.b.b.H#E.d.d.d.d.d.d.d.d.d.d.d.d.d.d.d.d.d.d.d.d.d.d.d.d.d.d.d.d.d.d.d.d.daC.g.g.g.g.g.g.g.g.g.g.b.b.b.baBQtQtQt.#Qt",
".#Qt.#.#QtQt.b.b.baDaf.5.d.d.d.d.d.d.daq.5.d.d.d.d.d.d.d.d.d.d.d.d.d.d.d.d.d.d.d.d.d.d#O.g.g.g.g.g.g.g.g.g.b.b.b.b.b.#.#Qt.#.#.#",
".#.#.#.#Qt.#.#.b.b.b.g.g.r#Wao#SacadaD.gao.d.d.d.d.d.d.d.d.d.d.d.d.d.d.d.d.d.d.d.d.d.d.way.g.g.g.g.g.g.g.b.b.b.b.b.#.#Qt.#.#.#.#",
".#.#.#QtQt.#.#.y.b.b.b.g.g.g.g.g.g.g.g.gaD.C.d.d.d.d.d.d.d.d.d.d.d.d.d.d.d.d.d.d.d.d.d.Z.A.g.g.g.g.g.g.b.b.b.b.b.XQtQtQt.#.#.#.#",
".#QtQt.#QtQtQtQtaE.b.b.b.b.g.g.g.g.g.g.g.gaF.d.d.d.d.d.d.d.d.d.d.d.d.d.d.d.d.d.d.d.d.d.6aG.g.g.g.g.b.b.b.b.b.b.PQtQtQt.#Qt.#QtQt",
"QtQt.#.#.#.#Qt.#.#aE.b.b.b.b.g.g.g.g.g.g.g.g#I.d.d.d.d.d.d.d.d.d.d.d.d.d.d.d.d.d.d.d.d#Q.W.g.g.g.b.b.b.b.b.baE.#Qt.#Qt.#.#.#QtQt",
"Qt.#.L.L.LaHQtQt.L.L.y.b.b.b.b.g.g.g.g.g.g.gam#2.d.d.d.d.d.d.d.d.d.d.d.d.d.d.d.d#o.Z.F#z.g.g.g.b.b.b.b.b.b.y.L.LQtaH.#.L.L.#.#Qt",
"Qt.#.L.#.#.#.#Qt.#.#.#.#.b.b.b.b.b.g.g.g.g.g.g.W.F.d.d.d.d.d.d.d.d.d.d.d.d.da.aI#iaJam.g.g.b.b.b.b.b.b.b.#.#.#.#Qt.#.#.#.#.#.#Qt",
"Qt.#.#.#.#QtQtQtQtQtQt.#Qt.E.b.b.b.b.b.g.g.g.g.g.gaI.5.d.d.d.d.d.d.d.d.d.d.laK.g.g.g.g.b.b.b.b.b.b.b.E.#Qt.#Qt.#.#Qt.#.LQt.L.#Qt",
"Qt.#Qt.#Qt.#.#.#.#QtQtQtQtQt.X.b.b.b.b.b.b.b.g.g.g.g.g.mava..d.d.d#EaLao#z.g.g.g.b.b.b.b.b.b.b.b.b.y.#.#QtQt.#.#.#Qt.#Qt.#.#.#Qt",
"Qt.#QtQtQt.#.#.#QtQtQtQtQtQtQtQtaM.b.b.b.b.b.b.b.b.b.g.g.g.gas#4aN.g.g.g.b.b.b.b.b.b.b.b.b.b.b#r.#.#.#QtQt.#.#.#.#.#QtQtQt.#.#Qt",
"QtQtQt.#.#.#.#QtQtQt.#QtQtQtQt.#.#.#.j.b.b.b.b.b.b.b.b.b.b.b.b.b.b.b.b.b.b.b.b.b.b.b.b.b.b#wQt.#.#.#QtQt.#Qt.#Qt.#QtQtQtQtQtQtQt",
"QtQt.#QtQt.#QtQtQt.#Qt.#.#QtQt.#.#QtQt.#Qt.b.b.b.b.b.b.b.b.b.b.b.b.b.b.b.b.b.b.b.b.b.b.#.#QtQt.#.#QtQt.#Qt.#QtQtQtQtQtQt.#.#QtQt",
"QtQt.#.#.#QtQtQt.#Qt.#QtQtQtQt.#Qt.#.#.#.#QtQtQt#P.b.b.b.b.b.b.b.b.b.b.b.b.b.b#P.#Qt.#QtQtQtQt.#Qt.#.#.#.#QtQtQtQtQt.#.#Qt.#QtQt"};
