/* XPM */
static char *missile_pu0_xpm[]={
"64 64 9 1",
". c None",
"# c #282828",
"g c #605850",
"f c #808078",
"d c #b87000",
"b c #b8c8b8",
"c c #d83890",
"e c #f8b000",
"a c #f8f8f8",
"................................................................",
"................................................................",
"................................................................",
"................................................................",
"................................................................",
"................................................................",
"................................................................",
"................................................................",
"................................................................",
"................................................................",
"................................................................",
"................................................................",
"................................................................",
"................................................................",
"................................................................",
"................................................................",
"................................................................",
"................................................................",
"................................................................",
"................................................................",
"................................................................",
"................................................................",
"................................................................",
"................................................................",
"................................................................",
"................................................................",
"................................................................",
"................................................................",
"................................................................",
"................................................................",
"................................................................",
"................................................................",
"..........................##aaaabbbb##..........................",
"..........................##aaaabbbb##..........................",
"......................##aaaa########bbbb##......................",
"......................##aaaa########bbbb##......................",
"....................##aa####..####..####bb##....................",
"....................##aa####..####..####bb##....................",
"....................aa##....##cccc##....##bb....................",
"....................aa##....##cccc##....##bb....................",
"..................##aa##..##ccaacccc##..##bb##..................",
"..................##aa##..##ccaacccc##..##bb##..................",
"..................aa##....##cccccccc##....##bb..................",
"..................aa##....##cccccccc##....##bb..................",
"..................aa##....##ddeedddd##....##bb..................",
"..................aa##....##ddeedddd##....##bb..................",
"..................aa##....##bbaa##bb##....##bb..................",
"..................aa##....##bbaa##bb##....##bb..................",
"..................aa##....####ffff####....##bb..................",
"..................aa##....####ffff####....##bb..................",
"..................aa##....##ffaabbff##....##bb..................",
"..................aa##....##ffaabbff##....##bb..................",
"..................aa##....##ffaabbff##....##bb..................",
"..................aa##....##ffaabbff##....##bb..................",
"..................aa##..aa####gggg####aa..##bb..................",
"..................aa##..aa####gggg####aa..##bb..................",
"..................aa##..aaffbbaa##ffffbb..##bb..................",
"..................aa##..aaffbbaa##ffffbb..##bb..................",
"..................aa####bbffbbaa##ffbbbb####bb..................",
"..................aa####bbffbbaa##ffbbbb####bb..................",
"..................bb########ffffffff########ff..................",
"..................bb########ffffffff########ff..................",
"..................ffffffbbbbbbbbbbbbbbbbffffff..................",
"..................ffffffbbbbbbbbbbbbbbbbffffff.................."};
