/* XPM */
static char *dummy[]={
"48 32 4 1",
". c #000042",
"b c #285000",
"a c #48a838",
"# c #88e810",
"..############################################..",
"..############################################..",
"####aaaaaaaaaaaaaaaaaaaaaaaaaaaaaaaaaaaaaaaa####",
"####aaaaaaaaaaaaaaaaaaaaaaaaaaaaaaaaaaaaaaaa####",
"##aaaaaaaaaaaaaaaaaabbbbbbbbaaaaaaaaaaaaaaaaaa##",
"##aaaaaaaaaaaaaaaaaabbbbbbbbaaaaaaaaaaaaaaaaaa##",
"##aaaaaaaaaaaaaaaabbbb##aabbbbaaaaaaaaaaaaaaaa##",
"##aaaaaaaaaaaaaaaabbbb##aabbbbaaaaaaaaaaaaaaaa##",
"##aaaaaaaaaaaaaaaabb####aaaabbaaaaaaaaaaaaaaaa##",
"##aaaaaaaaaaaaaaaabb####aaaabbaaaaaaaaaaaaaaaa##",
"##aaaaaaaaaaaaaaaabb####aaaabbaaaaaaaaaaaaaaaa##",
"##aaaaaaaaaaaaaaaabb####aaaabbaaaaaaaaaaaaaaaa##",
"##aaaaaaaaaaaaaaaabbbbbbbbbbbbaaaaaaaaaaaaaaaa##",
"##aaaaaaaaaaaaaaaabbbbbbbbbbbbaaaaaaaaaaaaaaaa##",
"##aaaaaaaaaaaaaaaabb####aaaabbaaaaaaaaaaaaaaaa##",
"##aaaaaaaaaaaaaaaabb####aaaabbaaaaaaaaaaaaaaaa##",
"##aaaaaaaaaaaaaaaabbbbbbbbbbbbaaaaaaaaaaaaaaaa##",
"##aaaaaaaaaaaaaaaabbbbbbbbbbbbaaaaaaaaaaaaaaaa##",
"##aaaaaaaaaaaaaaaabb####aaaabbaaaaaaaaaaaaaaaa##",
"##aaaaaaaaaaaaaaaabb####aaaabbaaaaaaaaaaaaaaaa##",
"##aaaaaaaaaaaabbbbbb####aaaabbbbbbaaaaaaaaaaaa##",
"##aaaaaaaaaaaabbbbbb####aaaabbbbbbaaaaaaaaaaaa##",
"##aaaaaaaaaaaabb##bb####bbaabb##bbaaaaaaaaaaaa##",
"##aaaaaaaaaaaabb##bb####bbaabb##bbaaaaaaaaaaaa##",
"##aaaaaaaaaaaabb##aa####bbaaaa##bbaaaaaaaaaaaa##",
"##aaaaaaaaaaaabb##aa####bbaaaa##bbaaaaaaaaaaaa##",
"##aaaaaaaaaaaabb##bb####bbaabb##bbaaaaaaaaaaaa##",
"##aaaaaaaaaaaabb##bb####bbaabb##bbaaaaaaaaaaaa##",
"####aaaaaaaaaabbbbbbbbbbbbbbbbbbbbaaaaaaaaaa####",
"####aaaaaaaaaabbbbbbbbbbbbbbbbbbbbaaaaaaaaaa####",
"..############################################..",
"..############################################.."};
