/* XPM */
static char *missile_on_xpm[]={
"48 32 4 1",
". c None",
"a c #de3994",
"b c #b50031",
"# c #e7ade7",
"..############################################..",
"..############################################..",
"####aaaaaaaaaaaaaaaaaaaaaaaaaaaaaaaaaaaaaaaa####",
"####aaaaaaaaaaaaaaaaaaaaaaaaaaaaaaaaaaaaaaaa####",
"##aaaaaaaaaaaaaaaaaabbbbbbbbaaaaaaaaaaaaaaaaaa##",
"##aaaaaaaaaaaaaaaaaabbbbbbbbaaaaaaaaaaaaaaaaaa##",
"##aaaaaaaaaaaaaaaabbbb##aabbbbaaaaaaaaaaaaaaaa##",
"##aaaaaaaaaaaaaaaabbbb##aabbbbaaaaaaaaaaaaaaaa##",
"##aaaaaaaaaaaaaaaabb####aaaabbaaaaaaaaaaaaaaaa##",
"##aaaaaaaaaaaaaaaabb####aaaabbaaaaaaaaaaaaaaaa##",
"##aaaaaaaaaaaaaaaabb####aaaabbaaaaaaaaaaaaaaaa##",
"##aaaaaaaaaaaaaaaabb####aaaabbaaaaaaaaaaaaaaaa##",
"##aaaaaaaaaaaaaaaabbbbbbbbbbbbaaaaaaaaaaaaaaaa##",
"##aaaaaaaaaaaaaaaabbbbbbbbbbbbaaaaaaaaaaaaaaaa##",
"##aaaaaaaaaaaaaaaabb####aaaabbaaaaaaaaaaaaaaaa##",
"##aaaaaaaaaaaaaaaabb####aaaabbaaaaaaaaaaaaaaaa##",
"##aaaaaaaaaaaaaaaabbbbbbbbbbbbaaaaaaaaaaaaaaaa##",
"##aaaaaaaaaaaaaaaabbbbbbbbbbbbaaaaaaaaaaaaaaaa##",
"##aaaaaaaaaaaaaaaabb####aaaabbaaaaaaaaaaaaaaaa##",
"##aaaaaaaaaaaaaaaabb####aaaabbaaaaaaaaaaaaaaaa##",
"##aaaaaaaaaaaabbbbbb####aaaabbbbbbaaaaaaaaaaaa##",
"##aaaaaaaaaaaabbbbbb####aaaabbbbbbaaaaaaaaaaaa##",
"##aaaaaaaaaaaabb##bb####bbaabb##bbaaaaaaaaaaaa##",
"##aaaaaaaaaaaabb##bb####bbaabb##bbaaaaaaaaaaaa##",
"##aaaaaaaaaaaabb##aa####bbaaaa##bbaaaaaaaaaaaa##",
"##aaaaaaaaaaaabb##aa####bbaaaa##bbaaaaaaaaaaaa##",
"##aaaaaaaaaaaabb##bb####bbaabb##bbaaaaaaaaaaaa##",
"##aaaaaaaaaaaabb##bb####bbaabb##bbaaaaaaaaaaaa##",
"####aaaaaaaaaabbbbbbbbbbbbbbbbbbbbaaaaaaaaaa####",
"####aaaaaaaaaabbbbbbbbbbbbbbbbbbbbaaaaaaaaaa####",
"..############################################..",
"..############################################.."};
