/* XPM */
static const char *missile_on_xpm[]={
"48 32 4 1",
". c None",
"b c #50002e",
"a c #e81099",
"# c #ff7fa2",
"..############################################..",
"..############################################..",
"####aaaaaaaaaaaaaaaaaaaaaaaaaaaaaaaaaaaaaaaa####",
"####aaaaaaaaaaaaaaaaaaaaaaaaaaaaaaaaaaaaaaaa####",
"##aaaaaaaaaaaaaaaaaabbbbbbbbaaaaaaaaaaaaaaaaaa##",
"##aaaaaaaaaaaaaaaaaabbbbbbbbaaaaaaaaaaaaaaaaaa##",
"##aaaaaaaaaaaaaaaabbbb##aabbbbaaaaaaaaaaaaaaaa##",
"##aaaaaaaaaaaaaaaabbbb##aabbbbaaaaaaaaaaaaaaaa##",
"##aaaaaaaaaaaaaaaabb####aaaabbaaaaaaaaaaaaaaaa##",
"##aaaaaaaaaaaaaaaabb####aaaabbaaaaaaaaaaaaaaaa##",
"##aaaaaaaaaaaaaaaabb####aaaabbaaaaaaaaaaaaaaaa##",
"##aaaaaaaaaaaaaaaabb####aaaabbaaaaaaaaaaaaaaaa##",
"##aaaaaaaaaaaaaaaabbbbbbbbbbbbaaaaaaaaaaaaaaaa##",
"##aaaaaaaaaaaaaaaabbbbbbbbbbbbaaaaaaaaaaaaaaaa##",
"##aaaaaaaaaaaaaaaabb####aaaabbaaaaaaaaaaaaaaaa##",
"##aaaaaaaaaaaaaaaabb####aaaabbaaaaaaaaaaaaaaaa##",
"##aaaaaaaaaaaaaaaabbbbbbbbbbbbaaaaaaaaaaaaaaaa##",
"##aaaaaaaaaaaaaaaabbbbbbbbbbbbaaaaaaaaaaaaaaaa##",
"##aaaaaaaaaaaaaaaabb####aaaabbaaaaaaaaaaaaaaaa##",
"##aaaaaaaaaaaaaaaabb####aaaabbaaaaaaaaaaaaaaaa##",
"##aaaaaaaaaaaabbbbbb####aaaabbbbbbaaaaaaaaaaaa##",
"##aaaaaaaaaaaabbbbbb####aaaabbbbbbaaaaaaaaaaaa##",
"##aaaaaaaaaaaabb##bb####bbaabb##bbaaaaaaaaaaaa##",
"##aaaaaaaaaaaabb##bb####bbaabb##bbaaaaaaaaaaaa##",
"##aaaaaaaaaaaabb##aa####bbaaaa##bbaaaaaaaaaaaa##",
"##aaaaaaaaaaaabb##aa####bbaaaa##bbaaaaaaaaaaaa##",
"##aaaaaaaaaaaabb##bb####bbaabb##bbaaaaaaaaaaaa##",
"##aaaaaaaaaaaabb##bb####bbaabb##bbaaaaaaaaaaaa##",
"####aaaaaaaaaabbbbbbbbbbbbbbbbbbbbaaaaaaaaaa####",
"####aaaaaaaaaabbbbbbbbbbbbbbbbbbbbaaaaaaaaaa####",
"..############################################..",
"..############################################.."};
