/* XPM */
static char *missile_pu1_xpm[]={
"64 64 9 1",
". c None",
"# c #282828",
"g c #605850",
"b c #808078",
"e c #b87000",
"a c #b8c8b8",
"c c #d83890",
"f c #f8b000",
"d c #f8f8f8",
"................................................................",
"................................................................",
"................................................................",
"................................................................",
"................................................................",
"................................................................",
"................................................................",
"................................................................",
"................................................................",
"................................................................",
"................................................................",
"................................................................",
"................................................................",
"................................................................",
"................................................................",
"................................................................",
"................................................................",
"................................................................",
"................................................................",
"................................................................",
"................................................................",
"................................................................",
"................................................................",
"................................................................",
"................................................................",
"................................................................",
"................................................................",
"................................................................",
"................................................................",
"................................................................",
"................................................................",
"................................................................",
"..........................##aaaabbbb##..........................",
"..........................##aaaabbbb##..........................",
"......................##aaaa########bbbb##......................",
"......................##aaaa########bbbb##......................",
"....................##aa####..####..####bb##....................",
"....................##aa####..####..####bb##....................",
"....................aa##....##cccc##....##bb....................",
"....................aa##....##cccc##....##bb....................",
"..................##aa##..##ccddcccc##..##bb##..................",
"..................##aa##..##ccddcccc##..##bb##..................",
"..................aa##....##cccccccc##....##bb..................",
"..................aa##....##cccccccc##....##bb..................",
"..................aa##....##eeffeeee##....##bb..................",
"..................aa##....##eeffeeee##....##bb..................",
"..................aa##....##bbdd##bb##....##bb..................",
"..................aa##....##bbdd##bb##....##bb..................",
"..................aa##....####gggg####....##bb..................",
"..................aa##....####gggg####....##bb..................",
"..................aa##....##ggddbbgg##....##bb..................",
"..................aa##....##ggddbbgg##....##bb..................",
"..................aa##....##ggddbbgg##....##bb..................",
"..................aa##....##ggddbbgg##....##bb..................",
"..................aa##..dd####gggg####aa..##bb..................",
"..................aa##..dd####gggg####aa..##bb..................",
"..................aa##..aaggbbdd##ggggbb..##bb..................",
"..................aa##..aaggbbdd##ggggbb..##bb..................",
"..................aa####bbggbbdd##ggbbbb####bb..................",
"..................aa####bbggbbdd##ggbbbb####bb..................",
"..................bb########gggggggg########gg..................",
"..................bb########gggggggg########gg..................",
"..................ggggbbbbbbaaaaaaaabbbbbbgggg..................",
"..................ggggbbbbbbaaaaaaaabbbbbbgggg.................."};
