/* XPM */
static char *dummy[]={
"64 64 11 1",
"f c #000000",
". c #000042",
"g c #180008",
"# c #181818",
"h c #481838",
"a c #604840",
"i c #783070",
"b c #986858",
"c c #d08870",
"e c #f82018",
"d c #f85818",
"...#aaaaaaaaaaaaaaaaaaaaaa###......###aaaaaaaaaaaaaaaaaaaaaa#...",
".#aabccccccccbccbaccccccbbaaa#....#aaabbccccccabccbccccccccbaa#.",
".aaccbbcbccbbcbbcbbbcbcbbccbba#..#abbccbbcbcbbbcbbcbbccbcbbccaa.",
"#acbbcbbabbaabaabababababbccaaa..aaaccbbababababaabaabbabbcbbca#",
"aaccaaaaaadeeaaaaaaaaaaaababcab##bacbabaaaaaaaaaaaaeedaaaaaaccaa",
"ababbbaae#####eaa#baaaaaaababaabbaababaaaaaaab#aae#####eaabbbaba",
"abccabaa##aaaa#aba#aaabbaaabbabbbbabbaaabbaaa#aba#aaaa##aabaccba",
"abcaabaa#abbba#bab#aaa####abacabbacaba####aaa#bab#abbba#aabaacba",
"aabcbaba#abcba#baa#aa##aa##bbcbbbbcbb##aa##aa#aab#abcba#ababcbaa",
"eababbaaabcbaa#baaaa##aaab#abcbbbbcba#baaa##aaaab#aabcbaaabbabae",
"#eacbabbabbcaa#bba#aaa###aabbcbbbbcbbaa###aaa#abb#aacbbabbabcae#",
"#daabcbcbcaaad#bbb#aba#abacabaabbaabacaba#aba#bbb#daaacbcbcbaad#",
".#eaaaaaaaaa#ffbab#aca#ccaaabaabbaabaaacc#aca#babff#aaaaaaaaae#.",
".f#e#dd#a#de#ffbabaacaaaaacabcbbbbcbacaaaaacaababff#ed#a#dd#e#f.",
"..f#########ff..ba#abcaaacbabcbbbbcbabcaaacba#ab..ff#########f..",
"...#fffff#f#f...bbaaabccccabacbbbbcabaccccbaaabb...f#f#fffff#...",
"gggghghgihh#aggi#baabbaaaaaaabcaacbaaaaaaabbaab#ihh#aggi#gggghhh",
"aababaa#bbbegcbb#b#aabaaaaabcacaacacbaaaaabaa#b#bbbegcbbg#abbbab",
"dbebeebabcbbhbac#b#aaaaaabccccaccaccccbaaaaaa#b#bcbbhbachabdbdec",
"cccbccdbabaahaba#b#aaaaabcacb#aaaa#bcacbaaaaa#b#abaahabah#acccbc",
"cbccccbaahighggg#b#abbbccaaa##abba##aaaccbbba#b#ahighggggabcbccc",
"bbcccccbgebcbbcbaaa#accaabb###a##a###bbaacca#aaagebcbbcbg#bbcccc",
"ccbcbcbahaabbccb#abaccabba##aaabbaaa##abbaccaba#haabbccbhaabcbcb",
"baabbbb#habaaaaadab#accaa##aaaaaaaaaa##aacca#badhabaaaaaf#aabbba",
"ihh#aggiihh#aggii#ab#a####aaaaaaaaaaaa####a#ba#iihh#aggiihh#aggi",
"bbbegcbbbbbegcbbbe#b##a##abaabbaabbaaba##a##b#ebbbbegcbbbbbegcbb",
"bcbbhbacbcbbhbacb#e#bba#aa###a####a###aa#abb#e#cbcbbhbacbcbbhbac",
"abaahabaabaahabaaf#e#aaabbaaabccccbaaabbaaa#e#faabaahabaabaahaba",
"ahighgggahighgggah#fee#aa##############aa#eef#ggahighgggahighggg",
"gebcbbcbgebcbbcbgeb###de#eeeedd##ddeeee#ed###bcbgebcbbcbgebcbbcb",
"haabbccbhaabbccbhaabbf#######f####f#######fbbccbhaabbccbhaabbccb",
"habaaaaahabaaaaahabaaaaff#ff#ff##ff#ff#ffabaaaaahabaaaaahabaaaaa",
"ihh#aggi#gggghhhgggghghgihh#aggiihh#aggi#gggghhhgggghghgihh#aggi",
"bbbegcbbg#abbbabaababaa#bbbegcbbbbbegcbbg#abbbabaababaa#bbbegcbb",
"bcbbhbachabdbdecdbebeebabcbbhbacbcbbhbachabdbdecdbebeebabcbbhbac",
"abaahabah#acccbccccbccdbabaahabaabaahabah#acccbccccbccdbabaahaba",
"ahighggggabcbccccbccccbaahighgggahighggggabcbccccbccccbaahighggg",
"gebcbbcbg#bbccccbbcccccbgebcbbcbgebcbbcbg#bbccccbbcccccbgebcbbcb",
"haabbccbhaabcbcbccbcbcbahaabbccbhaabbccbhaabcbcbccbcbcbahaabbccb",
"habaaaaaf#aabbbabaabbbb#habaaaaahabaaaaaf#aabbbabaabbbb#habaaaaa",
"ihh#aggiihh#aggiihh#aggiihh#aggiihh#aggiihh#aggiihh#aggiihh#aggi",
"bbbegcbbbbbegcbbbbbegcbbbbbegcbbbbbegcbbbbbegcbbbbbegcbbbbbegcbb",
"bcbbhbacbcbbhbacbcbbhbacbcbbhbacbcbbhbacbcbbhbacbcbbhbacbcbbhbac",
"abaahabaabaahabaabaahabaabaahabaabaahabaabaahabaabaahabaabaahaba",
"ahighgggahighgggahighgggahighgggahighgggahighgggahighgggahighggg",
"gebcbbcbgebcbbcbgebcbbcbgebcbbcbgebcbbcbgebcbbcbgebcbbcbgebcbbcb",
"haabbccbhaabbccbhaabbccbhaabbccbhaabbccbhaabbccbhaabbccbhaabbccb",
"habaaaaahabaaaaahabaaaaahabaaaaahabaaaaahabaaaaahabaaaaahabaaaaa",
"gggghghgihh#aggiihh#aggi#gggghhhgggghghgihh#aggiihh#aggi#gggghhh",
"aababaa#bbbegcbbbbbegcbbg#abbbabaababaa#bbbegcbbbbbegcbbg#abbbab",
"dbebeebabcbbhbacbcbbhbachabdbdecdbebeebabcbbhbacbcbbhbachabdbdec",
"cccbccdbabaahabaabaahabah#acccbccccbccdbabaahabaabaahabah#acccbc",
"cbccccbaahighgggahighggggabcbccccbccccbaahighgggahighggggabcbccc",
"bbcccccbgebcbbcbgebcbbcbg#bbccccbbcccccbgebcbbcbgebcbbcbg#bbcccc",
"ccbcbcbahaabbccbhaabbccbhaabcbcbccbcbcbahaabbccbhaabbccbhaabcbcb",
"baabbbb#habaaaaahabaaaaaf#aabbbabaabbbb#habaaaaahabaaaaaf#aabbba",
"ihh#aggiihh#aggiihh#aggiihh#aggiihh#aggiihh#aggiihh#aggiihh#aggi",
"bbbegcbbbbbegcbbbbbegcbbbbbegcbbbbbegcbbbbbegcbbbbbegcbbbbbegcbb",
"bcbbhbacbcbbhbacbcbbhbacbcbbhbacbcbbhbacbcbbhbacbcbbhbacbcbbhbac",
"abaahabaabaahabaabaahabaabaahabaabaahabaabaahabaabaahabaabaahaba",
"ahighgggahighgggahighgggahighgggahighgggahighgggahighgggahighggg",
"gebcbbcbgebcbbcbgebcbbcbgebcbbcbgebcbbcbgebcbbcbgebcbbcbgebcbbcb",
"haabbccbhaabbccbhaabbccbhaabbccbhaabbccbhaabbccbhaabbccbhaabbccb",
"habaaaaahabaaaaahabaaaaahabaaaaahabaaaaahabaaaaahabaaaaahabaaaaa"};
