/* XPM */
static char *outside_floor_xpm[]={
"32 32 7 1",
"# c #000808",
". c #082018",
"d c #182818",
"a c #283050",
"e c #304018",
"b c #484058",
"c c #486038",
".....................#ab........",
"a.a...c.d.e....a.aa.##.aaa.a.a..",
".....dddc.de.......###..a......a",
"..e.ed#ddddddde......##.........",
"...d#d.d##d#.#d.ab.........aa...",
"a......#......##.aaaa.....#.ba..",
"..........aa...##.a....####...aa",
"..........................##a...",
".........#ab....................",
"....a.a###..baaaa.a...c.d.e....a",
".e......##...........dddc.de....",
"ddd.e.....#.......e.ed#ddddddde.",
"d.ddaaa............d#d.d##d#.#d.",
"d.##..ba........a......#......##",
".####..aaa................aa...#",
"....##..........................",
".....................#ab........",
"a.a...c.d.e....a.aa.##.aaa.a.a..",
".....dddc.de.......###..a......a",
"..e.ed#ddddddde......##.........",
"...d#d.d##d#.#d.ab.........aa...",
"a......#......##.aaaa.....#.ba..",
"..........aa...##.a....####...aa",
"..........................##a...",
".........#ab....................",
"....a.a###..baaaa.a...c.d.e....a",
".e......##...........dddc.de....",
"ddd.e.....#.......e.ed#ddddddde.",
"d.ddaaa............d#d.d##d#.#d.",
"d.##..ba........a......#......##",
".####..aaa................aa...#",
"....##.........................."};
