/* XPM */
static char *dummy[]={
"128 128 16 1",
". c None",
"# c #181800",
"a c #303000",
"b c #404008",
"j c #484810",
"h c #500000",
"c c #585820",
"k c #686830",
"d c #808040",
"e c #909058",
"i c #a00030",
"l c #a8a868",
"f c #a8a870",
"g c #d8d888",
"m c #e80070",
"n c #f8f8f8",
"................................................................................................................................",
"................................................................................................................................",
"................................................................................................................................",
"................................................................................................................................",
"................................................................................................................................",
"..............................................................####..............................................................",
"............................................................#aaaaaa#............................................................",
"..........................................................##abcddcba##..........................................................",
".........................................................##abddeeddba##.........................................................",
".......................................................##aabcdeffedcbaa##.......................................................",
".....................................................##aaabcddfggfddcbaaa##.....................................................",
"..................................................####aaaabcdefggfedcbaaaa####..................................................",
"................................................#####aaaabbcdefggfedcbbaaaa#####................................................",
"..............................................#######aaabbcddfggggfddcbbaaa#######..............................................",
"............................................####aaa#aaabbbcdefggggfedcbbbaaa#aaa####............................................",
"..........................................####aaaaaaaabbcccdefggggfedcccbbaaaaaaaa####..........................................",
".........................................###aaaaaaaaaabccccddfggggfddccccbaaaaaaaaaa###.........................................",
"........................................####aaaabbaaaabcccdcdffggffdcdcccbaaaabbaaaa####........................................",
".......................................##a##aaabbbaaaacccdccdffggffdccdcccaaaabbbaaa##a##.......................................",
"......................................##aaaaaabbbcaaabccdcdcdffggffdcdcdccbaaacbbbaaaaaa##......................................",
".....................................##aaaaaaaacaabaabcdcdccdffggffdccdcdcbaabaacaaaaaaaa##.....................................",
"....................................##aaaabaaaacacabbbceecdcdffggffdcdceecbbbacacaaaabaaaa##....................................",
"...................................###aaabbbaaabccabbbceedccdffggffdccdeecbbbaccbaaabbbaaa###...................................",
"..................................####aabbabbbbaabbbbcdeecdccffggffccdceedcbbbbaabbbbabbaa####..................................",
"..................................####abbaaaccbbbbbbbddfedcccffggffcccdefddbbbbbbbccaaabba####..................................",
".................................#####aabcaacccbbbbcccdfecdccdfggfdccdcefdcccbbbbcccaacbaa#####.................................",
".................................####aaabbccccbdccccdddffecccffggffccceffdddccccdbccccbbaaa####.................................",
"................................##aaaaabbcaacededededefffedccdfggfdccdefffededededecaacbbaaaaa##................................",
"................................#aaaaabbbbcceefdededeffffecdcdfggfdcdceffffedededfeeccbbbbaaaaa#................................",
"...............................##aaababbbbdcceeeffffffgffedccdfggfdccdeffgffffffeeeccdbbbbabaaa##...............................",
"...............................##aabbbbbbccdcdffeffffffgfecdcdfggfdcdcefgffffffeffdcdccbbbbbbaa##...............................",
"...............................#aaabbabbccdceeeefefffgggfeeccdfggfdcceefgggfffefeeeecdccbbabbaaa#...............................",
"..............................##aaabaabbcccddeefefffgfggfecdcdfggfdcdcefggfgfffefeeddcccbbaabaaa##..............................",
"..............................##aaabbbbcdcdceefefefffgggfeeccdfggfdcceefgggfffefefeecdcdcbbbbaaa##..............................",
"..............................###aaabccdcdcedfefefgfgfgggfedcdfggfdcdefgggfgfgfefefdecdcdccbaaa###..............................",
"..............................####aaaaacdcdceeeefefffgfgffecddfggfddceffgfgfffefeeeecdcdcaaaaa####..............................",
".............................#####aaaabccbcddefeefffgfggffedcdfggfdcdeffggfgfffeefeddcbccbaaaa#####.............................",
".............................######aaabbbcccddddeeeffffffeecdffggffdceeffffffeeeddddcccbbbaaa######.............................",
".............................#####aaaaacccddcdddddeeffffeeedddfggfdddeeeffffeedddddcddcccaaaaa#####.............................",
".............................#####aabbccccdcdcddddddedeeeddddffggffddddeeededdddddcdcdccccbbaa#####.............................",
".............................###abbbbbcccccccdddddddddddddddddfggfdddddddddddddddddcccccccbbbbba###.............................",
".............................###abbbbbcccbbcdcdcdcdddcdcdcdddffggffdddcdcdcdddcdcdcdcbbcccbbbbba###.............................",
"..............................##aabcbcabbbbdcdcdcdcdcdcdcdcdddfggfdddcdcdcdcdcdcdcdcdbbbbacbcbaa##..............................",
"..............................##aaaaaabbbbccdcdcdcdcdcdcccdcdffggffdcdcccdcdcdcdcdcdccbbbbaaaaaa##..............................",
"..............................###aaaaaabbcccccccaccdcdcdccccdffggffdccccdcdcdccacccccccbbaaaaaa###..............................",
".............................######aaaabbccdccbbbaccdcdcccccdefggfedcccccdcdccabbbccdccbbaaaa######.............................",
"..............................#####aaaabbbcbbabbabcccccccccccdfggfdcccccccccccbabbabbcbbbaaaa#####..............................",
"..............................#####aabbbbbcbaaabbbccbccbbcbbcdfggfdcbbcbbccbccbbbaaabcbbbbbaa#####..............................",
"..............................####aabbbbbbaaabbbbbaabccbbbbbcdfggfdcbbbbbccbaabbbbbaaabbbbbbaa####..............................",
"..............................####ababbbbaaabaabbbacbbbbbbabcdfggfdcbabbbbbbcabbbaabaaabbbbaba####..............................",
"...............................###ababbbaaaaaaaabbccbbbbbbabcdeffedcbabbbbbbccbbaaaaaaaabbbaba###...............................",
"...............................####aaabaaaaaaaaababbbbbaaaaacddffddcaaaaabbbbbabaaaaaaaaabaaa####...............................",
"...............................####aaaaaaaabbbaaaababaaaaaaabddffddbaaaaaaababaaaabbbaaaaaaaa####...............................",
".................................##aaa##aabbaaaaaaaabaaaaaaabddffddbaaaaaaabaaaaaaaabbaa##aaa##.................................",
".................................###aa#aaaabbaaa#aaaaaaaaabaaddffddaabaaaaaaaaa#aaabbaaaa#aa###.................................",
"..................................######aabbaaaa#####abbbcbcaddffddacbcbbba#####aaaabbaa######..................................",
"..................................#######aaaaaaa####abccdddccddffddccdddccba####aaaaaaa#######..................................",
"...................................#####aaaaaaaaa#aaabcdfffdccdggdccdfffdcbaaa#aaaaaaaaa#####...................................",
"...................................#######aaaa#aa#abbcdffffffddggddffffffdcbba#aa#aaaa#######...................................",
"....................................#######a#####aabcdffdddddffggffdddddffdcbaa#####a#######....................................",
"...................................##############abbdffdcccccddffddcccccdffdbba##############...................................",
"...................................#aa###########bbcffdccbaaccddddccaabccdffcbb###########aa#...................................",
"...................................##aba#######aabcdfdccab##acccccca##baccdfdcbaa#######aba##...................................",
"....................................##abcbaa###abbcfddca#aa###aaaa###aa#acddfcbba###aabcba##....................................",
"......................................#abbcbaaabbcddcba#aabaaaaaaaaaabaa#abcddcbbaaabcbba#......................................",
"..................................#####baccdcbbcddfdcb#aabbbbbbbbbbbbbbaa#bcdfddcbbcdccab#####..................................",
".................................#abcda#baaccddfffdcb##bbbbccccccccccbbbb##bcdfffddccaab#adcba#.................................",
"..................................##abba#baabccddccb##abbcccddddddddcccbba##bccddccbaab#abba##..................................",
"...................................######a#aabbcccaa#abbccdddffffffdddccbba#aacccbbaa#a######...................................",
"..................................##acca#a##aaaaaaa#abbccdaaaaaaaaaaaadccbba#aaaaaaa##a#acca##..................................",
"................................##bcdfc##aa####aaa##bbbcaacccddddddcccaacbbb##aaa####aa##cfdcb##................................",
".................................##aaaa#baa#bb#####aaaaabbaaaaaaaaaaaabbaaaaa#####bb#aab#aaaa##.................................",
"..................................######bb##bba#a#aaabba#d############d#abbaaa#a#abb##bb######..................................",
".................................##bbbc#cb#abdbaa##aadhd#ijklgggggglkj#mdhdaa##aabdba#bc#cbbb##.................................",
"................................#accdfc#d##aabdbaa#b#chci#klggllllgglk#ichc#b#aabdbaa##d#cfdcca#................................",
"..................................#####b##ba#abaaa#b#bhhhjkggllkkllggkj#hhb#b#aaaba#ab##b#####..................................",
"....................................#bdd#db###baa#a#bhhi#klgllnnhkllglkiihhb#a#aab###bd#ddb#....................................",
"...................................#cdfc###ba##ab#bdbhi#mklglknn#hklglki#ihbdb#ba##ab###cfdc#...................................",
"..................................abcbb##c#db#b#bbaabh#i#klglkh##hklglkmi#hbaabb#b#bd#c##bbcba..................................",
"..................................###.##dd###da#bc#bdhi#iklgllkhhkllglk##ihdb#cb#ad###dd##.###..................................",
"......................................#cfb#b#####b#bahhi#jkggllkkllggkjhihhab#b#####b#bfc#......................................",
".....................................#bbb#bd#cd####abadhi#klggllllgglk#ihdaba####dc#db#bbb#.....................................",
".....................................a###bfc#dcb#cd#baah#d###aaaaaa###d#haab#dc#bcd#cfb###a.....................................",
"....................................##..bd#b#bbb#dd#bacaaaaaacddddcaaaaaacab#dd#bbb#b#db..##....................................",
".......................................###.###bb#dc#abacaaccccaaaaccccaacaba#cd#bb###.###.......................................",
"............................................#####cb##bbaccdaaaddddaaadccabb##bc#####............................................",
".............................................#ab#bbd#bbbaaaddccccccddaaabbb#dbb#ba#.............................................",
"............................................#acb#bcd#abbbcccccbbbbcccccbbba#dcb#bca#............................................",
"............................................#add##dc##abbbbcbbbbbbbbcbbbba##cd##dda#............................................",
"...........................................###cfb#cb#b##abbbb######bbbba##b#bc#bfc###...........................................",
"..........................................##a#bdb#bb#ac######bbccbb######ca#bb#bdb#a##..........................................",
".........................................#a#c#acdb#b#abcb###bcdffdcb###bcba#b#bdca#c#a#.........................................",
".........................................#d#da#bcc#b##aacccccddbbddcccccaa##b#ccb#ad#d#.........................................",
"........................................#cfcaca#bcb#####bcccdc####cdcccb#####bcb#acacfc#........................................",
"........................................cfca#ab#aaa##aa##bbb##bbbb##bbb##aa##aaa#ba#acfc........................................",
"........................................da##.#c#######aa####bcdffdcb####aa#######c#.##ad........................................",
"........................................###..#c###.a###aaa#bcddaaddcb#aaa###a.###c#..###........................................",
".............................................#b##...#####a#aaa####aaa#a#####...##b#.............................................",
".............................................aa#......#####a###cc###a#####......#aa.............................................",
".............................................aa#......##a#aaaccffccaaa#a##......#aa.............................................",
"............................................#b#.......##ab##ccdffdcc##ba##.......#b#............................................",
"...........................................aa#........##abbbcdffffdcbbba##........#aa...........................................",
"...........................................ac#........#aa####acffca####aa#........#ca...........................................",
"...........................................ac#........#aaabb########bbaaa#........#ca...........................................",
"..........................................ac#.........##ab##cddffddc##ba##.........#ca..........................................",
"..........................................ac#........#a#####acccccca#####a#........#ca..........................................",
"..........................................ac#........#aaabbc########cbbaaa#........#ca..........................................",
"..........................................ad#........#aab##cccdffdccc##baa#........#da..........................................",
".........................................#ad#........#aaabcccdffffdcccbaaa#........#da#.........................................",
".........................................##da.........####aabcdffdcbaa####.........ad##.........................................",
".........................................#ada.........#fc##############cf#.........ada#.........................................",
".........................................#afa#........#f###cfc#cc#cfc###f#........#afa#.........................................",
".........................................#cfa#........##...#f#.ff.#f#...##........#afc#.........................................",
".........................................#cda#....................................#adc#.........................................",
".........................................#aca#....................................#aca#.........................................",
"..........................................#a##....................................##a#..........................................",
"..........................................###......................................###..........................................",
"................................................................................................................................",
"................................................................................................................................",
"................................................................................................................................",
"................................................................................................................................",
"................................................................................................................................",
"................................................................................................................................",
"................................................................................................................................",
"................................................................................................................................",
"................................................................................................................................",
"................................................................................................................................",
"................................................................................................................................"};
