/* XPM */
static char *dummy[]={
"64 64 5 1",
". c None",
"# c #6b2921",
"a c #ad5239",
"b c #ff7b31",
"c c #ffffff",
"................................................................",
"................................................................",
"................................................................",
"................................................................",
"................................................................",
"................................................................",
"................................................................",
"................................................................",
"................................................................",
"................................................................",
"................................................................",
"................................................................",
"................................................................",
"................................................................",
"................................................................",
"................................................................",
"................................................................",
"................................................................",
"................................................................",
"................................................................",
"................................................................",
"................................................................",
"................................................................",
"................................................................",
"................................................................",
"................................................................",
"................................................................",
"................................................................",
"................................................................",
"...............................##...............................",
".............................######.............................",
"...........................###abba###...........................",
"...........................#abccccba#...........................",
"..........................#abccccccba#..........................",
".........................##bccccccccb##.........................",
".........................#acccccccccca#.........................",
"........................##bccccccccccb##........................",
"........................##bccccccccccb##........................",
".........................#acccccccccca#.........................",
".........................##bccccccccb##.........................",
"..........................#abccccccba#..........................",
"...........................#abccccba#...........................",
"...........................###abba###...........................",
".............................######.............................",
"...............................##...............................",
"................................................................",
"................................................................",
"................................................................",
"................................................................",
"................................................................",
"................................................................",
"................................................................",
"................................................................",
"................................................................",
"................................................................",
"................................................................",
"................................................................",
"................................................................",
"................................................................",
"................................................................",
"................................................................",
"................................................................",
"................................................................",
"................................................................"};
