/* XPM */
static char *proj_super4_xpm[]={
"64 64 4 1",
". c None",
"a c #006329",
"# c #00a54a",
"b c #00ff73",
"................................................................",
"................................................................",
"................................................................",
"................................................................",
"................................................................",
"................................................................",
"................................................................",
"................................................................",
"................................................................",
"................................................................",
"................................................................",
"................................................................",
"................................................................",
"................................................................",
"................................................................",
"................................................................",
"................................................................",
"................................................................",
"................................................................",
"................................................................",
"................................................................",
".........................#.a#.a..a.#a.#.........................",
".......................#.aa###bbbb###aa.#.......................",
".......................a##bbbbbbbbbbbb##a.......................",
"....................#aa#bbbb########bbbb#aa#....................",
"....................#a#bbb##a......a##bbb#a#....................",
"..................#aa#bb##a...a..a...a##bb#aa#..................",
"...................##bb#a....#....#....a#bb##...................",
"...................abb#a..a...a..a...a..a#bba...................",
".................#a#b#a..................a#b#a#.................",
"..................#bb#....................#bb#..................",
".................abb#aa..................aa#bba.................",
"................##bb#......................#bb##................",
".................#b#a.#..................#.a#b#.................",
".................bb#........................#bb.................",
"................bbb#..a..................a..#bbb................",
"................abb#..a..................a..#bba................",
"................abb#..a..................a..#bba................",
"................bbb#..a..................a..#bbb................",
".................bb#........................#bb.................",
".................#b#a.#..................#.a#b#.................",
"................##bb#......................#bb##................",
".................abb#aa..................aa#bba.................",
"..................#bb#....................#bb#..................",
".................#a#b#a..................a#b#a#.................",
"...................abb#a..a...a..a...a..a#bba...................",
"...................##bb#a....#....#....a#bb##...................",
"..................#aa#bb##a...a..a...a##bb#aa#..................",
"....................#a#bbb##a......a##bbb#a#....................",
"....................#aa#bbbb########bbbb#aa#....................",
".......................a##bbbbbbbbbbbb##a.......................",
".......................#.aa###bbbb###aa.#.......................",
".........................#.a#.a..a.#a.#.........................",
"................................................................",
"................................................................",
"................................................................",
"................................................................",
"................................................................",
"................................................................",
"................................................................",
"................................................................",
"................................................................",
"................................................................",
"................................................................"};
