/* XPM */
static char *proj_green1_xpm[]={
"64 64 5 1",
". c None",
"b c #006028",
"# c #00a048",
"a c #00f870",
"c c #d0d0f8",
"................................................................",
"................................................................",
"................................................................",
"................................................................",
"................................................................",
"................................................................",
"................................................................",
"................................................................",
"................................................................",
"................................................................",
"................................................................",
"................................................................",
"................................................................",
"................................................................",
"................................................................",
"................................................................",
"................................................................",
"................................................................",
"................................................................",
"................................................................",
"................................................................",
"................................................................",
"................................................................",
"................................................................",
"................................................................",
"................................................................",
"................................................................",
"................................................................",
".........................#.....a....aa..........................",
".........................#aa.b#a#ab#a.#.........................",
"........................#..aa#acacaca...........................",
"..........................b#acccccca#b#a........................",
"........................#c#acccccccccabb........................",
".........................bcccccccccca#b.........................",
"........................b#acccccccccca#b........................",
"........................bacccccccccccca#........................",
"........................a#accccccccccc##........................",
"........................##accccccccccaa#........................",
".........................b#cccccccccccb.........................",
"........................#.baccccccccaca.........................",
".........................###accccccc#abb........................",
".........................b.bb#acaaaab#..........................",
".........................b.#.b#a##b.aa#.........................",
"...........................#a..b.....#..........................",
"................................................................",
"................................................................",
"................................................................",
"................................................................",
"................................................................",
"................................................................",
"................................................................",
"................................................................",
"................................................................",
"................................................................",
"................................................................",
"................................................................",
"................................................................",
"................................................................",
"................................................................",
"................................................................",
"................................................................",
"................................................................",
"................................................................",
"................................................................"};
