/* XPM */
static char *dummy[]={
"64 64 5 1",
". c #000042",
"# c #006028",
"a c #00a048",
"b c #00f870",
"c c #d0d0f8",
"................................................................",
"................................................................",
"................................................................",
"................................................................",
"................................................................",
"................................................................",
"................................................................",
"................................................................",
"................................................................",
"................................................................",
"................................................................",
"................................................................",
"................................................................",
"................................................................",
"................................................................",
"................................................................",
"................................................................",
"................................................................",
"................................................................",
"................................................................",
"................................................................",
"................................................................",
"................................................................",
"................................................................",
"................................................................",
"................................................................",
"................................................................",
"................................................................",
"........................#........#....#.........................",
"........................###.....#.....##........................",
"...........................#..#aa#..##..........................",
"...........................aa#abba#aa.#.........................",
".........................#aabbccccbaa#..........................",
"...........................#bccccccc#..#........................",
"........................a.#acccccccba#a.........................",
".........................aabccccccccba..........................",
"........................#.abccccccccca#.........................",
"..........................#abcccccccbaa#........................",
"..........................a#cccccccba..#........................",
"...........................aabbccbcb#.#.........................",
".........................##a#aabbabb............................",
"..........................#.#.#aa#.a#.##........................",
".........................#...##...#.###.........................",
".........................#..#.....#...#.........................",
"................................................................",
"................................................................",
"................................................................",
"................................................................",
"................................................................",
"................................................................",
"................................................................",
"................................................................",
"................................................................",
"................................................................",
"................................................................",
"................................................................",
"................................................................",
"................................................................",
"................................................................",
"................................................................",
"................................................................",
"................................................................",
"................................................................",
"................................................................"};
