/* XPM */
static char *dummy[]={
"64 64 5 1",
". c None",
"# c #006329",
"a c #00a54a",
"b c #00ff73",
"c c #d6d6ff",
"................................................................",
"................................................................",
"................................................................",
"................................................................",
"................................................................",
"................................................................",
"................................................................",
"................................................................",
"................................................................",
"................................................................",
"................................................................",
"................................................................",
"................................................................",
"................................................................",
"................................................................",
"................................................................",
"................................................................",
"................................................................",
"................................................................",
"................................................................",
"................................................................",
"................................................................",
".............................#.aa.#.............................",
"................................................................",
"..........................b.a......a.b..........................",
"....................#.a.#.a..######..a.#.a.#....................",
"...........................#aaabbaaa#...........................",
".....................b...#aabbccccbbaa#...b.....................",
"........................#abbccccccccbba#........................",
"......................a#abccccccccccccba#a......................",
"....................#..abccccccccccccccba..#....................",
"......................#abcccccbbbbcccccba#......................",
"..................b...abccccbbbaabbbccccba...b..................",
".....................#abcccbba####abbcccba#.....................",
"...................#.#accccba######abcccca#.#...................",
".....................#bcccbb########bbcccb#.....................",
"..................a..#bcccba########abcccb#..a..................",
"..................a..#bcccba########abcccb#..a..................",
".....................#bcccbb########bbcccb#.....................",
"...................#.#accccba######abcccca#.#...................",
".....................#abcccbba####abbcccba#.....................",
"..................b...abccccbbbaabbbccccba...b..................",
"......................#abcccccbbbbcccccba#......................",
"....................#..abccccccccccccccba..#....................",
"......................a#abccccccccccccba#a......................",
"........................#abbccccccccbba#........................",
".....................b...#aabbccccbbaa#...b.....................",
"...........................#aaabbaaa#...........................",
"....................#.a.#.a..######..a.#.a.#....................",
"..........................b.a......a.b..........................",
"................................................................",
".............................#.aa.#.............................",
"................................................................",
"................................................................",
"................................................................",
"................................................................",
"................................................................",
"................................................................",
"................................................................",
"................................................................",
"................................................................",
"................................................................",
"................................................................",
"................................................................"};
