/* XPM */
static char *proj_super3_xpm[]={
"64 64 5 1",
". c None",
"# c #006329",
"a c #00a54a",
"b c #00ff73",
"c c #d6d6ff",
"................................................................",
"................................................................",
"................................................................",
"................................................................",
"................................................................",
"................................................................",
"................................................................",
"................................................................",
"................................................................",
"................................................................",
"................................................................",
"................................................................",
"................................................................",
"................................................................",
"................................................................",
"................................................................",
"................................................................",
"................................................................",
"................................................................",
"................................................................",
"................................................................",
"..............................#aa#..............................",
"........................#...#aabbaa#...#........................",
"......................b...#abbbbbbbba#...b......................",
"...................a.a..#abbccccccccbba#..a.a...................",
"......................#aabbccccccccccbbaa#......................",
".....................#abbccccccccccccccbba#.....................",
"..................b..abbccccccccccccccccbba..b..................",
"..................#.babcccccccbbbbcccccccbab.#..................",
"....................abccccccbbaaaabbccccccba....................",
"...................#bbcccccbaa####aabcccccbb#...................",
".................a.abcccccba########abcccccba.a.................",
"..................#bcccccba##########abcccccb#..................",
".................#abcccccba##########abcccccba#.................",
"..................abccccba############abccccba..................",
".................#bcccccba############abcccccb#.................",
".................abcccccb##############bcccccba.................",
".................abcccccb##############bcccccba.................",
".................#bcccccba############abcccccb#.................",
"..................abccccba############abccccba..................",
".................#abcccccba##########abcccccba#.................",
"..................#bcccccba##########abcccccb#..................",
".................a.abcccccba########abcccccba.a.................",
"...................#bbcccccbaa####aabcccccbb#...................",
"....................abccccccbbaaaabbccccccba....................",
"..................#.babcccccccbbbbcccccccbab.#..................",
"..................b..abbccccccccccccccccbba..b..................",
".....................#abbccccccccccccccbba#.....................",
"......................#aabbccccccccccbbaa#......................",
"...................a.a..#abbccccccccbba#..a.a...................",
"......................b...#abbbbbbbba#...b......................",
"........................#...#aabbaa#...#........................",
"..............................#aa#..............................",
"................................................................",
"................................................................",
"................................................................",
"................................................................",
"................................................................",
"................................................................",
"................................................................",
"................................................................",
"................................................................",
"................................................................",
"................................................................"};
