/* XPM */
static char *dummy[]={
"64 64 5 1",
". c #000042",
"a c #006329",
"# c #00a54a",
"b c #00ff73",
"c c #d6d6ff",
"................................................................",
"................................................................",
"................................................................",
"................................................................",
"................................................................",
"................................................................",
"................................................................",
"................................................................",
"................................................................",
"................................................................",
"................................................................",
"................................................................",
"................................................................",
"................................................................",
"................................................................",
"................................................................",
"................................................................",
"................................................................",
"................................................................",
"................................................................",
"................................................................",
"................................................................",
"................................................................",
"................................................................",
"................................................................",
"................................................................",
"................................................................",
"................................................................",
"................................................................",
"............................#aa##aa#............................",
"..........................baa##bb##aab..........................",
"..........................aa#bbbbbb#aa..........................",
".........................#a#bbbbbbbb#a#.........................",
".........................a#bbbccccbbb#a.........................",
"........................ba#bbccccccbb#ab........................",
"........................a##bccccccccb##a........................",
"........................a#bbccccccccbb#a........................",
"........................a#bbccccccccbb#a........................",
"........................a##bccccccccb##a........................",
"........................ba#bbccccccbb#ab........................",
".........................a#bbbccccbbb#a.........................",
".........................#a#bbbbbbbb#a#.........................",
"..........................aa#bbbbbb#aa..........................",
"..........................baa##bb##aab..........................",
"............................#aa##aa#............................",
"................................................................",
"................................................................",
"................................................................",
"................................................................",
"................................................................",
"................................................................",
"................................................................",
"................................................................",
"................................................................",
"................................................................",
"................................................................",
"................................................................",
"................................................................",
"................................................................",
"................................................................",
"................................................................",
"................................................................",
"................................................................",
"................................................................"};
