/* XPM */
static char *reo_attack_1_xpm[]={
"64 64 16 1",
"n c #000000",
". c None",
"j c #0038a8",
"# c #004000",
"k c #0078d8",
"a c #008000",
"b c #00b800",
"l c #00c0f8",
"e c #00f800",
"f c #181800",
"c c #505000",
"i c #808000",
"m c #a8a818",
"g c #b8b830",
"d c #d0d048",
"h c #f8f858",
"................................................................",
"................................................................",
"................................................................",
"................................................................",
"................................................................",
"................................................................",
"................................................................",
"................................................................",
"................................................................",
"................................................................",
"................................................................",
"................................................................",
"................................................................",
"................................................................",
"................................................................",
"................................................................",
"................................................................",
"................................................................",
"................................................................",
"................................................................",
"................................................................",
"................................................................",
"................................................................",
"................................................................",
"................................................................",
"................................................................",
"................................................................",
"................................................................",
"................##...........................##.................",
"................aaa###...................###aaa.................",
"................##bb#a##.#...........#.##a#bb##.................",
"................cd#eeb##a##fcc...ccf##a##bee#dc.................",
"................f#ghggbag#fiificifiif#gabgghg#f.................",
"....................ffffffjkfgghggfkjffffff.....................",
"........................ffklffgggfflkff.........................",
".........................fklkfcgcfklkf..........................",
"...................fff....jkkffcffkkj....fff....................",
"..................fimf..fffnjjfffjjnfff..fmif...................",
".................fimhfffhgmfffchcfffmghfffhmif..................",
".................cfffiffgmffhfcgcfhffmgffifffc..................",
"................fmghggmicfffhfffffhfffcimgghgmf.................",
"................cghhgmiccffff.....ffffccimghhgc.................",
"................gfffmiffdhhf.......fhhdffimfffg.................",
"................fcgfiifffgghf.....fhggfffiifgcf.................",
"................ifgdff..fffgf.....fgfff..ffdgfi.................",
"................gidhf.....ff.......ff.....fhdig.................",
"................gfhff.....................ffhfg.................",
"................ffdhf.....................fhdff.................",
".................ffghf...................fhgff..................",
"................................................................",
"................................................................",
"................................................................",
"................................................................",
"................................................................",
"................................................................",
"................................................................",
"................................................................",
"................................................................",
"................................................................",
"................................................................",
"................................................................",
"................................................................",
"................................................................",
"................................................................"};
