/* XPM */
static char *reo_1_xpm[]={
"64 64 15 1",
". c None",
"j c #0038a8",
"# c #004000",
"k c #0078d8",
"a c #008000",
"b c #00b800",
"l c #00c0f8",
"e c #00f800",
"f c #181800",
"c c #505000",
"i c #808000",
"m c #a8a818",
"g c #b8b830",
"d c #d0d048",
"h c #f8f858",
"................................................................",
"................................................................",
"................................................................",
"................................................................",
"................................................................",
"................................................................",
"................................................................",
"................................................................",
"................................................................",
"................................................................",
"................................................................",
"................................................................",
"................................................................",
"................................................................",
"................................................................",
"................................................................",
"................................................................",
"................................................................",
"................................................................",
"................................................................",
"................................................................",
"................................................................",
"................................................................",
"................................................................",
"................................................................",
"................................................................",
"................................................................",
"................................................................",
"................##...........................##.................",
"................aaa###...................###aaa.................",
"................##bb#a##.#...........#.##a#bb##.................",
"................cd#eeb##a##fcc...ccf##a##bee#dc.................",
"................f#ghggbag#fiificifiif#gabgghg#f.................",
"..........................jkkfdhdfkkj...........................",
"....................ffffffklkfgggfklkffffff.....................",
"....................chgcffkllfigifllkffcghc.....................",
"...................cfdfmffjkkffiffkkjffmfdfc....................",
"...................dffdfdff.jjfgfjj.ffdfdffd....................",
"...................fighfmfffffchcfffffmfhgif....................",
"..................fdhfhfiiffgfcgcfgffiifhfhdf...................",
"..................fdhfdgfffghfffffhgfffgdfhdf...................",
"...................fdffgficfgff.ffgfcifgffdf....................",
".....................gfcimf.f.....f.fmicfg......................",
".......................hdf...........fdh........................",
"........................ff...........ff.........................",
"................................................................",
"................................................................",
"................................................................",
"................................................................",
"................................................................",
"................................................................",
"................................................................",
"................................................................",
"................................................................",
"................................................................",
"................................................................",
"................................................................",
"................................................................",
"................................................................",
"................................................................",
"................................................................",
"................................................................",
"................................................................",
"................................................................"};
