/* XPM */
static char *dummy[]={
"64 64 16 1",
"n c #000000",
". c #000042",
"h c #0038a8",
"# c #004000",
"i c #0078d8",
"b c #008000",
"a c #00b800",
"k c #00c0f8",
"c c #00f800",
"d c #181800",
"f c #505000",
"l c #808000",
"m c #a8a818",
"e c #b8b830",
"j c #d0d048",
"g c #f8f858",
"................................................................",
"................................................................",
"................................................................",
"................................................................",
"................................................................",
"................................................................",
"................................................................",
"................................................................",
"................................................................",
"................................................................",
"................................................................",
"................................................................",
"................................................................",
"................................................................",
"................................................................",
"................................................................",
"................................................................",
"................................................................",
"................................................................",
"................................................................",
"................................................................",
"..................#..###...............###..#...................",
".................#a##aab#.............#baa##a#..................",
".................bca#acab#...........#baca#acb..................",
".................#ccaccdef...........fedccacc#..................",
".................#a##aa#def.........fed#aa##a#..................",
".................bab#ea#dgf.........fgd#ae#bab..................",
"................bacbb#g#def.........fed#g#bbcab.................",
"................bbcab#debdef.......fedbed#bacbb.................",
".................#abf#deb#def.....fed#bed#fba#..................",
".................#b#dfee##degf...fged##eefd#b#..................",
"..................#dadddedfddef.feddfdedddad#...................",
"...................#bdb#deddedeeededded#bdb#....................",
"..........................hiidjgjdiih...........................",
"....................ddddddikideeedikidddddd.....................",
"....................fgefddikkdleldkkiddfegf.....................",
"...................fdjdmddhiiddlddiihddmdjdf....................",
"...................jddjdjddnhhdedhhnddjdjddj....................",
"...................dlegdmdddddfgfdddddmdgeld....................",
"..................djgdgdllddedfefdeddlldgdgjd...................",
"..................djgdjedddegdddddgedddejdgjd...................",
"...................djddedlfdedd.ddedfldeddjd....................",
".....................edflmd.d.....d.dmlfde......................",
".......................gjd...........djg........................",
"........................dd...........dd.........................",
"................................................................",
"................................................................",
"................................................................",
"................................................................",
"................................................................",
"................................................................",
"................................................................",
"................................................................",
"................................................................",
"................................................................",
"................................................................",
"................................................................",
"................................................................",
"................................................................",
"................................................................",
"................................................................",
"................................................................",
"................................................................",
"................................................................"};
