/* XPM */
static char *dummy[]={
"416 16 3 1",
". c #000042",
"# c #2c398a",
"a c #f8f8f8",
"..############..##############....############..##############..################################..############..################..############..........##############..################........########..############..########..############..##############....############..##############....##############################################################################################################################",
"..############..##############....############..##############..################################..############..################..############..........##############..################........########..############..########..############..##############....############..##############....##############################################################################################################################",
"####aaaaaaaa######aaaaaaaaaa########aaaaaaaa######aaaaaaaaaa######aaaaaaaaaaaa####aaaaaaaaaaaa######aaaaaaaa##..##aaaa####aaaa##..##aaaaaaaa##..........##aaaa####aaaa####aaaa####aaaa##........##aaaa##..##aaaa##aa######aaaa######aaaaaaaa######aaaaaaaaaa########aaaaaaaa######aaaaaaaaaa########aaaaaaaaaa####aaaaaaaaaaaa####aaaa####aaaa####aaaa####aaaa##aaaa##aaaa##aaaa##aaaa####aaaa####aaaa####aaaa####aaaaaaaaaaaa##",
"####aaaaaaaa######aaaaaaaaaa########aaaaaaaa######aaaaaaaaaa######aaaaaaaaaaaa####aaaaaaaaaaaa######aaaaaaaa##..##aaaa####aaaa##..##aaaaaaaa##..........##aaaa####aaaa####aaaa####aaaa##........##aaaa##..##aaaa##aa######aaaa######aaaaaaaa######aaaaaaaaaa########aaaaaaaa######aaaaaaaaaa########aaaaaaaaaa####aaaaaaaaaaaa####aaaa####aaaa####aaaa####aaaa##aaaa##aaaa##aaaa##aaaa####aaaa####aaaa####aaaa####aaaaaaaaaaaa##",
"##aaaa####aaaa####aaaa####aaaa####aaaa####aaaa####aaaa####aaaa####aaaa############aaaa############aaaa############aaaa####aaaa##..####aaaa####..........##aaaa####aaaa##aaaa######aaaa##........##aaaaaa##aaaaaa##aaaa####aaaa####aaaa####aaaa####aaaa####aaaa####aaaa####aaaa####aaaa####aaaa####aaaa################aaaa########aaaa####aaaa####aaaa####aaaa##aaaa##aaaa##aaaa##aaaa####aaaa####aaaa####aaaa##..########aaaa##",
"##aaaa####aaaa####aaaa####aaaa####aaaa####aaaa####aaaa####aaaa####aaaa############aaaa############aaaa############aaaa####aaaa##..####aaaa####..........##aaaa####aaaa##aaaa######aaaa##........##aaaaaa##aaaaaa##aaaa####aaaa####aaaa####aaaa####aaaa####aaaa####aaaa####aaaa####aaaa####aaaa####aaaa################aaaa########aaaa####aaaa####aaaa####aaaa##aaaa##aaaa##aaaa##aaaa####aaaa####aaaa####aaaa##..########aaaa##",
"##aaaaaaaaaaaa####aaaaaaaaaa######aaaa############aaaa####aaaa####aaaaaaaaaa##..##aaaaaaaaaa##..##aaaa##aaaaaa####aaaaaaaaaaaa##....##aaaa##....##########aaaa####aaaaaaaa####..##aaaa##........##aaaa##aa##aaaa##aaaaaa##aaaa####aaaa####aaaa####aaaaaaaaaa######aaaa####aaaa####aaaaaaaaaa########aaaaaa######....##aaaa##....##aaaa####aaaa####aaaa####aaaa##aaaa##aaaa##aaaa####aaaaaaaa########aaaaaaaa########aaaaaaaa####",
"##aaaaaaaaaaaa####aaaaaaaaaa######aaaa############aaaa####aaaa####aaaaaaaaaa##..##aaaaaaaaaa##..##aaaa##aaaaaa####aaaaaaaaaaaa##....##aaaa##....##########aaaa####aaaaaaaa####..##aaaa##........##aaaa##aa##aaaa##aaaaaa##aaaa####aaaa####aaaa####aaaaaaaaaa######aaaa####aaaa####aaaaaaaaaa########aaaaaa######....##aaaa##....##aaaa####aaaa####aaaa####aaaa##aaaa##aaaa##aaaa####aaaaaaaa########aaaaaaaa########aaaaaaaa####",
"##aaaa####aaaa####aaaa####aaaa####aaaa####aaaa####aaaa####aaaa####aaaa############aaaa########..##aaaa####aaaa####aaaa####aaaa##..####aaaa####..##aaaa####aaaa####aaaaaaaaaa##..##aaaa############aaaa##aa##aaaa##aaaa##aaaaaa####aaaa####aaaa####aaaa########..##aaaa####aaaa####aaaa####aaaa##########aaaaaa##....##aaaa##....##aaaa####aaaa####aaaa##aaaa####aaaa##aaaa##aaaa##aaaa####aaaa##..####aaaa####..##aaaa########..",
"##aaaa####aaaa####aaaa####aaaa####aaaa####aaaa####aaaa####aaaa####aaaa############aaaa########..##aaaa####aaaa####aaaa####aaaa##..####aaaa####..##aaaa####aaaa####aaaaaaaaaa##..##aaaa############aaaa##aa##aaaa##aaaa##aaaaaa####aaaa####aaaa####aaaa########..##aaaa####aaaa####aaaa####aaaa##########aaaaaa##....##aaaa##....##aaaa####aaaa####aaaa##aaaa####aaaa##aaaa##aaaa##aaaa####aaaa##..####aaaa####..##aaaa########..",
"##aaaa####aaaa####aaaaaaaaaa########aaaaaaaa######aaaaaaaaaa######aaaaaaaaaaaa####aaaa##........####aaaaaaaaaa####aaaa####aaaa##..##aaaaaaaa##..####aaaaaaaa######aaaa####aaaa####aaaaaaaaaaaa####aaaa######aaaa##aaaa######aa######aaaaaaaa######aaaa##........####aaaaaaaa######aaaa####aaaa####aaaaaaaaaa####....##aaaa##....####aaaaaaaa######aaaaaaaa####..aaaaaaaaaaaaaa####aaaa####aaaa##....##aaaa##....##aaaaaaaaaaaa##",
"##aaaa####aaaa####aaaaaaaaaa########aaaaaaaa######aaaaaaaaaa######aaaaaaaaaaaa####aaaa##........####aaaaaaaaaa####aaaa####aaaa##..##aaaaaaaa##..####aaaaaaaa######aaaa####aaaa####aaaaaaaaaaaa####aaaa######aaaa##aaaa######aa######aaaaaaaa######aaaa##........####aaaaaaaa######aaaa####aaaa####aaaaaaaaaa####....##aaaa##....####aaaaaaaa######aaaaaaaa####..aaaaaaaaaaaaaa####aaaa####aaaa##....##aaaa##....##aaaaaaaaaaaa##",
"##############################....############..##############..########################..........##############################..############....############..########################################..##############..######..############..########..........######aaaaaa################################......########......############..############....################################....########....################",
"##############################....############..##############..########################..........##############################..############....############..########################################..##############..######..############..########..........######aaaaaa################################......########......############..############....################################....########....################",
"......................................................................................................................................................................................................................................................................##########................................................................................................................................................",
"......................................................................................................................................................................................................................................................................##########................................................................................................................................................"};
