/* XPM */
static char *dummy[]={
"760 8 4 1",
". c None",
"a c #283888",
"# c #2c398a",
"b c #f8f8f8",
"..........####...######..#####...##############..#####....###.....aaaa...aaaa.....###.....###..............................###...aaaaaa...aaaa..aaaaaaa.aaaaaaa...aaaaa.aaaaaaaa.aaaaaa.aaaaaaaa.aaaaaa..aaaaaa...####....####....aaaa...........aaaa...#######..aaaaaa..######.#######..######.#######.################.######.########.######.....#######.########....####.######.####.######.#######..######.#######..###############################################################..aaaa...###......aaaa....aaa............###.....######.#######..######.#######.################.######.########.######.....#######.########....####.######.####.######.#######..######.#######..###############################################################..aaaa....###....aaaa...........",
"..........#bb#...#b##b#.##b#b##.#abbbbb###bb#b#.##bbb#....#b#....aabba...abbaa..###b###...#b#..............................#b#..aabbbbaa.aabba..abbbbbaaabbbbbaa.aabbba.abbbbbaaaabbbba.abbbbbbaaabbbbaaaabbbbaa..#bb#....#bb#...aabba...######..abbaa..#bbbbb##aabbbbaa##bbbb###bbbbb####bbbb###bbbbb###bbbbbb##bbbbbb###bbbb#.#bb##bb#.#bbbb#.....#bb##bb##bb##bb#....#bb#.#bb#b###bb###bbbb###bbbbb####bbbb###bbbbb####bbbbb##bbbbbb##bb##bb##bb##bb#bb#bb#bb#bb##bb##bb##bb##bbbbbb#..abba...#b#......abba...aabaa...........#b##...##bbbb###bbbbb####bbbb###bbbbb###bbbbbb##bbbbbb###bbbb#.#bb##bb#.#bbbb#.....#bb##bb##bb##bb#....#bb#.#bb#b###bb###bbbb###bbbbb####bbbb###bbbbb####bbbbb##bbbbbb##bb##bb##bb##bb#bb#bb#bb#bb##bb##bb##bb##bbbbbb#..abba....#b#....abba...........",
"..........#bb#...#b##b#.#bbbbb#.#bab#####b##b##.#b####....#b#....abbaa...aabba..#bbbbb#.###b###..........######...........##b#..abbaabba.abbba...aaaabbaaaaaabbaaababba.abbaaaa.abbaaaa.aaaaabbaabbaabbaabbaabba..#bb#....#bb#..aabbaa...#bbbb#..aabbaa.#####bb#abaaaaba#bb##bb##bb##bb##bb##bb##bb##bb##bb######bb######bb######bb##bb#.##bb##.....#bb##bb#bb###bb#....#bbb#bbb#bb##bb##bb##bb##bb##bb##bb##bb##bb##bb##bb########bb####bb##bb##bb##bb#bb#bb#bb#bb##bb##bb##bb#.####bb#..abaa...#b##.....aaba..aabbbaa..........##b#...#bb##bb##bb##bb##bb##bb##bb##bb##bb######bb######bb######bb##bb#.##bb##.....#bb##bb#bb###bb#....#bbb#bbb#bb##bb##bb##bb##bb##bb##bb##bb##bb##bb##bb########bb####bb##bb##bb##bb#bb#bb#bb#bb##bb##bb##bb#.####bb#.aabaa....#b#....aabaa...#######",
"..........#bb#...######.##b#b##.#abbbb####bb######bbb##...###....abba.....abba..##bbb##.#bbbbb#...####...#bbbb#...####....#b##..abbaabba.aabba..aabbbbaa.abbbbaaabaabbaaabbbbbaaabbbbbaa..aabbaaaabbbbaaaabbbbba..####....####..abbaa....######...aabba..##bbb##ababbaba#bbbbbb##bbbbb###bb######bb##bb##bbbbb#.#bbbbb#.#bb#bbb##bbbbbb#..#bb#..#####bb##bbbb##.#bb#....#bb#b#bb#bbb#bb##bb##bb##bbbbb###bb##bb##bbbbb####bbb###..#bb#..#bb##bb##bb##bb#bb#bb#bb##bbbb####bbbb####bbbb##..aba....##b#......aba..abbabba...........###...#bbbbbb##bbbbb###bb######bb##bb##bbbbb#.#bbbbb#.#bb#bbb##bbbbbb#..#bb#..#####bb##bbbb##.#bb#....#bb#b#bb#bbb#bb##bb##bb##bbbbb###bb##bb##bbbbb####bbb###..#bb#..#bb##bb##bb##bb#bb#bb#bb##bbbb####bbbb####bbbb##.abba.....#b#.....abba..##bb##b#",
"..........#bb#..........#bbbbb#.###babb#####bb###b###b##.........abbaa...aabba...#b#b#..###b###...#bb#...######...#bb#...##b#...abbaabba..abba..abbaaaaaaaaaabbaabbbbbbaaaaaabbaabbaabba..abbaa.abbaabba.aaaabba..#bb#....#bb#..aabbaa...#bbbb#..aabbaa..#bb###.abababba#bb##bb##bb##bb##bb##bb##bb##bb##bb######bb####.#bb##bb##bb##bb#.##bb##.#bb##bb##bbbbb#.#bb######bb#b#bb#bb#bbb##bb##bb##bb####.#bb##bb##bb##bb#####bbb#..#bb#..#bb##bb##bb#bb##bb#bb#bb#bb##bb#.##bb##.#bb####...abaa....#b##....aaba..abaaaba..######.........#bb##bb##bb##bb##bb##bb##bb##bb##bb######bb####.#bb##bb##bb##bb#.##bb##.#bb##bb##bbbbb#.#bb######bb#b#bb#bb#bbb##bb##bb##bb####.#bb##bb##bb##bb#####bbb#..#bb#..#bb##bb##bb#bb##bb#bb#bb#bb##bb#.##bb##.#bb####..aabaa....#b#....aabaa..#b##bb##",
"..........####..........##b#b##.#bbbbb##.##b##b###bbb#b#.........aabba...abbaa...#####....#b#.....##b#............#bb#...#b##...aabbbbaa..abba..abbbbbbaabbbbbaaaaaabbaaabbbbbaaaabbbbaa..abba..aabbbbaa.abbbbaa..#bb#....##b#...aabba...######..abbaa...####...ababbbaa#bb##bb##bbbbb####bbbb###bbbbb###bbbbbb##bb#....##bbbbb##bb##bb#.#bbbb#.##bbbb###bb##bb##bbbbbb##bb###bb#bb###b###bbbb###bb#....##bbbb###bb##bb##bbbbb##..#bb#..##bbbb###bbbb##.bbbbbbb##bb##bb#..#bb#..#bbbbbb#..abba....##b#....abba..aaa.aaa..#bbbb#.........#bb##bb##bbbbb####bbbb###bbbbb###bbbbbb##bb#....##bbbbb##bb##bb#.#bbbb#.##bbbb###bb##bb##bbbbbb##bb###bb#bb###b###bbbb###bb#....##bbbb###bb##bb##bbbbb##..#bb#..##bbbb###bbbb##.bbbbbbb##bb##bb#..#bb#..#bbbbbb#..abba....#b#....abba...#######.",
"..........#bb#...........#####..###b###..#b#bb##.#######..........aaaa...aaaa.............###.....#b##............####...#b#.....aaaaaa...aaaa..aaaaaaaaaaaaaaa....aaaa.aaaaaaa..aaaaaa...aaaa...aaaaaa..aaaaaa...####....#b##....aaaa...........aaaa....#bb#...aaaaaaa.###############..######.#######.############.....###############.######..######.####################.#######.###.######.####.....###bbb################...####...######.######..################..####..########..aaaa.....#b#....aaaa...........######.........###############..######.#######.############.....###############.######..######.####################.#######.###.######.####.....###bbb################...####...######.######..################..####..########..aaaa....###....aaaa...........",
"..........####....................aaa....#######..................................................###....................###..............................................................................................###............................####..............................................................................................................................................#####...................................................................................###.....................................................................................................................................................................#####........................................................................................................"};
