/* XPM */
static char *stone_wall_xpm[]={
"64 64 6 1",
". c None",
"d c #000808",
"# c #082018",
"a c #283050",
"b c #484058",
"c c #704058",
"................................................................",
"................................................................",
"................................................................",
"................................................................",
"................................................................",
"................................................................",
"................................................................",
"................................................................",
"................................................................",
"................................................................",
"................................................................",
"................................................................",
"................................................................",
"................................................................",
"................................................................",
"................................................................",
"###......#####..###......#####..###......#####..###......#####..",
"aba##..##bbbaa##aba##..##bbbaa##aba##..##bbbaa##aba##..##bbbaa##",
"bcbba#bbbbccbaaabcbba#bbbbccbaaabcbba#bbbbccbaaabcbba#bbbbccbaaa",
"abcbbbaaabbbaaaaabcbbbaaabbbaaaaabcbbbaaabbbaaaaabcbbbaaabbbaaaa",
"bbba#aaaa#aaabb#bbba#aaaa#aaabb#bbba#aaaa#aaabb#bbba#aaaa#aaabb#",
"#aa#abbbbabbbbcc#aa#abbbbabbbbcc#aa#abbbbabbbbcc#aa#abbbbabbbbcc",
"aabbbbccba#aabbbaabbbbccba#aabbbaabbbbccba#aabbbaabbbbccba#aabbb",
"aaaaabbbaa#aaaabaaaaabbbaa#aaaabaaaaabbbaa#aaaabaaaaabbbaa#aaaab",
"##ad#aaaa#d##aaa##ad#aaaa#d##aaa##ad#aaaa#d##aaa##ad#aaaa#d##aaa",
"daaa#a#####a####daaa#a#####a####daaa#a#####a####daaa#a#####a####",
"aabba#d##aaba##aaabba#d##aaba##aaabba#d##aaba##aaabba#d##aaba##a",
"daaa###d###a##d#daaa###d###a##d#daaa###d###a##d#daaa###d###a##d#",
"d#a#ad#d#d####add#a#ad#d#d####add#a#ad#d#d####add#a#ad#d#d####ad",
"ddd##d#d#####d#dddd##d#d#####d#dddd##d#d#####d#dddd##d#d#####d#d",
"d#d#d#d#d#d#d#d#d#d#d#d#d#d#d#d#d#d#d#d#d#d#d#d#d#d#d#d#d#d#d#d#",
"dd#d#d#d#d#d#d#ddd#d#d#d#d#d#d#ddd#d#d#d#d#d#d#ddd#d#d#d#d#d#d#d",
"dddddd####dda#dd##dddddd#####ddddddddd####dda#dd##dddddd#####ddd",
"d####ddd#ddaa##d#dd####dd####dddd####ddd#ddaa##d#dd####dd####ddd",
"#aaa##ddddaaaa##d##aaa##dd##dd###aaa##ddddaaaa##d##aaa##dd##dd##",
"aaa#a###dda#a###d#aaaa###ddd##aaaaa#a###dda#a###d#aaaa###ddd##aa",
"aaaa#####d#a##ddd#aaa###d#dd#aaaaaaa#####d#a##ddd#aaa###d#dd#aaa",
"aaa#a####dd##d###da#a####dd#aaaaaaa#a####dd##d###da#a####dd#aaaa",
"aaaa######ddd#aa##daa##d#d#aaaaaaaaa######ddd#aa##daa##d#d#aaaaa",
"aa#a#####d#d#aaa###d##d#d#aaaaaaaa#a#####d#d#aaa###d##d#d#aaaaaa",
"a#aa####ddd#a#a####dd##dd#a#aaaaa#aa####ddd#a#a####dd##dd#a#aaaa",
"#a#a###d#d#a#aa#####ddddd###a#aa#a#a###d#d#a#aa#####ddddd###a#aa",
"a##a####dd##a#a###d#dd##dd#d##a#a##a####dd##a#a###d#dd##dd#d##a#",
"######ddd#d#####d##d#aa##dd###a#######ddd#d#####d##d#aa##dd###a#",
"###d#dd#a##ddd###dd#aaaa#d#dd#a####d#dd#a##ddd###dd#aaaa#d#dd#a#",
"####d#aaaa###dd#dd#aaaa###dd#d######d#aaaa###dd#dd#aaaa###dd#d##",
"d#dd#aaaaa####ddd##aaaa####dd#d#d#dd#aaaaa####ddd##aaaa####dd#d#",
"#dd##a#aa#####dd##a#a#######dd#d#dd##a#aa#####dd##a#a#######dd#d",
"ddd#a#a#a######dd##aaa######ddddddd#a#a#a######dd##aaa######dddd",
"ddd##aa########d####a#####ddd###ddd##aa########d####a#####ddd###",
"##d###a#######ddd###a##d#dd#######d###a#######ddd###a##d#dd#####",
"#d#d##a######d#d#d##a###d##aa####d#d##a######d#d#d##a###d##aa###",
"##d#d#####d#d#ddd#d###dd##a#aa####d#d#####d#d#ddd#d###dd##a#aa##",
"##dd#d##d##ddddddd#d#dd##a#a#a####dd#d##d##ddddddd#d#dd##a#a#a##",
"###ddd#d#ddd#####ddddd##a#a#a######ddd#d#ddd#####ddddd##a#a#a###",
"###dd#d#dd##a#####dddd#####a#######dd#d#dd##a#####dddd#####a####",
"####dddddd###a#####dd######a########dddddd###a#####dd######a####",
"####dd###dd#aa#####dd#d####a########dd###dd#aa#####dd#d####a####",
"##dd######d#aa######dd#d###a######dd######d#aa######dd#d###a####",
"##dd#a####dda######dddd##d#d###d##dd#a####dda######dddd##d#d###d",
"#dd#a#a####d####d#d#ddddd#d###d##dd#a#a####d####d#d#ddddd#d###d#",
"ddd###a##d#dd##d#d#d#ddd#d#d#d#dddd###a##d#dd##d#d#d#ddd#d#d#d#d",
"dddd##a#d#dddd#dddddddddddd#d#dddddd##a#d#dddd#dddddddddddd#d#dd",
"ddddd##d#d#ddddddddddddddddd#dddddddd##d#d#ddddddddddddddddd#ddd"};
