/* XPM */
static char *dummy[]={
"64 64 7 1",
". c None",
"# c #181830",
"e c #404058",
"b c #686880",
"c c #88e810",
"a c #9898b0",
"d c #f8f8f8",
"................................................................",
"................................................................",
"................................................................",
"................................................................",
"................................................................",
"................................................................",
"................................................................",
"................................................................",
"................................................................",
"................................................................",
"................................................................",
"................................................................",
"................................................................",
"................................................................",
"................................................................",
"................................................................",
"................................................................",
"................................................................",
"................................................................",
"................................................................",
"................................................................",
"................................................................",
"................................................................",
"................................................................",
"................................................................",
"................................................................",
"................................................................",
"................................................................",
"................................................................",
"................................................................",
"................................................................",
"................................................................",
"......................####aaaaaabbbbbb######....................",
"......................####aaaaaabbbbbb######....................",
"....................##aaaa############bbbb####..................",
"....................##aaaa############bbbb####..................",
"..................##aa######cccccccc..####bb##..................",
"..................##aa######cccccccc..####bb##..................",
"..................##aa##..ccccddddcccc..##bb##..................",
"..................##aa##..ccccddddcccc..##bb##..................",
"..................aa##....############....##bb..................",
"..................aa##....############....##bb..................",
"..................aa##..##eebbaaddbbee##..##bb..................",
"..................aa##..##eebbaaddbbee##..##bb..................",
"..................aa##..################..##bb..................",
"..................aa##..################..##bb..................",
"..................aa####aaeebbaaddbbeeaa####bb..................",
"..................aa####aaeebbaaddbbeeaa####bb..................",
"..................aa####ddeebbaaddbbeedd####bb..................",
"..................aa####ddeebbaaddbbeedd####bb..................",
"..................aa##..##eeeebbbbeeee##..##bb..................",
"..................aa##..##eeeebbbbeeee##..##bb..................",
"..................aa##....############....##bb..................",
"..................aa##....############....##bb..................",
"..................aa##....##eeaaddee##....##bb..................",
"..................aa##....##eeaaddee##....##bb..................",
"..................aa##....############....##bb..................",
"..................aa##....############....##bb..................",
"................##aa##....##bbbbaaee##....##bb##................",
"................##aa##....##bbbbaaee##....##bb##................",
"................##bb########################ee##................",
"................##bb########################ee##................",
"................##eeeebbbbbbaaaaaaaabbbbbbeeee##................",
"................##eeeebbbbbbaaaaaaaabbbbbbeeee##................"};
