/* XPM */
static char *dummy[]={
"64 64 6 1",
". c None",
"# c #181830",
"d c #686880",
"c c #88e810",
"b c #9898b0",
"a c #f8f8f8",
"................................................................",
"................................................................",
"................................................................",
"................................................................",
"................................................................",
"................................................................",
"................................................................",
"................................................................",
"................................................................",
"................................................................",
"................................................................",
"................................................................",
"................................................................",
"................................................................",
"................................................................",
"................................................................",
"................................................................",
"................................................................",
"................................................................",
"................................................................",
"................................................................",
"................................................................",
"................................................................",
"................................................................",
"................................................................",
"................................................................",
"................................................................",
"................................................................",
"................................................................",
"................................................................",
"................................................................",
"................................................................",
"......................####aaaaaabbbbbb####......................",
"......................####aaaaaabbbbbb####......................",
"....................##aaaa############bbbb##....................",
"....................##aaaa############bbbb##....................",
"..................##aa####..cccccccc..####bb##..................",
"..................##aa####..cccccccc..####bb##..................",
"..................##aa##..ccccaaaacccc..##bb##..................",
"..................##aa##..ccccaaaacccc..##bb##..................",
"..................aa##....############....##bb..................",
"..................aa##....############....##bb..................",
"..................aa##..##ddbbbbaabbdd##..##bb..................",
"..................aa##..##ddbbbbaabbdd##..##bb..................",
"..................aa##..################..##bb..................",
"..................aa##..################..##bb..................",
"..................aa####aaddbbbbaabbddaa####bb..................",
"..................aa####aaddbbbbaabbddaa####bb..................",
"..................aa####aaddbbbbaabbddaa####bb..................",
"..................aa####aaddbbbbaabbddaa####bb..................",
"..................aa##..##ddddbbbbdddd##..##bb..................",
"..................aa##..##ddddbbbbdddd##..##bb..................",
"..................aa##....############....##bb..................",
"..................aa##....############....##bb..................",
"..................aa##....##ddbbaadd##....##bb..................",
"..................aa##....##ddbbaadd##....##bb..................",
"..................bb##....############....##bb..................",
"..................bb##....############....##bb..................",
"..................bb##....##ddbbaadd##....##bb..................",
"..................bb##....##ddbbaadd##....##bb..................",
"................################################................",
"................################################................",
"................##ddddbbbbbbaaaaaaaabbbbbbdddd##................",
"................##ddddbbbbbbaaaaaaaabbbbbbdddd##................"};
