/* XPM */
static char *dummy[]={
"32 32 4 1",
". c None",
"b c #285000",
"a c #48a838",
"# c #88e810",
"..############################..",
"..############################..",
"##aaaaaaaaaabbbbbbbbaaaaaaaaaa##",
"##aaaaaaaaaabbbbbbbbaaaaaaaaaa##",
"##aaaaaaaabbaa####aabbaaaaaaaa##",
"##aaaaaaaabbaa####aabbaaaaaaaa##",
"##aaaaaabbbbbbbbbbbbbbbbaaaaaa##",
"##aaaaaabbbbbbbbbbbbbbbbaaaaaa##",
"##aaaaaabbaaaa####aaaabbaaaaaa##",
"##aaaaaabbaaaa####aaaabbaaaaaa##",
"##aaaabbbbbbbbbbbbbbbbbbbbaaaa##",
"##aaaabbbbbbbbbbbbbbbbbbbbaaaa##",
"##aabb##bbaaaa####aaaabb##bbaa##",
"##aabb##bbaaaa####aaaabb##bbaa##",
"##aabb##bbaaaa####aaaabb##bbaa##",
"##aabb##bbaaaa####aaaabb##bbaa##",
"##aabbaabbaaaa####aaaabbaabbaa##",
"##aabbaabbaaaa####aaaabbaabbaa##",
"##aaaabbbbbbbbbbbbbbbbbbbbaaaa##",
"##aaaabbbbbbbbbbbbbbbbbbbbaaaa##",
"##aaaaaaaabbaa####aabbaaaaaaaa##",
"##aaaaaaaabbaa####aabbaaaaaaaa##",
"##aaaaaaaabbbbbbbbbbbbaaaaaaaa##",
"##aaaaaaaabbbbbbbbbbbbaaaaaaaa##",
"##aaaaaaaabbaa####aabbaaaaaaaa##",
"##aaaaaaaabbaa####aabbaaaaaaaa##",
"##aaaaaaaaaabbaaaabbaaaaaaaaaa##",
"##aaaaaaaaaabbaaaabbaaaaaaaaaa##",
"##aaaaaaaaaaaabbbbaaaaaaaaaaaa##",
"##aaaaaaaaaaaabbbbaaaaaaaaaaaa##",
"..############################..",
"..############################.."};
