/* XPM */
static char *teleporter_xpm[]={
"96 96 10 1",
". c None",
"e c #100800",
"# c #181830",
"a c #404058",
"h c #602800",
"b c #686880",
"c c #9898b0",
"g c #b87000",
"f c #f8b000",
"d c #f8f8f8",
"........................................####aaaaaaaa####........................................",
".....................................####aaabbbccbbbaaa####.....................................",
"...................................###aaabbbcccddcccbbbaaa###...................................",
"..................................eee###aaaaabbbbbbaaaaa###eee..................................",
".................................###aaabbbbabccddccbabbbbaaa###.................................",
"................................###aaaabbbbabccddccbabbbbaaaa###................................",
"................................###aa##abb##bcc##ccb##bba##aa###................................",
"................................fg###fg#b#fg#c#ff#c#gf#b#gf###gf................................",
"................................gh###gh#b#gh#c#gg#c#hg#b#hg###hg................................",
"................................###aa##abb##bcc##ccb##bba##aa###................................",
"................................###aaaabbbbabccddccbabbbbaaaa###................................",
"................................eeeee##aaaa#abbccbba#aaaa##eeeee................................",
"................................###aaabbbbbabccddccbabbbbbaaa###................................",
"................................eeeee###aaa#abbccbba#aaa###eeeee................................",
"................................##aaaaaabbbbbccddccbbbbbaaaaaa##................................",
"................................##bbbbbcccdcddddddddcdcccbbbbb##................................",
"................................#acbba##a##e#eeeeee#e##a##abbca#................................",
"................................#acba#a###e#e#eeee#e#e###a#abca#................................",
"................................#acbba##a##e#eeeeee#e##a##abbca#................................",
"................................#acba#a###e#e#eeee#e#e###a#abca#................................",
"................................#acbba##a##e#eeeeee#e##a##abbca#................................",
"................................#acba#a###e#e#eeee#e#e###a#abca#................................",
"................................#acbba##a##e#eeeeee#e##a##abbca#................................",
"................................#acba#a###e#e#eeee#e#e###a#abca#................................",
"................................#acbba##a##e#eeeeee#e##a##abbca#................................",
"................................#acba#a###e#e#eeee#e#e###a#abca#................................",
"................................#acbba##a##e#eeeeee#e##a##abbca#................................",
"................................#acba#a###e#e#eeee#e#e###a#abca#................................",
"................................#acbba##a##e#eeeeee#e##a##abbca#................................",
"................................#acba#a###e#e#eeee#e#e###a#abca#................................",
"................................#acbba##a##e#eeeeee#e##a##abbca#................................",
"................................#acba#a###e#e#eeee#e#e###a#abca#................................",
"................................#acbba##a##e#eeeeee#e##a##abbca#................................",
"................................#acba#a###e#e#eeee#e#e###a#abca#................................",
"................................#acbba##a##e#eeeeee#e##a##abbca#................................",
"................................#acba#a###e#e#eeee#e#e###a#abca#................................",
"................................#acbba##a##e#eeeeee#e##a##abbca#................................",
"................................#acba#a###e#e#eeee#e#e###a#abca#................................",
"................................#acbba##a##e#eeeeee#e##a##abbca#................................",
"................................#acba#a###e#e#eeee#e#e###a#abca#................................",
"................................#acbba##a##e#eeeeee#e##a##abbca#................................",
"................................#acba#a###e#e#eeee#e#e###a#abca#................................",
"................................#acbba##a##e#eeeeee#e##a##abbca#................................",
"................................#acba#a###e#e#eeee#e#e###a#abca#................................",
"................................#acbba##a##e#eeeeee#e##a##abbca#................................",
"................................#acba#a###e#e#eeee#e#e###a#abca#................................",
"................................#acbba##a##e#eeeeee#e##a##abbca#................................",
"................................#acba#a###e#e#eeee#e#e###a#abca#................................",
"................................#acbba##a##e#eeeeee#e##a##abbca#................................",
"................................#acba#a###e#e#eeee#e#e###a#abca#................................",
"................................#acbba##a##e#eeeeee#e##a##abbca#................................",
"................................#acba#a###e#e#eeee#e#e###a#abca#................................",
"................................#acbba##a##e#eeeeee#e##a##abbca#................................",
"................................#acba#a###e#e#eeee#e#e###a#abca#................................",
"................................#acbba##a##e#eeeeee#e##a##abbca#................................",
"................................#acba#a###e#e#eeee#e#e###a#abca#................................",
"................................#acbba##a##e#eeeeee#e##a##abbca#................................",
"................................#acba#a###e#e#eeee#e#e###a#abca#................................",
"................................#acbba##a##e#eeeeee#e##a##abbca#................................",
"................................#acba#a###e#e#eeee#e#e###a#abca#................................",
"................................#acbba##a##e#eeeeee#e##a##abbca#................................",
"................................#acba#a###e#e#eeee#e#e###a#abca#................................",
"................................#acbba##a##e#eeeeee#e##a##abbca#................................",
"................................#acba#a###e#e#eeee#e#e###a#abca#................................",
"................................#acbba##a##e#eeeeee#e##a##abbca#................................",
"................................#acba#a###e#e#eeee#e#e###a#abca#................................",
"................................#acbba##a##e#eeeeee#e##a##abbca#................................",
"................................#acba#a###e#e#eeee#e#e###a#abca#................................",
"................................#acbba##a##e#eeeeee#e##a##abbca#................................",
"................................#acba#a###e#e#eeee#e#e###a#abca#................................",
"................................#acbba##a##e#eeeeee#e##a##abbca#................................",
"................................#acba#a###e#e#eeee#e#e###a#abca#................................",
"................................#acbba##a##e#eeeeee#e##a##abbca#................................",
"................................#acba#a###e#e#eeee#e#e###a#abca#................................",
"................................#acbba##a##e#eeeeee#e##a##abbca#................................",
"................................#acba#a###e#e#eeee#e#e###a#abca#................................",
"................................#acbba##a##e#eeeeee#e##a##abbca#................................",
"................................#acba#a###e#e#eeee#e#e###a#abca#................................",
"................................#acbba##a##e#eeeeee#e##a##abbca#................................",
"................................#acba#a###e#e#eeee#e#e###a#abca#................................",
"................................##bbbbbcccdcddddddddcdcccbbbbb##................................",
"................................##aaaaaabbbbbccddccbbbbbaaaaaa##................................",
"................................eeeee###aaa#abbccbba#aaa###eeeee................................",
"................................###aaabbbbbabccddccbabbbbbaaa###................................",
"................................eeeee##aaaa#abbccbba#aaaa##eeeee................................",
"................................###aaaabbbbabccddccbabbbbaaaa###................................",
"................................###aa##abb##bcc##ccb##bba##aa###................................",
"................................gh###gh#b#gh#c#gg#c#hg#b#hg###hg................................",
"................................fg###fg#b#fg#c#ff#c#gf#b#gf###gf................................",
"................................###aa##abb##bcc##ccb##bba##aa###................................",
"................................###aaaabbbbabccddccbabbbbaaaa###................................",
".................................###aaabbbbabccddccbabbbbaaa###.................................",
"..................................eee###aaaaabbbbbbaaaaa###eee..................................",
"...................................###aaabbbcccddcccbbbaaa###...................................",
".....................................####aaabbbccbbbaaa####.....................................",
"........................................####aaaaaaaa####........................................"};
