/* XPM */
static char *dmg5_xpm[]={
"96 96 2 1",
". c None",
"# c #aa1413",
"..........................................................##################################....",
"..........................................................##################################....",
".........................................................##################################.....",
".........................................................##################################.....",
".........................................................##################################.....",
"........................................................##################################......",
"........................................................##################################......",
".......................................................###################################......",
".......................................................##################################.......",
"......................................................###################################.......",
"......................................................###################################.......",
".....................................................###################################........",
".....................................................###################################........",
"....................................................####################################........",
"....................................................###################################.........",
"...................................................####################################.........",
"...................................................###################################..........",
"..................................................####################################..........",
".................................................#####################################..........",
".................................................####################################...........",
"................................................#####################################...........",
"................................................####################################............",
"...............................................#####################################............",
"..............................................#####################################.............",
".............................................######################################.............",
".............................................#####################################..............",
"............................................######################################..............",
"...........................................######################################...............",
"..........................................#######################################...............",
"..........................................######################################................",
".........................................#######################################................",
"........................................#######################################.................",
".......................................########################################.................",
"......................................########################################..................",
".....................................########################################...................",
"....................................#########################################...................",
"...................................#########################################....................",
"..................................#########################################.....................",
".................................##########################################.....................",
"................................##########################################......................",
"...............................##########################################.......................",
"..............................###########################################.......................",
"............................############################################........................",
"...........................############################################.........................",
"..........................#############################################.........................",
"........................##############################################..........................",
".......................##############################################...........................",
"......................##############################################............................",
"....................###############################################.............................",
"..................#################################################.............................",
".................#################################################..............................",
"...............##################################################...............................",
".............###################################################................................",
"...........####################################################.................................",
".........#####################################################..................................",
".......######################################################...................................",
".....#######################################################....................................",
"..#########################################################.....................................",
"###########################################################.....................................",
"#########################################################.......................................",
"########################################################........................................",
"#######################################################.........................................",
"######################################################..........................................",
"#####################################################...........................................",
"####################################################............................................",
"###################################################.............................................",
"##################################################..............................................",
"################################################................................................",
"###############################################.................................................",
"##############################################..................................................",
"#############################################...................................................",
"###########################################.....................................................",
"##########################################......................................................",
"########################################........................................................",
"#######################################.........................................................",
"#####################################...........................................................",
"####################################............................................................",
"##################################..............................................................",
"#################################...............................................................",
"###############################.................................................................",
"#############################...................................................................",
"###########################.....................................................................",
"#########################.......................................................................",
"#######################.........................................................................",
"#####################...........................................................................",
"###################.............................................................................",
"################................................................................................",
"##############..................................................................................",
"###########.....................................................................................",
"########........................................................................................",
"#####...........................................................................................",
"##..............................................................................................",
"................................................................................................",
"................................................................................................",
"................................................................................................",
"................................................................................................"};
