/* XPM */
static char *energy_9_xpm[]={
"16 16 3 1",
". c None",
"# c #283888",
"a c #f8f8f8",
"..############..",
"..############..",
"####aaaaaaaa####",
"####aaaaaaaa####",
"##aaaa####aaaa##",
"##aaaa####aaaa##",
"####aaaaaaaaaa##",
"####aaaaaaaaaa##",
"..########aaaa##",
"..########aaaa##",
"..##aaaaaaaa####",
"..##aaaaaaaa####",
"..############..",
"..############..",
"................",
"................"};
