/* XPM */
static char *energy_1_xpm[]={
"16 16 3 1",
". c None",
"# c #283888",
"a c #f8f8f8",
"....########....",
"....########....",
"..####aaaa##....",
"..####aaaa##....",
"..##aaaaaa##....",
"..##aaaaaa##....",
"..####aaaa##....",
"..####aaaa##....",
"....##aaaa##....",
"....##aaaa##....",
"....##aaaa##....",
"....##aaaa##....",
"....########....",
"....########....",
"................",
"................"};
