/* XPM */
static char *explode_miss_big4_xpm[]={
"64 64 2 1",
". c None",
"# c #984000",
"................................................................",
"................................................................",
"................................................................",
"................................................................",
"................................................................",
"................................................................",
"................................................................",
"................................................................",
"................................................................",
"................................................................",
"................................................................",
"................................................................",
"................................................................",
"................................................................",
"................................................................",
"................................................................",
"................................................................",
"................................................................",
"................................................................",
"................................................................",
"................................................................",
"................................................................",
"........................####......##............................",
"........................####......##............................",
"....................##....................##....................",
"....................##....................##....................",
"......................##........................................",
"......................##........................................",
"....................####....................##..................",
"....................####....................##..................",
"................##..............####............................",
"................##..............####............................",
"................##......##........##............................",
"................##......##........##............................",
"........................................####....................",
"........................................####....................",
"........................................##....##................",
"........................................##....##................",
"................##..............................................",
"................##..............................................",
"................####............................................",
"................####............................................",
"....................................####........................",
"....................................####........................",
"..................##......##........####....##..................",
"..................##......##........####....##..................",
"....................##......####................................",
"....................##......####................................",
"....................##........##..........##....................",
"....................##........##..........##....................",
"........................##............##........................",
"........................##............##........................",
"................................................................",
"................................................................",
"................................................................",
"................................................................",
"................................................................",
"................................................................",
"................................................................",
"................................................................",
"................................................................",
"................................................................",
"................................................................",
"................................................................"};
