/* XPM */
static char *explode_miss_big3_xpm[]={
"64 64 4 1",
". c None",
"a c #984000",
"# c #b08000",
"b c #d8c800",
"................................................................",
"................................................................",
"................................................................",
"................................................................",
"................................................................",
"................................................................",
"................................................................",
"................................................................",
"................................................................",
"................................................................",
"................................................................",
"................................................................",
"................................................................",
"................................................................",
"................................................................",
"................................................................",
"................................................................",
"................................................................",
"................................................................",
"................................................................",
"................................................................",
"........................##aa##aa................................",
"........................##aa##aa................................",
"..................aa..##bbbb##..........##bb....................",
"..................aa..##bbbb##..........##bb....................",
"....................aabbbb##aaaa..aaaa....bb##..................",
"....................aabbbb##aaaa..aaaa....bb##..................",
"....................aa####aa..aa..aaaa......##..................",
"....................aa####aa..aa..aaaa......##..................",
"................aaaaaa....aa....................................",
"................aaaaaa....aa....................................",
"................aa####................aa....##..................",
"................aa####................aa....##..................",
"..................bbbb..aaaa........aaaaaa..bbaa................",
"..................bbbb..aaaa........aaaaaa..bbaa................",
"................##bbbb##aa............aa..##bb##................",
"................##bbbb##aa............aa..##bb##................",
"................aabb##..aaaa..............##bb##................",
"................aabb##..aaaa..............##bb##................",
"................aaaa##..aa..............aa####..................",
"................aaaa##..aa..............aa####..................",
"....................##....aa....................................",
"....................##....aa....................................",
"....................aaaa................aa......................",
"....................aaaa................aa......................",
"................aa......aa##aa........aa....##..................",
"................aa......aa##aa........aa....##..................",
"........................##bb##aa..aa......bbaa..................",
"........................##bb##aa..aa......bbaa..................",
"....................aa....##bb##..aa####..aa....................",
"....................aa....##bb##..aa####..aa....................",
"............................aaaa......aaaa......................",
"............................aaaa......aaaa......................",
"................................................................",
"................................................................",
"................................................................",
"................................................................",
"................................................................",
"................................................................",
"................................................................",
"................................................................",
"................................................................",
"................................................................",
"................................................................"};
