/* XPM */
static char *metroid_door2_xpm[]={
"64 64 172 2",
"Qt c #00000c",
"#n c #01010d",
"ab c #010311",
".A c #020312",
"#3 c #020413",
"#Y c #020414",
".a c #020516",
".# c #021832",
"aF c #03081e",
"#L c #03091f",
"aI c #031833",
".K c #041a37",
"aA c #041b39",
".m c #050d28",
".Y c #051d3f",
".T c #051d40",
"al c #062046",
"ai c #062047",
".l c #081539",
"#K c #08153a",
".Z c #08153b",
"#X c #091841",
".b c #092553",
".4 c #092554",
"aN c #0a2758",
".R c #0a2759",
".B c #0b1d4b",
"au c #0c1f50",
".c c #0c1f51",
"#4 c #0c2052",
".L c #0c2053",
"ac c #0c2a60",
".n c #0d2359",
"aO c #0d2b64",
".Q c #0d2c65",
".z c #0e2e6a",
"av c #0f2965",
".d c #0f2966",
".5 c #0f2f6b",
"aH c #103273",
"aG c #103274",
"aJ c #112d6f",
"#T c #123177",
"#d c #123477",
"#w c #12347a",
"ax c #13327a",
".k c #13337b",
".X c #133780",
"aP c #133882",
".e c #133883",
"ao c #14347f",
".y c #14357f",
"aD c #143580",
".J c #143581",
"#o c #14377e",
"aB c #143986",
"ah c #143987",
".o c #153682",
".f c #153886",
".U c #153a85",
".j c #153b8b",
"#2 c #163b8c",
"az c #163b8d",
".g c #163b8e",
"aE c #163c8f",
".i c #163d90",
".C c #173986",
".3 c #173c90",
"ae c #173d8c",
".P c #173d91",
"aL c #173e92",
".h c #173e95",
".x c #184097",
".I c #184098",
"aC c #193a88",
"#a c #19419a",
".w c #19429b",
"#l c #1a439c",
"aK c #1b3171",
".H c #1b449e",
".W c #1b459f",
"aM c #1d2a5d",
"#Z c #1d469e",
"#9 c #1e479f",
".S c #1e48a1",
".M c #1e49a2",
"#b c #1f1f41",
"aa c #204ba9",
".O c #204caa",
".0 c #214da9",
".p c #214dac",
".2 c #2350b0",
"#m c #24397c",
".D c #2655b8",
".q c #2757ba",
".6 c #2b5cc2",
".r c #2c5ec5",
"#W c #2d5fc6",
".V c #2d5fc7",
".N c #2e62ca",
"#e c #3064ce",
".E c #3065cf",
".s c #3165d0",
"#v c #3267d2",
"#p c #3267d3",
".t c #346ad7",
"ay c #356cda",
".u c #366cdb",
"#S c #366ddb",
".1 c #366ddc",
".v c #376fde",
".F c #376fdf",
".G c #3870e0",
"#q c #3970e0",
"#B c #3971e0",
"#G c #3a71e0",
"#M c #3a72e0",
"#c c #3b2d49",
"#5 c #3b72e0",
"aj c #3b73e0",
"ap c #3c73e0",
".7 c #3f75e0",
"#A c #4075e0",
"#0 c #4478e0",
"a# c #4579e0",
"#R c #4679e0",
"#u c #4779e0",
"#x c #477ae0",
"#8 c #487ae0",
"ag c #497be0",
"#F c #4c7de0",
"#O c #4e7ee0",
"at c #507fe0",
".8 c #5482e0",
"aq c #5783e0",
".9 c #5885e0",
"#r c #5a85e0",
"#U c #5b87e0",
"#k c #5c87e0",
"#. c #5d88e0",
"#V c #5f89e0",
"ak c #6089e0",
"## c #608ae0",
"#C c #618ae0",
"#1 c #628be0",
"#J c #638be0",
"#f c #6b90e0",
"af c #6e92e0",
"#H c #6f93e0",
"#P c #7194e0",
"as c #7295e0",
"a. c #7395e0",
"#N c #7496e0",
"am c #7999e0",
"#z c #7a9ae0",
"ar c #7c9be0",
"#y c #7d9ce0",
"aw c #819ee0",
"#E c #84a0e0",
"an c #86a1e0",
"#g c #87a2e0",
"#t c #88a3e0",
"ad c #8aa4e0",
"#s c #8ba5e0",
"#6 c #8ba6e0",
"#7 c #8ca5e0",
"#D c #8ca6e0",
"#Q c #8da6e0",
"#h c #8ea7e0",
"#i c #8fa7e0",
"#I c #8fa8e0",
"#j c #90a8e0",
"Qt.#.#QtQtQtQtQt.#.#.#QtQtQt.#Qt.#Qt.#QtQtQtQtQt.a.b.c.d.e.f.g.h.h.i.j.k.d.c.l.a.#.#.#QtQtQt.#Qt.#Qt.#QtQtQtQtQtQt.#QtQt.#QtQtQt",
"Qt.#.#QtQtQt.#QtQt.#QtQtQt.#Qt.#.#.#QtQtQt.m.n.o.p.q.r.s.t.u.v.v.u.t.s.r.q.p.w.x.y.z.mQtQt.#Qt.#.#.#QtQtQtQtQtQt.#QtQt.#QtQtQtQt",
"Qt.#.#QtQtQt.#Qt.#QtQtQtQtQt.#Qt.#Qt.A.B.C.D.E.F.G.G.G.G.G.G.G.G.G.G.G.G.G.G.F.E.D.H.I.J.B.A.#Qt.#QtQtQtQtQtQtQtQtQtQtQtQt.#QtQt",
"Qt.#QtQtQt.#.#.#QtQt.#.#Qt.#.#.#.K.L.M.N.F.G.G.G.G.G.G.G.G.G.G.G.G.G.G.G.G.G.G.G.G.F.N.O.I.P.Q.K.#Qt.#.#QtQt.#.#Qt.#Qt.#Qt.#.#Qt",
"Qt.#.#.#Qt.#.#.#Qt.#.#Qt.#.#.#.R.S.E.G.G.G.G.G.G.G.G.G.G.G.G.G.G.G.G.G.G.G.G.G.G.G.G.G.G.E.O.I.i.R.#.#.#Qt.#.#.#.#Qt.#Qt.#.#.#Qt",
"QtQt.#.#.#.#.#.#QtQtQtQt.#.T.U.V.G.G.G.G.G.G.G.G.G.G.G.G.G.G.G.G.G.G.G.G.G.G.G.G.G.G.G.G.G.G.V.W.I.X.YQtQt.#.#.#.#.#.#.#Qt.#QtQt",
"Qt.#QtQt.#QtQtQtQtQtQt.#.Z.0.1.G.G.G.G.G.G.G.G.G.G.G.G.G.G.G.G.G.G.G.G.G.G.G.G.G.G.G.G.G.G.G.G.1.2.I.3.4QtQtQtQt.#Qt.#QtQtQtQtQt",
"Qt.#.#.#.#Qt.#.#Qt.#Qt.5.6.G.G.G.G.G.G.G.G.G.G.G.G.G.7.8.9#.##.7.G.G.G.G.G.G.G.G.G.G.G.G.G.G.G.G.G.6#a.I.z.#Qt.#.#.#.#Qt.#.#.#.#",
".#.#QtQt#b.##b#bQt#c#d#e.G.G.G.G.G.G.G.G.G.G.G.G#f#g#h#i#j#j#j#k.G.G.G.G.G.G.G.G.G.G.G.G.G.G.G.G.G.G#e#l.I#m#nQt#b#b.#.##b.##b.#",
".#QtQt#b.#.#.#.##n#o#p.G.G.G.G.G.G.G.G.G#q#r#s#h#j#j#j#j#j#j#t#u.G.G.G.G.G.G.G.G.G.G.G.G.G.G.G.G.G.G.G#v.H.I#w#n.#.#.#.#.#.#Qt.#",
"QtQt.#.#Qt.#Qt.##d#p.G.G.G.G.G.G.G.G.G#x#y#i#j#j#j#j#j#j#j#z#A.G.G.G.G.G.G.G.G.G.G.G.G.G.G.G.G.G.G.G.G.G#v#l.I.dQtQtQt.#Qt.#Qt.#",
".#.#.#.#QtQt.#.5#e.G.G.G.G.G.G.G.G#B#C#D#j#j#j#j#j#j#j#E#F.G.G.G.G.G.G.G.G.G.G.G.G.G.G.G.G.G.G.G.G.G.G.G.G#e#a.I.zQtQtQtQtQtQtQt",
".#.#.#QtQt.#.4.6.G.G.G.G.G.G.G.G#G#H#i#j#I#j#j#j#j#h#J.G.G.G.G.G.G.G.G.G.G.G.G.G.G.G.G.G.G.G.G.G.G.G.G.G.G.G.6.I.I#KQtQtQtQtQtQt",
".#.#QtQt.##L.0.G.G.G.G.G.G.G.G#M#N#j#j#j#j#j#j#j#t#O.G.G.G.G.G.G.G.G.G.G.G.G.G.G.G.G.G.G.G.G.G.G.G.G.G.G.G.G.G.2.I.3.YQtQtQtQt.#",
".#QtQt.#Qt.U.1.G.G.G.G.G.G.G.G#P#j#j#j#j#j#j#j#Q#R.G.G.G.G.G.G.G.G.G.G.G.G.G.G.G.G.G.G.G.G.G.G.G.G.G.G.G.G.G.G#S.W.I#T.#.#QtQt.#",
"Qt.#.#.#.R.V.G.G.G.G.G.G.G.G#U#j#j#j#j#j#j#j#h#V.G.G.G.G.G.G.G.G.G.G.G.G.G.G.G.G.G.G.G.G.G.G.G.G.G.G.G.G.G.G.G.G#W.I.I#XQtQtQt.#",
".#Qt.##Y#Z.G.G.G.G.G.G.G.G#0#j#j#j#j#j#j#i#1#0#q.G.G.G.G.G.G.G.G.G.G.G.G.G.G.G.G.G.G.G.G.G.G.G.G.G.G.G.G.G.G.G.G.G.O.I#2#3Qt.#Qt",
".#.#Qt#4.E.G.G.G.G.G.G.G#5#6#j#j#j#j#j#7#8.G.G.G.G.G.G.G.G.G.G.G.G.G.G.G.G.G.G.G.G.G.G.G.G.G.G.G.G.G.G.G.G.G.G.G.G.E.I.I#4.#Qt.#",
".#Qt.A#9.G.G.G.G.G.G.G.Ga.#j#j#j#j#j#sa#.G.G.G.G.G.G.G.G.G.G.G.G.G.G.G.G.G.G.G.G.G.G.G.G.G.G.G.G.G.G.G.G.G.G.G.G.G.Gaa.I.gab.#Qt",
".#Qtac.N.G.G.G.G.G.G.G#G#j#j#j#j#jad#u.G.G.G.G.G.G.G.G.G.G.G.G.G.G.G.G.G.G.G.G.G.G.G.G.G.G.G.G.G.G.G.G.G.G.G.G.G.G.G.N.I.Iac.#.#",
".#.#ae.F.G.G.G.G.G.G.Gaf#j#j#j#j#hag.G.G.G.G.G.G.G.G.G.G.G.G.G.G.G.G.G.G.G.G.G.G.G.G.G.G.G.G.G.G.G.G.G.G.G.G.G.G.G.G.F.H.Iah.#.#",
".#ai.D.G.G.G.G.G.G.Gaj#j#j#j#j#jak.G.G.G.G.G.G.G.G.G.G.G.G.G.G.G.G.G.G.G.G.G.G.G.G.G.G.G.G.G.G.G.G.G.G.G.G.G.G.G.G.G.G.D.I.Ial.#",
".#.n.E.G.G.G.G.G.G.Gam#j#j#j#jan#G.G.G.G.G.G.G.G.G.G.G.G.G.G.G.G.G.G.G.G.G.G.G.G.G.G.G.G.G.G.G.G.G.G.G.G.G.G.G.G.G.G.G.E.I.I.nQt",
"Qt.o.F.G.G.G.G.G.G.G#j#j#j#j#j##.G.G.G.G.G.G.G.G.G.G.G.G.G.G.G.G.G.G.G.G.G.G.G.G.G.G.G.G.G.G.G.G.G.G.G.G.G.G.G.G.G.G.G.v.w.IaoQt",
".a.p.G.G.G.G.G.G.G.7#j#j#j#j#Pap.G.G.G.G.G.G.G.G.G.G.G.G.G.G.G.G.G.G.G.G.G.G.G.G.G.G.G.G.G.G.G.G.G.G.G.G.G.G.G.G.G.G.G.G.p.I.I.a",
".l.q.G.G.G.G.G.G.Gaq#j#j#jar#B.G.G.G.G.G.G.G.G.G.G.G.G.G.G.G.G.G.G.G.G.G.G.G.G.G.G.G.G.G.G.G.G.G.G.G.G.G.G.G.G.G.G.G.G.G.q.I.I.l",
".c.r.G.G.G.G.G.G.Gas#j#j#jat.G.G.G.G.G.G.G.G.G.G.G.G.G.G.G.G.G.G.G.G.G.G.G.G.G.G.G.G.G.G.G.G.G.G.G.G.G.G.G.G.G.G.G.G.G.G.r.I.Iau",
".d.s.G.G.G.G.G.G.G#y#j#j#i.G.G.G.G.G.G.G.G.G.G.G.G.G.G.G.G.G.G.G.G.G.G.G.G.G.G.G.G.G.G.G.G.G.G.G.G.G.G.G.G.G.G.G.G.G.G.G.s.I.Iav",
".k.t.G.G.G.G.G.G.Gaw#j#j#z.G.G.G.G.G.G.G.G.G.G.G.G.G.G.G.G.G.G.G.G.G.G.G.G.G.G.G.G.G.G.G.G.G.G.G.G.G.G.G.G.G.G.G.G.G.G.G.t.I.Iax",
".f.u.G.G.G.G.G.G.G#1#I#s#0.G.G.G.G.G.G.G.G.G.G.G.G.G.G.G.G.G.G.G.G.G.G.G.G.G.G.G.G.G.G.G.G.G.G.G.G.G.G.G.G.G.G.G.G.G.G.Gay.I.I.f",
".g.v.G.G.G.G.G.G.G.G#u.7.G.G.G.G.G.G.G.G.G.G.G.G.G.G.G.G.G.G.G.G.G.G.G.G.G.G.G.G.G.G.G.G.G.G.G.G.G.G.G.G.G.G.G.G.G.G.G.G.v.I.Iaz",
".h.v.G.G.G.G.G.G.G.G.G.G.G.G.G.G.G.G.G.G.G.G.G.G.G.G.G.G.G.G.G.G.G.G.G.G.G.G.G.G.G.G.G.G.G.G.G.G.G.G.G.G.G.G.G.G.G.G.G.G.v.I.I.h",
".h.u.G.G.G.G.G.G.G.G.G.G.G.G.G.G.G.G.G.G.G.G.G.G.G.G.G.G.G.G.G.G.G.G.G.G.G.G.G.G.G.G.G.G.G.G.G.G.G.G.G.G.G.G.G.G.G.G.G.Gay.I.I.h",
".g.t.G.G.G.G.G.G.G.G.G.G.G.G.G.G.G.G.G.G.G.G.G.G.G.G.G.G.G.G.G.G.G.G.G.G.G.G.G.G.G.G.G.G.G.G.G.G.G.G.G.G.G.G.G.G.G.G.G.G.t.I.Iaz",
".f.s.G.G.G.G.G.G.G.G.G.G.G.G.G.G.G.G.G.G.G.G.G.G.G.G.G.G.G.G.G.G.G.G.G.G.G.G.G.G.G.G.G.G.G.G.G.G.G.G.G.G.G.G.G.G.G.G.G.G.s.I.I.f",
".k.r.G.G.G.G.G.G.G.G.G.G.G.G.G.G.G.G.G.G.G.G.G.G.G.G.G.G.G.G.G.G.G.G.G.G.G.G.G.G.G.G.G.G.G.G.G.G.G.G.G.G.G.G.G.G.G.G.G.G.r.I.Iax",
".d.q.G.G.G.G.G.G.G.G.G.G.G.G.G.G.G.G.G.G.G.G.G.G.G.G.G.G.G.G.G.G.G.G.G.G.G.G.G.G.G.G.G.G.G.G.G.G.G.G.G.G.G.G.G.G.G.G.G.G.q.I.Iav",
".c.p.G.G.G.G.G.G.G.G.G.G.G.G.G.G.G.G.G.G.G.G.G.G.G.G.G.G.G.G.G.G.G.G.G.G.G.G.G.G.G.G.G.G.G.G.G.G.G.G.G.G.G.G.G.G.G.G.G.G.p.I.Iau",
".l.w.F.G.G.G.G.G.G.G.G.G.G.G.G.G.G.G.G.G.G.G.G.G.G.G.G.G.G.G.G.G.G.G.G.G.G.G.G.G.G.G.G.G.G.G.G.G.G.G.G.G.G.G.G.G.G.G.G.v.w.I.I.l",
".a.I.E.G.G.G.G.G.G.G.G.G.G.G.G.G.G.G.G.G.G.G.G.G.G.G.G.G.G.G.G.G.G.G.G.G.G.G.G.G.G.G.G.G.G.G.G.G.G.G.G.G.G.G.G.G.G.G.G.E.I.I.IaA",
".#aB.D.G.G.G.G.G.G.G.G.G.G.G.G.G.G.G.G.G.G.G.G.G.G.G.G.G.G.G.G.G.G.G.G.G.G.G.G.G.G.G.G.G.G.G.G.G.G.G.G.G.G.G.G.G.G.G.G.D.I.IaC.#",
".#.n.H.F.G.G.G.G.G.G.G.G.G.G.G.G.G.G.G.G.G.G.G.G.G.G.G.G.G.G.G.G.G.G.G.G.G.G.G.G.G.G.G.G.G.G.G.G.G.G.G.G.G.G.G.G.G.G.F.H.I.I.n.#",
"Qt.m.I.N.G.G.G.G.G.G.G.G.G.G.G.G.G.G.G.G.G.G.G.G.G.G.G.G.G.G.G.G.G.G.G.G.G.G.G.G.G.G.G.G.G.G.G.G.G.G.G.G.G.G.G.G.G.G.N.I.I.I.m.#",
".#.#ah.O.G.G.G.G.G.G.G.G.G.G.G.G.G.G.G.G.G.G.G.G.G.G.G.G.G.G.G.G.G.G.G.G.G.G.G.G.G.G.G.G.G.G.G.G.G.G.G.G.G.G.G.G.G.Gaa.I.IaDQtQt",
".#.#ac.I.E.G.G.G.G.G.G.G.G.G.G.G.G.G.G.G.G.G.G.G.G.G.G.G.G.G.G.G.G.G.G.G.G.G.G.G.G.G.G.G.G.G.G.G.G.G.G.G.G.G.G.G.G.E.I.I.I.BQtQt",
".#.#.AaE.O.G.G.G.G.G.G.G.G.G.G.G.G.G.G.G.G.G.G.G.G.G.G.G.G.G.G.G.G.G.G.G.G.G.G.G.G.G.G.G.G.G.G.G.G.G.G.G.G.G.G.G.G.O.I.I.gabQt.#",
".#QtQt.Q.I.V.G.G.G.G.G.G.G.G.G.G.G.G.G.G.G.G.G.G.G.G.G.G.G.G.G.G.G.G.G.G.G.G.G.G.G.G.G.G.G.G.G.G.G.G.G.G.G.G.G.G#W.I.I.I.QQtQt.#",
"Qt.#.#.K.i.W.1.G.G.G.G.G.G.G.G.G.G.G.G.G.G.G.G.G.G.G.G.G.G.G.G.G.G.G.G.G.G.G.G.G.G.G.G.G.G.G.G.G.G.G.G.G.G.G.G#S.W.I.I#2#3QtQt.#",
".#Qt.#Qt#X.I.2.G.G.G.G.G.G.G.G.G.G.G.G.G.G.G.G.G.G.G.G.G.G.G.G.G.G.G.G.G.G.G.G.G.G.G.G.G.G.G.G.G.G.G.G.G.G.G.G.2.I.I.I#XQtQt.#Qt",
".#.#QtQtQt#T.I.6.G.G.G.G.G.G.G.G.G.G.G.G.G.G.G.G.G.G.G.G.G.G.G.G.G.G.G.G.G.G.G.G.G.G.G.G.G.G.G.G.G.G.G.G.G.G.6.I.I.I#TQtQt.#Qt.#",
".#QtQtQtQtaF.3#a#e.G.G.G.G.G.G.G.G.G.G.G.G.G.G.G.G.G.G.G.G.G.G.G.G.G.G.G.G.G.G.G.G.G.G.G.G.G.G.G.G.G.G.G.G#e#a.I.I.3aFQtQtQt.#Qt",
".#Qt.#.#QtQt.4.I#l#v.G.G.G.G.G.G.G.G.G.G.G.G.G.G.G.G.G.G.G.G.G.G.G.G.G.G.G.G.G.G.G.G.G.G.G.G.G.G.G.G.G.G#v#l.I.I.I#K.#.#Qt.#.#.#",
".#.#.#.#Qt.#.#.z.I.H#v.G.G.G.G.G.G.G.G.G.G.G.G.G.G.G.G.G.G.G.G.G.G.G.G.G.G.G.G.G.G.G.G.G.G.G.G.G.G.G.G#v.H.I.I.I.n.#.#Qt.#.#.#.#",
".#.#.#QtQt.#.#.#aG.I#l#e.G.G.G.G.G.G.G.G.G.G.G.G.G.G.G.G.G.G.G.G.G.G.G.G.G.G.G.G.G.G.G.G.G.G.G.G.G.G#e#l.I.I.IaHQtQtQtQt.#.#.#.#",
".#QtQt.#QtQtQtQtaIaJ.I#a.6.G.G.G.G.G.G.G.G.G.G.G.G.G.G.G.G.G.G.G.G.G.G.G.G.G.G.G.G.G.G.G.G.G.G.G.G.6#a.I.I.IaJ#nQtQtQt.#Qt.#QtQt",
"QtQt.#.#.#.#Qt.#.#aIaG.I.I.2#S.G.G.G.G.G.G.G.G.G.G.G.G.G.G.G.G.G.G.G.G.G.G.G.G.G.G.G.G.G.G.G.G#S.2.I.I.I.I.daI.#Qt.#Qt.#.#.#QtQt",
"Qt.##b#b#b#cQtQt#b#b.#.z.I.I.W#W.G.G.G.G.G.G.G.G.G.G.G.G.G.G.G.G.G.G.G.G.G.G.G.G.G.G.G.G.G.G#W.W.I.I.I.IaK.##b#bQt#c.##b#b.#.#Qt",
"Qt.##b.#.#.#.#Qt.#.#.#.#.4aL.I.I.O.E.G.G.G.G.G.G.G.G.G.G.G.G.G.G.G.G.G.G.G.G.G.G.G.G.G.G.E.O.I.I.I.I.3aM.#.#.#.#Qt.#.#.#.#.#.#Qt",
"Qt.#.#.#.#QtQtQtQtQtQt.#Qt.Y#T.I.I.Iaa.N.F.G.G.G.G.G.G.G.G.G.G.G.G.G.G.G.G.G.G.G.G.F.Naa.I.I.I.I.I#T.Y.#Qt.#Qt.#.#Qt.##bQt#b.#Qt",
"Qt.#Qt.#Qt.#.#.#.#QtQtQtQtQtQt#X.i.I.I.I.H.D.E.F.G.G.G.G.G.G.G.G.G.G.G.G.G.G.F.E.D.H.I.I.I.I.I#2aN.#.#.#QtQt.#.#.#Qt.#Qt.#.#.#Qt",
"Qt.#QtQtQt.#.#.#QtQtQtQtQtQtQtQt.K.Q.P.I.I.I.I.w.p.q.r.s.tay.v.vay.t.s.r.q.p.w.I.I.I.I.I.I.g#4#3.#.#.#QtQt.#.#.#.#.#QtQtQt.#.#Qt",
"QtQtQt.#.#.#.#QtQtQt.#QtQtQtQt.#.#.#.A.Bah.I.I.I.I.I.I.I.I.I.I.I.I.I.I.I.I.I.I.I.I.I.I.J.BabQt.#.#.#QtQt.#Qt.#Qt.#QtQtQtQtQtQtQt",
"QtQt.#QtQt.#QtQtQt.#Qt.#.#QtQt.#.#QtQt.#Qtal.nao.x.I.I.I.I.I.I.I.I.I.I.I.I.I.I.xao.z.m.#.#QtQt.#.#QtQt.#Qt.#QtQtQtQtQtQt.#.#QtQt",
"QtQt.#.#.#QtQtQt.#Qt.#QtQtQtQt.#Qt.#.#.#.#QtQtQt.a.laOaHax.jaz.h.haz.jaPaHau.l.a.#Qt.#QtQtQtQt.#Qt.#.#.#.#QtQtQtQtQt.#.#Qt.#QtQt"};
