/* XPM */
static char *metroid1_xpm[] = {
/* columns rows colors chars-per-pixel */
"64 64 4 1 ",
"  c #00000C",
". c #021832",
"X c #1F1F41",
"o c #3B2D49",
/* pixels */
" ..   .  .   . ...      .  .     ..   .  .   . ...      .  .    ",
" ..   . .     . .            .   ..   . .     . .            .  ",
" .   ...  .. .... ..  .. . . ..  .   ...  .. .... ..  .. . . .. ",
" ... ... .. ........ .... . ...  ... ... .. ........ .... . ... ",
"  ......    .......  ....... .    ......    .......  ....... .  ",
" .  .      . .  .  .    . .      .  .      . .  .  .    . .     ",
" .... .. . ...    .  .  .   .   .   .  .  .  .    .... .... ....",
"..  X.XX o.XX..   ... .. ........... ........    .XXXo  XX..X.X.",
".  X.... ......  ...XXXX...X.XXXXXX...XXX.X..... .X.... ...... .",
"  .. . .. .X X. . .XooXoXXXXXXXooXXXXXooXXXX. .  ....      . . .",
"....  ... . ...  .Xo  Xo        o..     o  .. .  . . ....       ",
"...  .....   .. . .o oXX....... oX........ X.  . .   ...        ",
"..  . . .        .XX X     .  . X        . XX .    ....   .    .",
".  . .      ..   .XX X oX.... . X oX.... . X. .   .  .   . ..  .",
" ....     .. .   .XX . X   .. . . X    . . .. .   ...   . .    .",
". .      .  .   ..XX . . X... . . . XX . . X. .. ..     ...   . ",
"..      .  .     .XX . .  . . . . . X  . . X. .  ..   .  .   . .",
".            .  ..XX.. .... . . . . .... . .. .  ..   . .     . ",
". ..  .. . . ..  ..X.. .    . . . .  oXX ..X.  . .   ...  .. ...",
".... .... . ...  .XX........o . . ...Xo... X.  X ... ... .. ....",
"...  ....... .  ..XX.   .     . .    Xo    .. .   ......    ....",
".  .    . .      .Xo oX.. oX... ..... XX.. .. .  .  .      . .  ",
"  .... . . ...   .Xo X.   XX        .    . X. ..  .... . . ...  ",
" .XXXo   o.XX.. ..XX ..oX..ooX..... .... . X. .  .XXXo   o.XX.. ",
" .X....  ......  ..X...X   oX   . . .  . . .. .  .X....  ...... ",
" ....   . .X X. ..XX.  . oXX. oX. .... .   X. .. ....   . .X X. ",
" . . .... . ...  .XX.oX. X X  X .   .. ... XX .  . . .... . ... ",
" .   .....   ..  .XX.X   . oX.. ......   . X. .  .   .....   .. ",
"   .... .        .XX.. oX. XX      . ... . X. .    .... .       ",
"  .  .      ..  . .X . X   .XoXXX. .   . . ..  .  .  .      ..  ",
"  ...     .. .   ..X . .   . XX... .   . . X. .   ...     .. .  ",
" ..      .  .   ...X.. ... . XX    . oX. . .. .. ..      .  .   ",
" ..   . .  .     .XX .   ....XX oX.. X   . X. .  ..   . .  .    ",
" ..   .      .   ..X ... .. X X X    . oX. X. .  ..   .      .  ",
" .   ... . . ..  .XX   . ...o ... oX.. X   XX .  .   ... . . .. ",
" ... .... . ... ..XX . .  . X   . X    . . X.  . ... .... . ... ",
"  .......... .   .XX . .... X.....X oX.. . ..  .  .......... .  ",
" .  .   . .      .Xo .    . X   . X X    . X. .  .  .   . .     ",
" .... .. . ...  ..Xo .... ..X.. ..o.. .... X. .   .... .... ....",
"..  X.XX o.XX..  ..X       .  . . X        .. .. .XXXo  XX..X.X.",
".  X.... ......  ..X oXX..... . . oXX..... X. .  .X.... ...... .",
"  .. . .. .X X. . .X X    . . . . X      . .. .. ....      . . .",
"....  ... . ...  .XX X oX.. . X . X oX.. . .. .  . . ....       ",
"...  .....   ..  .XX . X  . . X . . X  . . .. .  .   ...        ",
"..  . . .       ..XX . . .. . X . . .. . . X. .    ....   .    .",
".  . .      ..   .XX . .    . o . .    . . ..  .  .  .   . ..  .",
" ....     .. .   ..X . ...X.. o . .....X . X. .   ...   . .    .",
". .      .  .    ..X o .  o   X .    . X . XX .  ..     ...   . ",
"..      .  .     .X. o....X...X .......o.. X. .  ..   .  .   . .",
".            .  ..X. X .  X   X  .   . o   X. .. ..   . .     . ",
". ..  .. . . ..  ....X........X........X..... .  .   ...  .. ...",
".... .... . ...  ...                   XX    ... ... ... .. ....",
"...  ....... .    ......  ... ..........  ....    ......    ....",
".  .    . .       .  .   . XX.   .  . . ..   .   .  .      . .  ",
"  .... .... .... .... .. . ...    .... .... .... .... .. . ...  ",
" .XXXo  XX..X.X...  X.XX o.XX..  .XXXo  XX..X.X...  X.XX o.XX.. ",
" .X.... ...... ..  X.... ......  .X.... ...... ..  X.... ...... ",
" ....      . . .  .. . .. .X X.  ....      . . .  .. . .. .X X. ",
" . . ....       ....  ... . ...  . . ....       ....  ... . ... ",
" .   ...        ...  .....   ..  .   ...        ...  .....   .. ",
"   ....   .    ...  . . .          ....   .    ...  . . .       ",
"  .  .   . ..  ..  . .      ..    .  .   . ..  ..  . .      ..  ",
"  ...   . .    . ....     .. .    ...   . .    . ....     .. .  ",
" ..     ...   . . .      .  .    ..     ...   . . .      .  .   "
};
