/* XPM */
static char *proj1_xpm[]={
"64 64 5 1",
". c None",
"# c #6b2921",
"a c #ad5239",
"b c #ff7b31",
"c c #fffff7",
"................................................................",
"................................................................",
"................................................................",
"................................................................",
"................................................................",
"................................................................",
"................................................................",
"................................................................",
"................................................................",
"................................................................",
"................................................................",
"................................................................",
"................................................................",
"................................................................",
"................................................................",
"................................................................",
"................................................................",
"................................................................",
"................................................................",
"................................................................",
"................................................................",
"................................................................",
"................................................................",
"................................................................",
"................................................................",
"................................................................",
"................................................................",
"................................................................",
"................................................................",
"............................###aa###............................",
"...........................##abbbba##...........................",
"..........................#abccccccba#..........................",
".........................#abccccccccba#.........................",
"........................##bccccbbccccb##........................",
"........................#acccbbaabbccca#........................",
"........................#bcccba##abcccb#........................",
"........................#bccba####abccb#........................",
"........................#bccba####abccb#........................",
"........................#bcccba##abcccb#........................",
"........................#acccbbaabbccca#........................",
"........................##bccccbbccccb##........................",
".........................#abccccccccba#.........................",
"..........................#abccccccba#..........................",
"...........................##abbbba##...........................",
"............................###aa###............................",
"................................................................",
"................................................................",
"................................................................",
"................................................................",
"................................................................",
"................................................................",
"................................................................",
"................................................................",
"................................................................",
"................................................................",
"................................................................",
"................................................................",
"................................................................",
"................................................................",
"................................................................",
"................................................................",
"................................................................",
"................................................................",
"................................................................"};
