/* XPM */
static char *proj2_xpm[]={
"64 64 4 1",
". c None",
"# c #6b2921",
"a c #ad5239",
"b c #ff7b31",
"................................................................",
"................................................................",
"................................................................",
"................................................................",
"................................................................",
"................................................................",
"................................................................",
"................................................................",
"................................................................",
"................................................................",
"................................................................",
"................................................................",
"................................................................",
"................................................................",
"................................................................",
"................................................................",
"................................................................",
"................................................................",
"................................................................",
"................................................................",
"................................................................",
"................................................................",
"................................................................",
"................................................................",
"................................................................",
"................................................................",
"................................................................",
"................................................................",
"................................................................",
".............................##aa##.............................",
"...........................##aabbaa##...........................",
"..........................##abbaabba##..........................",
"..........................#abaa##aaba#..........................",
".........................#aba##..##aba#.........................",
".........................#ab##....##ba#.........................",
"........................#aba#......#aba#........................",
"........................#ab#........#ba#........................",
"........................#ab#........#ba#........................",
"........................#aba#......#aba#........................",
".........................#ab##....##ba#.........................",
".........................#aba##..##aba#.........................",
"..........................#abaa##aaba#..........................",
"..........................##abbaabba##..........................",
"...........................##aabbaa##...........................",
".............................##aa##.............................",
"................................................................",
"................................................................",
"................................................................",
"................................................................",
"................................................................",
"................................................................",
"................................................................",
"................................................................",
"................................................................",
"................................................................",
"................................................................",
"................................................................",
"................................................................",
"................................................................",
"................................................................",
"................................................................",
"................................................................",
"................................................................",
"................................................................"};
