/* XPM */
static char *dummy[]={
"40 32 9 1",
". c None",
"g c #000000",
"# c #100010",
"b c #501020",
"a c #702820",
"c c #904830",
"d c #c07040",
"e c #d08850",
"f c #f0a050",
"........................#####...........",
"...........##aaaaa###.#bbb##bb..........",
".........#accddddcaaaaa#######b.........",
"........#acdeeeeedccaacaaaaaabbb#.......",
"........acdeefffeedcdddca#######bb#.....",
".......#cdefffffeeceedaa#ggggggggg#.....",
"......#accdeeedffddedagg#gg##gggggg#....",
"....##decccdeedddccdcaggg#####aaaggg#...",
"...#acaacccdddecacccaaggg#b##aacccc#g#..",
"..#####afecdddccaaaaaaagggbbbaaccddcb#..",
".#####aafeedddcaaaaaaaaa#gabaaaccddcab#.",
".###dcacfeeeedcccccaaaacaabaaaaacccaab##",
"###decceeccafdddddccccaaccabaab##g#bb#g#",
"#b#eccffeecafeefdccccaabbaccaggggg##gggg",
"#bcddfedeecceefedcccaabbbbbbaaaaa##ggggg",
"bcefedddddceeedddccaaab###bbbbbaaa#ggggg",
"bdeeeefeedeeeddccccaaab###g###bb#####gg.",
"addedffdccdfedcaaccbbabb##gg###b#ggggg..",
"acdddfdcaccdddcbbaabbbabb#ggggg##ggggg..",
"acddedcabb###dcbbbb##bbbb#ggggggggggg...",
"acccccabb#b####bb#####bbb#ggg####g#g....",
"aaaaacab#####a#########bb#g#g######.....",
"bbbbaab######aa#########b##g######......",
"b###bab######ccagg###ggg##g##g###.......",
"#####bb######cda#g##gggggg#ggg##........",
".######b####cdaa###gggggggggg###........",
"..#####bb##aaag##gggggggggg###g#........",
"...############ggggggggggg##g##.........",
".....#######gggggggggggg#####...........",
"......######ggggggggggg#................",
".......####gggggggggg##.................",
".........############..................."};
