/* XPM */
static char *dummy[]={
"31 45 9 1",
". c None",
"d c #000000",
"a c #100010",
"b c #501020",
"# c #702820",
"c c #904830",
"e c #c07040",
"f c #d08850",
"g c #f0a050",
"..........####a................",
"........###baaaa...............",
".......#b#caaaddd..............",
".....##bbc#dbdadddd............",
"....bbbbce#ddadddddd...........",
"....bbbbcf#bbaddddddd..........",
"....bccccefcdaaaadddddd........",
"....beggbbef#bbbaaaadddd.......",
"...bbggg##b#ebbbbbbaadddd......",
"...bbggee#bcfcccc#bbaaadd......",
"...beffec#beebbccc##baaddd.....",
"..bbeeeec#bfccbcc###aaaddd.....",
"..bbceec##cfcccc#bbbaaaadd.....",
".bb##ccc#bcecccbbbb#aaaaddd....",
"#bab####b#cfccebbbb#baaaadd....",
"#baa##bb#cefccebbb##c##aaad....",
"c#bababb#cffccebb#ccc#bbaad....",
"ce#aaab#ceffecceeecc#bbaaada...",
"bf#bbb##effeecccccc#b#aaaadaa..",
"bfe####effeecce##bbbaaaaaadda..",
".cffffffeeec######baaaaaaadda..",
".cfgffgggecbb#cccc#baaaaaadda..",
".bcfgggggee#b#cceffc#baaaaadda.",
".bcfgfeeee#b#cceefegfcbbaaadda.",
".bcfgeeeegbb#cceeffgge#baaadda.",
".bcffeggfgbbccceffggge#baaadda.",
".bfgfggffgbb#cceffggge#baaadda.",
".bcfggffcf#b#cceeffgge#baaadaa.",
".bccffffcf###cceeffgfe#baaaaaa.",
".#cccccf#fe###ecefffec#baaaadaa",
"..bcc###cgggfcccceecc#baaaddaaa",
"..bccc##ceefccegccccc#baaaddaaa",
"...bbbbbbecccceegfec##baaaddaaa",
".....bdddbcbeeeegecc#baaddddaaa",
"......ddddbceeeegec#bbadddddaaa",
"......bdddbceeeege##baadddddaaa",
".......dddbceeecge#baaddddddaaa",
".........bbbbbcgc##baddddddadaa",
"...........bbcegcc#baaddddddaa.",
"...........bbccec##bbddddddaa..",
"............b#ccc##bbdddddaa...",
".............b####dddddddaa....",
"..............###dddddddaa.....",
".................adddaaaa......",
".................aaaaaaa......."};
