/* XPM */
static char *dummy[]={
"17 19 9 1",
". c None",
"c c #000000",
"# c #100010",
"a c #501020",
"b c #702820",
"d c #904830",
"e c #c07040",
"f c #d08850",
"g c #f0a050",
".........#a##....",
".......#b#aa#c#..",
".....##d###acc#..",
"...##bdebbbb##c..",
"..#d#efedea####c.",
".#efbfeedd##adac.",
".efggdddbd###a#cc",
"#dgfebbbdaa#cc##c",
"ceffdbdffeb#####c",
"cbdeeegfba#####c#",
"#dgfddgba#####c##",
"bddbaadda##cccc#.",
"#edaa#aa###ccc#..",
"beea########ccc..",
"#aga#######cccc..",
".affdac##cccc#...",
"..baacccc#cc#....",
"....ccca##c#.....",
"....aa####......."};
