/* XPM */
static char *dummy[]={
"16 23 8 1",
". c None",
"# c #100010",
"a c #501020",
"b c #702820",
"c c #904830",
"e c #c07040",
"d c #d08850",
"f c #f0a050",
".......#####....",
".....#aaa##aa...",
"....##aa#####a..",
"...##aaaaaa###a.",
"..#aaabbcbb####.",
"..aaccbcabbba##.",
"..abccbccbbba##.",
"..aabbbdcbaaa###",
"..baaacdcaaa####",
".bdaabdeecba##a#",
".bfdddeeecbaaaa#",
"bbeffffffbccbaa#",
"bedffffddaeccba#",
".efdfdfdfddebaa#",
".cefdcfceceecab#",
".bcebbffeccebbb#",
"..bcdcfcffdeccb#",
"...#becccefeecb#",
"....#bacacfecb##",
"......#acfccbb#a",
".......aaecb##a.",
".......#abba#a..",
"........#a###..."};
