/* XPM */
static char *trophy1_xpm[]={
"64 64 8 1",
". c None",
"# c #312029",
"a c #734952",
"e c #9c697b",
"f c #bd7100",
"d c #deaabd",
"b c #ffb200",
"c c #fffbff",
"................................................................",
"................................................................",
"................................................................",
"................................................................",
"................................................................",
"................................................................",
"................................................................",
"................................................................",
"................................................................",
"................................................................",
"................................................................",
"................................................................",
"................................................................",
"................................................................",
"................................................................",
"................................................................",
"................................................................",
"................................................................",
"................................................................",
"................................................................",
"................................................................",
"................................................................",
"................................................................",
"................................................................",
".............................######.............................",
".............................######.............................",
".........................####aaaaaa####..bbcc...................",
".........................####aaaaaa####..bbcc...................",
".......................##aaddddeeeeeeccccbb.....................",
".......................##aaddddeeeeeeccccbb.....................",
".....................##aaccccddddccccbbcc##.....................",
".....................##aaccccddddccccbbcc##.....................",
"...................####ddccccccccffbbcc######...................",
"...................####ddccccccccffbbcc######...................",
"...................##aaddccccbbffbbcc##aa####...................",
"...................##aaddccccbbffbbcc##aa####...................",
".................####eeccbbffffffcc##aaaaaa####.................",
".................####eeccbbffffffcc##aaaaaa####.................",
".................####ee##ccffffffbbcc##aaaa####.................",
".................####ee##ccffffffbbcc##aaaa####.................",
".................####aaee##ccffffffbbcc##aa####.................",
".................####aaee##ccffffffbbcc##aa####.................",
"...................##aaeeee##ccffffffbbccaa##...................",
"...................##aaeeee##ccffffffbbccaa##...................",
"...................####aa##ccbbffbbcccc######...................",
"...................####aa##ccbbffbbcccc######...................",
".....................####ccbbffcccc####aa##.....................",
".....................####ccbbffcccc####aa##.....................",
".......................ccbbcccc####aaaa##.......................",
".......................ccbbcccc####aaaa##.......................",
".....................bbcccc####aaaa####.........................",
".....................bbcccc####aaaa####.........................",
"...................ccbb......######.............................",
"...................ccbb......######.............................",
"................................................................",
"................................................................",
"................................................................",
"................................................................",
"................................................................",
"................................................................",
"................................................................",
"................................................................",
"................................................................",
"................................................................"};
